<?xml version="1.0" standalone="no"?>
<!DOCTYPE svg PUBLIC "-//W3C//DTD SVG 1.1//EN" "http://www.w3.org/Graphics/SVG/1.1/DTD/svg11.dtd">
<svg xmlns="http://www.w3.org/2000/svg"><metadata>This SVG WebFont was generated by YouWorkForThem.
Copyright 2010 URW++ Design &amp; Development</metadata><defs><font horiz-adv-x="1024" id="ywftsvg"><font-face ascent="1366" bbox="-287 -512 2013 1890" cap-height="1366" descent="-682" font-family="" font-stretch="normal" font-weight="700" panose-1="0 0 8 0 0 0 0 0 0 0" underline-position="0" underline-thickness="0" unicode-range="U+0020-FB04" units-per-em="2048" x-height="989"/><missing-glyph horiz-adv-x="512"/><glyph d="M526 1171q-52 0 -77 -22.5t-25 -81.5v-78h352v51q0 96 14.5 149.5t53.5 92.5q86 90 270 90q20 0 143 -6v-201q-57 6 -111 6t-78 -20.5t-24 -83.5v-78h197v-182h-194v-807h-271v807h-348v-807h-270v807h-162v182h162v51q0 96 14 149.5t53 92.5q82 90 271 90q20 0 141 -6 v-201q-59 6 -111 6z" glyph-name="uniFB00" horiz-adv-x="1277" unicode="ff"/><glyph d="M526 1171q-52 0 -77 -22.5t-25 -81.5v-78h197v-182h-193v-807h-270v807h-162v182h162v51q0 96 14 149.5t53 92.5q82 90 271 90q20 0 141 -6v-201q-59 6 -111 6zM1047 1366v-231h-271v231h271zM1047 989v-989h-271v989h271z" glyph-name="uniFB01" horiz-adv-x="1167" unicode="fi"/><glyph d="M526 1171q-52 0 -77 -22.5t-25 -81.5v-78h197v-182h-193v-807h-270v807h-162v182h162v51q0 96 14 149.5t53 92.5q82 90 271 90q20 0 141 -6v-201q-59 6 -111 6zM1047 1366v-1366h-271v1366h271z" glyph-name="uniFB02" horiz-adv-x="1167" unicode="fl"/><glyph d="M526 1171q-52 0 -77 -22.5t-25 -81.5v-78h352v51q0 96 14.5 149.5t53.5 92.5q86 90 270 90q20 0 143 -6v-201q-57 6 -111 6t-78 -20.5t-24 -83.5v-78h197v-182h-194v-807h-271v807h-348v-807h-270v807h-162v182h162v51q0 96 14 149.5t53 92.5q82 90 271 90q20 0 141 -6 v-201q-59 6 -111 6zM1667 1366v-231h-270v231h270zM1667 989v-989h-270v989h270z" glyph-name="uniFB03" horiz-adv-x="1787" unicode="ffi"/><glyph d="M526 1171q-52 0 -77 -22.5t-25 -81.5v-78h352v51q0 96 14.5 149.5t53.5 92.5q86 90 270 90q20 0 143 -6v-201q-57 6 -111 6t-78 -20.5t-24 -83.5v-78h197v-182h-194v-807h-271v807h-348v-807h-270v807h-162v182h162v51q0 96 14 149.5t53 92.5q82 90 271 90q20 0 141 -6 v-201q-59 6 -111 6zM1667 1366v-1366h-270v1366h270z" glyph-name="uniFB04" horiz-adv-x="1787" unicode="ffl"/><glyph glyph-name=".notdef" horiz-adv-x="512"/><glyph glyph-name="glyph1" horiz-adv-x="0"/><glyph glyph-name="glyph2" horiz-adv-x="681"/><glyph glyph-name="space" horiz-adv-x="512" unicode=" "/><glyph d="M492 1366v-365l-76 -585h-137l-74 581v369h287zM496 293v-293h-297v293h297z" glyph-name="exclam" horiz-adv-x="651" unicode="!"/><glyph d="M643 817h-141l-49 549h239zM272 817h-141l-49 549h240z" glyph-name="quotedbl" horiz-adv-x="774" unicode="&quot;"/><glyph d="M791 428l-48 -346h-172l50 346h-181l-49 -346h-170l49 346h-213l23 166h213l24 170h-213l23 166h213l45 317h170l-43 -317h180l43 317h172l-45 -317h228l-23 -166h-229l-23 -170h229l-24 -166h-229zM668 764h-181l-22 -170h180z" glyph-name="numbersign" horiz-adv-x="1146" unicode="#"/><glyph d="M1090 401q0 -252 -226 -368q-90 -47 -235 -53v-191h-113v191q-213 6 -338 126.5t-127 323.5h264q0 -223 201 -244v396q-195 55 -258 94q-174 100 -174 295q0 115 59.5 204t151.5 129t221 50v168h113v-168q201 -10 309.5 -112.5t105.5 -278.5h-251q-4 172 -164 190v-348 l33 -9l40 -10q211 -55 299.5 -142t88.5 -243zM338 993q0 -66 39 -101.5t139 -60.5v326q-178 -18 -178 -164zM629 553v-367q197 25 196 183q0 84 -53 125q-35 29 -137 57z" glyph-name="dollar" horiz-adv-x="1146" unicode="$"/><glyph d="M1305 1380l-754 -1431h-170l756 1431h168zM1327 719q154 0 236 -94.5t82 -274.5t-83 -278.5t-239 -98.5t-237.5 94.5t-81.5 274.5t84.5 278.5t238.5 98.5zM1324 582q-64 0 -95 -57.5t-31 -180.5t29.5 -177t95.5 -54q125 0 125 237q0 121 -30 176.5t-94 55.5zM392 1356 q155 0 236 -94.5t81 -274.5t-82 -279.5t-238 -99.5t-238.5 97.5t-82.5 277.5t84.5 276.5t239.5 96.5zM391 1217q-68 0 -98.5 -58.5t-30.5 -181.5t28.5 -177.5t95.5 -54.5t97.5 58.5t30.5 189.5q0 224 -123 224z" glyph-name="percent" horiz-adv-x="1714" unicode="%"/><glyph d="M532 -29q-211 0 -335.5 113t-124.5 291q0 127 82 233.5t227 171.5q-129 150 -129 286t103 227t261 91t258.5 -92t100.5 -233q0 -221 -238 -344l176 -215q38 57 50 159h235q-20 -201 -131 -335l276 -324h-329l-113 135q-158 -164 -369 -164zM620 1192q-54 0 -91 -34 t-37 -85q-1 -78 112 -199q143 88 144 191q0 55 -37 91t-91 36zM336 383q0 -78 56.5 -131t137.5 -53q122 -1 226 118l-236 285q-184 -92 -184 -219z" glyph-name="ampersand" horiz-adv-x="1357" unicode="&amp;"/><glyph d="M272 817h-141l-49 549h240z" glyph-name="quotesingle" horiz-adv-x="403" unicode="'"/><glyph d="M338 524q0 -246 46 -439t159 -417q2 -10 8 -18h-227q-14 20 -82 147q-170 313 -170 741t254 828h227q-215 -391 -215 -842z" glyph-name="parenleft" horiz-adv-x="641" unicode="("/><glyph d="M301 492q0 246 -38 406t-66.5 234t-98.5 216l-8 18h225q14 -20 82 -147q170 -313 170 -741t-254 -828h-227q215 389 215 842z" glyph-name="parenright" horiz-adv-x="641" unicode=")"/><glyph d="M922 1063l-226 -74l140 -188l-125 -94l-142 198l-135 -198l-129 94l144 188l-224 74l49 149l222 -84l-2 238h159l-6 -238l219 84z" glyph-name="asterisk" horiz-adv-x="1146" unicode="*"/><glyph d="M102 578v182h379v381h183v-381h380v-182h-380v-379h-183v379h-379z" glyph-name="plus" horiz-adv-x="1146" unicode="+"/><glyph d="M438 299v-236q0 -195 -94 -281t-211 -101v137q63 14 99 62t38 120h-137v299h305z" glyph-name="comma" horiz-adv-x="569" unicode=","/><glyph d="M518 631v-244h-518v244h518z" glyph-name="hyphen" horiz-adv-x="518" unicode="-"/><glyph d="M438 303v-303h-309v303h309z" glyph-name="period" horiz-adv-x="569" unicode="."/><glyph d="M815 1366l-633 -1716h-248l635 1716h246z" glyph-name="slash" horiz-adv-x="880" unicode="/"/><glyph d="M578 1354q123 0 226 -58.5t159 -160.5q102 -183 102 -487t-129.5 -486t-361.5 -182t-363 180t-131 505t131 507t367 182zM571 1133q-117 0 -170 -113t-53 -369q0 -451 225 -450q223 0 224 467q0 238 -54.5 351.5t-171.5 113.5z" glyph-name="zero" horiz-adv-x="1146" unicode="0"/><glyph d="M805 1343v-1343h-273v879h-321v194q174 4 267 68.5t114 201.5h213z" glyph-name="one" horiz-adv-x="1146" unicode="1"/><glyph d="M1055 236v-236h-983q-2 106 35.5 207.5t109.5 177.5t379 283q98 68 137 124t39 138t-53 135t-137 53q-211 0 -220 -295h-260q-2 12 -2 29q0 231 133.5 366.5t347.5 135.5t341 -115t127 -305t-156 -324q-31 -29 -254 -178q-172 -119 -225 -205q139 8 229 9h412z" glyph-name="two" horiz-adv-x="1146" unicode="2"/><glyph d="M560 1354q204 0 328 -101.5t124 -263.5q0 -98 -51.5 -171t-137.5 -95q113 -27 176.5 -109t63.5 -200q0 -193 -139.5 -313.5t-367.5 -120.5t-358 128t-130 357h262q0 -121 59.5 -187.5t163.5 -66.5t165.5 55.5t61.5 150.5t-69 148q-55 47 -174 47q-43 0 -68 -4v195 q20 -2 45 -2q236 0 236 168q0 74 -51.5 119t-135.5 45q-197 -1 -203 -226h-260q8 207 132 327t328 120z" glyph-name="three" horiz-adv-x="1146" unicode="3"/><glyph d="M1079 535v-228h-172v-307h-266v307h-569v252l583 784h252v-808h172zM420 530h227v408q0 2 4 117q-66 -111 -121 -191l-112 -164l-131 -172q98 2 133 2z" glyph-name="four" horiz-adv-x="1146" unicode="4"/><glyph d="M983 1333v-235h-551l-29 -164q-16 -90 -28 -133q98 100 252 100q193 0 311.5 -120.5t118.5 -324.5t-142.5 -340t-362.5 -136t-351 111.5t-140 303.5h269q8 -88 68.5 -141t156.5 -53t160.5 70.5t64.5 183t-63 181.5t-179 69t-192 -113l-244 4l131 737h750z" glyph-name="five" horiz-adv-x="1146" unicode="5"/><glyph d="M608 1145q-217 0 -254 -369q0 -16 -2 -28q115 150 299.5 149.5t302 -124t117.5 -323.5t-134 -335t-339 -135q-242 0 -376 175t-134 497t140.5 512t383.5 190q180 0 295 -95.5t140 -265.5h-259q-37 152 -180 152zM590 694q-92 0 -152.5 -68.5t-60.5 -175.5t60.5 -178 t151.5 -71t152.5 69.5t61.5 176t-60.5 177t-152.5 70.5z" glyph-name="six" horiz-adv-x="1146" unicode="6"/><glyph d="M1032 1333v-227q-15 -15 -67 -74q-178 -217 -267.5 -461.5t-107.5 -570.5h-283q2 250 139.5 578.5t313.5 511.5q-147 -4 -189 -5h-454v248h915z" glyph-name="seven" horiz-adv-x="1146" unicode="7"/><glyph d="M574 1354q196 0 323 -100.5t127 -256.5q0 -213 -197 -282q250 -72 250 -318q0 -186 -138.5 -301.5t-366.5 -115.5t-366 111.5t-138 295.5q0 125 66 212t185 116q-197 68 -196 278q0 156 127.5 258.5t323.5 102.5zM574 1151q-93 0 -148 -47t-55 -128t55 -130t148 -49 t147.5 49t54.5 130t-54.5 128t-147.5 47zM571.5 616q-102.5 0 -167 -59t-64.5 -155t64.5 -156t167.5 -60t168 59.5t65 154.5t-65.5 155.5t-168 60.5z" glyph-name="eight" horiz-adv-x="1146" unicode="8"/><glyph d="M541 186q111 0 171 97.5t79 306.5q-61 -84 -128 -120t-161 -36q-186 0 -306 125t-120 324t138 335t345 136q240 0 381 -193q119 -167 119 -479t-140.5 -507t-375.5 -195q-184 0 -304.5 97t-140.5 263h258q35 -154 185 -154zM556 1133q-91 0 -151.5 -70t-60.5 -177 t60.5 -177t151.5 -70t151.5 68.5t60.5 175t-60.5 178.5t-151.5 72z" glyph-name="nine" horiz-adv-x="1146" unicode="9"/><glyph d="M473 989v-303h-309v303h309zM473 303v-303h-309v303h309z" glyph-name="colon" horiz-adv-x="604" unicode=":"/><glyph d="M475 299v-236q0 -195 -94 -281t-211 -101v137q63 14 99 62t38 120h-137v299h305zM473 989v-303h-309v303h309z" glyph-name="semicolon" horiz-adv-x="604" unicode=";"/><glyph d="M954 1276v-293l-575 -293l575 -295v-291l-886 463v246z" glyph-name="less" unicode="&lt;"/><glyph d="M102 750v178h942v-178h-942zM102 412v178h942v-178h-942z" glyph-name="equal" horiz-adv-x="1146" unicode="="/><glyph d="M70 104v293l575 293l-575 295v291l886 -463v-246z" glyph-name="greater" unicode=">"/><glyph d="M567 1399q213 0 338 -108.5t125 -284.5q0 -115 -53 -191t-209 -184q-90 -68 -90 -215h-254v14q2 158 35 223t130 143t121.5 117t24.5 103t-45 105.5t-119 41.5q-192 1 -200 -235h-279q10 227 136 349t339 122zM696 293v-293h-297v293h297z" glyph-name="question" horiz-adv-x="1103" unicode="?"/><glyph d="M768 -33q-280 0 -488 209t-208 508t208.5 507t493.5 208t474.5 -174t189.5 -418t-189 -393q-135 -102 -274 -103q-49 0 -93 20.5t-63 53.5q-109 -78 -213 -78t-177 80t-73 205q0 176 126 319.5t282 143.5q92 0 182 -78l17 45h204l-163 -500l-13 -37q-6 -16 -6 -26 q0 -25 41 -25q96 0 180 115t84 246q0 193 -146.5 327.5t-368.5 134.5t-385 -164.5t-163 -406.5t164 -407.5t402 -165.5q141 0 268 71.5t203 196.5h166q-63 -141 -173 -234q-209 -180 -489 -180zM804 924q-36 0 -82 -41t-79 -107q-68 -135 -68 -241q0 -47 19.5 -76t52.5 -29 q102 0 170 188l43 127q38 109 9 144t-65 35z" glyph-name="at" horiz-adv-x="1509" unicode="@"/><glyph d="M827 1368l521 -1368h-314l-108 305h-508l-111 -305h-307l520 1368h307zM852 524l-88 246q-57 162 -90 297q-31 -106 -96 -297l-89 -246h363z" glyph-name="A" horiz-adv-x="1345" unicode="A"/><glyph d="M131 1366h614q195 0 285 -46t138.5 -125t48.5 -173q0 -193 -185 -281q78 -27 117 -55q133 -96 133 -283q0 -227 -188 -340q-115 -63 -293 -63h-670v1366zM428 1130v-317h272q223 0 224 160q0 84 -52.5 120.5t-171.5 36.5h-272zM428 610v-374h301q131 0 182 36 q70 47 70 159t-94 155q-49 25 -172 24h-287z" glyph-name="B" horiz-adv-x="1355" unicode="B"/><glyph d="M712 -33q-280 0 -460 196.5t-180 516.5t186 519.5t483 199.5q240 0 408 -139.5t184 -352.5h-295q-23 115 -102.5 178.5t-200.5 63.5q-166 0 -264 -127t-98 -341t97 -340t263 -126q133 0 213 78.5t98 232.5h299q-20 -256 -185.5 -407.5t-445.5 -151.5z" glyph-name="C" horiz-adv-x="1396" unicode="C"/><glyph d="M131 1366h551q295 0 457 -147q205 -187 205 -529t-193 -532q-86 -86 -191.5 -122t-271.5 -36h-557v1366zM428 1114v-862h229q106 0 169 20.5t108 71.5q108 119 108 337q-1 433 -395 433h-219z" glyph-name="D" horiz-adv-x="1419" unicode="D"/><glyph d="M1155 1366v-252h-727v-293h668v-235h-668v-334h741v-252h-1038v1366h1024z" glyph-name="E" horiz-adv-x="1251" unicode="E"/><glyph d="M1092 1366v-252h-664v-317h578v-236h-578v-561h-297v1366h961z" glyph-name="F" horiz-adv-x="1132" unicode="F"/><glyph d="M1343 735v-735h-190l-31 156q-152 -188 -407 -189q-287 0 -465 196.5t-178 512.5t187 519.5t482 203.5q236 0 399 -135.5t185 -348.5h-289q-20 111 -99 172.5t-198 61.5q-172 0 -269 -125t-97 -347t98 -345t277 -123q141 0 231 85t94 222h-303v219h573z" glyph-name="G" horiz-adv-x="1458" unicode="G"/><glyph d="M1286 1366v-1366h-297v594h-559v-594h-297v1366h297v-520h559v520h297z" glyph-name="H" horiz-adv-x="1419" unicode="H"/><glyph d="M430 1366v-1366h-297v1366h297z" glyph-name="I" horiz-adv-x="563" unicode="I"/><glyph d="M920 1366v-920q0 -121 -18.5 -192.5t-63.5 -130.5q-119 -156 -365 -156q-293 0 -401 197q-55 102 -56 291v55h277v-39q0 -137 22 -184q39 -78 139 -78t134.5 50t34.5 177v930h297z" glyph-name="J" horiz-adv-x="1032" unicode="J"/><glyph d="M428 0h-297v1366h297v-408q0 -35 -2 -172q72 88 115 134l422 446h378l-536 -541l586 -825h-377l-414 612l-172 -172v-440z" glyph-name="K" horiz-adv-x="1366" unicode="K"/><glyph d="M1098 252v-252h-965v1366h297v-1114h668z" glyph-name="L" horiz-adv-x="1148" unicode="L"/><glyph d="M1606 1366v-1366h-283v410q0 293 18 692q-61 -244 -139 -479l-213 -623h-235l-219 610q-88 266 -140 486q18 -389 19 -656v-440h-283v1366h424l205 -594q72 -217 112 -432q35 182 119 436l195 590h420z" glyph-name="M" horiz-adv-x="1740" unicode="M"/><glyph d="M1286 1366v-1366h-299l-407 659q-127 209 -172 306q12 -137 12 -383v-582h-287v1366h303l398 -645q139 -231 178 -315q-12 201 -13 391v569h287z" glyph-name="N" horiz-adv-x="1419" unicode="N"/><glyph d="M747 1399q302 0 486 -200t184 -518t-185 -516t-486 -198t-487.5 196.5t-186.5 520.5t186.5 519.5t488.5 195.5zM747 1151q-171 0 -272.5 -125t-101.5 -342t101.5 -343t273.5 -126t270 128t98 342t-99 340t-270 126z" glyph-name="O" horiz-adv-x="1488" unicode="O"/><glyph d="M131 1366h549q139 0 219 -17.5t145 -60.5q178 -119 178 -346t-147 -352q-119 -98 -340 -98h-307v-492h-297v1366zM428 1114v-387h266q121 0 170 43q66 52 66 154t-76 153q-51 37 -176 37h-250z" glyph-name="P" horiz-adv-x="1280" unicode="P"/><glyph d="M735 -33q-297 0 -480 197.5t-183 515.5t189.5 518.5t485.5 200.5t482 -198.5t186 -520.5t-184 -502l176 -160l-139 -151l-203 182q-133 -82 -330 -82zM1114 698q0 202 -100.5 327.5t-270.5 125.5t-270 -127t-100 -340t101 -341t269 -128q72 0 127 23l-137 118l141 150 l148 -135q92 125 92 327z" glyph-name="Q" horiz-adv-x="1480" unicode="Q"/><glyph d="M131 1366h660q199 0 301 -61q178 -104 178 -326q0 -119 -57.5 -207t-159.5 -127q115 -35 157.5 -126t57.5 -326q10 -131 41 -177l12 -16h-311q-25 45 -35 184.5t-21.5 191.5t-44.5 93q-53 68 -213 68h-268v-537h-297v1366zM428 1130v-374h285q139 0 192 39q72 49 72 147 t-60.5 143t-191.5 45h-297z" glyph-name="R" horiz-adv-x="1411" unicode="R"/><glyph d="M373 1014q0 -70 55 -103q56 -29 280 -83t318 -117q166 -106 166 -306t-151 -319t-421 -119t-423.5 127t-159.5 363h297q6 -113 59 -170q82 -88 248 -88q115 0 182.5 49t67.5 134t-105 126q-52 20 -282 85t-314 136q-104 94 -104 270t143.5 288t382.5 112q311 0 447 -182 q74 -100 80 -256h-285q-16 207 -258 206q-106 0 -164.5 -41.5t-58.5 -111.5z" glyph-name="S" horiz-adv-x="1255" unicode="S"/><glyph d="M1157 1366v-252h-416v-1114h-297v1114h-411v252h1124z" glyph-name="T" horiz-adv-x="1189" unicode="T"/><glyph d="M1278 1366v-807q0 -154 -23.5 -244t-83.5 -165q-143 -182 -486 -182t-486 206q-49 70 -68.5 156t-19.5 233v803h297v-823q0 -156 45 -224q73 -104 237 -104t227.5 75t63.5 253v823h297z" glyph-name="U" horiz-adv-x="1392" unicode="U"/><glyph d="M1241 1366l-455 -1366h-340l-446 1366h311l178 -553q104 -352 132 -528q31 186 133 528l176 553h311z" glyph-name="V" horiz-adv-x="1239" unicode="V"/><glyph d="M1804 1366l-370 -1366h-297l-150 586q-45 203 -86 454q-31 -231 -86 -448l-143 -592h-303l-365 1366h299l135 -573q74 -317 86 -500q16 180 92 498l148 575h283l143 -563q74 -348 92 -510q18 190 92 522l133 551h297z" glyph-name="W" horiz-adv-x="1806" unicode="W"/><glyph d="M1247 1366l-438 -651l479 -715h-358l-203 324q-57 86 -94 172q-20 -43 -101 -174l-204 -322h-342l481 715l-444 651h350l166 -268q82 -143 104 -193q35 76 100 182l175 279h329z" glyph-name="X" horiz-adv-x="1271" unicode="X"/><glyph d="M768 0h-297v530l-510 836h340l213 -365q74 -133 109 -223q66 152 114 238l207 350h332l-508 -840v-526z" glyph-name="Y" horiz-adv-x="1241" unicode="Y"/><glyph d="M1176 1366v-227l-611 -731q-12 -16 -151 -164q190 8 274 8h512v-252h-1155v238l629 751q41 45 125 131q-176 -6 -248 -6h-455v252h1080z" glyph-name="Z" horiz-adv-x="1247" unicode="Z"/><glyph d="M578 1366v-197h-244v-1323h244v-196h-496v1716h496z" glyph-name="bracketleft" horiz-adv-x="641" unicode="["/><glyph d="M66 1366h245l635 -1716h-248z" glyph-name="backslash" horiz-adv-x="880" unicode="\"/><glyph d="M61 -350v196h244v1323h-244v197h496v-1716h-496z" glyph-name="bracketright" horiz-adv-x="641" unicode="]"/><glyph d="M295 721h-260l315 651h326l315 -651h-262l-217 453z" glyph-name="asciicircum" unicode="^"/><glyph d="M0 -119h1024v-176h-1024v176z" glyph-name="underscore" unicode="_"/><glyph d="M201 1415h286l172 -274h-182z" glyph-name="grave" unicode="`"/><glyph d="M397 -27q-162 0 -254 80t-92 219q0 186 172 258q63 28 241 52t218.5 43.5t40.5 79.5q0 129 -178 129q-94 0 -137 -33t-58 -115h-256q25 330 457 330q233 0 350 -94q51 -41 68.5 -92.5t17.5 -182.5t-4 -307v-74q0 -180 35 -266h-277q-16 51 -16 96q-127 -123 -328 -123z M721 371v112q-55 -35 -179 -51t-168 -49t-44 -98t40 -100t111 -35q119 0 195 81q45 52 45 140z" glyph-name="a" horiz-adv-x="1067" unicode="a"/><glyph d="M389 1366v-498q111 150 306 150t312 -141t117 -375t-121.5 -381.5t-324.5 -147.5t-301 152v-125h-258v1366h270zM614 805q-110 0 -172.5 -81t-62.5 -223t64.5 -224t172.5 -82t172 83.5t64 221.5t-64 221.5t-174 83.5z" glyph-name="b" horiz-adv-x="1191" unicode="b"/><glyph d="M550 -27q-214 0 -351.5 140.5t-137.5 376.5t138.5 381t353.5 145t340 -100.5t141 -272.5h-266q-16 80 -67.5 124t-129.5 44q-113 0 -175 -84.5t-62 -234.5t60.5 -232t170.5 -82q180 0 211 201h264q-27 -193 -151.5 -299.5t-338.5 -106.5z" glyph-name="c" horiz-adv-x="1087" unicode="c"/><glyph d="M1071 1366v-1366h-258v127q-96 -154 -300 -154t-325.5 142.5t-121.5 381.5t118.5 380t318.5 141t298 -150v498h270zM573 807q-111 0 -173 -80t-62 -224t62 -226t174 -82t174.5 80.5t62.5 224t-63.5 225.5t-174.5 82z" glyph-name="d" horiz-adv-x="1191" unicode="d"/><glyph d="M567 -27q-227 0 -366.5 142.5t-139.5 372.5t141.5 379t359.5 149t352.5 -150.5t134.5 -400.5v-41h-711q10 -256 231 -256q146 0 203 139h260q-41 -152 -166 -243t-299 -91zM559 821q-90 0 -150.5 -60.5t-70.5 -162.5h434q-12 109 -67.5 166t-145.5 57z" glyph-name="e" horiz-adv-x="1105" unicode="e"/><glyph d="M526 1171q-52 0 -77 -22.5t-25 -81.5v-78h197v-182h-193v-807h-270v807h-162v182h162v51q0 96 14 149.5t53 92.5q82 90 271 90q20 0 141 -6v-201q-59 6 -111 6z" glyph-name="f" horiz-adv-x="657" unicode="f"/><glyph d="M1049 989v-866q0 -211 -66 -311q-119 -180 -424 -181q-424 0 -463 310h273q29 -127 196 -127q119 0 170 59t51 197v112q-102 -152 -299 -152t-310.5 131.5t-113.5 355.5t119 361.5t314 137.5q102 0 169.5 -36t125.5 -122v131h258zM562 805q-106 0 -166 -75t-60 -209 t59.5 -212t164.5 -78t166.5 79t61.5 210t-60 208t-166 77z" glyph-name="g" horiz-adv-x="1171" unicode="g"/><glyph d="M389 1366v-391q0 -10 -2 -121q66 86 138.5 124t174.5 38q205 0 293 -139q51 -82 51 -248v-629h-270v582q0 111 -31 151q-49 61 -143 62q-129 0 -182 -109q-29 -57 -29 -203v-483h-270v1366h270z" glyph-name="h" horiz-adv-x="1157" unicode="h"/><glyph d="M389 1366v-231h-270v231h270zM389 989v-989h-270v989h270z" glyph-name="i" horiz-adv-x="509" unicode="i"/><glyph d="M387 989v-989l2 -76q0 -188 -141 -252q-93 -43 -297 -26v219q25 -2 51 -2q90 0 104 49q10 33 11 170v907h270zM387 1366v-231h-270v231h270z" glyph-name="j" horiz-adv-x="509" unicode="j"/><glyph d="M389 0h-270v1366h270v-592q0 -37 -2 -156q49 63 70 84l280 287h322l-373 -366l416 -623h-330l-272 440l-111 -104v-336z" glyph-name="k" horiz-adv-x="1093" unicode="k"/><glyph d="M389 1366v-1366h-270v1366h270z" glyph-name="l" horiz-adv-x="509" unicode="l"/><glyph d="M377 989v-135q121 162 317 162t275 -164q123 164 325 164q160 0 247 -91t87 -259v-666h-270v590q0 96 -21 135q-39 70 -149 70t-160 -99q-20 -49 -20 -159v-537h-271v602q0 88 -20 127q-37 66 -131 66q-123 0 -174 -105q-23 -51 -23 -153v-537h-270v989h258z" glyph-name="m" horiz-adv-x="1740" unicode="m"/><glyph d="M377 989v-137q123 164 326 164t288 -135q53 -86 53 -258v-623h-270v567q0 98 -16 142q-33 86 -161 86t-181 -109q-27 -59 -27 -174v-512h-270v989h258z" glyph-name="n" horiz-adv-x="1157" unicode="n"/><glyph d="M578 1016q230 0 368.5 -144t138.5 -378t-139 -377.5t-370.5 -143.5t-373 143.5t-141.5 378.5t143.5 378t373.5 143zM573 815q-113 0 -176 -85.5t-63 -235.5t63 -235t177 -85t176.5 85t62.5 236t-63.5 235.5t-176.5 84.5z" glyph-name="o" horiz-adv-x="1146" unicode="o"/><glyph d="M377 989v-123q104 150 305 150t321.5 -144t120.5 -380t-117.5 -377.5t-312 -141.5t-305.5 150v-473h-270v1339h258zM615 795q-112 0 -174 -80.5t-62 -224.5t63.5 -225t173.5 -81t173 81t63 222t-62.5 224.5t-174.5 83.5z" glyph-name="p" horiz-adv-x="1191" unicode="p"/><glyph d="M1071 989v-1339h-270v475q-111 -152 -307 -152t-312 140.5t-116 378.5t120.5 381t324.5 143t302 -150v123h258zM573.5 795q-110.5 0 -173 -82.5t-62.5 -226.5t63 -223t173 -79t172.5 82t62.5 226t-62.5 223.5t-173 79.5z" glyph-name="q" horiz-adv-x="1191" unicode="q"/><glyph d="M651 766q-150 0 -221 -123q-41 -66 -41 -229v-414h-270v989h258v-182q106 203 319 203q33 0 62 -4v-250q-61 10 -107 10z" glyph-name="r" horiz-adv-x="757" unicode="r"/><glyph d="M477 834q-152 0 -151 -97q0 -49 44 -71.5t229 -60.5t271 -105.5t86 -207.5t-122.5 -229.5t-335.5 -89.5q-442 0 -465 349h260q10 -86 59.5 -126t141.5 -40t141 33t49 87t-42 78.5t-220 64.5t-248 79q-121 68 -121 214t113 225t317 79q252 0 365 -125q60 -68 70 -189h-254 q-10 70 -53.5 101t-133.5 31z" glyph-name="s" horiz-adv-x="1015" unicode="s"/><glyph d="M621 989v-182h-201v-467q0 -92 22 -117.5t76 -25.5t103 6v-207q-84 -10 -166 -10q-199 0 -262 94q-27 39 -35 90t-8 180v457h-166v182h166v299h270v-299h201z" glyph-name="t" horiz-adv-x="661" unicode="t"/><glyph d="M1038 989v-989h-258v139q-117 -166 -313 -166t-291 119q-66 82 -65 270v627h270v-547q0 -141 27 -182q43 -66 145 -65q129 0 186 110q29 55 29 193v491h270z" glyph-name="u" horiz-adv-x="1159" unicode="u"/><glyph d="M973 989l-336 -989h-305l-342 989h284l127 -395q66 -221 86 -346q25 135 88 340l125 401h273z" glyph-name="v" horiz-adv-x="962" unicode="v"/><glyph d="M1532 989l-313 -989h-281l-115 432q-31 121 -61 301q-27 -162 -62 -301l-108 -432h-283l-315 989h287l104 -375q35 -127 82 -364q35 217 76 375l90 364h264l104 -407q39 -158 66 -330q37 199 70 323l114 414h281z" glyph-name="w" horiz-adv-x="1527" unicode="w"/><glyph d="M971 989l-326 -461l367 -528h-314l-143 215q-12 18 -63 121q-47 -86 -70 -123l-139 -213h-308l361 522l-330 467h313l105 -158q12 -16 70 -120q41 74 75 127l99 151h303z" glyph-name="x" horiz-adv-x="989" unicode="x"/><glyph d="M197 -127q153 -1 153 107q0 50 -8 79l-352 930h293l163 -485q25 -74 62 -230q47 180 67 242l154 473h281l-363 -985q-57 -152 -92 -211t-90 -98q-90 -57 -242 -49l-26 2l-111 2v223h111z" glyph-name="y" horiz-adv-x="1001" unicode="y"/><glyph d="M924 989v-198l-406 -459q-39 -45 -127 -127q106 6 137 6h430v-211h-911v205l395 444q33 35 140 133q-45 -4 -101 -4h-395v211h838z" glyph-name="z" horiz-adv-x="978" unicode="z"/><glyph d="M442 932v-178q0 -100 -24.5 -152.5t-93.5 -93.5q68 -41 93 -95.5t25 -154.5v-184q0 -150 43 -193q31 -35 129 -35h27v-196h-10q-201 2 -252 10t-98 43q-90 70 -91 244v264q0 86 -26.5 129t-87.5 57v234q115 29 114 172v278q0 168 93 234q45 33 95 40t253 11h10v-197h-27 q-98 0 -135 -45t-37 -192z" glyph-name="braceleft" horiz-adv-x="858" unicode="{"/><glyph d="M365 1366h294v-1708h-294v1708z" glyph-name="bar" unicode="|"/><glyph d="M416 84v178q0 100 24.5 152.5t94.5 93.5q-68 41 -93.5 95t-25.5 155v184q0 150 -43 193q-31 35 -129 34h-27v197h10q201 -2 252 -10t99 -43q90 -70 90 -244v-264q0 -86 26.5 -129t87.5 -58v-233q-115 -29 -114 -172v-279q0 -168 -93 -233q-45 -33 -95 -40t-253 -11h-10 v196h27q98 0 135 43q37 48 37 195z" glyph-name="braceright" horiz-adv-x="858" unicode="}"/><glyph d="M885 1407q82 0 151 129l144 -121q-61 -145 -134 -207.5t-186 -62.5q-41 0 -79 12t-148 62q-109 45 -152 45q-77 0 -147 -127l-144 118q111 274 304 275q70 0 212 -62t179 -61z" glyph-name="asciitilde" horiz-adv-x="1366" unicode="~"/><glyph glyph-name="uni00A0" horiz-adv-x="512" unicode=" "/><glyph d="M164 -375v365l76 585h137l74 -581v-369h-287zM158 696v293h297v-293h-297z" glyph-name="exclamdown" horiz-adv-x="651" unicode="¡"/><glyph d="M651 -33h-112v201q-178 12 -291 115q-158 147 -158 385t122 380t327 156v166h112v-166q176 0 295 -104.5t129 -268.5h-260q-8 74 -52 121t-112 54v-631q72 4 118 59.5t52 143.5h258q-16 -180 -135 -294t-293 -116v-201zM359 684q0 -270 180 -309v629q-180 -50 -180 -320z " glyph-name="cent" horiz-adv-x="1146" unicode="¢"/><glyph d="M100 150q209 148 209 294q0 70 -33 150h-188v158h123q-70 117 -70 239q0 164 128 263.5t346 99.5t344 -112.5t128 -321.5h-266q-6 207 -209 206q-78 0 -128 -43t-50 -105t31 -132t39 -94h256v-158h-203q45 -143 -3 -223t-138 -158q94 41 158 41t149 -22q84 -22 121 -21 q106 0 176 80l117 -197q-113 -119 -308 -119q-84 0 -213 37q-128 37 -208 37t-189 -76z" glyph-name="sterling" horiz-adv-x="1146" unicode="£"/><glyph d="M115 776q0 172 98 318l-125 127l143 145l127 -127q150 102 325 102t321 -100l124 125l144 -145l-125 -121q104 -150 104 -324t-98 -319l123 -125l-141 -146l-125 125q-152 -106 -327 -106t-327 104l-125 -123l-141 146l123 123q-98 149 -98 321zM683 1108 q-138 0 -236.5 -97.5t-98.5 -236.5t98.5 -237.5t236.5 -98.5t235.5 98.5t97.5 236.5t-97.5 236.5t-235.5 98.5z" glyph-name="currency" horiz-adv-x="1366" unicode="¤"/><glyph d="M1055 801v-152h-283l-67 -133v-37h282v-151h-282v-328h-267v328h-280v151h280v41l-65 129h-283v152h209l-252 532h293l147 -332q47 -106 88 -243q35 121 95 258l141 317h287l-250 -532h207z" glyph-name="yen" horiz-adv-x="1146" unicode="¥"/><glyph d="M365 1366h294v-717h-294v717zM365 313h294v-655h-294v655z" glyph-name="brokenbar" unicode="¦"/><glyph d="M446 1052q0 -50 34 -82t218 -123t258 -151q119 -88 119 -225q0 -94 -52 -168t-142 -106q102 -91 102 -227t-112.5 -228t-300.5 -92t-299 99t-111 274h237q10 -88 52.5 -127t118.5 -39t116.5 33.5t40.5 91.5t-57.5 102.5t-269.5 145.5q-212 102 -270 182t-58 176t52 168.5 t146 101.5q-80 86 -80 191q0 139 112 228t286 89t281.5 -97t111.5 -259h-240q-10 156 -153 155q-63 0 -101.5 -31.5t-38.5 -81.5zM301 612q0 -51 53.5 -91t243.5 -136l70 -37q59 -33 73 -37q45 14 73 48t28 75t-22.5 67.5t-90.5 61.5q-170 103 -328 172q-100 -29 -100 -123z " glyph-name="section" horiz-adv-x="1146" unicode="§"/><glyph d="M840 1391v-224h-256v224h256zM436 1391v-224h-254v224h254z" glyph-name="dieresis" unicode="¨"/><glyph d="M801 283q-172 0 -280.5 114.5t-108.5 293.5t107.5 291t277.5 112q281 0 340 -275h-170q-31 137 -168 137q-100 0 -160.5 -71.5t-60.5 -189.5t63.5 -196.5t145.5 -78.5t126 39.5t52 105.5h170q-14 -129 -105.5 -205.5t-228.5 -76.5zM796 1399q298 0 505.5 -210t207.5 -507 t-211.5 -506t-505.5 -209t-503 210t-209 507t209 506t507 209zM797 1264q-240 0 -408 -169t-168 -410t167.5 -412t403.5 -171t406 170t170 411t-165.5 411t-405.5 170z" glyph-name="copyright" horiz-adv-x="1591" unicode="©"/><glyph d="M694 586h-622v116h622v-116zM309 805q-100 0 -152.5 44t-52.5 122q0 104 101 145q39 14 137 28t118.5 23t20.5 37q0 66 -94 66q-51 0 -74.5 -17.5t-29.5 -62.5h-156q16 190 264 190q133 0 199 -53q31 -23 41 -51.5t10 -89.5l-4 -217q-1 -97 22 -150h-165q-6 16 -13 45 q-72 -59 -172 -59zM479 1024v51q-29 -12 -95 -21t-90 -25.5t-24 -49.5q0 -68 80 -68q59 0 94 30t35 83z" glyph-name="ordfeminine" horiz-adv-x="763" unicode="ª"/><glyph d="M391 874v-233l-174 -137l174 -133v-228l-303 236v254zM766 872v-233l-170 -133l170 -133v-226l-299 236v252z" glyph-name="guillemotleft" horiz-adv-x="880" unicode="«"/><glyph d="M668 0v336h-600v258h886v-594h-286z" glyph-name="logicalnot" unicode="¬"/><glyph d="M518 631v-244h-518v244h518z" glyph-name="uni00AD" horiz-adv-x="518" unicode="­"/><glyph d="M504 1061h338q131 0 192 -45q80 -61 80 -175t-84 -175q41 -25 53.5 -61t17.5 -137q5 -102 10 -122t44 -47h-211q-24 55 -26 151t-17.5 118t-91.5 22h-127v-291h-178v762zM682 903v-164h131q72 0 97.5 17.5t25.5 65.5t-24.5 64.5t-98.5 16.5h-131zM796 1399 q298 0 505.5 -210t207.5 -507t-211.5 -506t-505.5 -209t-503 210t-209 506t209 506t507 210zM797 1264q-240 0 -408 -169t-168 -410t168 -412t405 -171t405.5 170t168.5 411t-165.5 411t-405.5 170z" glyph-name="registered" horiz-adv-x="1591" unicode="®"/><glyph d="M823 1346v-144h-624v144h624z" glyph-name="macron" unicode="¯"/><glyph d="M409 1378q136 0 230 -96t94 -231t-95 -230.5t-230 -95.5t-230.5 95.5t-95.5 231.5t95.5 231t231.5 95zM408 1253q-80 0 -138.5 -60t-58.5 -143t57.5 -141.5t137.5 -58.5t139 59.5t59 141.5t-58 142t-138 60z" glyph-name="degree" horiz-adv-x="815" unicode="°"/><glyph d="M102 578v182h379v381h183v-381h380v-182h-380v-353h-183v353h-379zM102 -27v183h942v-183h-942z" glyph-name="plusminus" horiz-adv-x="1146" unicode="±"/><glyph d="M698 698v-153h-643q8 137 65.5 206.5t272.5 200.5q63 41 87 72t24 77t-32 75.5t-83 29.5q-131 0 -133 -174h-180q-2 10 -2 23q0 139 87 222t227 83t223 -69.5t83 -184.5t-102 -199q-18 -17 -142 -93t-155 -120q59 4 133 4h270z" glyph-name="uni00B2" horiz-adv-x="768" unicode="²"/><glyph d="M377 1360q135 0 216 -62t81 -166t-103 -153q133 -47 133 -173t-91 -200t-237 -74t-234.5 77t-88.5 210v15h183q-2 -72 33 -111t101 -39t103 30.5t37 82.5q0 111 -150 110q-29 0 -49 -4v129h37q143 0 144 94q0 41 -31 66t-82 25q-119 -1 -125 -136h-178q2 131 84 205 t217 74z" glyph-name="uni00B3" horiz-adv-x="768" unicode="³"/><glyph d="M823 1415l-276 -274h-182l172 274h286z" glyph-name="acute" unicode="´"/><glyph d="M68 -348v1331h249v-518q0 -133 39 -191q61 -86 153.5 -86t145 76t52.5 209v510h249v-983h-249v143q-63 -164 -201 -163q-119 0 -189 126v-454h-249z" glyph-name="uni00B5" unicode="µ"/><glyph d="M463 -350v1007q-12 -2 -27 -2q-164 0 -266 97.5t-102 255.5q0 215 170 305q100 53 292 53h510v-125h-88v-1591h-164v1591h-161v-1591h-164z" glyph-name="paragraph" horiz-adv-x="1146" unicode="¶"/><glyph d="M438 662v-304h-309v304h309z" glyph-name="periodcentered" horiz-adv-x="569" unicode="·"/><glyph d="M444 -334q110 0 110.5 52.5t-25 72t-60.5 19.5t-76 -15l-41 37l115 168h90l-80 -121q49 8 76 8q76 0 122 -37.5t46 -108.5t-63.5 -119t-169.5 -48t-220 45l37 80q83 -33 139 -33z" glyph-name="cedilla" unicode="¸"/><glyph d="M541 1354v-807h-189v518h-205v129q115 0 173.5 39t70.5 121h150z" glyph-name="uni00B9" horiz-adv-x="768" unicode="¹"/><glyph d="M694 586h-622v116h622v-116zM386 1380q132 0 211 -78.5t79 -208.5t-80 -209t-213 -79t-213 79t-80 209t82 208.5t214 78.5zM383 1262q-61 0 -95 -44t-34 -125t34 -125t95 -44t95 44t34 124t-34 125t-95 45z" glyph-name="ordmasculine" horiz-adv-x="763" unicode="º"/><glyph d="M489 874l304 -241v-254l-304 -236v228l175 133l-175 137v233zM115 872l299 -237v-252l-299 -236v226l170 133l-170 133v233z" glyph-name="guillemotright" horiz-adv-x="880" unicode="»"/><glyph d="M541 1354v-807h-189v518h-205v129q115 0 173.5 39t70.5 121h150zM1389 1346l-746 -1346h-160l750 1346h156zM1819 330v-148h-111v-182h-180v182h-369v158l379 467h170v-477h111zM1534 324v290l-223 -290h223z" glyph-name="onequarter" horiz-adv-x="1869" unicode="¼"/><glyph d="M541 1354v-807h-189v518h-205v129q115 0 173.5 39t70.5 121h150zM1389 1346l-746 -1346h-160l750 1346h156zM1800 154v-154h-643q8 137 65.5 205.5t272.5 200.5q61 39 86 70.5t25 76.5t-32 74.5t-83 29.5q-131 0 -133 -172h-180q-2 10 -2 23q0 139 87 221t227 82 t223 -69.5t83 -183.5t-102 -198q-40 -30 -154 -100t-143 -110q59 4 133 4h270z" glyph-name="onehalf" horiz-adv-x="1869" unicode="½"/><glyph d="M377 1360q135 0 216 -62t81 -166t-103 -153q133 -47 133 -173t-91 -200t-237 -74t-234.5 77t-88.5 210v15h183q-2 -72 33 -111t101 -39t103 30.5t37 82.5q0 111 -150 110q-29 0 -49 -4v129h37q143 0 144 94q0 41 -31 66t-82 25q-119 -1 -125 -136h-178q2 131 84 205 t217 74zM1389 1346l-748 -1346h-160l750 1346h158zM1819 330v-148h-111v-182h-180v182h-369v158l379 467h170v-477h111zM1534 324v290l-223 -290h223z" glyph-name="threequarters" horiz-adv-x="1869" unicode="¾"/><glyph d="M534 -408q-214 0 -338 107.5t-124 284.5q0 115 53 190.5t209 185.5q90 68 90 215h254q-4 -170 -35 -235.5t-160 -169.5q-68 -55 -92 -95.5t-24 -102.5t44.5 -104t130.5 -42q179 0 187 235h279q-10 -225 -135 -347t-339 -122zM406 696v293h296v-293h-296z" glyph-name="questiondown" horiz-adv-x="1101" unicode="¿"/><glyph d="M827 1368l521 -1368h-314l-108 305h-508l-111 -305h-307l520 1368h307zM852 524l-88 246q-57 162 -90 297q-31 -106 -96 -297l-89 -246h363zM356 1729h314l172 -248h-201z" glyph-name="Agrave" horiz-adv-x="1345" unicode="À"/><glyph d="M827 1368l521 -1368h-314l-108 305h-508l-111 -305h-307l520 1368h307zM852 524l-88 246q-57 162 -90 297q-31 -106 -96 -297l-89 -246h363zM991 1729l-284 -248h-201l172 248h313z" glyph-name="Aacute" horiz-adv-x="1345" unicode="Á"/><glyph d="M827 1368l521 -1368h-314l-108 305h-508l-111 -305h-307l520 1368h307zM852 524l-88 246q-57 162 -90 297q-31 -106 -96 -297l-89 -246h363zM1024 1485h-244l-110 133l-115 -133h-231l221 256h256z" glyph-name="Acircumflex" horiz-adv-x="1345" unicode="Â"/><glyph d="M827 1368l521 -1368h-314l-108 305h-508l-111 -305h-307l520 1368h307zM852 524l-88 246q-57 162 -90 297q-31 -106 -96 -297l-89 -246h363zM813 1495q-39 0 -135 37t-129 37q-63 0 -80 -80h-133q16 96 61 151q72 90 158 91q47 0 133 -34t137 -34t82 76h131 q-43 -244 -225 -244z" glyph-name="Atilde" horiz-adv-x="1345" unicode="Ã"/><glyph d="M827 1368l521 -1368h-314l-108 305h-508l-111 -305h-307l520 1368h307zM852 524l-88 246q-57 162 -90 297q-31 -106 -96 -297l-89 -246h363zM1018 1724v-219h-264v219h264zM594 1724v-219h-264v219h264z" glyph-name="Adieresis" horiz-adv-x="1345" unicode="Ä"/><glyph d="M827 1368l521 -1368h-314l-108 305h-508l-111 -305h-307l520 1368h307zM852 524l-88 246q-57 162 -90 297q-31 -106 -96 -297l-89 -246h363zM673 1890q93 0 159.5 -67.5t66.5 -160.5t-66.5 -159.5t-159.5 -66.5t-160 66.5t-67 161.5t67 160.5t160 65.5zM673 1772 q-44 0 -76 -32t-32 -77t32 -77t76 -32t75.5 32t31.5 77t-31.5 77t-75.5 32z" glyph-name="Aring" horiz-adv-x="1345" unicode="Å"/><glyph d="M1794 1366v-252h-643v-293h602v-235h-602v-334h659v-252h-942v297h-434l-137 -297h-322l656 1366h1163zM868 516v608h-65l-275 -608h340z" glyph-name="AE" horiz-adv-x="1890" unicode="Æ"/><glyph d="M737 -109q72 0 119 -38.5t47 -108.5t-64.5 -118t-165.5 -48t-222 43l36 82q85 -33 139 -33t81.5 20.5t27.5 52.5t-26.5 51.5t-61.5 19.5t-74 -17l-38 39l90 135q-225 39 -355 174q-198 205 -198 530t185 524.5t478 199.5t465 -191q109 -123 133 -301h-299 q-18 115 -97 178.5t-202 63.5q-166 0 -264 -125t-98 -327t78 -322q102 -158 268 -158q131 0 201 49q47 35 81.5 107.5t42.5 152.5h299q-18 -256 -191 -410.5t-433 -148.5l-57 -86q45 10 75 10z" glyph-name="Ccedilla" horiz-adv-x="1396" unicode="Ç"/><glyph d="M1155 1366v-252h-727v-293h668v-235h-668v-334h741v-252h-1038v1366h1024zM328 1729h313l172 -248h-201z" glyph-name="Egrave" horiz-adv-x="1251" unicode="È"/><glyph d="M1155 1366v-252h-727v-293h668v-235h-668v-334h741v-252h-1038v1366h1024zM983 1729l-285 -248h-200l172 248h313z" glyph-name="Eacute" horiz-adv-x="1251" unicode="É"/><glyph d="M1155 1366v-252h-727v-293h668v-235h-668v-334h741v-252h-1038v1366h1024zM1010 1485h-244l-111 133l-114 -133h-232l221 256h256z" glyph-name="Ecircumflex" horiz-adv-x="1251" unicode="Ê"/><glyph d="M1155 1366v-252h-727v-293h668v-235h-668v-334h741v-252h-1038v1366h1024zM995 1724v-219h-264v219h264zM571 1724v-219h-264v219h264z" glyph-name="Edieresis" horiz-adv-x="1251" unicode="Ë"/><glyph d="M430 1366v-1366h-297v1366h297zM-43 1729h313l172 -248h-200z" glyph-name="Igrave" horiz-adv-x="563" unicode="Ì"/><glyph d="M430 1366v-1366h-297v1366h297zM606 1729l-284 -248h-201l172 248h313z" glyph-name="Iacute" horiz-adv-x="563" unicode="Í"/><glyph d="M430 1366v-1366h-297v1366h297zM612 1485h-243l-90 133l-95 -133h-231l203 256h256z" glyph-name="Icircumflex" horiz-adv-x="563" unicode="Î"/><glyph d="M430 1366v-1366h-297v1366h297zM567 1724v-219h-239v219h239zM236 1724v-219h-240v219h240z" glyph-name="Idieresis" horiz-adv-x="563" unicode="Ï"/><glyph d="M131 1366h551q297 0 459 -147q205 -187 205 -529t-193 -532q-86 -86 -192.5 -122t-272.5 -36h-557v616h-123v191h123v559zM428 1114v-307h301v-191h-301v-364h229q106 0 170 20.5t109 71.5q108 119 108 336t-101 325.5t-296 108.5h-219z" glyph-name="Eth" horiz-adv-x="1419" unicode="Ð"/><glyph d="M1286 1366v-1366h-299l-407 659q-127 209 -172 306q12 -137 12 -383v-582h-287v1366h303l398 -645q139 -231 178 -315q-12 201 -13 391v569h287zM856 1495q-39 0 -135 37t-129 37q-61 0 -80 -80h-133q16 96 61 151q72 90 158 91q47 0 134 -34t128 -34q59 0 90 76h131 q-43 -244 -225 -244z" glyph-name="Ntilde" horiz-adv-x="1419" unicode="Ñ"/><glyph d="M747 1399q302 0 486 -200t184 -518t-185 -516t-486 -198t-487.5 196.5t-186.5 520.5t186.5 519.5t488.5 195.5zM747 1151q-171 0 -272.5 -125t-101.5 -342t101.5 -343t273.5 -126t270 128t98 342t-99 340t-270 126zM420 1729h313l172 -248h-200z" glyph-name="Ograve" horiz-adv-x="1488" unicode="Ò"/><glyph d="M747 1399q302 0 486 -200t184 -518t-185 -516t-486 -198t-487.5 196.5t-186.5 520.5t186.5 519.5t488.5 195.5zM747 1151q-171 0 -272.5 -125t-101.5 -342t101.5 -343t273.5 -126t270 128t98 342t-99 340t-270 126zM1083 1729l-286 -248h-201l174 248h313z" glyph-name="Oacute" horiz-adv-x="1488" unicode="Ó"/><glyph d="M747 1399q302 0 486 -200t184 -518t-185 -516t-486 -198t-487.5 196.5t-186.5 520.5t186.5 519.5t488.5 195.5zM747 1151q-171 0 -272.5 -125t-101.5 -342t101.5 -343t273.5 -126t270 128t98 342t-99 340t-270 126zM1094 1485h-242l-113 133l-112 -133h-234l223 256h256z " glyph-name="Ocircumflex" horiz-adv-x="1488" unicode="Ô"/><glyph d="M747 1399q302 0 486 -200t184 -518t-185 -516t-486 -198t-487.5 196.5t-186.5 520.5t186.5 519.5t488.5 195.5zM747 1151q-171 0 -272.5 -125t-101.5 -342t101.5 -343t273.5 -126t270 128t98 342t-99 340t-270 126zM891 1495q-39 0 -135.5 37t-128.5 37q-63 0 -80 -80 h-133q16 96 61 151q72 90 158 91q47 0 133 -34t137 -34t80 76h133q-43 -244 -225 -244z" glyph-name="Otilde" horiz-adv-x="1488" unicode="Õ"/><glyph d="M747 1399q302 0 486 -200t184 -518t-185 -516t-486 -198t-487.5 196.5t-186.5 520.5t186.5 519.5t488.5 195.5zM747 1151q-171 0 -272.5 -125t-101.5 -342t101.5 -343t273.5 -126t270 128t98 342t-99 340t-270 126zM1087 1724v-219h-264v219h264zM664 1724v-219h-265v219 h265z" glyph-name="Odieresis" horiz-adv-x="1488" unicode="Ö"/><glyph d="M276 242l-129 129l297 299l-297 297l129 129l297 -297l299 297l129 -129l-296 -297l296 -299l-129 -129l-299 297z" glyph-name="multiply" horiz-adv-x="1146" unicode="×"/><glyph d="M1405 696q0 -164 -40 -283.5t-132 -234.5q-82 -98 -209 -154.5t-268 -56.5q-279 0 -424 125l-133 -153l-136 122l138 160q-78 115 -109 214.5t-31 246.5q0 330 186.5 523.5t504.5 193.5q106 0 172.5 -20.5t201.5 -96.5l21 -10l125 141l139 -115l-139 -155 q133 -186 133 -447zM739 1151q-176 0 -276.5 -126t-100.5 -345q0 -107 41 -240l558 641q-123 70 -222 70zM741 215q178 0 283 152q84 121 84 311q0 117 -45 250l-543 -633q92 -80 221 -80z" glyph-name="Oslash" horiz-adv-x="1488" unicode="Ø"/><glyph d="M1278 1366v-807q0 -154 -23.5 -244t-83.5 -165q-143 -182 -486 -182t-486 206q-49 70 -68.5 156t-19.5 233v803h297v-823q0 -156 45 -224q73 -104 237 -104t227.5 75t63.5 253v823h297zM371 1729h313l172 -248h-199z" glyph-name="Ugrave" horiz-adv-x="1392" unicode="Ù"/><glyph d="M1278 1366v-807q0 -154 -23.5 -244t-83.5 -165q-143 -182 -486 -182t-486 206q-49 70 -68.5 156t-19.5 233v803h297v-823q0 -156 45 -224q73 -104 237 -104t227.5 75t63.5 253v823h297zM1020 1729l-285 -248h-200l172 248h313z" glyph-name="Uacute" horiz-adv-x="1392" unicode="Ú"/><glyph d="M1278 1366v-807q0 -154 -23.5 -244t-83.5 -165q-143 -182 -486 -182t-486 206q-49 70 -68.5 156t-19.5 233v803h297v-823q0 -156 45 -224q73 -104 237 -104t227.5 75t63.5 253v823h297zM1047 1485h-244l-111 133l-114 -133h-232l221 256h256z" glyph-name="Ucircumflex" horiz-adv-x="1392" unicode="Û"/><glyph d="M1278 1366v-807q0 -154 -23.5 -244t-83.5 -165q-143 -182 -486 -182t-486 206q-49 70 -68.5 156t-19.5 233v803h297v-823q0 -156 45 -224q73 -104 237 -104t227.5 75t63.5 253v823h297zM1040 1724v-219h-264v219h264zM616 1724v-219h-264v219h264z" glyph-name="Udieresis" horiz-adv-x="1392" unicode="Ü"/><glyph d="M768 0h-297v530l-510 836h340l213 -365q74 -133 109 -223q66 152 114 238l207 350h332l-508 -840v-526zM946 1729l-287 -248h-200l174 248h313z" glyph-name="Yacute" horiz-adv-x="1241" unicode="Ý"/><glyph d="M131 1366h297v-192h252q139 0 219 -17.5t145 -60.5q178 -124 178 -348t-147 -349q-119 -98 -340 -98h-307v-301h-297v1366zM694 537q236 0 236 196q0 100 -76 152q-51 37 -176 37h-250v-385h266z" glyph-name="Thorn" horiz-adv-x="1286" unicode="Þ"/><glyph d="M571 197q106 0 168 64.5t62 172.5q0 229 -269 230q-16 0 -30 -2v172h35q100 0 153 45t53 127t-49 131t-129 49q-109 0 -147 -76q-29 -51 -29 -188v-922h-270v870q0 135 14 208t53 132q119 176 387 176q193 0 312 -98t119 -258q0 -94 -48.5 -166.5t-130.5 -101.5 q119 -27 183.5 -118t64.5 -226q0 -215 -162 -346q-109 -86 -288 -86q-41 0 -121 6v211q49 -6 69 -6z" glyph-name="germandbls" horiz-adv-x="1136" unicode="ß"/><glyph d="M397 -27q-162 0 -254 80t-92 219q0 186 172 258q63 28 241 52t218.5 43.5t40.5 79.5q0 129 -178 129q-94 0 -137 -33t-58 -115h-256q25 330 457 330q233 0 350 -94q51 -41 68.5 -92.5t17.5 -182.5t-4 -307v-74q0 -180 35 -266h-277q-16 51 -16 96q-127 -123 -328 -123z M721 371v112q-55 -35 -179 -51t-168 -49t-44 -98t40 -100t111 -35q119 0 195 81q45 52 45 140zM236 1415h286l172 -274h-182z" glyph-name="agrave" horiz-adv-x="1067" unicode="à"/><glyph d="M397 -27q-162 0 -254 80t-92 219q0 186 172 258q63 28 241 52t218.5 43.5t40.5 79.5q0 129 -178 129q-94 0 -137 -33t-58 -115h-256q25 330 457 330q233 0 350 -94q51 -41 68.5 -92.5t17.5 -182.5t-4 -307v-74q0 -180 35 -266h-277q-16 51 -16 96q-127 -123 -328 -123z M721 371v112q-55 -35 -179 -51t-168 -49t-44 -98t40 -100t111 -35q119 0 195 81q45 52 45 140zM858 1415l-276 -274h-183l172 274h287z" glyph-name="aacute" horiz-adv-x="1067" unicode="á"/><glyph d="M397 -27q-162 0 -254 80t-92 219q0 186 172 258q63 28 241 52t218.5 43.5t40.5 79.5q0 129 -178 129q-94 0 -137 -33t-58 -115h-256q25 330 457 330q233 0 350 -94q51 -41 68.5 -92.5t17.5 -182.5t-4 -307v-74q0 -180 35 -266h-277q-16 51 -16 96q-127 -123 -328 -123z M721 371v112q-55 -35 -179 -51t-168 -49t-44 -98t40 -100t111 -35q119 0 195 81q45 52 45 140zM891 1141h-221l-121 164l-123 -164h-209l213 274h248z" glyph-name="acircumflex" horiz-adv-x="1067" unicode="â"/><glyph d="M397 -27q-162 0 -254 80t-92 219q0 186 172 258q63 28 241 52t218.5 43.5t40.5 79.5q0 129 -178 129q-94 0 -137 -33t-58 -115h-256q25 330 457 330q233 0 350 -94q51 -41 68.5 -92.5t17.5 -182.5t-4 -307v-74q0 -180 35 -266h-277q-16 51 -16 96q-127 -123 -328 -123z M721 371v112q-55 -35 -179 -51t-168 -49t-44 -98t40 -100t111 -35q119 0 195 81q45 52 45 140zM676 1167q-41 0 -73.5 10.5t-90.5 36.5t-84 27q-66 0 -78 -80h-123q16 109 72.5 173.5t134.5 64.5q45 0 129 -35t119 -35q53 0 78 74h123q-39 -236 -207 -236z" glyph-name="atilde" horiz-adv-x="1067" unicode="ã"/><glyph d="M397 -27q-162 0 -254 80t-92 219q0 186 172 258q63 28 241 52t218.5 43.5t40.5 79.5q0 129 -178 129q-94 0 -137 -33t-58 -115h-256q25 330 457 330q233 0 350 -94q51 -41 68.5 -92.5t17.5 -182.5t-4 -307v-74q0 -180 35 -266h-277q-16 51 -16 96q-127 -123 -328 -123z M721 371v112q-55 -35 -179 -51t-168 -49t-44 -98t40 -100t111 -35q119 0 195 81q45 52 45 140zM881 1391v-224h-256v224h256zM477 1391v-224h-254v224h254z" glyph-name="adieresis" horiz-adv-x="1067" unicode="ä"/><glyph d="M397 -27q-162 0 -254 80t-92 219q0 186 172 258q63 28 241 52t218.5 43.5t40.5 79.5q0 129 -178 129q-94 0 -137 -33t-58 -115h-256q25 330 457 330q233 0 350 -94q51 -41 68.5 -92.5t17.5 -182.5t-4 -307v-74q0 -180 35 -266h-277q-16 51 -16 96q-127 -123 -328 -123z M721 371v112q-55 -35 -179 -51t-168 -49t-44 -98t40 -100t111 -35q119 0 195 81q45 52 45 140zM550 1511q87 0 149.5 -62.5t62.5 -150.5t-62.5 -150.5t-150.5 -62.5t-150.5 62.5t-62.5 151.5t63.5 150.5t150.5 61.5zM550 1395q-40 0 -68.5 -28t-28.5 -69t27.5 -68.5 t68.5 -27.5t68.5 27.5t27.5 67.5t-27.5 69t-67.5 29z" glyph-name="aring" horiz-adv-x="1067" unicode="å"/><glyph d="M1192 -27q-117 0 -212 44t-146 122q-145 -166 -416 -166q-174 0 -270.5 77.5t-96.5 231.5t131 228q55 29 108.5 40.5t201.5 33.5t189.5 44.5t41.5 73.5q0 131 -176 132q-92 0 -138.5 -36t-54.5 -118h-260q12 160 109 235q127 101 359 101t319 -131q115 131 319 131 t336.5 -148.5t132.5 -392.5q0 -25 -2 -43h-704q2 -125 60 -194.5t163 -69.5q148 0 211 141h258q-39 -156 -164 -246t-299 -90zM1172 821q-104 0 -166 -90q-35 -45 -45 -139h440q-8 109 -66.5 169t-162.5 60zM723 367v116q-33 -25 -64.5 -34t-137.5 -24t-147.5 -46 t-41.5 -94.5t43 -101.5t133 -38t152.5 61t62.5 161z" glyph-name="ae" horiz-adv-x="1726" unicode="æ"/><glyph d="M567 -113q76 0 122 -37.5t46 -108.5t-63.5 -119t-168.5 -48t-220 45l36 80q87 -33 141 -33t81.5 19.5t27.5 52.5t-25.5 52.5t-60.5 19.5t-75 -15l-39 37l98 145q-127 29 -199 78q-207 145 -207 437q0 231 142.5 377.5t376.5 146.5t362 -148q76 -84 96 -227h-270 q-33 170 -197 170q-111 0 -173 -84t-62 -233.5t61.5 -232.5t173.5 -83q176 0 207 201h262q-25 -193 -153.5 -300.5t-333.5 -107.5l-61 -92q49 8 75 8z" glyph-name="ccedilla" horiz-adv-x="1087" unicode="ç"/><glyph d="M567 -27q-227 0 -366.5 142.5t-139.5 372.5t141.5 379t359.5 149t352.5 -150.5t134.5 -400.5v-41h-711q10 -256 231 -256q146 0 203 139h260q-41 -152 -166 -243t-299 -91zM559 821q-90 0 -150.5 -60.5t-70.5 -162.5h434q-12 109 -67.5 166t-145.5 57zM256 1415h285 l174 -274h-183z" glyph-name="egrave" horiz-adv-x="1105" unicode="è"/><glyph d="M567 -27q-227 0 -366.5 142.5t-139.5 372.5t141.5 379t359.5 149t352.5 -150.5t134.5 -400.5v-41h-711q10 -256 231 -256q146 0 203 139h260q-41 -152 -166 -243t-299 -91zM559 821q-90 0 -150.5 -60.5t-70.5 -162.5h434q-12 109 -67.5 166t-145.5 57zM864 1415 l-276 -274h-182l172 274h286z" glyph-name="eacute" horiz-adv-x="1105" unicode="é"/><glyph d="M567 -27q-227 0 -366.5 142.5t-139.5 372.5t141.5 379t359.5 149t352.5 -150.5t134.5 -400.5v-41h-711q10 -256 231 -256q146 0 203 139h260q-41 -152 -166 -243t-299 -91zM559 821q-90 0 -150.5 -60.5t-70.5 -162.5h434q-12 109 -67.5 166t-145.5 57zM903 1141h-219 l-121 164l-125 -164h-209l213 274h248z" glyph-name="ecircumflex" horiz-adv-x="1105" unicode="ê"/><glyph d="M567 -27q-227 0 -366.5 142.5t-139.5 372.5t141.5 379t359.5 149t352.5 -150.5t134.5 -400.5v-41h-711q10 -256 231 -256q146 0 203 139h260q-41 -152 -166 -243t-299 -91zM559 821q-90 0 -150.5 -60.5t-70.5 -162.5h434q-12 109 -67.5 166t-145.5 57zM893 1391v-224 h-256v224h256zM492 1391v-224h-254v224h254z" glyph-name="edieresis" horiz-adv-x="1105" unicode="ë"/><glyph d="M389 989v-989h-270v989h270zM-43 1415h272l172 -274h-168z" glyph-name="igrave" horiz-adv-x="509" unicode="ì"/><glyph d="M389 989v-989h-270v989h270zM553 1415l-277 -274h-167l172 274h272z" glyph-name="iacute" horiz-adv-x="509" unicode="í"/><glyph d="M389 989v-989h-270v989h270zM557 1141h-205l-100 164l-105 -164h-194l178 274h248z" glyph-name="icircumflex" horiz-adv-x="509" unicode="î"/><glyph d="M389 989v-989h-270v989h270zM528 1391v-224h-233v224h233zM213 1391v-224h-233v224h233z" glyph-name="idieresis" horiz-adv-x="509" unicode="ï"/><glyph d="M1085 496q0 -236 -140 -380.5t-370 -144.5t-372 143.5t-142 373.5t135.5 380t340.5 150q35 0 98 -8l-66 129l-155 -66l-49 135l149 62l-49 102l156 68l57 -101l162 64l63 -127l-143 -59l160 -256q98 -158 131.5 -252.5t33.5 -212.5zM573 817q-113 0 -176 -85.5 t-63 -237.5t63 -237t177 -85t176.5 86t62.5 237t-63.5 236.5t-176.5 85.5z" glyph-name="eth" horiz-adv-x="1146" unicode="ð"/><glyph d="M377 989v-137q123 164 326 164t288 -135q53 -86 53 -258v-623h-270v567q0 98 -16 142q-33 86 -161 86t-181 -109q-27 -59 -27 -174v-512h-270v989h258zM709 1167q-58 0 -141 37t-105 37q-63 0 -80 -80h-123q16 109 72.5 173.5t134.5 64.5q47 0 130 -35t120 -35 q49 0 78 74h123q-43 -236 -209 -236z" glyph-name="ntilde" horiz-adv-x="1157" unicode="ñ"/><glyph d="M578 1016q230 0 368.5 -144t138.5 -378t-139 -377.5t-370.5 -143.5t-373 143.5t-141.5 378.5t143.5 378t373.5 143zM573 815q-113 0 -176 -85.5t-63 -235.5t63 -235t177 -85t176.5 85t62.5 236t-63.5 235.5t-176.5 84.5zM262 1415h287l172 -274h-182z" glyph-name="ograve" horiz-adv-x="1146" unicode="ò"/><glyph d="M578 1016q230 0 368.5 -144t138.5 -378t-139 -377.5t-370.5 -143.5t-373 143.5t-141.5 378.5t143.5 378t373.5 143zM573 815q-113 0 -176 -85.5t-63 -235.5t63 -235t177 -85t176.5 85t62.5 236t-63.5 235.5t-176.5 84.5zM885 1415l-277 -274h-182l172 274h287z" glyph-name="oacute" horiz-adv-x="1146" unicode="ó"/><glyph d="M578 1016q230 0 368.5 -144t138.5 -378t-139 -377.5t-370.5 -143.5t-373 143.5t-141.5 378.5t143.5 378t373.5 143zM573 815q-113 0 -176 -85.5t-63 -235.5t63 -235t177 -85t176.5 85t62.5 236t-63.5 235.5t-176.5 84.5zM909 1141h-219l-121 164l-123 -164h-208l213 274 h247z" glyph-name="ocircumflex" horiz-adv-x="1146" unicode="ô"/><glyph d="M578 1016q230 0 368.5 -144t138.5 -378t-139 -377.5t-370.5 -143.5t-373 143.5t-141.5 378.5t143.5 378t373.5 143zM573 815q-113 0 -176 -85.5t-63 -235.5t63 -235t177 -85t176.5 85t62.5 236t-63.5 235.5t-176.5 84.5zM700 1167q-39 0 -71.5 10.5t-92.5 36.5t-81 27 q-63 0 -80 -80h-123q16 109 72.5 173.5t134.5 64.5q47 0 130 -35t120 -35q48 0 77 74h123q-43 -236 -209 -236z" glyph-name="otilde" horiz-adv-x="1146" unicode="õ"/><glyph d="M578 1016q230 0 368.5 -144t138.5 -378t-139 -377.5t-370.5 -143.5t-373 143.5t-141.5 378.5t143.5 378t373.5 143zM573 815q-113 0 -176 -85.5t-63 -235.5t63 -235t177 -85t176.5 85t62.5 236t-63.5 235.5t-176.5 84.5zM901 1391v-224h-256v224h256zM498 1391v-224h-254 v224h254z" glyph-name="odieresis" horiz-adv-x="1146" unicode="ö"/><glyph d="M576 1155q57 0 97 -41t40 -97t-40.5 -97t-98.5 -41t-98 39.5t-40 97.5t41.5 98.5t98.5 40.5zM576 459q57 0 97 -41t40 -97t-40.5 -97.5t-98.5 -41.5t-98 40t-40 98t41.5 98.5t98.5 40.5zM102 578v182h942v-182h-942z" glyph-name="divide" horiz-adv-x="1146" unicode="÷"/><glyph d="M584 -27q-174 0 -305 80l-115 -121l-101 99l107 119q-45 76 -64 112q-45 102 -45 236q0 221 142.5 369.5t350.5 148.5t318 -82l107 115l100 -95l-102 -116q109 -121 108 -322q0 -246 -137 -394.5t-364 -148.5zM555 815q-97 0 -162 -88t-65 -238q-1 -57 24 -145l357 426 q-57 45 -154 45zM569 174q117 0 182.5 84t65.5 234q0 71 -29 155l-352 -428q68 -45 133 -45z" glyph-name="oslash" horiz-adv-x="1146" unicode="ø"/><glyph d="M1038 989v-989h-258v139q-117 -166 -313 -166t-291 119q-66 82 -65 270v627h270v-547q0 -141 27 -182q43 -66 145 -65q129 0 186 110q29 55 29 193v491h270zM268 1415h285l174 -274h-182z" glyph-name="ugrave" horiz-adv-x="1159" unicode="ù"/><glyph d="M1038 989v-989h-258v139q-117 -166 -313 -166t-291 119q-66 82 -65 270v627h270v-547q0 -141 27 -182q43 -66 145 -65q129 0 186 110q29 55 29 193v491h270zM891 1415l-277 -274h-182l172 274h287z" glyph-name="uacute" horiz-adv-x="1159" unicode="ú"/><glyph d="M1038 989v-989h-258v139q-117 -166 -313 -166t-291 119q-66 82 -65 270v627h270v-547q0 -141 27 -182q43 -66 145 -65q129 0 186 110q29 55 29 193v491h270zM915 1141h-219l-121 164l-124 -164h-209l213 274h247z" glyph-name="ucircumflex" horiz-adv-x="1159" unicode="û"/><glyph d="M1038 989v-989h-258v139q-117 -166 -313 -166t-291 119q-66 82 -65 270v627h270v-547q0 -141 27 -182q43 -66 145 -65q129 0 186 110q29 55 29 193v491h270zM905 1391v-224h-256v224h256zM504 1391v-224h-254v224h254z" glyph-name="udieresis" horiz-adv-x="1159" unicode="ü"/><glyph d="M197 -127q153 -1 153 107q0 50 -8 79l-352 930h293l163 -485q25 -74 62 -230q47 180 67 242l154 473h281l-363 -985q-57 -152 -92 -211t-90 -98q-90 -57 -242 -49l-26 2l-111 2v223h111zM811 1415l-276 -274h-183l172 274h287z" glyph-name="yacute" horiz-adv-x="1001" unicode="ý"/><glyph d="M389 1366v-500q100 150 297 150t317.5 -146t120.5 -380t-117.5 -375.5t-312 -141.5t-305.5 150v-473h-270v1716h270zM615 795q-112 0 -174 -80.5t-62 -224.5t63.5 -225t173.5 -81t173 81t63 222t-62.5 224.5t-174.5 83.5z" glyph-name="thorn" horiz-adv-x="1191" unicode="þ"/><glyph d="M197 -127q153 -1 153 107q0 50 -8 79l-352 930h293l163 -485q25 -74 62 -230q47 180 67 242l154 473h281l-363 -985q-57 -152 -92 -211t-90 -98q-90 -57 -242 -49l-26 2l-111 2v223h111zM838 1391v-224h-256v224h256zM434 1391v-224h-254v224h254z" glyph-name="ydieresis" horiz-adv-x="1001" unicode="ÿ"/><glyph d="M827 1368l521 -1368h-314l-108 305h-508l-111 -305h-307l520 1368h307zM852 524l-88 246q-57 162 -90 297q-31 -106 -96 -297l-89 -246h363zM1006 1690v-154h-666v154h666z" glyph-name="Amacron" horiz-adv-x="1345" unicode="Ā"/><glyph d="M397 -27q-162 0 -254 80t-92 219q0 186 172 258q63 28 241 52t218.5 43.5t40.5 79.5q0 129 -178 129q-94 0 -137 -33t-58 -115h-256q25 330 457 330q233 0 350 -94q51 -41 68.5 -92.5t17.5 -182.5t-4 -307v-74q0 -180 35 -266h-277q-16 51 -16 96q-127 -123 -328 -123z M721 371v112q-55 -35 -179 -51t-168 -49t-44 -98t40 -100t111 -35q119 0 195 81q45 52 45 140zM860 1346v-144h-624v144h624z" glyph-name="amacron" horiz-adv-x="1067" unicode="ā"/><glyph d="M827 1368l521 -1368h-314l-108 305h-508l-111 -305h-307l520 1368h307zM852 524l-88 246q-57 162 -90 297q-31 -106 -96 -297l-89 -246h363zM674 1630q160 0 192 115h140q-6 -131 -91.5 -200.5t-241 -69.5t-240.5 69.5t-91 200.5h139q33 -115 193 -115z" glyph-name="Abreve" horiz-adv-x="1345" unicode="Ă"/><glyph d="M397 -27q-162 0 -254 80t-92 219q0 186 172 258q63 28 241 52t218.5 43.5t40.5 79.5q0 129 -178 129q-94 0 -137 -33t-58 -115h-256q25 330 457 330q233 0 350 -94q51 -41 68.5 -92.5t17.5 -182.5t-4 -307v-74q0 -180 35 -266h-277q-16 51 -16 96q-127 -123 -328 -123z M721 371v112q-55 -35 -179 -51t-168 -49t-44 -98t40 -100t111 -35q119 0 195 81q45 52 45 140zM553 1292q139 0 170 121h133q-6 -131 -84 -200.5t-219 -69.5t-219 69.5t-82 200.5h131q31 -121 170 -121z" glyph-name="abreve" horiz-adv-x="1067" unicode="ă"/><glyph d="M1237 -166q0 -41 34 -66.5t76 -25.5t83 10v-112q-183 -54 -270 11.5t-87 154.5t135 194h-174l-108 305h-508l-111 -305h-307l520 1368h309l519 -1368q-111 -84 -111 -166zM852 524l-86 246q-63 182 -92 297q-31 -106 -96 -297l-89 -246h363z" glyph-name="Aogonek" horiz-adv-x="1345" unicode="Ą"/><glyph d="M983 266q0 -180 35 -266q-113 -84 -113 -166q0 -41 34 -66.5t77 -25.5t84 10v-112q-183 -54 -270 11.5t-87 154.5t136 194h-138q-16 49 -16 96q-127 -123 -328 -123q-162 0 -254 80t-92 219q0 186 172 258q63 28 241 52t218.5 43.5t40.5 79.5q0 129 -178 129 q-94 0 -137 -33t-58 -115h-256q25 330 459 330q231 0 348 -94q51 -41 68.5 -92.5t17.5 -182.5t-4 -307v-74zM721 371v112q-55 -35 -179 -51t-168 -49t-44 -98t40 -100t111 -35q119 0 195 81q45 52 45 140z" glyph-name="aogonek" horiz-adv-x="1067" unicode="ą"/><glyph d="M712 -33q-280 0 -460 196.5t-180 516.5t186 519.5t483 199.5q240 0 408 -139.5t184 -352.5h-295q-23 115 -102.5 178.5t-200.5 63.5q-166 0 -264 -127t-98 -341t97 -340t263 -126q133 0 213 78.5t98 232.5h299q-20 -256 -185.5 -407.5t-445.5 -151.5zM1077 1729 l-284 -248h-201l172 248h313z" glyph-name="Cacute" horiz-adv-x="1396" unicode="Ć"/><glyph d="M550 -27q-214 0 -351.5 140.5t-137.5 376.5t138.5 381t353.5 145t340 -100.5t141 -272.5h-266q-16 80 -67.5 124t-129.5 44q-113 0 -175 -84.5t-62 -234.5t60.5 -232t170.5 -82q180 0 211 201h264q-27 -193 -151.5 -299.5t-338.5 -106.5zM883 1415l-277 -274h-182 l172 274h287z" glyph-name="cacute" horiz-adv-x="1087" unicode="ć"/><glyph d="M712 -33q-280 0 -460 196.5t-180 516.5t186 519.5t483 199.5q240 0 408 -139.5t184 -352.5h-295q-23 115 -102.5 178.5t-200.5 63.5q-166 0 -264 -127t-98 -341t97 -340t263 -126q133 0 213 78.5t98 232.5h299q-20 -256 -185.5 -407.5t-445.5 -151.5zM1096 1485h-242 l-113 133l-112 -133h-234l223 256h256z" glyph-name="Ccircumflex" horiz-adv-x="1396" unicode="Ĉ"/><glyph d="M712 -33q-280 0 -460 196.5t-180 516.5t186 519.5t483 199.5q240 0 408 -139.5t184 -352.5h-295q-23 115 -102.5 178.5t-200.5 63.5q-166 0 -264 -127t-98 -341t97 -340t263 -126q133 0 213 78.5t98 232.5h299q-20 -256 -185.5 -407.5t-445.5 -151.5zM879 1724v-219h-265 v219h265z" glyph-name="Cdotaccent" horiz-adv-x="1396" unicode="Ċ"/><glyph d="M550 -27q-214 0 -351.5 140.5t-137.5 376.5t138.5 381t353.5 145t340 -100.5t141 -272.5h-266q-16 80 -67.5 124t-129.5 44q-113 0 -175 -84.5t-62 -234.5t60.5 -232t170.5 -82q180 0 211 201h264q-27 -193 -151.5 -299.5t-338.5 -106.5zM698 1391v-224h-254v224h254z " glyph-name="cdotaccent" horiz-adv-x="1087" unicode="ċ"/><glyph d="M712 -33q-280 0 -460 196.5t-180 516.5t186 519.5t483 199.5q240 0 408 -139.5t184 -352.5h-295q-23 115 -102.5 178.5t-200.5 63.5q-166 0 -264 -127t-98 -341t97 -340t263 -126q133 0 213 78.5t98 232.5h299q-20 -256 -185.5 -407.5t-445.5 -151.5zM1096 1741 l-222 -256h-256l-223 256h234l112 -133l113 133h242z" glyph-name="Ccaron" horiz-adv-x="1396" unicode="Č"/><glyph d="M550 -27q-214 0 -351.5 140.5t-137.5 376.5t138.5 381t353.5 145t340 -100.5t141 -272.5h-266q-16 80 -67.5 124t-129.5 44q-113 0 -175 -84.5t-62 -234.5t60.5 -232t170.5 -82q180 0 211 201h264q-27 -193 -151.5 -299.5t-338.5 -106.5zM909 1415l-211 -274h-249 l-216 274h218l122 -168l125 168h211z" glyph-name="ccaron" horiz-adv-x="1087" unicode="č"/><glyph d="M131 1366h551q295 0 457 -147q205 -187 205 -529t-193 -532q-86 -86 -191.5 -122t-271.5 -36h-557v1366zM428 1114v-862h229q106 0 169 20.5t108 71.5q108 119 108 337q-1 433 -395 433h-219zM991 1741l-223 -256h-256l-221 256h231l115 -133l111 133h243z" glyph-name="Dcaron" horiz-adv-x="1419" unicode="Ď"/><glyph d="M1071 1366v-1366h-258v127q-96 -154 -300 -154t-325.5 142.5t-121.5 381.5t118.5 380t318.5 141t298 -150v498h270zM573 807q-111 0 -173 -80t-62 -224t62 -226t174 -82t174.5 80.5t62.5 224t-63.5 225.5t-174.5 82zM1438 1366v-147q0 -84 -17.5 -125t-64.5 -68 q-57 -37 -162 -39v88q72 4 102.5 26.5t36.5 74.5h-139v190h244z" glyph-name="dcaron" horiz-adv-x="1449" unicode="ď"/><glyph d="M131 1366h551q297 0 459 -147q205 -187 205 -529t-193 -532q-86 -86 -192.5 -122t-272.5 -36h-557v616h-123v191h123v559zM428 1114v-307h301v-191h-301v-364h229q106 0 170 20.5t109 71.5q108 119 108 336t-101 325.5t-296 108.5h-219z" glyph-name="Dcroat" horiz-adv-x="1419" unicode="Đ"/><glyph d="M1071 1090v-1090h-258v127q-96 -154 -300 -154t-325.5 142.5t-121.5 378.5t117.5 373t317.5 137t300 -136v222h-283v157h283v119h270v-119h117v-157h-117zM574 793q-112 0 -174 -77t-62 -218t64 -222t174 -81t172.5 79.5t62.5 221.5t-62.5 219.5t-174.5 77.5z" glyph-name="dcroat" horiz-adv-x="1191" unicode="đ"/><glyph d="M1155 1366v-252h-727v-293h668v-235h-668v-334h741v-252h-1038v1366h1024zM983 1690v-154h-666v154h666z" glyph-name="Emacron" horiz-adv-x="1251" unicode="Ē"/><glyph d="M567 -27q-227 0 -366.5 142.5t-139.5 372.5t141.5 379t359.5 149t352.5 -150.5t134.5 -400.5v-41h-711q10 -256 231 -256q146 0 203 139h260q-41 -152 -166 -243t-299 -91zM559 821q-90 0 -150.5 -60.5t-70.5 -162.5h434q-12 109 -67.5 166t-145.5 57zM881 1346v-144 h-625v144h625z" glyph-name="emacron" horiz-adv-x="1105" unicode="ē"/><glyph d="M1155 1366v-252h-727v-293h668v-235h-668v-334h741v-252h-1038v1366h1024zM654 1630q158 0 190 115h139q-6 -131 -91 -200.5t-240.5 -69.5t-241 69.5t-91.5 200.5h140q37 -115 195 -115z" glyph-name="Ebreve" horiz-adv-x="1251" unicode="Ĕ"/><glyph d="M567 -27q-227 0 -366.5 142.5t-139.5 372.5t141.5 379t359.5 149t352.5 -150.5t134.5 -400.5v-41h-711q10 -256 231 -256q146 0 203 139h260q-41 -152 -166 -243t-299 -91zM559 821q-90 0 -150.5 -60.5t-70.5 -162.5h434q-12 109 -67.5 166t-145.5 57zM553 1292 q139 0 170 121h133q-6 -131 -84 -200.5t-219 -69.5t-219 69.5t-84 200.5h133q31 -121 170 -121z" glyph-name="ebreve" horiz-adv-x="1105" unicode="ĕ"/><glyph d="M1155 1366v-252h-727v-293h668v-235h-668v-334h741v-252h-1038v1366h1024zM791 1724v-219h-265v219h265z" glyph-name="Edotaccent" horiz-adv-x="1251" unicode="Ė"/><glyph d="M567 -27q-227 0 -366.5 142.5t-139.5 372.5t141.5 379t359.5 149t352.5 -150.5t134.5 -400.5v-41h-711q10 -256 231 -256q146 0 203 139h260q-41 -152 -166 -243t-299 -91zM559 821q-90 0 -150.5 -60.5t-70.5 -162.5h434q-12 109 -67.5 166t-145.5 57zM694 1391v-224 h-254v224h254z" glyph-name="edotaccent" horiz-adv-x="1105" unicode="ė"/><glyph d="M1155 1366v-252h-727v-293h668v-235h-668v-334h741v-252q-111 -84 -110 -166q0 -41 33.5 -66.5t75.5 -25.5t83 10v-112q-184 -54 -270 11.5t-86 154.5t135 194h-899v1366h1024z" glyph-name="Eogonek" horiz-adv-x="1251" unicode="Ę"/><glyph d="M686 -158q0 -100 125 -100q29 0 70 10v-112q-183 -54 -270 11.5t-87 152.5t121 173q-78 -4 -98 -4q-213 0 -349.5 145.5t-136.5 371.5t141.5 376t359.5 150t352.5 -150.5t134.5 -400.5v-41h-711q10 -256 231 -256q146 0 203 139h260q-27 -98 -86 -167.5t-180 -147.5 q-80 -74 -80 -150zM559 821q-90 0 -150.5 -60.5t-70.5 -162.5h434q-12 109 -67.5 166t-145.5 57z" glyph-name="eogonek" horiz-adv-x="1105" unicode="ę"/><glyph d="M1155 1366v-252h-727v-293h668v-235h-668v-334h741v-252h-1038v1366h1024zM1010 1741l-224 -256h-256l-221 256h232l114 -133l111 133h244z" glyph-name="Ecaron" horiz-adv-x="1251" unicode="Ě"/><glyph d="M567 -27q-227 0 -366.5 142.5t-139.5 372.5t141.5 379t359.5 149t352.5 -150.5t134.5 -400.5v-41h-711q10 -256 231 -256q146 0 203 139h260q-41 -152 -166 -243t-299 -91zM559 821q-90 0 -150.5 -60.5t-70.5 -162.5h434q-12 109 -67.5 166t-145.5 57zM905 1415 l-211 -274h-250l-215 274h217l123 -168l125 168h211z" glyph-name="ecaron" horiz-adv-x="1105" unicode="ě"/><glyph d="M1343 735v-735h-190l-31 156q-152 -188 -407 -189q-287 0 -465 196.5t-178 512.5t187 519.5t482 203.5q236 0 399 -135.5t185 -348.5h-289q-20 111 -99 172.5t-198 61.5q-172 0 -269 -125t-97 -347t98 -345t277 -123q141 0 231 85t94 222h-303v219h573zM1100 1485h-244 l-111 133l-114 -133h-232l222 256h256z" glyph-name="Gcircumflex" horiz-adv-x="1458" unicode="Ĝ"/><glyph d="M1049 989v-866q0 -211 -66 -311q-119 -180 -424 -181q-424 0 -463 310h273q29 -127 196 -127q119 0 170 59t51 197v112q-102 -152 -299 -152t-310.5 131.5t-113.5 355.5t119 361.5t314 137.5q102 0 169.5 -36t125.5 -122v131h258zM562 805q-106 0 -166 -75t-60 -209 t59.5 -212t164.5 -78t166.5 79t61.5 210t-60 208t-166 77zM922 1141h-220l-120 164l-125 -164h-209l213 274h248z" glyph-name="gcircumflex" horiz-adv-x="1171" unicode="ĝ"/><glyph d="M1343 735v-735h-190l-31 156q-152 -188 -407 -189q-287 0 -465 196.5t-178 512.5t187 519.5t482 203.5q236 0 399 -135.5t185 -348.5h-289q-20 111 -99 172.5t-198 61.5q-172 0 -269 -125t-97 -347t98 -345t277 -123q141 0 231 85t94 222h-303v219h573zM747.5 1630 q157.5 0 194.5 115h139q-6 -131 -91.5 -200.5t-241.5 -69.5t-241 69.5t-91 200.5h141q33 -115 190.5 -115z" glyph-name="Gbreve" horiz-adv-x="1458" unicode="Ğ"/><glyph d="M1049 989v-866q0 -211 -66 -311q-119 -180 -424 -181q-424 0 -463 310h273q29 -127 196 -127q119 0 170 59t51 197v112q-102 -152 -299 -152t-310.5 131.5t-113.5 355.5t119 361.5t314 137.5q102 0 169.5 -36t125.5 -122v131h258zM562 805q-106 0 -166 -75t-60 -209 t59.5 -212t164.5 -78t166.5 79t61.5 210t-60 208t-166 77zM571.5 1292q139.5 0 169.5 121h133q-6 -131 -83.5 -200.5t-219 -69.5t-219.5 69.5t-84 200.5h133q31 -121 170.5 -121z" glyph-name="gbreve" horiz-adv-x="1171" unicode="ğ"/><glyph d="M1343 735v-735h-190l-31 156q-152 -188 -407 -189q-287 0 -465 196.5t-178 512.5t187 519.5t482 203.5q236 0 399 -135.5t185 -348.5h-289q-20 111 -99 172.5t-198 61.5q-172 0 -269 -125t-97 -347t98 -345t277 -123q141 0 231 85t94 222h-303v219h573zM874 1724v-219 h-264v219h264z" glyph-name="Gdotaccent" horiz-adv-x="1458" unicode="Ġ"/><glyph d="M1049 989v-866q0 -211 -66 -311q-119 -180 -424 -181q-424 0 -463 310h273q29 -127 196 -127q119 0 170 59t51 197v112q-102 -152 -299 -152t-310.5 131.5t-113.5 355.5t119 361.5t314 137.5q102 0 169.5 -36t125.5 -122v131h258zM562 805q-106 0 -166 -75t-60 -209 t59.5 -212t164.5 -78t166.5 79t61.5 210t-60 208t-166 77zM698 1391v-224h-254v224h254z" glyph-name="gdotaccent" horiz-adv-x="1171" unicode="ġ"/><glyph d="M1343 735v-735h-190l-31 156q-152 -188 -407 -189q-287 0 -465 196.5t-178 512.5t187 519.5t482 203.5q236 0 399 -135.5t185 -348.5h-289q-20 111 -99 172.5t-198 61.5q-172 0 -269 -125t-97 -347t98 -345t277 -123q141 0 231 85t94 222h-303v219h573zM850 -123v-147 q0 -119 -59.5 -172.5t-196.5 -59.5v88q78 6 107.5 26.5t35.5 74.5h-143v190h256z" glyph-name="Gcommaaccent" horiz-adv-x="1458" unicode="Ģ"/><glyph d="M1049 989v-866q0 -211 -66 -311q-119 -180 -424 -181q-424 0 -463 310h273q29 -127 196 -127q119 0 170 59t51 197v112q-102 -152 -299 -152t-310.5 131.5t-113.5 355.5t119 361.5t314 137.5q102 0 169.5 -36t125.5 -122v131h258zM562 805q-106 0 -166 -75t-60 -209 t59.5 -212t164.5 -78t166.5 79t61.5 210t-60 208t-166 77zM449 1159v148q0 84 17 124.5t72 72.5t154 34v-88q-72 -4 -102.5 -26.5t-36.5 -73.5h139v-191h-243z" glyph-name="gcommaaccent" horiz-adv-x="1171" unicode="ģ"/><glyph d="M1286 1366v-1366h-297v594h-559v-594h-297v1366h297v-520h559v520h297zM1061 1485h-244l-110 133l-115 -133h-232l224 256h256z" glyph-name="Hcircumflex" horiz-adv-x="1419" unicode="Ĥ"/><glyph d="M1286 1214h123v-190h-123v-1024h-297v594h-559v-594h-297v1024h-123v190h123v152h297v-152h559v152h297v-152zM430 1024v-178h559v178h-559z" glyph-name="Hbar" horiz-adv-x="1419" unicode="Ħ"/><glyph d="M389 0h-270v1090h-117v157h117v119h270v-119h283v-157h-283v-115q0 -10 -2 -121q66 86 138.5 124t174.5 38q205 0 293 -139q51 -82 51 -248v-629h-270v582q0 111 -31 151q-49 61 -143 62q-129 0 -182 -109q-29 -57 -29 -203v-483z" glyph-name="hbar" horiz-adv-x="1157" unicode="ħ"/><glyph d="M428 1366v-1366h-297v1366h297zM559 1690v-154h-557v154h557z" glyph-name="Imacron" horiz-adv-x="563" unicode="Ī"/><glyph d="M387 989v-989h-270v989h270zM512 1346v-144h-516v144h516z" glyph-name="imacron" horiz-adv-x="509" unicode="ī"/><glyph d="M430 1366v-1366h-297v1366h297zM283 1630q135 0 166 115h139q-6 -131 -84 -200.5t-221.5 -69.5t-221.5 69.5t-84 200.5h140q31 -115 166 -115z" glyph-name="Ibreve" horiz-adv-x="563" unicode="Ĭ"/><glyph d="M387 989v-989h-270v989h270zM254 1292q59 0 100 32t56 89h133q-6 -127 -82 -198.5t-207 -71.5t-208 71.5t-81 198.5h133q14 -57 55.5 -89t100.5 -32z" glyph-name="ibreve" horiz-adv-x="509" unicode="ĭ"/><glyph d="M133 1366h297v-1366q-45 -23 -79 -74t-34 -92t29 -65.5t62 -24.5t65 8v-112q-71 -20 -133 -20t-122 52t-60 121q0 129 141 207h-166v1366z" glyph-name="Iogonek" horiz-adv-x="563" unicode="Į"/><glyph d="M119 0v989h270v-989q-41 -29 -68.5 -78t-27.5 -90t26.5 -65.5t62.5 -24.5t71 10v-112q-69 -20 -137 -20t-127.5 50.5t-59.5 126.5q0 102 137 203h-147zM389 1366v-231h-270v231h270z" glyph-name="iogonek" horiz-adv-x="509" unicode="į"/><glyph d="M430 1366v-1366h-297v1366h297zM414 1724v-219h-264v219h264z" glyph-name="Idotaccent" horiz-adv-x="563" unicode="İ"/><glyph d="M389 989v-989h-270v989h270z" glyph-name="dotlessi" horiz-adv-x="509" unicode="ı"/><glyph d="M430 1366v-1366h-297v1366h297zM1485 1366v-920q0 -121 -18.5 -192.5t-63.5 -130.5q-119 -156 -365 -156q-293 0 -401 197q-55 102 -55 291v55h276v-39q0 -137 23 -184q39 -78 138 -78t134 50t35 177v930h297z" glyph-name="IJ" horiz-adv-x="1595" unicode="Ĳ"/><glyph d="M389 1366v-231h-270v231h270zM389 989v-989h-270v989h270zM899 989v-989l2 -76q0 -188 -141 -252q-94 -43 -299 -26v219q25 -2 51 -2q92 0 106 49q10 31 11 170v907h270zM899 1366v-231h-270v231h270z" glyph-name="ij" horiz-adv-x="1021" unicode="ĳ"/><glyph d="M428 0h-297v1366h297v-408q0 -35 -2 -172q72 88 115 134l422 446h378l-536 -541l586 -825h-377l-414 612l-172 -172v-440zM831 -123v-147q0 -119 -59 -172.5t-197 -59.5v88q78 6 108 26.5t36 74.5h-144v190h256z" glyph-name="Kcommaaccent" horiz-adv-x="1366" unicode="Ķ"/><glyph d="M389 0h-270v1366h270v-592q0 -37 -2 -156q49 63 70 84l280 287h322l-373 -366l416 -623h-330l-272 440l-111 -104v-336zM713 -123v-147q0 -84 -17.5 -125t-72.5 -73t-154 -34v88q72 4 102.5 26.5t36.5 74.5h-139v190h244z" glyph-name="kcommaaccent" horiz-adv-x="1093" unicode="ķ"/><glyph d="M389 0h-270v989h270v-215q0 -37 -2 -156q49 63 70 84l280 287h322l-373 -366l416 -623h-330l-272 440l-111 -104v-336z" glyph-name="kgreenlandic" horiz-adv-x="1093" unicode="ĸ"/><glyph d="M1098 252v-252h-965v1366h297v-1114h668zM606 1729l-284 -248h-201l172 248h313z" glyph-name="Lacute" horiz-adv-x="1148" unicode="Ĺ"/><glyph d="M389 1366v-1366h-270v1366h270zM592 1729l-285 -248h-201l173 248h313z" glyph-name="lacute" horiz-adv-x="509" unicode="ĺ"/><glyph d="M1098 252v-252h-965v1366h297v-1114h668zM745 -123v-147q0 -119 -59 -172.5t-197 -59.5v88q78 6 108 26.5t36 74.5h-144v190h256z" glyph-name="Lcommaaccent" horiz-adv-x="1148" unicode="Ļ"/><glyph d="M389 1366v-1366h-270v1366h270zM377 -123v-147q0 -84 -17.5 -125t-72.5 -73t-154 -34v88q72 4 102.5 26.5t36.5 74.5h-139v190h244z" glyph-name="lcommaaccent" horiz-adv-x="509" unicode="ļ"/><glyph d="M1098 252v-252h-965v1366h297v-1114h668zM905 1366v-147q0 -121 -59.5 -174.5t-196.5 -57.5v88q78 6 107.5 26.5t36.5 74.5h-144v190h256z" glyph-name="Lcaron" horiz-adv-x="1148" unicode="Ľ"/><glyph d="M389 1366v-1366h-270v1366h270zM756 1366v-147q0 -84 -17.5 -125t-64.5 -68q-57 -37 -162 -39v88q72 4 102.5 26.5t36.5 74.5h-139v190h244z" glyph-name="lcaron" horiz-adv-x="768" unicode="ľ"/><glyph d="M1098 252v-252h-965v1366h297v-1114h668zM1028 932v-336h-342v336h342z" glyph-name="Ldot" horiz-adv-x="1148" unicode="Ŀ"/><glyph d="M389 1366v-1366h-270v1366h270zM850 891v-336h-342v336h342z" glyph-name="ldot" horiz-adv-x="849" unicode="ŀ"/><glyph d="M131 1366h297v-498l281 193v-232l-281 -194v-383h668v-252h-965v494l-123 -93v232l123 92v641z" glyph-name="Lslash" horiz-adv-x="1148" unicode="Ł"/><glyph d="M119 1366h270v-496l123 86v-190l-123 -88v-678h-270v547l-123 -88v190l123 90v627z" glyph-name="lslash" horiz-adv-x="509" unicode="ł"/><glyph d="M1286 1366v-1366h-299l-407 659q-127 209 -172 306q12 -137 12 -383v-582h-287v1366h303l398 -645q139 -231 178 -315q-12 201 -13 391v569h287zM1034 1729l-284 -248h-201l172 248h313z" glyph-name="Nacute" horiz-adv-x="1419" unicode="Ń"/><glyph d="M377 989v-137q123 164 326 164t288 -135q53 -86 53 -258v-623h-270v567q0 98 -16 142q-33 86 -161 86t-181 -109q-27 -59 -27 -174v-512h-270v989h258zM891 1415l-277 -274h-182l172 274h287z" glyph-name="nacute" horiz-adv-x="1157" unicode="ń"/><glyph d="M1286 1366v-1366h-299l-407 659q-127 209 -172 306q12 -137 12 -383v-582h-287v1366h303l398 -645q139 -231 178 -315q-12 201 -13 391v569h287zM825 -123v-147q0 -119 -59 -172.5t-197 -59.5v88q78 6 108 26.5t36 74.5h-144v190h256z" glyph-name="Ncommaaccent" horiz-adv-x="1419" unicode="Ņ"/><glyph d="M377 989v-137q123 164 326 164t288 -135q53 -86 53 -258v-623h-270v567q0 98 -16 142q-33 86 -161 86t-181 -109q-27 -59 -27 -174v-512h-270v989h258zM705 -123v-147q0 -84 -17.5 -125t-72.5 -73t-154 -34v88q72 4 102.5 26.5t36.5 74.5h-139v190h244z" glyph-name="ncommaaccent" horiz-adv-x="1157" unicode="ņ"/><glyph d="M1286 1366v-1366h-299l-407 659q-127 209 -172 306q12 -137 12 -383v-582h-287v1366h303l398 -645q139 -231 178 -315q-12 201 -13 391v569h287zM1061 1741l-223 -256h-256l-222 256h232l115 -133l110 133h244z" glyph-name="Ncaron" horiz-adv-x="1419" unicode="Ň"/><glyph d="M377 989v-137q123 164 326 164t288 -135q53 -86 53 -258v-623h-270v567q0 98 -16 142q-33 86 -161 86t-181 -109q-27 -59 -27 -174v-512h-270v989h258zM918 1415l-211 -274h-250l-215 274h217l123 -168l125 168h211z" glyph-name="ncaron" horiz-adv-x="1157" unicode="ň"/><glyph d="M387 1366v-233q0 -199 -91 -285t-214 -98v135q63 14 99 62t38 120h-137v299h305zM768 989v-137q123 164 326 164t288 -135q53 -86 54 -258v-623h-271v567q0 98 -16 142q-33 86 -161 86t-181 -109q-27 -59 -27 -174v-512h-270v989h258z" glyph-name="napostrophe" horiz-adv-x="1548" unicode="ŉ"/><glyph d="M430 1366v-172q164 205 424 205t367 -170q66 -104 65 -322v-907q0 -125 -35.5 -242.5t-318.5 -115.5q-10 0 -109 4v219q27 -2 51 -2q90 0 105 49q10 33 10 170v758q1 135 -23 191t-84.5 88t-146.5 32t-158.5 -38.5t-109.5 -110.5t-37 -232v-770h-297v1366h297z" glyph-name="Eng" horiz-adv-x="1419" unicode="Ŋ"/><glyph d="M377 989v-137q125 164 327 164t287 -135q53 -86 53 -258v-623l3 -76q0 -188 -142 -252q-93 -42 -297 -26v219q27 -2 51 -2q90 0 105 49q10 33 10 170v485q0 98 -16 142q-33 86 -161 86t-181 -109q-27 -59 -27 -174v-512h-270v989h258z" glyph-name="eng" horiz-adv-x="1157" unicode="ŋ"/><glyph d="M747 1399q302 0 486 -200t184 -518t-185 -516t-486 -198t-487.5 196.5t-186.5 520.5t186.5 519.5t488.5 195.5zM747 1151q-171 0 -272.5 -125t-101.5 -342t101.5 -343t273.5 -126t270 128t98 342t-99 340t-270 126zM1077 1690v-154h-665v154h665z" glyph-name="Omacron" horiz-adv-x="1488" unicode="Ō"/><glyph d="M578 1016q230 0 368.5 -144t138.5 -378t-139 -377.5t-370.5 -143.5t-373 143.5t-141.5 378.5t143.5 378t373.5 143zM573 815q-113 0 -176 -85.5t-63 -235.5t63 -235t177 -85t176.5 85t62.5 236t-63.5 235.5t-176.5 84.5zM887 1346v-144h-627v144h627z" glyph-name="omacron" horiz-adv-x="1146" unicode="ō"/><glyph d="M747 1399q302 0 486 -200t184 -518t-185 -516t-486 -198t-487.5 196.5t-186.5 520.5t186.5 519.5t488.5 195.5zM747 1151q-171 0 -272.5 -125t-101.5 -342t101.5 -343t273.5 -126t270 128t98 342t-99 340t-270 126zM746 1630q158 0 190 115h141q-6 -131 -91 -200.5 t-242 -69.5t-241.5 69.5t-90.5 200.5h139q37 -115 195 -115z" glyph-name="Obreve" horiz-adv-x="1488" unicode="Ŏ"/><glyph d="M578 1016q230 0 368.5 -144t138.5 -378t-139 -377.5t-370.5 -143.5t-373 143.5t-141.5 378.5t143.5 378t373.5 143zM573 815q-113 0 -176 -85.5t-63 -235.5t63 -235t177 -85t176.5 85t62.5 236t-63.5 235.5t-176.5 84.5zM573.5 1292q139.5 0 169.5 121h134 q-6 -131 -84 -200.5t-219.5 -69.5t-219.5 69.5t-84 200.5h133q31 -121 170.5 -121z" glyph-name="obreve" horiz-adv-x="1146" unicode="ŏ"/><glyph d="M747 1399q302 0 486 -200t184 -518t-185 -516t-486 -198t-487.5 196.5t-186.5 520.5t186.5 519.5t488.5 195.5zM747 1151q-171 0 -272.5 -125t-101.5 -342t101.5 -343t273.5 -126t270 128t98 342t-99 340t-270 126zM1206 1729l-207 -248h-172l105 248h274zM864 1729 l-207 -248h-170l105 248h272z" glyph-name="Ohungarumlaut" horiz-adv-x="1488" unicode="Ő"/><glyph d="M578 1016q230 0 368.5 -144t138.5 -378t-139 -377.5t-370.5 -143.5t-373 143.5t-141.5 378.5t143.5 378t373.5 143zM573 815q-113 0 -176 -85.5t-63 -235.5t63 -235t177 -85t176.5 85t62.5 236t-63.5 235.5t-176.5 84.5zM1010 1415l-197 -276h-158l105 276h250zM682 1415 l-197 -276h-157l104 276h250z" glyph-name="ohungarumlaut" horiz-adv-x="1146" unicode="ő"/><glyph d="M1999 1366v-252h-682v-293h625v-235h-625v-334h696v-252h-975v104q-129 -135 -344 -135q-272 0 -447 199t-175 510t179 515t458 204q231 0 329 -129v98h961zM1032 539v292q0 135 -57 207q-84 109 -244 109t-259 -127t-99 -338t97.5 -338t247.5 -127t232 86t82 236z" glyph-name="OE" horiz-adv-x="2093" unicode="Œ"/><glyph d="M1241 -27q-240 0 -354 164q-117 -164 -340 -164t-354.5 142.5t-131.5 376.5t137.5 379t364.5 145t334 -156q125 156 340 156q127 0 304.5 -94.5t174.5 -489.5h-710q2 -123 65.5 -193.5t154.5 -70.5t138 33.5t84 111.5h260q-49 -164 -171 -252t-296 -88zM1226.5 821 q-96.5 0 -155 -59t-70.5 -170h445q-8 109 -65.5 169t-154 60zM557 815q-102 0 -162.5 -85t-60.5 -236.5t57.5 -235.5t162.5 -84t160.5 85t55.5 239t-55.5 235.5t-157.5 81.5z" glyph-name="oe" horiz-adv-x="1775" unicode="œ"/><glyph d="M131 1366h660q199 0 301 -61q178 -104 178 -326q0 -119 -57.5 -207t-159.5 -127q115 -35 157.5 -126t57.5 -326q10 -131 41 -177l12 -16h-311q-25 45 -35 184.5t-21.5 191.5t-44.5 93q-53 68 -213 68h-268v-537h-297v1366zM428 1130v-374h285q139 0 192 39q72 49 72 147 t-60.5 143t-191.5 45h-297zM989 1729l-284 -248h-201l172 248h313z" glyph-name="Racute" horiz-adv-x="1411" unicode="Ŕ"/><glyph d="M651 766q-150 0 -221 -123q-41 -66 -41 -229v-414h-270v989h258v-182q106 203 319 203q33 0 62 -4v-250q-61 10 -107 10zM758 1415l-277 -274h-180l172 274h285z" glyph-name="racute" horiz-adv-x="757" unicode="ŕ"/><glyph d="M131 1366h660q199 0 301 -61q178 -104 178 -326q0 -119 -57.5 -207t-159.5 -127q115 -35 157.5 -126t57.5 -326q10 -131 41 -177l12 -16h-311q-25 45 -35 184.5t-21.5 191.5t-44.5 93q-53 68 -213 68h-268v-537h-297v1366zM428 1130v-374h285q139 0 192 39q72 49 72 147 t-60.5 143t-191.5 45h-297zM821 -123v-147q0 -119 -59.5 -172.5t-196.5 -59.5v88q78 6 107.5 26.5t36.5 74.5h-144v190h256z" glyph-name="Rcommaaccent" horiz-adv-x="1411" unicode="Ŗ"/><glyph d="M651 766q-150 0 -221 -123q-41 -66 -41 -229v-414h-270v989h258v-182q106 203 319 203q33 0 62 -4v-250q-61 10 -107 10zM377 -123v-147q0 -84 -17.5 -125t-72.5 -73t-154 -34v88q72 4 102.5 26.5t36.5 74.5h-139v190h244z" glyph-name="rcommaaccent" horiz-adv-x="757" unicode="ŗ"/><glyph d="M131 1366h660q199 0 301 -61q178 -104 178 -326q0 -119 -57.5 -207t-159.5 -127q115 -35 157.5 -126t57.5 -326q10 -131 41 -177l12 -16h-311q-25 45 -35 184.5t-21.5 191.5t-44.5 93q-53 68 -213 68h-268v-537h-297v1366zM428 1130v-374h285q139 0 192 39q72 49 72 147 t-60.5 143t-191.5 45h-297zM1016 1741l-223 -256h-256l-222 256h232l115 -133l110 133h244z" glyph-name="Rcaron" horiz-adv-x="1411" unicode="Ř"/><glyph d="M651 766q-150 0 -221 -123q-41 -66 -41 -229v-414h-270v989h258v-182q106 203 319 203q33 0 62 -4v-250q-61 10 -107 10zM778 1415l-211 -274h-250l-215 274h217l123 -168l125 168h211z" glyph-name="rcaron" horiz-adv-x="757" unicode="ř"/><glyph d="M954 1729l-286 -248h-199l172 248h313zM373 1014q0 -70 55 -103q56 -29 280 -83t318 -117q166 -106 166 -306t-151 -319t-421 -119t-423.5 127t-159.5 363h297q6 -113 59 -170q82 -88 248 -88q115 0 182.5 49t67.5 134t-105 126q-52 20 -282 85t-314 136 q-104 94 -104 270t143.5 288t382.5 112q311 0 447 -182q74 -100 80 -256h-285q-16 207 -258 206q-106 0 -164.5 -41.5t-58.5 -111.5z" glyph-name="Sacute" horiz-adv-x="1255" unicode="Ś"/><glyph d="M477 834q-152 0 -151 -97q0 -49 44 -71.5t229 -60.5t271 -105.5t86 -207.5t-122.5 -229.5t-335.5 -89.5q-442 0 -465 349h260q10 -86 59.5 -126t141.5 -40t141 33t49 87t-42 78.5t-220 64.5t-248 79q-121 68 -121 214t113 225t317 79q252 0 365 -125q60 -68 70 -189h-254 q-10 70 -53.5 101t-133.5 31zM813 1415l-276 -274h-183l172 274h287z" glyph-name="sacute" horiz-adv-x="1015" unicode="ś"/><glyph d="M373 1014q0 -70 55 -103q56 -29 280 -83t318 -117q166 -106 166 -306t-151 -319t-421 -119t-424.5 128t-158.5 362h297q6 -113 59 -170q82 -88 248 -88q115 0 182.5 49t67.5 134t-105 126q-52 20 -282 85t-314 136q-104 94 -104 270t143 288t385 112t379.5 -113.5 t145.5 -324.5h-285q-16 207 -258 206q-106 0 -164.5 -41.5t-58.5 -111.5zM979 1485h-242l-112 133l-113 -133h-233l223 256h256z" glyph-name="Scircumflex" horiz-adv-x="1255" unicode="Ŝ"/><glyph d="M477 834q-152 0 -151 -97q0 -49 44 -71.5t229 -60.5t271 -105.5t86 -207.5t-122.5 -229.5t-335.5 -89.5q-442 0 -465 349h260q10 -86 59.5 -126t141.5 -40t141 33t49 87t-42 78.5t-220 64.5t-248 79q-121 68 -121 214t113 225t317 79q252 0 365 -125q60 -68 70 -189h-254 q-10 70 -53.5 101t-133.5 31zM846 1141h-221l-121 164l-123 -164h-209l213 274h248z" glyph-name="scircumflex" horiz-adv-x="1015" unicode="ŝ"/><glyph d="M629 -109q76 0 122 -38.5t46 -107.5t-66.5 -118t-170.5 -49t-216 45l37 80q97 -33 147 -33t75.5 19.5t25.5 51.5t-24.5 52.5t-56.5 20.5t-81 -15l-39 37l92 137q-229 25 -355 151t-128 333h297q6 -113 59 -170q82 -88 248 -88q115 0 182.5 49t67.5 134t-105 126 q-52 20 -282 85t-314 136q-104 94 -104 270t143.5 288t382.5 112q311 0 447 -182q74 -100 80 -256h-285q-16 207 -258 206q-106 0 -164.5 -41.5t-58.5 -111.5t54 -101t284 -87t315 -115q166 -106 166 -306t-150.5 -319t-410.5 -119h-21l-55 -84q43 8 74 8z" glyph-name="Scedilla" horiz-adv-x="1255" unicode="Ş"/><glyph d="M514 -113q76 0 122 -37.5t46 -108.5t-63.5 -119t-168.5 -48t-221 45l37 80q86 -33 140 -33t82 19.5t28 52.5t-25.5 52.5t-60.5 19.5t-76 -15l-41 37l103 145q-180 14 -279.5 103.5t-103.5 241.5h260q10 -86 59.5 -126t141.5 -40t141 33t49 87t-42 78.5t-220 64.5t-248 79 q-121 68 -121 214t113 225t317 79q252 0 365 -125q59 -68 70 -189h-254q-10 70 -53.5 101t-133.5 31q-152 0 -151 -97q0 -51 43 -72.5t229 -59.5t272 -105.5t86 -181.5q0 -223 -219 -308q-69 -29 -235 -39l-64 -92q49 8 76 8z" glyph-name="scedilla" horiz-adv-x="1015" unicode="ş"/><glyph d="M973 1741l-223 -256h-256l-222 256h232l114 -133l111 133h244zM373 1014q0 -70 55 -103q56 -29 280 -83t318 -117q166 -106 166 -306t-151 -319t-421 -119t-423.5 127t-159.5 363h297q6 -113 59 -170q82 -88 248 -88q115 0 182.5 49t67.5 134t-105 126q-52 20 -282 85 t-314 136q-104 94 -104 270t143.5 288t382.5 112q311 0 447 -182q74 -100 80 -256h-285q-16 207 -258 206q-106 0 -164.5 -41.5t-58.5 -111.5z" glyph-name="Scaron" horiz-adv-x="1255" unicode="Š"/><glyph d="M477 834q-152 0 -151 -97q0 -49 44 -71.5t229 -60.5t271 -105.5t86 -207.5t-122.5 -229.5t-335.5 -89.5q-442 0 -465 349h260q10 -86 59.5 -126t141.5 -40t141 33t49 87t-42 78.5t-220 64.5t-248 79q-121 68 -121 214t113 225t317 79q252 0 365 -125q60 -68 70 -189h-254 q-10 70 -53.5 101t-133.5 31zM838 1415l-211 -274h-250l-215 274h217l123 -168l125 168h211z" glyph-name="scaron" horiz-adv-x="1015" unicode="š"/><glyph d="M1157 1366v-252h-416v-1114h-297v1114h-411v252h1124zM725 -123v-147q0 -119 -59.5 -172.5t-196.5 -59.5v88q78 6 107.5 26.5t35.5 74.5h-143v190h256z" glyph-name="Tcommaaccent" horiz-adv-x="1189" unicode="Ţ"/><glyph d="M621 989v-182h-201v-467q0 -92 22 -117.5t76 -25.5t103 6v-207q-84 -10 -166 -10q-199 0 -262 94q-27 39 -35 90t-8 180v457h-166v182h166v299h270v-299h201zM494 -123v-147q0 -84 -17.5 -125t-72.5 -73t-154 -34v88q72 4 102.5 26.5t36.5 74.5h-139v190h244z" glyph-name="tcommaaccent" horiz-adv-x="661" unicode="ţ"/><glyph d="M1157 1366v-252h-416v-1114h-297v1114h-411v252h1124zM946 1741l-223 -256h-256l-221 256h231l115 -133l110 133h244z" glyph-name="Tcaron" horiz-adv-x="1189" unicode="Ť"/><glyph d="M621 989v-182h-201v-467q0 -92 22 -117.5t76 -25.5t103 6v-207q-84 -10 -166 -10q-199 0 -262 94q-27 39 -35 90t-8 180v457h-166v182h166v299h270v-299h201zM784 1477v-148q0 -84 -17 -124.5t-73 -72.5t-153 -34v88q72 4 102.5 26.5t36.5 73.5h-139v191h243z" glyph-name="tcaron" horiz-adv-x="798" unicode="ť"/><glyph d="M1157 1366v-252h-416v-268h316v-191h-316v-655h-297v655h-313v191h313v268h-411v252h1124z" glyph-name="Tbar" horiz-adv-x="1189" unicode="Ŧ"/><glyph d="M621 989v-182h-201v-168h180v-158h-180v-141q0 -92 21 -117.5t75 -25.5t105 6v-207q-84 -10 -166 -10q-199 0 -262 94q-27 39 -35 90t-8 180v131h-146v158h146v168h-166v182h166v299h270v-299h201z" glyph-name="tbar" horiz-adv-x="661" unicode="ŧ"/><glyph d="M1038 989v-989h-258v139q-117 -166 -313 -166t-291 119q-66 82 -65 270v627h270v-547q0 -141 27 -182q43 -66 145 -65q129 0 186 110q29 55 29 193v491h270zM694 1167q-39 0 -71.5 10.5t-90.5 36.5t-83 27q-63 0 -80 -80h-123q16 109 72.5 173.5t134.5 64.5q47 0 130 -35 t119 -35q49 0 78 74h123q-43 -236 -209 -236z" glyph-name="utilde" horiz-adv-x="1159" unicode="ũ"/><glyph d="M1278 1366v-807q0 -154 -23.5 -244t-83.5 -165q-143 -182 -486 -182t-486 206q-49 70 -68.5 156t-19.5 233v803h297v-823q0 -156 45 -224q73 -104 237 -104t227.5 75t63.5 253v823h297zM1028 1690v-154h-668v154h668z" glyph-name="Umacron" horiz-adv-x="1392" unicode="Ū"/><glyph d="M1038 989v-989h-258v139q-117 -166 -313 -166t-291 119q-66 82 -65 270v627h270v-547q0 -141 27 -182q43 -66 145 -65q129 0 186 110q29 55 29 193v491h270zM887 1346v-144h-625v144h625z" glyph-name="umacron" horiz-adv-x="1159" unicode="ū"/><glyph d="M1278 1366v-807q0 -154 -23.5 -244t-83.5 -165q-143 -182 -486 -182t-486 206q-49 70 -68.5 156t-19.5 233v803h297v-823q0 -156 45 -224q73 -104 237 -104t227.5 75t63.5 253v823h297zM694.5 1630q157.5 0 194.5 115h139q-6 -131 -91 -200.5t-240.5 -69.5t-240.5 69.5 t-91 200.5h139q33 -115 190.5 -115z" glyph-name="Ubreve" horiz-adv-x="1392" unicode="Ŭ"/><glyph d="M1038 989v-989h-258v139q-117 -166 -313 -166t-291 119q-66 82 -65 270v627h270v-547q0 -141 27 -182q43 -66 145 -65q129 0 186 110q29 55 29 193v491h270zM580 1292q139 0 170 121h131q-4 -131 -82 -200.5t-220 -69.5t-219.5 68.5t-83.5 201.5h134q31 -121 170 -121z " glyph-name="ubreve" horiz-adv-x="1159" unicode="ŭ"/><glyph d="M1278 1366v-807q0 -154 -23.5 -244t-83.5 -165q-143 -182 -486 -182t-486 206q-49 70 -68.5 156t-19.5 233v803h297v-823q0 -156 45 -224q73 -104 237 -104t227.5 75t63.5 253v823h297zM695 1890q93 0 160 -67.5t67 -160.5t-67 -159.5t-160 -66.5t-159.5 66.5 t-66.5 161.5t66.5 160.5t159.5 65.5zM695 1772q-44 0 -75.5 -32t-31.5 -77t31.5 -77t75.5 -32t76 32t32 77t-32 77t-76 32z" glyph-name="Uring" horiz-adv-x="1392" unicode="Ů"/><glyph d="M1038 989v-989h-258v139q-117 -166 -313 -166t-291 119q-66 82 -65 270v627h270v-547q0 -141 27 -182q43 -66 145 -65q129 0 186 110q29 55 29 193v491h270zM575 1511q87 0 149 -62.5t62 -150.5t-62 -150.5t-150.5 -62.5t-151 62.5t-62.5 151.5t64 150.5t151 61.5z M574 1395q-40 0 -68.5 -28t-28.5 -69t27.5 -68.5t68.5 -27.5t69 27.5t28 67.5t-28 69t-68 29z" glyph-name="uring" horiz-adv-x="1159" unicode="ů"/><glyph d="M1278 1366v-807q0 -154 -23.5 -244t-83.5 -165q-143 -182 -486 -182t-486 206q-49 70 -68.5 156t-19.5 233v803h297v-823q0 -156 45 -224q73 -104 237 -104t227.5 75t63.5 253v823h297zM1151 1729l-207 -248h-172l105 248h274zM809 1729l-207 -248h-170l105 248h272z" glyph-name="Uhungarumlaut" horiz-adv-x="1392" unicode="Ű"/><glyph d="M1038 989v-989h-258v139q-117 -166 -313 -166t-291 119q-66 82 -65 270v627h270v-547q0 -141 27 -182q43 -66 145 -65q129 0 186 110q29 55 29 193v491h270zM1001 1415l-196 -276h-158l105 276h249zM674 1415l-197 -276h-158l105 276h250z" glyph-name="uhungarumlaut" horiz-adv-x="1159" unicode="ű"/><glyph d="M981 1366h297v-807q0 -225 -59 -338q-31 -57 -71 -98t-116 -95t-101.5 -92t-25.5 -84t34 -71t76 -25t83 11v-113q-182 -55 -269.5 11.5t-87.5 148.5q0 51 29 87t102 81q-84 -14 -165 -15q-367 0 -508 207q-49 70 -68.5 156t-19.5 233v803h297v-823q0 -156 45 -224 q73 -104 237 -104t227.5 75t63.5 253v823z" glyph-name="Uogonek" horiz-adv-x="1392" unicode="Ų"/><glyph d="M768 989h270v-989q-121 -78 -120 -162q0 -45 33.5 -70.5t76.5 -25.5t84 10v-112q-182 -55 -269 10.5t-87 135.5q0 138 149 214h-125v139q-117 -166 -313 -166t-291 119q-66 82 -65 270v627h270v-547q0 -141 27 -182q43 -66 145 -65q129 0 186 110q29 55 29 193v491z" glyph-name="uogonek" horiz-adv-x="1159" unicode="ų"/><glyph d="M1804 1366l-370 -1366h-297l-150 586q-45 203 -86 454q-31 -231 -86 -448l-143 -592h-303l-365 1366h299l135 -573q74 -317 86 -500q16 180 92 498l148 575h283l143 -563q74 -348 92 -510q18 190 92 522l133 551h297zM1253 1485h-241l-113 133l-113 -133h-233l223 256 h256z" glyph-name="Wcircumflex" horiz-adv-x="1806" unicode="Ŵ"/><glyph d="M768 0h-297v530l-510 836h340l213 -365q74 -133 109 -223q66 152 114 238l207 350h332l-508 -840v-526zM977 1485h-242l-112 133l-113 -133h-234l224 256h256z" glyph-name="Ycircumflex" horiz-adv-x="1241" unicode="Ŷ"/><glyph d="M197 -127q153 -1 153 107q0 50 -8 79l-352 930h293l163 -485q25 -74 62 -230q47 180 67 242l154 473h281l-363 -985q-57 -152 -92 -211t-90 -98q-90 -57 -242 -49l-26 2l-111 2v223h111zM846 1141h-219l-121 164l-123 -164h-209l213 274h248z" glyph-name="ycircumflex" horiz-adv-x="1001" unicode="ŷ"/><glyph d="M768 0h-297v530l-510 836h340l213 -365q74 -133 109 -223q66 152 114 238l207 350h332l-508 -840v-526zM971 1724v-219h-264v219h264zM547 1724v-219h-264v219h264z" glyph-name="Ydieresis" horiz-adv-x="1241" unicode="Ÿ"/><glyph d="M1176 1366v-227l-611 -731q-12 -16 -151 -164q190 8 274 8h512v-252h-1155v238l629 751q41 45 125 131q-176 -6 -248 -6h-455v252h1080zM975 1729l-285 -248h-201l173 248h313z" glyph-name="Zacute" horiz-adv-x="1247" unicode="Ź"/><glyph d="M924 989v-198l-406 -459q-39 -45 -127 -127q106 6 137 6h430v-211h-911v205l395 444q33 35 140 133q-45 -4 -101 -4h-395v211h838zM821 1415l-276 -274h-183l173 274h286z" glyph-name="zacute" horiz-adv-x="978" unicode="ź"/><glyph d="M1176 1366v-227l-611 -731q-12 -16 -151 -164q190 8 274 8h512v-252h-1155v238l629 751q41 45 125 131q-176 -6 -248 -6h-455v252h1080zM782 1724v-219h-264v219h264z" glyph-name="Zdotaccent" horiz-adv-x="1247" unicode="Ż"/><glyph d="M924 989v-198l-406 -459q-39 -45 -127 -127q106 6 137 6h430v-211h-911v205l395 444q33 35 140 133q-45 -4 -101 -4h-395v211h838zM643 1391v-224h-254v224h254z" glyph-name="zdotaccent" horiz-adv-x="978" unicode="ż"/><glyph d="M1176 1366v-227l-611 -731q-12 -16 -151 -164q190 8 274 8h512v-252h-1155v238l629 751q41 45 125 131q-176 -6 -248 -6h-455v252h1080zM1001 1741l-223 -256h-256l-221 256h231l115 -133l111 133h243z" glyph-name="Zcaron" horiz-adv-x="1247" unicode="Ž"/><glyph d="M924 989v-198l-406 -459q-39 -45 -127 -127q106 6 137 6h430v-211h-911v205l395 444q33 35 140 133q-45 -4 -101 -4h-395v211h838zM854 1415l-211 -274h-250l-215 274h217l123 -168l125 168h211z" glyph-name="zcaron" horiz-adv-x="978" unicode="ž"/><glyph d="M741 1145q-121 0 -200.5 -55.5t-139.5 -180.5l-251 123q186 356 595 357q252 0 416 -144q111 -96 174.5 -248.5t63.5 -314.5t-51.5 -301t-141.5 -236q-180 -188 -472 -188t-472 188q-90 96 -141 234.5t-51 292.5q0 55 8 123h1022q-68 350 -359 350zM733.5 201 q145.5 0 241.5 92t125 262h-733q31 -170 126 -262t240.5 -92z" glyph-name="uni018F" horiz-adv-x="1466" unicode="Ə"/><glyph d="M250 -350q-65 0 -172 4l35 203q27 -2 55 -2q92 0 121.5 35.5t54.5 177.5l121 690h-160l29 157h160l41 232q33 186 123 264t274 78q49 0 135 -6l-37 -203q-43 2 -69 2q-76 0 -109 -32.5t-47 -125.5l-37 -209h188l-26 -157h-191l-129 -729q-20 -121 -42.5 -180.5 t-65.5 -104.5q-90 -94 -252 -94z" glyph-name="florin" horiz-adv-x="1146" unicode="ƒ"/><glyph d="M827 1368l521 -1368h-314l-108 305h-508l-111 -305h-307l520 1368h307zM852 524l-88 246q-57 162 -90 297q-31 -106 -96 -297l-89 -246h363zM1024 1741l-223 -256h-256l-221 256h231l115 -133l110 133h244z" glyph-name="uni01CD" horiz-adv-x="1345" unicode="Ǎ"/><glyph d="M397 -27q-162 0 -254 80t-92 219q0 186 172 258q63 28 241 52t218.5 43.5t40.5 79.5q0 129 -178 129q-94 0 -137 -33t-58 -115h-256q25 330 457 330q233 0 350 -94q51 -41 68.5 -92.5t17.5 -182.5t-4 -307v-74q0 -180 35 -266h-277q-16 51 -16 96q-127 -123 -328 -123z M721 371v112q-55 -35 -179 -51t-168 -49t-44 -98t40 -100t111 -35q119 0 195 81q45 52 45 140zM885 1415l-211 -274h-250l-215 274h217l123 -168l125 168h211z" glyph-name="uni01CE" horiz-adv-x="1067" unicode="ǎ"/><glyph d="M164 0v365l76 585h137l74 -581v-369h-287zM158 1073v293h297v-293h-297z" glyph-name="uni01D1" horiz-adv-x="651" unicode="Ǒ"/><glyph d="M1278 1366v-807q0 -154 -23.5 -244t-83.5 -165q-143 -182 -486 -182t-486 206q-49 70 -68.5 156t-19.5 233v803h297v-823q0 -156 45 -224q73 -104 237 -104t227.5 75t63.5 253v823h297zM1047 1741l-224 -256h-256l-221 256h232l114 -133l111 133h244z" glyph-name="uni01D3" horiz-adv-x="1392" unicode="Ǔ"/><glyph d="M1038 989v-989h-258v139q-117 -166 -313 -166t-291 119q-66 82 -65 270v627h270v-547q0 -141 27 -182q43 -66 145 -65q129 0 186 110q29 55 29 193v491h270zM918 1415l-211 -274h-250l-215 274h217l123 -168l125 168h211z" glyph-name="uni01D4" horiz-adv-x="1159" unicode="ǔ"/><glyph d="M1343 735v-735h-190l-31 156q-152 -188 -407 -189q-287 0 -465 196.5t-178 512.5t187 519.5t482 203.5q236 0 399 -135.5t185 -348.5h-289q-20 111 -99 172.5t-198 61.5q-172 0 -269 -125t-97 -347t98 -345t277 -123q141 0 231 85t94 222h-303v219h573zM1100 1741 l-223 -256h-256l-222 256h232l114 -133l111 133h244z" glyph-name="Gcaron" horiz-adv-x="1458" unicode="Ǧ"/><glyph d="M1049 989v-866q0 -211 -66 -311q-119 -180 -424 -181q-424 0 -463 310h273q29 -127 196 -127q119 0 170 59t51 197v112q-102 -152 -299 -152t-310.5 131.5t-113.5 355.5t119 361.5t314 137.5q102 0 169.5 -36t125.5 -122v131h258zM562 805q-106 0 -166 -75t-60 -209 t59.5 -212t164.5 -78t166.5 79t61.5 210t-60 208t-166 77zM909 1415l-211 -274h-249l-216 274h218l122 -168l125 168h211z" glyph-name="gcaron" horiz-adv-x="1171" unicode="ǧ"/><glyph d="M1343 735v-735h-190l-31 156q-152 -188 -407 -189q-287 0 -465 196.5t-178 512.5t187 519.5t482 203.5q236 0 399 -135.5t185 -348.5h-289q-20 111 -99 172.5t-198 61.5q-172 0 -269 -125t-97 -347t98 -345t277 -123q141 0 231 85t94 222h-303v219h573zM1067 1729 l-287 -248h-198l172 248h313z" glyph-name="uni01F4" horiz-adv-x="1458" unicode="Ǵ"/><glyph d="M743 -123v-147q0 -119 -59 -172.5t-197 -59.5v88q78 6 108 26.5t36 74.5h-144v190h256zM373 1014q0 -70 55 -103q56 -29 280 -83t318 -117q166 -106 166 -306t-151 -319t-421 -119t-423.5 127t-159.5 363h297q6 -113 59 -170q82 -88 248 -88q115 0 182.5 49t67.5 134 t-105 126q-52 20 -282 85t-314 136q-104 94 -104 270t143.5 288t382.5 112q311 0 447 -182q74 -100 80 -256h-285q-16 207 -258 206q-106 0 -164.5 -41.5t-58.5 -111.5z" glyph-name="Scommaaccent" horiz-adv-x="1255" unicode="Ș"/><glyph d="M477 834q-152 0 -151 -97q0 -49 44 -71.5t229 -60.5t271 -105.5t86 -207.5t-122.5 -229.5t-335.5 -89.5q-442 0 -465 349h260q10 -86 59.5 -126t141.5 -40t141 33t49 87t-42 78.5t-220 64.5t-248 79q-121 68 -121 214t113 225t317 79q252 0 365 -125q60 -68 70 -189h-254 q-10 70 -53.5 101t-133.5 31zM616 -123v-147q0 -84 -17 -125t-72 -73t-154 -34v88q72 4 102.5 26.5t36.5 74.5h-139v190h243z" glyph-name="scommaaccent" horiz-adv-x="1015" unicode="ș"/><glyph d="M1157 1366v-252h-416v-1114h-297v1114h-411v252h1124zM725 -123v-147q0 -119 -59.5 -172.5t-196.5 -59.5v88q78 6 107.5 26.5t35.5 74.5h-143v190h256z" glyph-name="uni021A" horiz-adv-x="1189" unicode="Ț"/><glyph d="M621 989v-182h-201v-467q0 -92 22 -117.5t76 -25.5t103 6v-207q-84 -10 -166 -10q-199 0 -262 94q-27 39 -35 90t-8 180v457h-166v182h166v299h270v-299h201zM494 -123v-147q0 -84 -17.5 -125t-72.5 -73t-154 -34v88q72 4 102.5 26.5t36.5 74.5h-139v190h244z" glyph-name="uni021B" horiz-adv-x="661" unicode="ț"/><glyph d="M537 817q-150 0 -197 -121h-277q47 154 175.5 243t302.5 89q219 0 346 -140t127 -388t-126 -395.5t-345 -147.5q-156 0 -272.5 78.5t-162.5 200.5t-45 276q1 18 3 51h677q-2 119 -36 170q-55 84 -170 84zM545 168q169 0 196 217h-399q8 -106 60.5 -161.5t142.5 -55.5z " glyph-name="uni0259" horiz-adv-x="1083" unicode="ə"/><glyph d="M434 1366v-233q0 -199 -91 -285t-214 -98v135q63 14 99 62t38 120h-137v299h305z" glyph-name="afii57929" horiz-adv-x="563" unicode="ʼ"/><glyph d="M850 1141h-221l-121 164l-123 -164h-209l213 274h248z" glyph-name="circumflex" unicode="ˆ"/><glyph d="M850 1415l-211 -274h-250l-215 274h217l123 -168l125 168h211z" glyph-name="caron" unicode="ˇ"/><glyph d="M823 1346v-144h-624v144h624z" glyph-name="uni02C9" unicode="ˉ"/><glyph d="M513 1292q140 0 167 121h133q-4 -131 -82 -200.5t-220 -69.5t-219 68.5t-83 201.5h133q31 -121 171 -121z" glyph-name="breve" unicode="˘"/><glyph d="M639 1391v-224h-254v224h254z" glyph-name="dotaccent" unicode="˙"/><glyph d="M513 1511q87 0 149.5 -62.5t62.5 -150.5t-62.5 -150.5t-150.5 -62.5t-150.5 62.5t-62.5 151.5t63.5 150.5t150.5 61.5zM513 1395q-40 0 -68.5 -28t-28.5 -69t27.5 -68.5t68.5 -27.5t68.5 27.5t27.5 67.5t-27.5 69t-67.5 29z" glyph-name="ring" unicode="˚"/><glyph d="M687 -258q42 0 83 10v-112q-182 -55 -269 10.5t-87 155.5t135 194h139q-111 -84 -110 -166q0 -41 33.5 -66.5t75.5 -25.5z" glyph-name="ogonek" unicode="˛"/><glyph d="M633 1167q-58 0 -141 37t-105 37q-68 0 -80 -80h-123q16 109 72.5 173.5t134.5 64.5q47 0 130 -35t118 -35q53 0 78 74h123q-39 -236 -207 -236z" glyph-name="tilde" unicode="˜"/><glyph d="M920 1415l-197 -276h-156l105 276h248zM592 1415l-197 -276h-155l104 276h248z" glyph-name="hungarumlaut" unicode="˝"/><glyph d="M438 662v-304h-309v304h309z" glyph-name="anoteleia" horiz-adv-x="569" unicode="·"/><glyph d="M569 631v-244h-518v244h518z" glyph-name="Wacute" horiz-adv-x="622" unicode="Ẃ"/><glyph d="M1804 1366l-370 -1366h-297l-150 586q-45 203 -86 454q-31 -231 -86 -448l-143 -592h-303l-365 1366h299l135 -573q74 -317 86 -500q16 180 92 498l148 575h283l143 -563q74 -348 92 -510q18 190 92 522l133 551h297zM1247 1724v-219h-264v219h264zM823 1724v-219h-264 v219h264z" glyph-name="Wdieresis" horiz-adv-x="1806" unicode="Ẅ"/><glyph glyph-name="uni2002" unicode=" "/><glyph glyph-name="uni2003" horiz-adv-x="2048" unicode=" "/><glyph glyph-name="uni2004" horiz-adv-x="681" unicode=" "/><glyph glyph-name="uni2005" horiz-adv-x="512" unicode=" "/><glyph glyph-name="uni2006" horiz-adv-x="137" unicode=" "/><glyph glyph-name="uni2007" horiz-adv-x="1146" unicode=" "/><glyph glyph-name="uni2009" horiz-adv-x="256" unicode=" "/><glyph glyph-name="uni200A" horiz-adv-x="67" unicode=" "/><glyph d="M518 631v-244h-518v244h518z" glyph-name="uni2011" horiz-adv-x="518" unicode="‑"/><glyph d="M1036 631v-244h-927v244h927z" glyph-name="figuredash" horiz-adv-x="1146" unicode="‒"/><glyph d="M1036 631v-244h-927v244h927z" glyph-name="endash" horiz-adv-x="1146" unicode="–"/><glyph d="M1516 631v-244h-1516v244h1516z" glyph-name="emdash" horiz-adv-x="1515" unicode="—"/><glyph d="M1516 631v-244h-1516v244h1516z" glyph-name="afii00208" horiz-adv-x="1515" unicode="―"/><glyph d="M0 -106h1024v-123h-1024v123zM0 -346h1024v-123h-1024v123z" glyph-name="underscoredbl" unicode="‗"/><glyph d="M129 768v233q0 197 98 293q80 78 207 92v-135q-63 -14 -99 -63t-38 -121h137v-299h-305z" glyph-name="quoteleft" horiz-adv-x="563" unicode="‘"/><glyph d="M434 1366v-233q0 -199 -91 -285t-214 -98v135q63 14 99 62t38 120h-137v299h305z" glyph-name="quoteright" horiz-adv-x="563" unicode="’"/><glyph d="M434 299v-233q0 -199 -98 -291q-80 -78 -207 -92v135q63 14 99 62t38 120h-137v299h305z" glyph-name="quotesinglbase" horiz-adv-x="563" unicode="‚"/><glyph d="M129 776v240q0 168 77 258t197 112v-126q-125 -35 -129 -189h129v-295h-274zM530 776v240q0 168 77 258t198 112v-126q-125 -35 -129 -189h129v-295h-275z" glyph-name="quotedblleft" horiz-adv-x="935" unicode="“"/><glyph d="M805 1366v-238q0 -168 -77 -258t-198 -112v129q125 31 129 186h-129v293h275zM403 1366v-238q-1 -168 -77 -258t-197 -112v129q125 31 129 186h-129v293h274z" glyph-name="quotedblright" horiz-adv-x="935" unicode="”"/><glyph d="M805 293v-238q0 -168 -78 -260q-80 -90 -197 -108v127q125 33 129 186h-129v293h275zM403 293v-238q0 -168 -77 -260q-80 -90 -197 -108v127q125 33 129 186h-129v293h274z" glyph-name="quotedblbase" horiz-adv-x="935" unicode="„"/><glyph d="M1061 989v-233h-356v-1106h-265v1106h-354v233h354v377h265v-377h356z" glyph-name="dagger" horiz-adv-x="1146" unicode="†"/><glyph d="M1061 985v-227h-356v-498h356v-227h-356v-383h-265v383h-354v227h354v498h-354v227h354v381h265v-381h356z" glyph-name="daggerdbl" horiz-adv-x="1146" unicode="‡"/><glyph d="M686 977q117 0 200 -84t83 -201t-83 -199.5t-200 -82.5t-201 82.5t-84 200.5t84 201t201 83z" glyph-name="bullet" horiz-adv-x="1366" unicode="•"/><glyph d="M438 303v-303h-309v303h309zM1008 303v-303h-310v303h310zM1577 303v-303h-309v303h309z" glyph-name="ellipsis" horiz-adv-x="1708" unicode="…"/><glyph d="M1194 1380l-842 -1433h-166l844 1433h164zM1063 633q129 0 200.5 -84t71.5 -242t-71.5 -245t-207.5 -87t-208 83t-72 243q0 332 287 332zM1059 508q-111 0 -111 -205q0 -106 25.5 -154.5t85.5 -48.5q104 0 104 204t-104 204zM1721 633q134 0 206 -84t72 -242t-72 -245 t-207 -87t-206.5 83t-71.5 244t72.5 246t206.5 85zM1722 508q-110 0 -110 -204t110 -204q104 0 104 204t-104 204zM349 1352q136 0 207 -84t71 -242t-75 -245t-208 -87t-204.5 84t-71.5 244t72.5 245t208.5 85zM346.5 1227q-106.5 0 -106.5 -203t106.5 -203t106.5 203 t-106.5 203z" glyph-name="perthousand" horiz-adv-x="2068" unicode="‰"/><glyph d="M389 872v-231l-172 -135l172 -135v-226l-301 234v256z" glyph-name="guilsinglleft" horiz-adv-x="501" unicode="‹"/><glyph d="M115 872l301 -237v-256l-301 -234v226l172 135l-172 135v231z" glyph-name="guilsinglright" horiz-adv-x="501" unicode="›"/><glyph d="M369 1366v-362l-78 -580h-135l-76 575v367h289zM373 307v-307h-299v307h299zM844 1366v-362l-76 -580h-137l-76 575v367h289zM850 307v-307h-299v307h299z" glyph-name="exclamdbl" horiz-adv-x="923" unicode="‼"/><glyph d="M0 1790h1024v-174h-1024v174z" glyph-name="uni203E" unicode="‾"/><glyph d="M618 1346l-745 -1346h-160l750 1346h155z" glyph-name="fraction" horiz-adv-x="331" unicode="⁄"/><glyph d="M385 1360q152 0 236 -109.5t84 -303.5t-85 -303t-236 -109t-237 109.5t-86 303.5t86 303t238 109zM385 1214q-74 0 -106.5 -64.5t-32.5 -209.5q0 -260 137 -260t137 267t-135 267z" glyph-name="uni2070" horiz-adv-x="768" unicode="⁰"/><glyph d="M717 874v-147h-111v-180h-180v180h-369v158l379 469h170v-480h111zM432 868v291l-223 -291h223z" glyph-name="uni2074" horiz-adv-x="768" unicode="⁴"/><glyph d="M653 1346v-154h-354l-16 -90q-6 -27 -13 -58q66 47 150 48q127 0 203.5 -74t76.5 -198t-93 -206t-237 -82t-229.5 70t-91.5 191h184q6 -53 42.5 -85t96.5 -32t99 40t39 104t-38 102.5t-112 38.5t-116 -66l-168 2l86 449h491z" glyph-name="uni2075" horiz-adv-x="768" unicode="⁵"/><glyph d="M408 1225q-133 0 -156 -211q74 76 188 76t192.5 -76t78.5 -197t-88 -203t-234 -82t-233.5 105.5t-87.5 299.5t92 308.5t250 114.5q121 0 195.5 -59t90.5 -168h-178q-25 92 -110 92zM397.5 956q-57.5 0 -94.5 -39t-37 -99t37 -100t94.5 -40t94 40t36.5 99.5t-36.5 99 t-94 39.5z" glyph-name="uni2076" horiz-adv-x="768" unicode="⁶"/><glyph d="M684 1346v-144l-45 -45q-115 -127 -171 -271.5t-69 -338.5h-194q2 147 83 333.5t197 307.5q-80 -2 -102 -2h-299v160h600z" glyph-name="uni2077" horiz-adv-x="768" unicode="⁷"/><glyph d="M90 1130q0 106 84 168t212 62t212 -62t84 -166t-111 -157q145 -51 146 -189q0 -115 -91 -184.5t-240.5 -69.5t-240 68t-90.5 180q1 142 144 195q-109 49 -109 155zM387 1225q-57 0 -91 -25.5t-34 -71t34 -73t91 -27.5t90 26.5t33 72.5t-33 72t-90 26zM385.5 907 q-63.5 0 -102.5 -32.5t-39 -86t40 -86t103.5 -32.5t102 32.5t38.5 84.5t-39.5 86t-103 34z" glyph-name="uni2078" horiz-adv-x="768" unicode="⁸"/><glyph d="M365 670q125 0 149 209q-70 -78 -184 -78t-192.5 75.5t-78.5 196.5t90.5 204t234.5 83t230 -105t86 -297t-91 -309t-230 -117t-216 61t-89 167h178q18 -90 113 -90zM372 1214q-56 0 -93 -39t-37 -99t37 -100t93 -40t93 39t37 98.5t-37 100t-93 40.5z" glyph-name="uni2079" horiz-adv-x="768" unicode="⁹"/><glyph d="M385 813q152 0 236 -109.5t84 -303.5t-85 -303t-236 -109t-237 109t-86 303t86 303.5t238 109.5zM385 668q-74 0 -106.5 -64.5t-32.5 -210.5q0 -260 137 -260q137 -1 137 267t-135 268z" glyph-name="uni2080" horiz-adv-x="768" unicode="₀"/><glyph d="M541 807v-807h-189v518h-205v129q113 0 171.5 38t72.5 122h150z" glyph-name="uni2081" horiz-adv-x="768" unicode="₁"/><glyph d="M698 154v-154h-643q8 135 65.5 204.5t272.5 201.5q61 39 86 70.5t25 76.5t-32 74.5t-83 29.5q-131 0 -133 -172h-180q-2 10 -2 23q0 139 87 221t227 82t223 -69.5t83 -183.5t-102 -198q-40 -30 -154 -100t-143 -110q59 4 133 4h270z" glyph-name="uni2082" horiz-adv-x="768" unicode="₂"/><glyph d="M377 811q135 0 216 -61.5t81 -163.5t-103 -152q133 -47 133 -173t-91 -199.5t-237 -73.5t-234.5 76.5t-88.5 209.5v15h183q-2 -72 33 -111t101 -39t103 31t37 82q0 111 -150 110q-29 0 -49 -4v129q18 -2 37 -2q143 0 144 93q0 41 -31 65.5t-82 24.5q-119 0 -125 -133 h-178q4 129 85 202.5t216 73.5z" glyph-name="uni2083" horiz-adv-x="768" unicode="₃"/><glyph d="M717 330v-148h-111v-182h-180v182h-369v158l379 467h170v-477h111zM432 324v290l-223 -290h223z" glyph-name="uni2084" horiz-adv-x="768" unicode="₄"/><glyph d="M653 801v-154h-354l-16 -90q-4 -29 -13 -57q63 45 169 45t183.5 -72.5t77.5 -196.5t-93 -206t-237 -82t-229.5 69.5t-91.5 190.5h184q6 -53 42.5 -84t96.5 -31t99 40t39 103.5t-39 101.5t-111 38t-116 -66l-168 2l86 449h491z" glyph-name="uni2085" horiz-adv-x="768" unicode="₅"/><glyph d="M408 676q-133 0 -156 -205q74 74 188 74t192.5 -76t78.5 -197t-88 -202.5t-234 -81.5t-233.5 105t-87.5 299t91 307.5t251 113.5q121 0 195.5 -58t90.5 -167h-178q-25 88 -110 88zM397.5 412q-57.5 0 -94.5 -39t-37 -99t37 -100.5t94.5 -40.5t94 40t36.5 99.5t-36.5 99.5 t-94 40z" glyph-name="uni2086" horiz-adv-x="768" unicode="₆"/><glyph d="M684 801v-144l-45 -45q-115 -129 -171 -272t-69 -340h-194q2 147 83 334.5t197 308.5q-80 -2 -102 -2h-299v160h600z" glyph-name="uni2087" horiz-adv-x="768" unicode="₇"/><glyph d="M90 582q0 106 84 168.5t212 62.5t212 -61.5t84 -165.5t-111 -156q145 -51 146 -188q0 -115 -91 -184.5t-240.5 -69.5t-240 67.5t-90.5 180.5q1 139 144 194q-109 46 -109 152zM387 680q-57 0 -91 -25.5t-34 -70.5t34 -73t91 -28t90 27t33 73t-33 71.5t-90 25.5z M385.5 362q-63.5 0 -102.5 -32.5t-39 -86t40 -86t103.5 -32.5t102 32.5t38.5 84.5t-39.5 86t-103 34z" glyph-name="uni2088" horiz-adv-x="768" unicode="₈"/><glyph d="M365 125q125 0 149 209q-70 -78 -184 -78t-192.5 76t-78.5 196t90.5 202.5t234.5 82.5t230 -104.5t86 -296.5t-91 -308t-230 -116t-216 60.5t-89 166.5h178q18 -90 113 -90zM372 668q-56 0 -93 -39t-37 -99t37 -99.5t93 -39.5t93 39t37 98.5t-37 99.5t-93 40z" glyph-name="uni2089" horiz-adv-x="768" unicode="₉"/><glyph d="M993 1333v-235h-596v-301h326v-207h-326v-590h-266v1333h862zM1231 608q-129 0 -191 -106q-35 -61 -34 -199v-303h-232v797h219v-156q98 174 275 174q30 0 53 -4v-215q-51 12 -90 12z" glyph-name="franc" horiz-adv-x="1320" unicode="₣"/><glyph d="M760 897v-158h-250q29 -76 51 -159h199v-158h-189q-29 -102 -155 -209q94 41 158 41t149 -22q84 -22 121 -21q106 0 176 80l117 -197q-113 -119 -308 -119q-84 0 -213 37q-128 37 -208 37t-189 -76l-119 177q182 125 207 272h-219v158h195q-23 53 -68 159h-127v158h64 q-10 51 -11 94q0 164 128 263.5t346 99.5t344 -113t128 -321h-266q-6 207 -209 206q-78 0 -128 -43t-50 -108q0 -25 12 -78h314z" glyph-name="lira" horiz-adv-x="1146" unicode="₤"/><glyph d="M133 1366h410q131 0 205.5 -16.5t136.5 -59.5q168 -115 168 -339t-138 -343q-115 -96 -319 -96h-197v-512h-266v1366zM557 727q234 0 234 207q0 106 -74 162q-57 39 -176 39h-142v-408h158zM1315 512v-117h-113v-221q0 -39 9 -48t43 -9t61 4v-129q-74 -6 -109 -6 q-113 0 -151 51q-27 35 -27 143v215h-90v117h90v150h174v-150h113zM1604 410q-58 0 -58 -37q0 -18 20 -25.5t124 -27.5t153 -57t49 -113t-71.5 -124.5t-194.5 -48.5q-260 0 -268 201h168q4 -47 27.5 -65.5t74.5 -18.5q88 0 88 49q0 18 -20.5 28.5t-116.5 30.5t-135 40 q-74 36 -74 116t65.5 123t182.5 43q242 0 254 -182h-166q-4 39 -24 53.5t-78 14.5z" glyph-name="peseta" horiz-adv-x="1927" unicode="₧"/><glyph d="M756 1354q109 0 181.5 -24.5t184.5 -100.5l-88 -228q-172 119 -299 119q-188 0 -268 -270h508l-53 -152h-482q-2 -16 -2 -44t2 -40h447l-60 -151h-356q84 -248 266 -248q61 0 118.5 18.5t174.5 71.5v-264q-216 -61 -322 -61t-279 85.5t-245 397.5h-176l55 151h97 q-2 28 -2 50t2 34h-152l55 152h115q57 242 208 373t370 131z" glyph-name="Euro" horiz-adv-x="1146" unicode="€"/><glyph d="M1452 1366l-565 -1366h-150l566 1366h149zM580 1366l338 -819h-216l-69 180h-316l-71 -180h-211l338 819h207zM588 870l-113 301l-113 -301h226zM1608 688q-141 0 -142 -86q0 -35 35 -52.5t176 -49.5t205 -68q109 -66 109 -186t-99.5 -192t-276.5 -72t-276.5 77.5 t-101.5 223.5h203q6 -152 190 -152q70 0 112 26.5t42 74t-62 69.5q-28 10 -180 49t-203 82q-69 57 -69 164t94 175.5t252 68.5t247 -71t93 -202h-195q-12 121 -153 121z" glyph-name="uni2101" horiz-adv-x="2095" unicode="℁"/><glyph d="M288 819q62 0 106 -45t44 -106t-44 -105.5t-106 -44.5t-106.5 44t-44.5 107.5t44.5 106.5t106.5 43z" glyph-name="afii61248" horiz-adv-x="573" unicode="℅"/><glyph d="M475 162q0 -51 29 -51q34 -1 74 85q24 50 53 50q39 0 39 -54t-54 -131q-74 -104 -178 -104t-145 104q-25 57 -25 151t2 130q-68 -78 -85 -78t-28.5 19.5t-11.5 42t10.5 37t52.5 60.5t79 97q78 436 183 644t251 208q78 0 124 -54t46 -144q0 -176 -150 -396 q-35 -53 -219 -248q-47 -268 -47 -368zM772 1163q0 29 -12 48.5t-33 19.5q-53 0 -94 -124t-90 -427q94 104 161.5 246.5t67.5 236.5z" glyph-name="afii61289" unicode="ℓ"/><glyph d="M272 1366v-149h-186v149h186zM272 1145v-598h-186v598h186z" glyph-name="uni2117" horiz-adv-x="358" unicode="℗"/><glyph d="M719 1366v-154h-252v-624h-195v624h-252v154h699zM1698 1366v-778h-187v235q0 188 9 326q-25 -88 -70 -207l-131 -354h-152l-135 346q-39 100 -69 209q8 -188 8 -301v-254h-187v778h271l127 -336q43 -121 61 -213q20 88 66 215l121 334h268z" glyph-name="trademark" horiz-adv-x="1812" unicode="™"/><glyph d="M57 0v242h295q-156 96 -228.5 220t-72.5 294q0 268 184.5 455.5t448.5 187.5t447.5 -187.5t183.5 -457.5q0 -170 -73 -293t-228 -219h295v-242h-549v223q111 57 170 148q102 145 102 333t-100.5 318.5t-247.5 130.5t-248.5 -130t-101.5 -318q0 -338 272 -482v-223h-549z " glyph-name="uni2126" horiz-adv-x="1363" unicode="Ω"/><glyph d="M541 1354v-807h-189v518h-205v129q115 0 173.5 39t70.5 121h150zM1389 1346l-746 -1346h-160l750 1346h156zM1478 811q136 0 217 -61.5t81 -163.5t-103 -152q133 -47 133 -184q0 -115 -91 -188.5t-237 -73.5t-234.5 76.5t-88.5 209.5v15h182q-2 -72 33.5 -111t101.5 -39 t103 31t37 82q0 111 -150 110q-29 0 -49 -4v129q18 -2 37 -2q143 0 143 93q0 41 -30.5 65.5t-81.5 24.5q-119 0 -125 -133h-178q4 129 84 202.5t216 73.5z" glyph-name="onethird" horiz-adv-x="1869" unicode="⅓"/><glyph d="M698 698v-153h-643q8 137 65.5 206.5t272.5 200.5q63 41 87 72t24 77t-32 75.5t-83 29.5q-131 0 -133 -174h-180q-2 10 -2 23q0 139 87 222t227 83t223 -69.5t83 -184.5t-102 -199q-18 -17 -142 -93t-155 -120q59 4 133 4h270zM1386 1346l-745 -1346h-160l750 1346h155z M1476 811q136 0 217 -61.5t81 -163.5t-103 -152q133 -47 133 -184q0 -115 -91 -188.5t-237 -73.5t-234.5 76.5t-88.5 209.5v15h182q-2 -72 33.5 -111t101.5 -39t103 31t37 82q0 111 -150 110q-29 0 -49 -4v129q18 -2 37 -2q143 0 143 93q0 41 -30.5 65.5t-81.5 24.5 q-119 0 -125 -133h-178q4 129 84 202.5t216 73.5z" glyph-name="twothirds" horiz-adv-x="1869" unicode="⅔"/><glyph d="M541 1354v-807h-189v518h-205v129q115 0 173.5 39t70.5 121h150zM1389 1346l-746 -1346h-160l750 1346h156zM1488 813q128 0 212 -61.5t84 -165.5t-111 -156q145 -51 146 -188q0 -115 -91.5 -184.5t-241 -69.5t-239.5 67.5t-90 180.5q0 139 143 194q-108 46 -108 152 t84 168.5t212 62.5zM1489 680q-57 0 -91 -25.5t-34 -70.5t34 -73t91 -28t90 27t33 73t-33 71.5t-90 25.5zM1486.5 362q-63.5 0 -102 -32.5t-38.5 -86t39.5 -86t103 -32.5t102.5 32.5t39 84.5t-40 86t-103.5 34z" glyph-name="oneeighth" horiz-adv-x="1869" unicode="⅛"/><glyph d="M377 1360q135 0 216 -62t81 -166t-103 -153q133 -47 133 -173t-91 -200t-237 -74t-234.5 77t-88.5 210v15h183q-2 -72 33 -111t101 -39t103 30.5t37 82.5q0 111 -150 110q-29 0 -49 -4v129h37q143 0 144 94q0 41 -31 66t-82 25q-119 -1 -125 -136h-178q2 131 84 205 t217 74zM1389 1346l-748 -1346h-160l750 1346h158zM1488 813q128 0 211 -61.5t83 -165.5t-109 -156q143 -51 144 -188q0 -115 -91.5 -184.5t-241 -69.5t-239.5 67.5t-90 180.5q0 139 145 194q-108 46 -108 152t84 168.5t212 62.5zM1488 680q-56 0 -90 -25.5t-34 -70.5 t34 -73t90 -28t89 27t33 73t-33 71.5t-89 25.5zM1484.5 362q-63.5 0 -102.5 -32.5t-39 -86t40 -86t103.5 -32.5t102.5 32.5t39 84.5t-40 86t-103.5 34z" glyph-name="threeeighths" horiz-adv-x="1869" unicode="⅜"/><glyph d="M653 1346v-154h-354l-16 -90q-6 -27 -13 -58q66 47 150 48q127 0 203.5 -74t76.5 -198t-93 -206t-237 -82t-229.5 70t-91.5 191h184q6 -53 42.5 -85t96.5 -32t99 40t39 104t-38 102.5t-112 38.5t-116 -66l-168 2l86 449h491zM1386 1346l-745 -1346h-160l750 1346h155z M1486 813q128 0 212 -61.5t84 -165.5t-111 -156q145 -51 146 -188q0 -115 -91.5 -184.5t-241 -69.5t-239.5 67.5t-90 180.5q0 139 143 194q-108 46 -108 152t84 168.5t212 62.5zM1487 680q-57 0 -91 -25.5t-34 -70.5t34 -73t91 -28t90 27t33 73t-33 71.5t-90 25.5z M1484.5 362q-63.5 0 -102.5 -32.5t-39 -86t40 -86t103.5 -32.5t102.5 32.5t39 84.5t-40 86t-103.5 34z" glyph-name="fiveeighths" horiz-adv-x="1869" unicode="⅝"/><glyph d="M684 1346v-144l-45 -45q-115 -127 -171 -271.5t-69 -338.5h-194q2 147 83 333.5t197 307.5q-80 -2 -102 -2h-299v160h600zM1386 1346l-745 -1346h-160l750 1346h155zM1486 813q128 0 212 -61.5t84 -165.5t-111 -156q145 -51 146 -188q0 -115 -91.5 -184.5t-241 -69.5 t-239.5 67.5t-90 180.5q0 139 143 194q-108 46 -108 152t84 168.5t212 62.5zM1487 680q-57 0 -91 -25.5t-34 -70.5t34 -73t91 -28t90 27t33 73t-33 71.5t-90 25.5zM1484.5 362q-63.5 0 -102.5 -32.5t-39 -86t40 -86t103.5 -32.5t102.5 32.5t39 84.5t-40 86t-103.5 34z" glyph-name="seveneighths" horiz-adv-x="1869" unicode="⅞"/><glyph d="M1337 743v-104h-1024q31 -39 69 -114.5t38 -98.5q0 -29 -31 -29q-16 0 -45 35q-92 109 -270 213q-47 23 -47 42t32 38q127 76 180.5 118t116.5 120q16 18 33 18q31 0 31 -31q0 -59 -107 -207h1024z" glyph-name="arrowleft" horiz-adv-x="1366" unicode="←"/><glyph d="M737 27h-104v1024q-37 -31 -114 -69t-99 -38q-29 0 -29 31q0 16 35 47q109 90 211 270q27 47 45 47t37 -34q76 -127 118 -179.5t119 -117.5q18 -16 19 -33q0 -31 -31 -31q-59 0 -207 107v-1024z" glyph-name="arrowup" horiz-adv-x="1366" unicode="↑"/><glyph d="M27 635v104h1024q-31 39 -69 115t-38 98q0 29 31 29q16 0 45 -35q94 -111 270 -213q47 -25 47 -43t-32 -37q-127 -78 -179.5 -118.5t-117.5 -118.5q-16 -18 -33 -19q-31 0 -31 31q0 59 107 207h-1024z" glyph-name="arrowright" horiz-adv-x="1366" unicode="→"/><glyph d="M629 1337h104v-1024q39 33 115 70t98 37q29 0 29 -31q0 -16 -35 -45q-113 -96 -211 -270q-27 -47 -45 -47t-37 32q-76 127 -117 178.5t-120 118.5q-18 16 -19 33q0 31 31 31q55 0 207 -107v1024z" glyph-name="arrowdown" horiz-adv-x="1366" unicode="↓"/><glyph d="M420 428q0 -31 -31 -31q-13 -1 -29 17l-48 54q-63 72 -265 194q-20 8 -20 30q0 16 47 41q172 98 270 211q29 35 45 35q31 0 31 -29q0 -23 -37 -95.5t-72 -115.5h740q-31 39 -69 114t-38 97q0 29 31 29q16 0 45 -35q98 -113 270 -211q47 -27 47 -41q0 -20 -32 -39 q-127 -76 -178.5 -116.5t-118.5 -120.5q-16 -18 -33 -19q-31 0 -31 31q1 60 107 207h-740q45 -59 77 -120.5t32 -86.5z" glyph-name="arrowboth" horiz-adv-x="1366" unicode="↔"/><glyph d="M944 422q31 0 31 -31q1 -13 -17 -29l-54 -48q-75 -66 -193 -267q-11 -20 -29 -20t-43 47q-102 180 -213 270q-35 31 -35 47q0 31 29 31q23 0 98.5 -39t114.5 -72v740q-39 -31 -115 -69t-98 -38q-29 0 -29 31q0 16 35 47q113 94 213 270q25 47 43 47t37 -34 q76 -127 118 -179.5t119 -117.5q18 -16 19 -33q0 -31 -31 -31q-60 1 -207 107v-740q59 45 121 78t86 33z" glyph-name="arrowupdn" horiz-adv-x="1366" unicode="↕"/><glyph d="M944 422q31 0 31 -31q1 -13 -17 -29l-54 -48q-75 -66 -193 -267q-12 -20 -31 -20q-14 0 -43 47q-96 176 -211 270q-35 31 -35 47q0 31 29 31q23 0 97.5 -39t115.5 -72v740q-37 -29 -114 -68t-99 -39q-29 0 -29 31q0 16 35 47q113 94 213 270q25 47 43 47t37 -34 q76 -127 118 -179.5t119 -117.5q18 -16 19 -33q0 -31 -31 -31q-60 1 -207 107v-740q59 45 121 78t86 33zM412 -139h540v-88h-540v88z" glyph-name="arrowupdnbse" horiz-adv-x="1366" unicode="↨"/><glyph d="M983 528q0 -209 -88 -346q-133 -201 -387 -200q-201 0 -334 132t-133 325t119 320.5t295 127.5q84 0 138 -21.5t120 -81.5q-23 39 -27 47q-80 164 -233 230q-96 41 -160 58.5t-164 27.5l33 217q197 -23 328 -74t237 -145q256 -225 256 -617zM514 680q-94 0 -160.5 -69 t-66.5 -169t65.5 -170.5t157.5 -70.5t156.5 69.5t64.5 170.5t-61.5 170t-155.5 69z" glyph-name="partialdiff" unicode="∂"/><glyph d="M1130 717q0 -209 -147 -353.5t-360 -144.5q-94 0 -162 33l-129 -252l-99 51l125 250q-221 162 -221 414q0 209 145.5 353t354.5 144q80 0 166 -28l96 182l98 -51l-98 -180q231 -164 231 -418zM633 336q158 0 270.5 111.5t112.5 267.5q0 96 -44 182t-120 131l-338 -676 q66 -16 119 -16zM252 717q0 -184 158 -311l340 673q-57 16 -111 17q-160 0 -273.5 -112t-113.5 -267z" glyph-name="emptyset" horiz-adv-x="1265" unicode="∅"/><glyph d="M16 0l498 1366h289l502 -1366h-1289zM373 242h571l-282 829z" glyph-name="uni2206" horiz-adv-x="1320" unicode="∆"/><glyph d="M41 1536h1284v-223h-147v-1602h147v-223h-532v223h135v1602h-490v-1602h133v-223h-530v223h149v1602h-149v223z" glyph-name="product" horiz-adv-x="1366" unicode="∏"/><glyph d="M1268 1536v-516h-252l-29 260h-606l500 -735l-496 -801h621l16 268h264v-524h-1216v295l479 762l-479 696v295h1198z" glyph-name="summation" horiz-adv-x="1366" unicode="∑"/><glyph d="M102 578v182h942v-182h-942z" glyph-name="minus" horiz-adv-x="1146" unicode="−"/><glyph d="M514 981q117 0 199 -84t82 -202t-82 -201.5t-199 -83.5t-200 84t-83 202t83 201.5t200 83.5zM514 883q-76 0 -131 -54.5t-55 -132.5t55 -133t131 -55t130 54t54 131t-54 133.5t-130 56.5z" glyph-name="uni2218" unicode="∘"/><glyph d="M1366 1694v-232h-350l-385 -1462h-322l-131 532h-178v232h338l61 -227q18 -72 47 -289h15q57 332 143 659l207 787h555z" glyph-name="radical" horiz-adv-x="1366" unicode="√"/><glyph d="M37 695q0 140 91 230.5t230 90.5q182 0 322 -193q137 193 330 193q141 0 230 -90t89 -231.5t-89 -231.5t-228 -90q-187 -1 -324 194q-147 -193 -332 -192q-141 0 -230 90t-89 230zM983 547q63 0 104 42t41 105.5t-42 105.5t-103 42q-105 -1 -203 -148q98 -147 203 -147z M238 696q0 -62 42 -104.5t103 -42.5q103 0 205 145q-100 147 -205 148q-63 0 -104 -42t-41 -104z" glyph-name="infinity" horiz-adv-x="1366" unicode="∞"/><glyph d="M31 1051h628v-185h-628v185z" glyph-name="orthogonal" horiz-adv-x="692" unicode="∟"/><glyph d="M1186 0h-281v627q-4 199 -11 256t-37 109t-93.5 87t-139.5 35t-143 -41t-100 -113t-33 -333v-627h-278v621q0 256 17 353t79 179q160 213 461 213q160 0 334.5 -89.5t199.5 -259t25 -396.5v-621z" glyph-name="intersection" horiz-adv-x="1255" unicode="∩"/><glyph d="M70 1366h280v-627q4 -199 11 -256t37 -109t93.5 -87t140.5 -35t143.5 41t98.5 113t33 333v627h279v-621q0 -256 -17.5 -353t-78.5 -179q-160 -213 -461 -213q-160 0 -335.5 89.5t-199.5 259t-24 396.5v621z" glyph-name="union" horiz-adv-x="1255" unicode="∪"/><glyph d="M362 39v895q2 217 8.5 332.5t122 192.5t252.5 77q72 0 173 -20l-50 -265q-45 20 -88 21q-84 0 -108 -70q-10 -29 -10 -127v-979q0 -215 -3.5 -262t-19.5 -106q-63 -236 -387 -236q-91 0 -146 16l50 265q45 -20 84 -21q86 0 112 70q10 27 10 217z" glyph-name="integral" unicode="∫"/><glyph d="M375 1104q0 432 356 432q74 0 184 -20l-47 -265q-61 20 -108 21q-82 0 -105 -70q-10 -27 -10 -108v-158q92 -25 150 -74q154 -125 153 -332q0 -145 -86 -259.5t-217 -145.5v-184q0 -125 -12 -187.5t-47 -118.5q-92 -147 -320 -147q-88 0 -162 23l48 262q61 -20 104 -21 q86 0 109 70q10 35 10 133v170q-127 29 -214 145.5t-87 260.5t83 257t218 148v168zM821 532q0 94 -49 170t-127 105v-549q176 72 176 274zM201 532.5q0 -94.5 48 -170t126 -104.5v549q-78 -29 -126 -104.5t-48 -170z" glyph-name="uni222E" unicode="∮"/><glyph d="M287 1106q59 0 101 -43t42 -101t-42 -101.5t-102 -43.5t-102.5 43t-42.5 102.5t43.5 101.5t102.5 42zM287 520q59 0 101 -43t42 -101t-42 -101.5t-102 -43.5t-102.5 43t-42.5 102.5t43.5 101.5t102.5 42z" glyph-name="uni2236" horiz-adv-x="573" unicode="∶"/><glyph d="M711 758q82 0 151 127l144 -119q-68 -164 -158 -223q-70 -49 -156 -49q-41 0 -81 13t-147 60t-157 47q-77 0 -147 -129l-144 121q111 274 303 275q71 1 213 -61t179 -62z" glyph-name="similar" unicode="∼"/><glyph d="M322 1087q70 0 212 -61t184 -61t71.5 21.5t74.5 88.5l144 -102q-61 -145 -134 -208t-186 -63q-43 0 -82 12.5t-144 59.5q-106 47 -150 47t-75.5 -23.5t-74.5 -84.5l-144 100q111 274 304 274zM322 653q70 0 212 -61q142 -62 184 -62t71.5 21.5t74.5 89.5l144 -100 q-61 -147 -134 -210t-186 -63q-41 0 -80 12.5t-145 59.5q-107 47 -151 47t-75.5 -23.5t-74.5 -84.5l-144 100q113 274 304 274z" glyph-name="approxequal" unicode="≈"/><glyph d="M956 971v-246h-292l-86 -162h376v-246h-467l-125 -233l-182 96l74 137h-186v246h276l86 162h-362v246h462l140 264l182 -98l-88 -166h192z" glyph-name="notequal" unicode="≠"/><glyph d="M68 1217h886v-259h-886v259zM68 811h886v-258h-886v258zM68 408h886v-258h-886v258z" glyph-name="equivalence" unicode="≡"/><glyph d="M954 1311v-277l-567 -186l567 -186v-275l-886 338v248zM954 332v-258h-886v258h886z" glyph-name="lessequal" unicode="≤"/><glyph d="M68 387v275l565 186l-565 186v277l886 -338v-248zM68 74v258h886v-258h-886z" glyph-name="greaterequal" unicode="≥"/><glyph d="M438 662v-304h-309v304h309z" glyph-name="dotmath" horiz-adv-x="569" unicode="⋅"/><glyph d="M172 0v821l596 672l598 -672v-821h-1194zM276 104h986v672l-494 553l-492 -553v-672z" glyph-name="house" horiz-adv-x="1538" unicode="⌂"/><glyph d="M354 0h-286v594h886v-258h-600v-336z" glyph-name="revlogicalnot" unicode="⌐"/><glyph d="M354 592v-334h600v-258h-886v592h286z" glyph-name="uni2319" unicode="⌙"/><glyph d="M662 -512h-300v1446q2 217 8.5 332.5t122 192.5t252.5 77q72 0 173 -20l-48 -265q-49 20 -90 21q-84 0 -108 -70q-10 -29 -10 -127v-1587z" glyph-name="integraltp" unicode="⌠"/><glyph d="M362 1536h300v-1446q0 -217 -9 -334.5t-123 -192.5t-254 -75q-70 0 -170 20l50 265q43 -20 88 -21q84 0 108 70q10 29 10 127v1587z" glyph-name="integralbt" unicode="⌡"/><glyph d="M1366 0h-1366v1366h1366v-1366z" glyph-name="filledbox" horiz-adv-x="1366" unicode="■"/><glyph d="M1366 0h-1366v1366h1366v-1366zM1270 96v1174h-1174v-1174h1174z" glyph-name="H22073" horiz-adv-x="1366" unicode="□"/><glyph d="M31 1051h217v209h196v-209h215v-185h-215v-211h-196v211h-217v185z" glyph-name="H18551" horiz-adv-x="692" unicode="▫"/><glyph d="M1366 682v-682h-1366v682h1366z" glyph-name="filledrect" horiz-adv-x="1366" unicode="▬"/><glyph d="M1024 0h-682v1366h682v-1366z" glyph-name="uni25AE" horiz-adv-x="1366" unicode="▮"/><glyph d="M684 1206q219 0 376 -152.5t157 -369.5t-157 -371.5t-379 -154.5t-376.5 154.5t-154.5 372.5t157.5 369.5t376.5 151.5z" glyph-name="uni25AF" horiz-adv-x="1366" unicode="▯"/><glyph d="M1296 137h-1228l614 1149z" glyph-name="triagup" horiz-adv-x="1366" unicode="▲"/><glyph d="M954 301h-886l444 829z" glyph-name="uni25B4" unicode="▴"/><glyph d="M145 244v886l830 -444z" glyph-name="uni25B8" unicode="▸"/><glyph d="M68 1229h1228l-614 -1149z" glyph-name="triagdn" horiz-adv-x="1366" unicode="▼"/><glyph d="M68 1065h886l-442 -829z" glyph-name="uni25BE" unicode="▾"/><glyph d="M877 1130v-886l-830 442z" glyph-name="uni25C2" unicode="◂"/><glyph d="M684 1419l530 -735l-530 -737l-532 737zM684 1237l-403 -553l403 -555l403 555z" glyph-name="lozenge" horiz-adv-x="1366" unicode="◊"/><glyph d="M684 1206q219 0 376 -152.5t157 -369.5t-157 -371.5t-379 -154.5t-376.5 154.5t-154.5 372.5t157.5 369.5t376.5 151.5zM684 1112q-180 0 -309 -125t-129 -303t127 -305t309 -127t310 127t128 304t-128 303t-308 126z" glyph-name="circle" horiz-adv-x="1366" unicode="○"/><glyph d="M0 0v1366h1366v-1366h-1366zM684 969q-117 0 -200 -83t-83 -202t83 -203t200 -84t199 84t82 202t-82 202t-199 84z" glyph-name="invbullet" horiz-adv-x="1366" unicode="◘"/><glyph d="M684 1112q180 0 308 -126t128 -303t-128 -304t-310 -127t-309 127t-127 305t129 303t309 125zM1366 0h-1366v1366h1366v-1366zM684 1208q-219 0 -376.5 -151.5t-157.5 -370.5t154.5 -373.5t376.5 -154.5t379 154.5t157 371.5t-157 370.5t-376 153.5z" glyph-name="invcircle" horiz-adv-x="1366" unicode="◙"/><glyph d="M514 981q117 0 199 -84t82 -202t-82 -201.5t-199 -83.5t-200 84t-83 202t83 201.5t200 83.5zM514 883q-76 0 -131 -54.5t-55 -132.5t55 -133t131 -55t130 54t54 131t-54 133.5t-130 56.5z" glyph-name="openbullet" unicode="◦"/><glyph d="M492 952q37 0 63.5 -26.5t26.5 -63.5t-27 -63.5t-63.5 -26.5t-63.5 26.5t-27 64.5t27 63.5t64 25.5zM887 952q37 0 63.5 -26.5t26.5 -63.5t-26.5 -63.5t-63.5 -26.5t-63.5 26.5t-26.5 64.5t26.5 63.5t63.5 25.5zM675 289q-214 0 -327 168q-41 59 -58.5 123.5t-27.5 181.5 q25 -111 86 -182q125 -144 335 -144t339 144q59 71 84 182q-8 -123 -30.5 -194.5t-71.5 -135.5q-115 -143 -329 -143zM687 1331q267 0 455.5 -191.5t188.5 -457.5t-189.5 -456.5t-458.5 -190.5t-458.5 190.5t-189.5 460.5t192.5 457.5t459.5 187.5zM676 1245 q-242 0 -410 -186q-145 -161 -145 -385t164 -388.5t398 -164.5t399 165t165 396t-164.5 397t-406.5 166z" glyph-name="smileface" horiz-adv-x="1366" unicode="☺"/><glyph d="M687 1331q267 0 455.5 -191.5t188.5 -458.5t-190.5 -456.5t-458.5 -189.5t-457.5 190.5t-189.5 460.5t192.5 457.5t459.5 187.5zM491 952q-36 0 -63 -25.5t-27 -63.5t26 -64.5t64 -26.5t63.5 26.5t25.5 63.5t-26.5 63.5t-62.5 26.5zM887 952q-37 0 -63.5 -25.5 t-26.5 -63.5t26.5 -64.5t63.5 -26.5t63.5 26.5t26.5 63.5t-26.5 63.5t-63.5 26.5zM696 289q214 0 326 168q72 108 84 305q-27 -113 -84 -182q-129 -144 -339 -144t-335 144q-59 68 -86 182q10 -127 31.5 -197.5t73.5 -132.5q115 -143 329 -143z" glyph-name="invsmileface" horiz-adv-x="1366" unicode="☻"/><glyph d="M631 1352h102v-215q135 -16 232 -97l153 152l72 -72l-152 -153q78 -94 97 -232h215v-104h-215q-18 -131 -97 -234l152 -151l-72 -72l-153 152q-102 -82 -232 -97v-215h-102v215q-123 12 -234 97l-153 -152l-72 72l152 151q-82 104 -95 234h-215v104h215q15 130 97 232 l-154 153l72 72l153 -154q100 82 234 99v215zM683 1010q-134 0 -231.5 -94.5t-97.5 -230.5t95.5 -232.5t231.5 -96.5t231.5 96.5t95.5 229.5t-95.5 230.5t-229.5 97.5z" glyph-name="sun" horiz-adv-x="1366" unicode="☼"/><glyph d="M631 428v215q-139 20 -228.5 125.5t-89.5 254.5t107.5 258.5t260.5 109.5t261.5 -110t108.5 -259t-90.5 -252.5t-231.5 -126.5v-215h334v-88h-334v-340h-98v340h-330v88h330zM683 1294q-114 0 -193.5 -80.5t-79.5 -196.5t79.5 -197t192.5 -81t192.5 81t79.5 195.5 t-78.5 196.5t-192.5 82z" glyph-name="female" horiz-adv-x="1366" unicode="♀"/><glyph d="M930 473q0 -140 -108.5 -249t-260 -109t-260 109.5t-108.5 263.5t108.5 264t246.5 110t243 -80l309 310q-106 25 -217 82q-43 23 -43 47t26 24q6 0 66 -12t160 -12q102 0 200 28l21 2q20 0 20 -20q0 -9 -15 -69t-15 -152t12 -152t12 -65q0 -27 -24 -27q-14 0 -21.5 7 t-26.5 36q-63 90 -88 213l-311 -309q74 -100 74 -240zM562 766q-114 0 -193.5 -80t-79.5 -196t80 -196.5t192.5 -80.5t192.5 81t80 195.5t-79 195.5t-193 81z" glyph-name="male" horiz-adv-x="1366" unicode="♂"/><glyph d="M221 0v37q143 29 209 59.5t129 100.5q106 123 115 325q-25 -53 -27 -57q-41 -68 -114.5 -110t-164.5 -42t-164 76t-73 180q0 166 213 346q291 236 336 490q53 -164 105.5 -239.5t202.5 -213.5t199.5 -213t49.5 -177t-72.5 -174.5t-177.5 -72.5q-172 0 -287 207 q12 -221 120 -333.5t343 -151.5v-37h-942z" glyph-name="spade" horiz-adv-x="1366" unicode="♠"/><glyph d="M1149 0h-932v37q231 33 342 161t111 363q-45 -78 -70 -106q-55 -72 -136 -113t-163 -41q-121 0 -208 91t-87 219t79 215t191 87q39 0 68 -9t109 -50q-72 110 -72 218t89 194t214 86t213 -86t88 -194t-72 -218q82 41 109 50t68 9q113 0 191.5 -87t78.5 -216t-87 -219 t-212 -90q-76 0 -156 39t-123 92t-86 129q4 -133 31 -217t90 -156q66 -66 128.5 -95.5t203.5 -55.5v-37z" glyph-name="club" horiz-adv-x="1366" unicode="♣"/><glyph d="M115 1048q0 102 76.5 181.5t187.5 79.5q156 0 246 -140q27 -39 55 -127q76 268 301 269q113 0 191.5 -79.5t78.5 -185.5t-49 -209.5t-176 -263.5q-293 -367 -346 -596q-33 137 -106.5 263.5t-274.5 394.5q-111 152 -147.5 231.5t-36.5 181.5z" glyph-name="heart" horiz-adv-x="1366" unicode="♥"/><glyph d="M682 1419q45 -96 228.5 -354t291.5 -381q-145 -174 -289.5 -378t-230.5 -359q-145 276 -518 737q368 463 518 735z" glyph-name="diamond" horiz-adv-x="1366" unicode="♦"/><glyph d="M627 1366h94v-125q29 -37 31 -37l106 -129q186 -219 186 -461q0 -186 -116 -331h-58q68 158 68 298t-64.5 244.5t-152.5 116.5v-623q0 -147 -87 -242t-224 -95q-66 0 -104 32.5t-38 91.5q0 92 75 164t173 72q60 0 111 -23v1047z" glyph-name="musicalnote" horiz-adv-x="1366" unicode="♪"/><glyph d="M1262 393q0 -199 -112 -267.5t-189 -68.5t-113.5 33t-36.5 90q0 94 75 165t171 71q59 0 110 -23v553l-673 -184v-483q0 -145 -87.5 -239.5t-224.5 -94.5q-66 0 -103.5 32.5t-37.5 90.5q0 90 74.5 160.5t173.5 70.5q53 0 110 -20v923l863 219v-1028zM494 918l673 184v143 l-673 -184v-143z" glyph-name="uni266C" horiz-adv-x="1366" unicode="♬"/><glyph d="M387 989v-989l2 -76q0 -188 -141 -252q-93 -43 -297 -26v219q25 -2 51 -2q90 0 104 49q10 33 11 170v907h270z" glyph-name="uniF6BE" horiz-adv-x="509" unicode=""/><glyph d="M635 -123v-147q0 -84 -17.5 -125t-72.5 -73t-154 -34v88q72 4 102.5 26.5t36.5 74.5h-139v190h244z" glyph-name="uniF6C3" unicode=""/><glyph d="M850 1729l-285 -248h-200l172 248h313z" glyph-name="uniF6C9" unicode=""/><glyph d="M862 1741l-221 -256h-256l-223 256h231l115 -133l110 133h244z" glyph-name="uniF6CA" unicode=""/><glyph d="M856 1724v-219h-264v219h264zM432 1724v-219h-264v219h264z" glyph-name="uniF6CB" unicode=""/><glyph d="M174 1729h313l172 -248h-200z" glyph-name="uniF6CE" unicode=""/><glyph d="M952 1729l-207 -248h-170l103 248h274zM610 1729l-204 -248h-173l105 248h272z" glyph-name="uniF6CF" unicode=""/><glyph d="M844 1690v-154h-666v154h666z" glyph-name="uniF6D0" unicode=""/><glyph d="M303 752v-160q0 -135 -67 -197q-55 -55 -142 -67v94q90 20 94 125h-94v205h209z" glyph-name="uniF6E2" horiz-adv-x="397" unicode=""/><glyph d="M303 754v-207h-211v207h211z" glyph-name="uniF6E8" horiz-adv-x="397" unicode=""/><glyph d="M131 1366h551q295 0 457 -147q205 -187 205 -529t-193 -532q-86 -86 -191.5 -122t-271.5 -36h-557v1366zM428 1114v-862h229q106 0 169 20.5t108 71.5q108 119 108 337q-1 433 -395 433h-219zM642 1630q160 0 192 115h139q-6 -131 -91 -200.5t-241 -69.5t-241 69.5 t-91 200.5h140q33 -115 193 -115z" glyph-name="glyph481" horiz-adv-x="1419"/><glyph d="M827 1368l521 -1368h-314l-108 305h-508l-111 -305h-307l520 1368h307zM852 524l-88 246q-57 162 -90 297q-31 -106 -96 -297l-89 -246h363zM805 1724v-219h-264v219h264z" glyph-name="glyph482" horiz-adv-x="1345"/><glyph d="M1092 1366v-252h-664v-317h578v-236h-578v-561h-297v1366h961zM752 1724v-219h-265v219h265z" glyph-name="glyph483" horiz-adv-x="1132"/><glyph d="M397 -27q-162 0 -254 80t-92 219q0 186 172 258q63 28 241 52t218.5 43.5t40.5 79.5q0 129 -178 129q-94 0 -137 -33t-58 -115h-256q25 330 457 330q233 0 350 -94q51 -41 68.5 -92.5t17.5 -182.5t-4 -307v-74q0 -180 35 -266h-277q-16 51 -16 96q-127 -123 -328 -123z M721 371v112q-55 -35 -179 -51t-168 -49t-44 -98t40 -100t111 -35q119 0 195 81q45 52 45 140zM983 1415l-197 -276h-157l104 276h250zM655 1415l-196 -276h-158l105 276h249z" glyph-name="glyph484" horiz-adv-x="1067"/><glyph d="M397 -27q-162 0 -254 80t-92 219q0 186 172 258q63 28 241 52t218.5 43.5t40.5 79.5q0 129 -178 129q-94 0 -137 -33t-58 -115h-256q25 330 457 330q233 0 350 -94q51 -41 68.5 -92.5t17.5 -182.5t-4 -307v-74q0 -180 35 -266h-277q-16 51 -16 96q-127 -123 -328 -123z M721 371v112q-55 -35 -179 -51t-168 -49t-44 -98t40 -100t111 -35q119 0 195 81q45 52 45 140zM678 1391v-224h-254v224h254z" glyph-name="glyph485" horiz-adv-x="1067"/><glyph d="M399 1358v-553h-139v354h-149v90q160 0 178 109h110z" glyph-name="one.numr" horiz-adv-x="573"/><glyph d="M518 911v-104h-473q4 92 48 141t202 135q80 47 80 99q0 33 -23.5 53t-60.5 20q-96 0 -98 -118h-134q-2 109 59.5 167t167.5 58t168 -48t62 -122t-53 -123q-31 -25 -124 -78t-116 -82q51 2 96 2h199z" glyph-name="two.numr" horiz-adv-x="573"/><glyph d="M278 1362q98 0 159 -43t61 -114t-74 -103q96 -35 96 -120t-67 -135t-177 -50t-172.5 53t-60.5 154h133q0 -102 103 -103q45 0 71.5 20.5t26.5 55.5q0 74 -103 74h-43v88q12 -2 29 -2q104 0 105 63q0 29 -23 45.5t-59 16.5q-91 -1 -93 -93h-133q2 90 62.5 141.5 t158.5 51.5z" glyph-name="three.numr" horiz-adv-x="573"/><glyph d="M532 1030v-100h-81v-125h-132v125h-272v104l279 324h125v-328h81zM326 1026v205l-168 -205h168z" glyph-name="four.numr" horiz-adv-x="573"/><glyph d="M485 1352v-101h-266l-22 -108q53 31 131 31t135 -48.5t57 -132.5t-68 -140t-174 -56t-166 45t-71 127h131q27 -45 46.5 -58.5t61.5 -13.5t71.5 26.5t29.5 69.5t-28.5 68.5t-80.5 25.5t-88 -43h-125l64 308h362z" glyph-name="five.numr" horiz-adv-x="573"/><glyph d="M305 1268q-98 0 -115 -142q50 50 136 50t143 -51.5t57 -134.5t-64 -138t-172 -55t-172.5 71.5t-64.5 204.5t67.5 211t184.5 78q168 0 207 -139h-125q-27 45 -82 45zM296 1085q-42 0 -69.5 -26.5t-27.5 -68.5t27.5 -69.5t69.5 -27.5t69.5 27.5t27.5 68.5t-27.5 68.5 t-69.5 27.5z" glyph-name="six.numr" horiz-adv-x="573"/><glyph d="M506 1352v-97l-8 -8q-182 -172 -201 -442h-141q0 100 58 228t144 212q-55 -2 -73 -2h-219v109h440z" glyph-name="seven.numr" horiz-adv-x="573"/><glyph d="M287 1360q94 0 155.5 -42t61.5 -112t-80 -106q104 -35 104 -120t-66 -133t-176 -48t-176.5 46t-66.5 132t102 123q-75 36 -75 106t61.5 112t155.5 42zM288 1272q-42 0 -67.5 -18.5t-25.5 -50.5t25.5 -50t66.5 -18q92 0 92 69q0 31 -24.5 49.5t-66.5 18.5zM285 1059 q-47 0 -77 -22.5t-30 -60.5t30 -61.5t78 -23.5t77.5 22.5t29.5 60.5t-30.5 61.5t-77.5 23.5z" glyph-name="eight.numr" horiz-adv-x="573"/><glyph d="M268 891q90 0 111 139q-51 -51 -134 -51t-141.5 52t-58.5 134t66.5 138.5t173.5 56.5t170 -71.5t63 -201.5t-67.5 -210t-182.5 -80q-174 0 -211 139h125q25 -45 86 -45zM275 1262q-42 0 -69.5 -28t-27.5 -69t27.5 -68.5t69.5 -27.5t70 26.5t28 67.5t-28 70t-70 29z" glyph-name="nine.numr" horiz-adv-x="573"/><glyph d="M288 1360q112 0 173 -74t61 -206t-63 -206.5t-173 -74.5t-173.5 73.5t-63.5 205.5t63.5 207t175.5 75zM287 1260q-53 0 -77 -43t-24 -144q0 -174 100 -174t99.5 180.5t-98.5 180.5z" glyph-name="zero.numr" horiz-adv-x="571"/><glyph d="M399 551v-551h-139v354h-149v88q160 2 178 109h110z" glyph-name="one.dnom" horiz-adv-x="573"/><glyph d="M518 104v-104h-473q4 92 48 141t202 138q80 47 80 98q0 33 -23.5 52.5t-60.5 19.5q-96 0 -98 -117h-134q-2 106 59.5 164.5t167.5 58.5t168 -47t62 -126t-76 -136q-92 -55 -146 -87t-71 -57q51 2 96 2h199z" glyph-name="two.dnom" horiz-adv-x="573"/><glyph d="M280 555q100 0 159 -42t59 -113t-74 -103q96 -35 96 -120t-67 -135t-177 -50t-172.5 53t-60.5 154h133q0 -102 103 -103q45 0 71.5 20.5t26.5 55.5t-27.5 54.5t-75.5 19.5h-43v88q12 -2 29 -2q104 0 105 61q0 29 -23 45.5t-59 16.5q-91 0 -93 -90h-133q4 90 63.5 140 t159.5 50z" glyph-name="three.dnom" horiz-adv-x="573"/><glyph d="M532 225v-102h-81v-123h-132v123h-272v106l279 322h125v-326h81zM326 219v205l-168 -205h168z" glyph-name="four.dnom" horiz-adv-x="573"/><glyph d="M485 545v-101h-266l-22 -108q51 33 129 33t136 -48.5t58 -132.5t-68 -140t-174 -56t-166 45t-71 127h131q27 -45 46.5 -58.5t61.5 -13.5t71.5 26.5t29.5 70.5t-28.5 70t-80.5 26t-88 -45h-125l64 305h362z" glyph-name="five.dnom" horiz-adv-x="573"/><glyph d="M305 461q-98 0 -115 -139q50 49 136 49t143 -51.5t57 -134.5t-64 -138t-172 -55t-172.5 71.5t-64.5 203.5t67.5 210t184.5 78q168 0 207 -137h-125q-27 43 -82 43zM296 281q-42 0 -69.5 -27t-27.5 -69t27.5 -69.5t69.5 -27.5t69.5 27.5t27.5 68.5t-27.5 69t-69.5 28z" glyph-name="six.dnom" horiz-adv-x="573"/><glyph d="M506 545v-96q-190 -176 -209 -449h-141q0 100 58 227t144 211q-55 -2 -73 -2h-219v109h440z" glyph-name="seven.dnom" horiz-adv-x="573"/><glyph d="M287 555q94 0 155.5 -42.5t61.5 -112.5t-80 -107q104 -35 104 -120t-66 -133t-176 -48t-176.5 46t-66.5 132t102 123q-75 35 -75 105t61.5 113.5t155.5 43.5zM288 467q-42 0 -67.5 -18.5t-25.5 -50.5t25.5 -51t66.5 -19q92 0 92 71q0 31 -24.5 49.5t-66.5 18.5zM285 252 q-47 0 -77 -22.5t-30 -60.5t30 -61.5t78 -23.5t77.5 22.5t29.5 60.5t-30.5 61.5t-77.5 23.5z" glyph-name="eight.dnom" horiz-adv-x="573"/><glyph d="M268 86q90 0 111 139q-49 -51 -133 -51t-142.5 52t-58.5 134t65.5 138.5t171.5 56.5t171 -70.5t65 -201.5t-67.5 -211t-182.5 -80q-174 0 -211 139h125q25 -45 86 -45zM275 459q-42 0 -69.5 -28t-27.5 -70t27.5 -69.5t69.5 -27.5t70 27.5t28 68.5t-28 70t-70 29z" glyph-name="nine.dnom" horiz-adv-x="573"/><glyph d="M288 555q112 0 173 -74.5t61 -206.5t-63 -207t-173 -75t-173.5 73.5t-63.5 207t63.5 208t175.5 74.5zM287 455q-53 0 -77 -44t-24 -145q0 -174 100 -174t99 182q0 182 -98 181z" glyph-name="zero.dnom" horiz-adv-x="571"/><glyph d="M541 1354v-807h-189v518h-205v129q115 0 173.5 39t70.5 121h150zM1389 1346l-746 -1346h-160l750 1346h156zM1642 807v-807h-188v518h-205v129q113 0 171.5 38t72.5 122h149z" glyph-name="one_slash_one.frac" horiz-adv-x="1869"/><glyph d="M541 1354v-807h-189v518h-205v129q115 0 173.5 39t70.5 121h150zM1389 1346l-746 -1346h-160l750 1346h156zM1755 801v-154h-354l-17 -90q-4 -34 -12 -57q63 45 169 45t183.5 -72.5t77.5 -196.5t-93 -206t-237 -82t-229.5 69.5t-91.5 190.5h184q6 -53 42 -84t96 -31 t99.5 40t39.5 103.5t-39 101.5t-112 38t-115 -66l-168 2l86 449h491z" glyph-name="one_slash_five.frac" horiz-adv-x="1867"/><glyph d="M698 698v-153h-643q8 137 65.5 206.5t272.5 200.5q63 41 87 72t24 77t-32 75.5t-83 29.5q-131 0 -133 -174h-180q-2 10 -2 23q0 139 87 222t227 83t223 -69.5t83 -184.5t-102 -199q-18 -17 -142 -93t-155 -120q59 4 133 4h270zM1386 1346l-745 -1346h-160l750 1346h155z M1753 801v-154h-354l-17 -90q-4 -34 -12 -57q63 45 169 45t183.5 -72.5t77.5 -196.5t-93 -206t-237 -82t-229.5 69.5t-91.5 190.5h184q6 -53 42 -84t96 -31t99.5 40t39.5 103.5t-39 101.5t-112 38t-116 -66l-167 2l86 449h491z" glyph-name="two_slash_five.frac" horiz-adv-x="1867"/><glyph d="M377 1360q135 0 216 -62t81 -166t-103 -153q133 -47 133 -173t-91 -200t-237 -74t-234.5 77t-88.5 210v15h183q-2 -72 33 -111t101 -39t103 30.5t37 82.5q0 111 -150 110q-29 0 -49 -4v129h37q143 0 144 94q0 41 -31 66t-82 25q-119 -1 -125 -136h-178q2 131 84 205 t217 74zM1389 1346l-748 -1346h-160l750 1346h158zM1755 801v-154h-354l-17 -90q-4 -34 -12 -57q63 45 169 45t183.5 -72.5t77.5 -196.5t-93 -206t-237 -82t-229.5 69.5t-91.5 190.5h184q6 -53 42 -84t96 -31t99.5 40t39.5 103.5t-39 101.5t-112 38t-115 -66l-168 2l86 449 h491z" glyph-name="three_slash_five.frac" horiz-adv-x="1867"/><glyph d="M717 874v-147h-111v-180h-180v180h-369v158l379 469h170v-480h111zM432 868v291l-223 -291h223zM1389 1346l-748 -1346h-160l750 1346h158zM1755 801v-154h-354l-17 -90q-4 -34 -12 -57q63 45 169 45t183.5 -72.5t77.5 -196.5t-93 -206t-237 -82t-229.5 69.5t-91.5 190.5 h184q6 -53 42 -84t96 -31t99.5 40t39.5 103.5t-39 101.5t-112 38t-115 -66l-168 2l86 449h491z" glyph-name="four_slash_five.frac" horiz-adv-x="1869"/><glyph d="M541 1354v-807h-189v518h-205v129q115 0 173.5 39t70.5 121h150zM1389 1346l-746 -1346h-160l750 1346h156zM1509 676q-133 0 -155 -205q74 74 188 74t192 -76t78 -197t-88 -202.5t-234 -81.5t-233.5 105t-87.5 299t91.5 307.5t250.5 113.5q121 0 196 -58t91 -167h-180 q-20 88 -109 88zM1499 412q-57 0 -94 -39t-37 -99t37 -100.5t94 -40.5t94 40t37 99.5t-37 99.5t-94 40z" glyph-name="one_slash_six.frac" horiz-adv-x="1869"/><glyph d="M653 1346v-154h-354l-16 -90q-6 -27 -13 -58q66 47 150 48q127 0 203.5 -74t76.5 -198t-93 -206t-237 -82t-229.5 70t-91.5 191h184q6 -53 42.5 -85t96.5 -32t99 40t39 104t-38 102.5t-112 38.5t-116 -66l-168 2l86 449h491zM1386 1346l-745 -1346h-160l750 1346h155z M1507 676q-133 0 -155 -205q74 74 190 74t192 -75t76 -197t-88 -203.5t-234 -81.5t-233.5 105t-87.5 299t91.5 307.5t250.5 113.5q121 0 196 -58t91 -167h-180q-20 88 -109 88zM1497 412q-57 0 -94 -39t-37 -99t37 -100.5t94 -40.5t94 40t37 99.5t-37 99.5t-94 40z" glyph-name="five_slash_six.frac" horiz-adv-x="1869"/><glyph d="M643 1724v-219h-264v219h264z" glyph-name="dotaccent.aalt"/><glyph d="M511 1890q93 0 159.5 -67.5t66.5 -160.5t-66.5 -159.5t-159.5 -66.5t-159.5 66.5t-66.5 161.5t66.5 160.5t159.5 65.5zM511 1772q-44 0 -76 -32t-32 -77t32 -77t76 -32t75.5 32t31.5 77t-31.5 77t-75.5 32z" glyph-name="ring.aalt"/><glyph d="M862 1485h-244l-110 133l-115 -133h-231l223 256h256z" glyph-name="circumflex.aalt"/><glyph d="M512 1630q160 0 193 115h139q-6 -131 -91 -200.5t-241 -69.5t-241 69.5t-91 200.5h139q33 -115 193 -115z" glyph-name="breve.aalt"/><glyph d="M637 1495q-39 0 -135 37t-129 37q-61 0 -80 -80h-133q16 96 61 151q72 90 158 91q47 0 134 -34t128 -34q59 0 90 76h131q-43 -244 -225 -244z" glyph-name="tilde.aalt"/><glyph d="M567 -109q76 0 122 -38.5t46 -107.5t-66.5 -118t-169.5 -49t-216 45l36 80q89 -33 143 -33q106 0 105 72q0 31 -24.5 51.5t-56.5 20.5t-80 -15l-39 37l112 170h94l-79 -123q43 8 73 8z" glyph-name="cedilla.aalt"/><glyph d="M988 -258q42 0 83 10v-112q-182 -55 -269 10.5t-87 155.5t135 194h139q-111 -84 -110 -166q0 -41 33.5 -66.5t75.5 -25.5z" glyph-name="ogonek.aalt"/><glyph d="M641 -123v-147q0 -119 -59.5 -172.5t-196.5 -59.5v88q78 6 107.5 26.5t35.5 74.5h-143v190h256z" glyph-name="uniF6C3.aalt"/><glyph d="M922 1366v-147q0 -121 -59.5 -174.5t-196.5 -57.5v88q78 6 107.5 26.5t35.5 74.5h-143v190h256z" glyph-name="glyph521"/><glyph d="M797 1724v-219h-240v219h240zM465 1724v-219h-240v219h240z" glyph-name="glyph522"/><glyph d="M889 1366v-147q0 -84 -17.5 -125t-64.5 -68q-57 -37 -162 -39v88q72 4 102.5 26.5t36.5 74.5h-139v190h244z" glyph-name="glyph523"/><glyph d="M793 1391v-224h-236v224h236zM465 1391v-224h-234v224h234z" glyph-name="glyph524"/><glyph d="M322 1159v148q0 84 17 124.5t72 72.5t154 34v-88q-72 -4 -102.5 -26.5t-36.5 -73.5h139v-191h-243z" glyph-name="glyph525"/><glyph d="M573 711v-74h-573v74h573zM288 1360q112 0 173 -74t61 -206t-63 -206.5t-173 -74.5t-172.5 73.5t-62.5 206.5t62.5 207t174.5 74zM289 1260q-53 0 -77 -43t-24 -144q0 -174 98.5 -174t98.5 180.5t-96 180.5zM288 555q112 0 173 -74.5t61 -206.5t-63 -207t-173 -75 t-172.5 73.5t-62.5 207t62.5 208t174.5 74.5zM289 455q-53 0 -77 -44t-24 -145q0 -174 98.5 -174t98.5 182t-96 181z" glyph-name="glyph526" horiz-adv-x="573"/><glyph d="M428 0h-297v1366h297v-408q0 -35 -2 -172q72 88 115 134l422 446h378l-536 -541l586 -825h-377l-414 612l-172 -172v-440zM813 -123v-219h-264v219h264z" glyph-name="glyph527" horiz-adv-x="1366"/></font>
</defs>
</svg>
