<?xml version="1.0" standalone="no"?>
<!DOCTYPE svg PUBLIC "-//W3C//DTD SVG 1.1//EN" "http://www.w3.org/Graphics/SVG/1.1/DTD/svg11.dtd">
<svg xmlns="http://www.w3.org/2000/svg"><metadata>This SVG WebFont was generated by YouWorkForThem.
Copyright 2010 URW++ Design &amp; Development</metadata><defs><font horiz-adv-x="1024" id="ywftsvg"><font-face ascent="1366" bbox="-301 -512.131 2068 1837" cap-height="1366" descent="-682" font-family="" font-stretch="normal" font-weight="400" panose-1="0 0 5 0 0 0 0 0 0 0" underline-position="0" underline-thickness="0" unicode-range="U+0020-FB04" units-per-em="2048" x-height="985"/><missing-glyph horiz-adv-x="512"/><glyph d="M432 1274q-96 0 -125 -53q-18 -31 -18 -138v-98h198v-100h-198v-885h-121v885h-168v100h168v84q0 154 35 209q59 98 215 98q45 0 94 -8v-102q-49 8 -80 8zM946 1274q-96 0 -125 -53q-18 -31 -18 -138v-98h198v-100h-198v-885h-121v885h-168v100h168v84q0 154 35 209 q59 98 215 98q45 0 94 -8v-102q-49 8 -80 8z" glyph-name="uniFB00" horiz-adv-x="1046" unicode="ff"/><glyph d="M432 1274q-96 0 -125 -53q-18 -31 -18 -138v-98h198v-100h-198v-885h-121v885h-168v100h168v84q0 154 35 209q59 98 215 98q45 0 94 -8v-102q-49 8 -80 8zM803 1366v-192h-121v192h121zM803 985v-985h-121v985h121z" glyph-name="uniFB01" horiz-adv-x="952" unicode="fi"/><glyph d="M432 1274q-96 0 -125 -53q-18 -31 -18 -138v-98h198v-100h-198v-885h-121v885h-168v100h168v84q0 154 35 209q59 98 215 98q45 0 94 -8v-102q-49 8 -80 8zM803 1366v-1366h-121v1366h121z" glyph-name="uniFB02" horiz-adv-x="952" unicode="fl"/><glyph d="M432 1274q-96 0 -125 -53q-18 -31 -18 -138v-98h198v-100h-198v-885h-121v885h-168v100h168v84q0 154 35 209q59 98 215 98q45 0 94 -8v-102q-49 8 -80 8zM946 1274q-96 0 -125 -53q-18 -31 -18 -138v-98h198v-100h-198v-885h-121v885h-168v100h168v84q0 154 35 209 q59 98 215 98q45 0 94 -8v-102q-49 8 -80 8zM1317 1366v-192h-121v192h121zM1317 985v-985h-121v985h121z" glyph-name="uniFB03" horiz-adv-x="1468" unicode="ffi"/><glyph d="M432 1274q-96 0 -125 -53q-18 -31 -18 -138v-98h198v-100h-198v-885h-121v885h-168v100h168v84q0 154 35 209q59 98 215 98q45 0 94 -8v-102q-49 8 -80 8zM946 1274q-96 0 -125 -53q-18 -31 -18 -138v-98h198v-100h-198v-885h-121v885h-168v100h168v84q0 154 35 209 q59 98 215 98q45 0 94 -8v-102q-49 8 -80 8zM1317 1366v-1366h-121v1366h121z" glyph-name="uniFB04" horiz-adv-x="1468" unicode="ffl"/><glyph glyph-name=".notdef" horiz-adv-x="512"/><glyph glyph-name="glyph1" horiz-adv-x="0"/><glyph glyph-name="glyph2" horiz-adv-x="681"/><glyph glyph-name="space" horiz-adv-x="512" unicode=" "/><glyph d="M354 1366v-401l-28 -623h-72l-29 623v401h129zM362 190v-190h-143v190h143z" glyph-name="exclam" horiz-adv-x="538" unicode="!"/><glyph d="M205 819h-94l-19 547h129zM471 819h-94l-19 547h129z" glyph-name="quotedbl" horiz-adv-x="581" unicode="&quot;"/><glyph d="M737 471l-57 -403h-88l55 403h-237l-58 -403h-88l55 403h-251l12 88h252l33 225h-252l12 88h252l51 371h90l-53 -371h240l51 371h90l-53 -371h260l-13 -88h-260l-30 -225h258l-13 -88h-258zM692 784h-239l-31 -225h237z" glyph-name="numbersign" horiz-adv-x="1120" unicode="#"/><glyph d="M522 1520h88v-166q184 -8 287.5 -108.5t99.5 -264.5h-116q-6 256 -271 270v-516q217 -39 317.5 -131t100.5 -252q0 -221 -186 -327q-84 -45 -232 -54v-227h-88v225q-209 4 -326.5 122t-113.5 312h119q-2 -158 75.5 -239.5t245.5 -95.5v573q-197 39 -290 125t-93 236 t103.5 245.5t279.5 106.5v166zM254 996q0 -120 113 -187q40 -26 155 -53v497q-125 -4 -196.5 -70.5t-71.5 -186.5zM911 352q0 139 -125 209q-35 21 -176 64v-555q137 10 207 67q94 76 94 215z" glyph-name="dollar" horiz-adv-x="1120" unicode="$"/><glyph d="M1229 1325l-752 -1325h-98l749 1325h101zM1228 698q144 0 222 -91t78 -265t-78 -270.5t-225.5 -96.5t-225 91.5t-77.5 265.5t81 270t225 96zM1229 614q-201 0 -201 -279t199 -280q94 0 145 74t51 208t-50 205.5t-144 71.5zM392 1360q144 0 222 -92t78 -264t-80 -270.5 t-226 -98.5t-224 94t-78 268t82 268.5t226 94.5zM391 1276q-203 0 -203 -285q0 -133 51.5 -203.5t147.5 -70.5t148.5 73.5t52.5 213.5q0 272 -197 272z" glyph-name="percent" horiz-adv-x="1613" unicode="%"/><glyph d="M498 -27q-182 0 -296 103.5t-114 273.5t164 297q102 78 174 113q-90 113 -128 186.5t-38 143.5q0 121 85 197.5t218 76.5t216 -76t83 -186t-62.5 -194.5t-205.5 -172.5l289 -354q41 104 47 223h112q-2 -74 -26.5 -168t-54.5 -147l243 -289h-153l-156 188 q-145 -215 -397 -215zM562 1266q-81 0 -135 -49.5t-54 -124.5q-1 -95 157 -277q219 123 220 270q0 78 -53.5 129.5t-134.5 51.5zM211 336q0 -106 86 -184t211 -78q190 -1 319 198l-335 410q-156 -90 -218.5 -165t-62.5 -181z" glyph-name="ampersand" horiz-adv-x="1230" unicode="&amp;"/><glyph d="M205 819h-94l-19 547h129z" glyph-name="quotesingle" horiz-adv-x="315" unicode="'"/><glyph d="M209 508q0 -471 246 -875h-95q-143 236 -207.5 441t-64.5 426t72.5 453.5t199.5 412.5h95q-246 -387 -246 -858z" glyph-name="parenleft" horiz-adv-x="567" unicode="("/><glyph d="M481 500q0 -221 -72.5 -454t-199.5 -413h-94q245 389 245 859t-245 874h94q143 -238 207.5 -441.5t64.5 -424.5z" glyph-name="parenright" horiz-adv-x="567" unicode=")"/><glyph d="M518 1366h80v-236l221 80l27 -71l-223 -76l137 -189l-60 -45l-143 193l-139 -191l-66 46l142 186l-222 76l25 71l221 -80v236z" glyph-name="asterisk" horiz-adv-x="1120" unicode="*"/><glyph d="M100 707h414v413h88v-413h414v-89h-414v-413h-88v413h-414v89z" glyph-name="plus" horiz-adv-x="1120" unicode="+"/><glyph d="M307 199v-142q0 -145 -38 -216.5t-132 -104.5v80q84 33 88 184h-75v199h157z" glyph-name="comma" horiz-adv-x="456" unicode=","/><glyph d="M455 559v-108h-455v108h455z" glyph-name="hyphen" horiz-adv-x="454" unicode="-"/><glyph d="M307 205v-205h-157v205h157z" glyph-name="period" horiz-adv-x="456" unicode="."/><glyph d="M731 1366l-704 -1733h-103l709 1733h98z" glyph-name="slash" horiz-adv-x="806" unicode="/"/><glyph d="M1028 655q0 -684 -468 -684t-468 674q0 313 84 477q117 232 389 232q127 0 227.5 -61.5t153.5 -172.5q82 -164 82 -465zM565 1249q-176 0 -262 -149.5t-86 -458.5q0 -223 55 -369q37 -92 114 -144t175 -52q342 0 342 586t-338 587z" glyph-name="zero" horiz-adv-x="1120" unicode="0"/><glyph d="M715 1337v-1337h-127v997h-346v93q205 4 274.5 49t101.5 198h97z" glyph-name="one" horiz-adv-x="1120" unicode="1"/><glyph d="M993 109v-109h-884q14 180 99 290.5t322 262.5q195 129 263.5 215t68.5 208t-81 197.5t-214 75.5q-180 0 -258 -141q-47 -84 -49 -229h-119q-2 225 113 350t312 125t309 -103.5t112 -275.5t-127 -305q-49 -53 -108.5 -98.5t-209.5 -140.5t-213 -163.5t-83 -158.5h747z " glyph-name="two" horiz-adv-x="1120" unicode="2"/><glyph d="M540 1354q192 0 303 -95.5t111 -250.5q0 -109 -60 -187t-167 -106q133 -27 205 -111t72 -217q0 -186 -128 -301t-335 -115q-289 0 -404 209q-53 96 -53 250h117q0 -229 122.5 -291.5t219.5 -62.5q145 0 240.5 85t95.5 227t-119 216q-78 53 -238 53q-37 0 -61 -2v101h53 q150 0 232.5 65t82.5 179t-77.5 181.5t-215.5 67.5t-219.5 -86t-87.5 -250h-114q8 213 120.5 327t304.5 114z" glyph-name="three" horiz-adv-x="1120" unicode="3"/><glyph d="M1018 428v-100h-203v-328h-113v328h-618v112l629 897h102v-909h203zM702 428v528q0 129 3 222q-109 -168 -121 -187l-293 -413q-23 -35 -53 -76l-56 -74h520z" glyph-name="four" horiz-adv-x="1120" unicode="4"/><glyph d="M942 1325v-108h-582l-65 -312q-12 -82 -31 -149q111 135 303 135t316.5 -127t124.5 -328t-130 -333t-330 -132t-324 117t-122 299h117q10 -145 98.5 -230t230.5 -85t238.5 102t96.5 258t-94.5 255t-243.5 99q-188 0 -299 -155l-105 4l131 690h670z" glyph-name="five" horiz-adv-x="1120" unicode="5"/><glyph d="M590 1249q-242 0 -326 -291q-33 -113 -41 -319q113 233 373 233q188 0 309 -123.5t121 -320.5t-127 -327t-319 -130q-121 0 -220.5 54.5t-158.5 150.5q-92 154 -92 478t124.5 512t360.5 188q170 0 274.5 -92.5t124.5 -260.5h-119q-20 117 -94.5 182.5t-189.5 65.5z M577 768q-142 0 -234.5 -95t-92.5 -246t93 -251t234.5 -100t232.5 98t91 249t-91 248t-233 97z" glyph-name="six" horiz-adv-x="1120" unicode="6"/><glyph d="M1016 1325v-108q-236 -240 -377 -557.5t-166 -659.5h-129q14 315 168 649t387 565q-98 -2 -139 -2h-606v113h862z" glyph-name="seven" horiz-adv-x="1120" unicode="7"/><glyph d="M154 1012q0 154 111.5 248t295.5 94t295 -92.5t111 -243.5q0 -223 -217 -295q270 -68 270 -336q0 -193 -124 -304.5t-336 -111.5t-336 109.5t-124 296.5q0 133 72 224t201 122q-104 29 -161.5 104.5t-57.5 184.5zM562 1249q-132 0 -210 -65.5t-78 -175.5t78 -176t209 -66 t208 64.5t77 177.5t-76 177t-208 64zM559.5 670q-151.5 0 -243 -79t-91.5 -214t91.5 -218t243.5 -83t243.5 82t91.5 217t-92 215t-243.5 80z" glyph-name="eight" horiz-adv-x="1120" unicode="8"/><glyph d="M546 76q126 0 211 92t117 268q16 90 19 264q-37 -80 -78 -125q-103 -121 -291 -121t-309 124t-121 321t126 326t321 129q289 0 407 -258q64 -142 64 -406t-64 -418q-125 -301 -413 -301q-170 0 -281 95.5t-125 255.5h117q16 -113 95 -179.5t205 -66.5zM542 1249 q-140 0 -231.5 -97t-91.5 -249t89.5 -248t231.5 -96t234 95.5t92 245.5t-92 249.5t-232 99.5z" glyph-name="nine" horiz-adv-x="1120" unicode="9"/><glyph d="M342 205v-205h-158v205h158zM342 985v-205h-158v205h158z" glyph-name="colon" horiz-adv-x="491" unicode=":"/><glyph d="M342 199v-142q0 -145 -38 -216.5t-132 -104.5v80q84 33 88 184h-76v199h158zM342 985v-205h-158v205h158z" glyph-name="semicolon" horiz-adv-x="491" unicode=";"/><glyph d="M954 1151v-129l-749 -338l749 -336v-129l-886 410v112z" glyph-name="less" unicode="&lt;"/><glyph d="M100 854h916v-88h-916v88zM100 559h916v-88h-916v88z" glyph-name="equal" horiz-adv-x="1120" unicode="="/><glyph d="M70 219v129l747 338l-747 336v129l886 -410v-112z" glyph-name="greater" unicode=">"/><glyph d="M522 1288q-285 0 -305 -346h-115q6 174 66 268q53 88 147.5 136.5t210.5 48.5q176 0 287 -98.5t111 -242.5t-76 -245q-30 -39 -130 -133t-121.5 -149.5t-23.5 -186.5h-114q2 166 33.5 232.5t185.5 213.5q121 121 121 241t-77 190.5t-200 70.5zM586 190v-190h-144v190h144 z" glyph-name="question" horiz-adv-x="1011" unicode="?"/><glyph d="M799 -31q-293 0 -499 206t-206 505t209 508t493 209t468 -170t184 -416t-184 -399q-131 -111 -260.5 -111t-145.5 117q-113 -115 -221 -115t-169.5 71.5t-61.5 186.5q0 190 124 346t268 156t203 -135l37 102h97l-174 -506q-18 -55 -19 -90q0 -74 84 -74q106 0 213 107 q139 139 139 350t-163.5 363.5t-418.5 152.5t-441.5 -189.5t-186.5 -462.5t183.5 -459.5t449.5 -186.5q168 0 317.5 85t227.5 224h73q-57 -127 -168 -213q-201 -162 -452 -162zM961 861q0 52 -39 96t-93 44q-117 0 -218 -148t-101 -318q0 -80 36 -126.5t108 -46.5t132 62 t101 176l47 135q27 74 27 126z" glyph-name="at" horiz-adv-x="1542" unicode="@"/><glyph d="M715 1370l545 -1370h-146l-164 430h-624l-168 -430h-140l551 1370h146zM911 535l-196 505q-53 139 -74 207q-43 -115 -76 -200l-200 -512h546z" glyph-name="A" horiz-adv-x="1275" unicode="A"/><glyph d="M166 1366h551q195 0 284 -49q179 -99 179 -293q0 -113 -64.5 -193.5t-173.5 -107.5q88 -18 139 -49q152 -94 152 -283q0 -113 -85.5 -252t-397.5 -139h-584v1366zM295 1253v-493h364q162 0 236 26t115 86t41 134q0 154 -136 217q-68 31 -223 30h-397zM295 655v-542h407 q201 0 283 51q119 76 119 219t-99.5 207.5t-312.5 64.5h-397z" glyph-name="B" horiz-adv-x="1318" unicode="B"/><glyph d="M719 -31q-283 0 -454 194.5t-171 516t176 519.5t454 198t439 -174q111 -121 127 -267h-129q-33 152 -149.5 240t-284.5 88q-227 0 -365.5 -166t-138.5 -437t136.5 -435t363.5 -164q193 0 311.5 114.5t143.5 325.5h129q-23 -252 -181.5 -402.5t-406.5 -150.5z" glyph-name="C" horiz-adv-x="1380" unicode="C"/><glyph d="M166 1366h475q276 0 432 -137q197 -180 197 -530t-193 -547q-82 -82 -178 -117t-248 -35h-485v1366zM295 1253v-1140h326q141 0 223 25.5t145 90.5q152 158 152 456t-146 443q-123 125 -354 125h-346z" glyph-name="D" horiz-adv-x="1363" unicode="D"/><glyph d="M1114 1366v-113h-819v-489h766v-113h-766v-538h827v-113h-956v1366h948z" glyph-name="E" horiz-adv-x="1198" unicode="E"/><glyph d="M1038 1366v-113h-743v-489h661v-113h-661v-651h-129v1366h872z" glyph-name="F" horiz-adv-x="1075" unicode="F"/><glyph d="M1327 694v-694h-86l-27 254q-61 -135 -187 -210t-292 -75q-287 0 -465 194.5t-178 512.5t180.5 519.5t468.5 201.5q229 0 383 -123t185 -330h-127q-27 152 -148 246t-293 94q-236 0 -378 -167t-142 -440t142.5 -434t377.5 -161q141 0 306 95t165 411h-467v106h582z" glyph-name="G" horiz-adv-x="1462" unicode="G"/><glyph d="M1241 1366v-1366h-129v659h-819v-659h-129v1366h129v-594h819v594h129z" glyph-name="H" horiz-adv-x="1404" unicode="H"/><glyph d="M293 1366v-1366h-129v1366h129z" glyph-name="I" horiz-adv-x="456" unicode="I"/><glyph d="M805 1378v-975q0 -265 -78.5 -327t-150.5 -82t-180 -19q-108 0 -197.5 48.5t-130.5 134.5t-41 243q0 27 2 54h125q0 -129 8 -172q37 -195 258 -195q147 0 211 94q45 66 45 238v958h129z" glyph-name="J" horiz-adv-x="950" unicode="J"/><glyph d="M295 0h-129v1366h129v-735q49 49 90 86l705 649h174l-615 -557l645 -809h-166l-571 719l-262 -238v-481z" glyph-name="K" horiz-adv-x="1284" unicode="K"/><glyph d="M1063 113v-113h-899v1366h129v-1253h770z" glyph-name="L" horiz-adv-x="1097" unicode="L"/><glyph d="M1495 1366v-1366h-125v825q0 272 16 430q-16 -45 -36.5 -100t-33.5 -90t-22 -57l-401 -1008h-117l-409 995q-39 100 -91 252q14 -238 15 -418v-829h-125v1366h178l397 -975q66 -176 93 -256q55 156 92 254l389 977h180z" glyph-name="M" horiz-adv-x="1656" unicode="M"/><glyph d="M1241 1366v-1366h-145l-633 915q-141 217 -180 295q6 -80 6 -133l2 -194v-883h-125v1366h145l635 -926q111 -160 178 -286q-8 188 -8 360v852h125z" glyph-name="N" horiz-adv-x="1404" unicode="N"/><glyph d="M737 1397q287 0 465 -201t178 -517t-178 -513t-466 -197t-465 196.5t-177 518.5t178 517.5t465 195.5zM738 1284q-230 0 -372.5 -163t-142.5 -435t141.5 -438t373 -166t372.5 165t141 432t-141.5 436t-371.5 169z" glyph-name="O" horiz-adv-x="1474" unicode="O"/><glyph d="M166 1366h545q207 0 311 -68q156 -106 156 -321t-152 -320q-104 -76 -299 -75h-432v-582h-129v1366zM295 1253v-559h395q162 0 238 47q121 76 121 235t-117 230q-76 47 -248 47h-389z" glyph-name="P" horiz-adv-x="1241" unicode="P"/><glyph d="M94 680q0 318 178.5 517.5t465 199.5t464.5 -198.5t178 -526.5t-202 -531l194 -147l-65 -82l-215 164q-137 -106 -353 -107q-287 0 -466 196.5t-179 514.5zM1251 676q0 276 -142.5 442t-372.5 166t-371.5 -166t-141.5 -437t141.5 -435t378.5 -164q141 0 250 72l-182 135 l68 84l202 -158q170 185 170 461z" glyph-name="Q" horiz-adv-x="1466" unicode="Q"/><glyph d="M158 1366h600q180 0 282 -61q160 -100 160 -308q0 -131 -69.5 -219t-196.5 -119q113 -16 174 -90q39 -55 49.5 -104t24.5 -233t55 -232h-145q-29 42 -36 200t-22.5 223.5t-60.5 113.5q-68 74 -285 73h-401v-610h-129v1366zM1071 989q0 264 -354 264h-430v-538h385 q195 0 280 49q119 70 119 225z" glyph-name="R" horiz-adv-x="1351" unicode="R"/><glyph d="M565 1288q-160 0 -250 -68.5t-90 -188.5t80 -168q81 -48 317 -101t324 -103q168 -99 168 -289t-156 -304q-128 -96 -370 -96t-387.5 124.5t-145.5 343.5v15h125q6 -158 76 -242q111 -133 354 -133q178 0 278.5 74t100.5 216t-160 207q-82 35 -307 87t-305 108 q-119 84 -119 254t128 271.5t353 101.5t353.5 -110.5t138.5 -313.5h-125q-27 315 -381 315z" glyph-name="S" horiz-adv-x="1202" unicode="S"/><glyph d="M1118 1366v-113h-479v-1253h-129v1253h-481v113h1089z" glyph-name="T" horiz-adv-x="1146" unicode="T"/><glyph d="M1208 1366v-819q0 -145 -18.5 -225t-67.5 -156q-135 -197 -438 -197q-336 0 -467 221q-72 119 -72 361v815h129v-819q0 -215 64 -316q98 -153 342 -153t336 147q63 100 63 324v817h129z" glyph-name="U" horiz-adv-x="1351" unicode="U"/><glyph d="M1190 1366l-508 -1366h-152l-512 1366h146l356 -983q6 -18 55 -162q12 -49 33 -110q49 166 86 270l357 985h139z" glyph-name="V" horiz-adv-x="1206" unicode="V"/><glyph d="M1761 1366l-379 -1366h-141l-276 963q-55 205 -70 280q-29 -117 -74 -276l-274 -967h-141l-377 1366h137l252 -948q51 -207 65 -283q14 80 68 285l270 946h150l276 -960q51 -194 64 -271q16 86 61 268l258 963h131z" glyph-name="W" horiz-adv-x="1787" unicode="W"/><glyph d="M1130 1366l-466 -664l493 -702h-158l-342 489q-14 25 -73 117q-2 -4 -5.5 -8t-5.5 -8l-2 -2q-17 -27 -38 -56.5t-27 -39.5l-344 -492h-150l496 702l-465 664h154l303 -436q31 -47 86 -137q28 45 38 61t24 35.5t18 27t8 13.5l311 436h145z" glyph-name="X" horiz-adv-x="1169" unicode="X"/><glyph d="M659 0h-129v565l-542 801h157l381 -571q33 -49 72 -121q61 104 72 117l381 575h149l-541 -801v-565z" glyph-name="Y" horiz-adv-x="1185" unicode="Y"/><glyph d="M1106 1366v-115l-832 -1054q-17 -23 -31 -39.5t-22 -28.5t-16 -20q35 2 80 2l116 2h723v-113h-1067v117l838 1063l35 41q2 2 6 7t11 13t11 14q-121 -2 -180 -2h-657v113h985z" glyph-name="Z" horiz-adv-x="1175" unicode="Z"/><glyph d="M461 1366v-96h-197v-1540h197v-97h-309v1733h309z" glyph-name="bracketleft" horiz-adv-x="567" unicode="["/><glyph d="M76 1366h98l709 -1733h-103z" glyph-name="backslash" horiz-adv-x="806" unicode="\"/><glyph d="M106 -367v97h197v1540h-197v96h310v-1733h-310z" glyph-name="bracketright" horiz-adv-x="567" unicode="]"/><glyph d="M197 776h-125l366 592h148l366 -592h-125l-317 504z" glyph-name="asciicircum" unicode="^"/><glyph d="M0 -154h1024v-88h-1024v88z" glyph-name="underscore" unicode="_"/><glyph d="M260 1405h148l190 -272h-96z" glyph-name="grave" unicode="`"/><glyph d="M880 -8q-62 0 -90 41t-28 139q-127 -201 -373 -201q-150 0 -235.5 75t-85.5 204q0 195 186 266q53 23 101.5 30t190.5 21t176 41t34 90q0 111 -62.5 163t-192.5 52t-194.5 -55t-77.5 -176h-116q8 160 111.5 246t261.5 86t253 -49.5t119 -130.5q14 -47 14 -162v-441 q0 -92 11 -115.5t43 -23.5t59 8v-94q-43 -14 -105 -14zM756 377v162q-29 -27 -75 -38.5t-201 -31.5t-223.5 -68.5t-68.5 -137.5t63.5 -141t166.5 -52q147 0 242.5 87t95.5 220z" glyph-name="a" horiz-adv-x="1021" unicode="a"/><glyph d="M272 1366v-565q45 102 136.5 157.5t216.5 55.5q201 0 320.5 -140t119.5 -380t-120 -381.5t-324 -141.5q-262 0 -357 222v-193h-112v1366h120zM607 913q-155 0 -247 -112.5t-92 -306.5t93 -308t247 -114t245 114t91 306t-91 306.5t-246 114.5z" glyph-name="b" horiz-adv-x="1146" unicode="b"/><glyph d="M539 -29q-207 0 -331 140.5t-124 376.5t125 381t334 145q172 0 278.5 -89t126.5 -251h-123q-47 240 -280 239q-156 0 -248 -114.5t-92 -307t88.5 -306t226.5 -113.5t217 73.5t97 206.5h120q-25 -180 -135 -280.5t-280 -100.5z" glyph-name="c" horiz-adv-x="1017" unicode="c"/><glyph d="M997 1366v-1366h-112v197q-104 -225 -355 -226q-205 0 -325.5 141.5t-120.5 380.5t121 380t321 141q250 0 351 -211v563h120zM881 496q1 197 -95 307t-248 110t-242.5 -112.5t-90.5 -306.5t91 -308t247 -114t247 113.5t91 310.5z" glyph-name="d" horiz-adv-x="1148" unicode="d"/><glyph d="M537 -29q-207 0 -330 139.5t-123 373.5t126 382t325 148q127 0 279.5 -99.5t154.5 -451.5h-764q4 -188 91 -289.5t243 -101.5q240 0 303 254h114q-35 -170 -143 -262.5t-276 -92.5zM530.5 913q-137.5 0 -220.5 -90t-103 -260h639q-8 162 -93 256t-222.5 94z" glyph-name="e" horiz-adv-x="1044" unicode="e"/><glyph d="M432 1274q-96 0 -125 -53q-18 -31 -18 -138v-98h198v-100h-198v-885h-121v885h-168v100h168v84q0 154 35 209q59 98 215 98q45 0 94 -8v-102q-49 8 -80 8z" glyph-name="f" horiz-adv-x="532" unicode="f"/><glyph d="M971 985v-891q0 -201 -60 -303q-104 -178 -385 -178q-182 0 -287.5 78t-115.5 221h121q31 -201 284 -201q168 0 246 85t78 270v163q-102 -215 -342 -215q-195 0 -310.5 133.5t-115.5 359.5t120 366.5t330 140.5t324 -213v184h113zM528 913q-148 0 -235.5 -106.5 t-87.5 -290.5t86 -292.5t233.5 -108.5t236.5 109.5t89 290.5t-87 289.5t-235 108.5z" glyph-name="g" horiz-adv-x="1122" unicode="g"/><glyph d="M272 1366v-448q0 -18 -2 -117q100 213 342 213q207 0 295 -146q49 -76 49 -233v-635h-120v618q0 135 -43 199q-70 92 -211 92q-182 0 -263 -153q-47 -88 -47 -273v-483h-120v1366h120z" glyph-name="h" horiz-adv-x="1099" unicode="h"/><glyph d="M270 1366v-192h-120v192h120zM270 985v-985h-120v985h120z" glyph-name="i" horiz-adv-x="419" unicode="i"/><glyph d="M270 985v-1051q0 -104 -19 -208.5t-220 -104.5q-25 0 -58 6v101q20 -4 45 -4q84 0 108 36.5t24 169.5v1055h120zM270 1366v-192h-120v192h120z" glyph-name="j" horiz-adv-x="421" unicode="j"/><glyph d="M272 0h-120v1366h120v-862q67 67 74 69l475 412h162l-422 -362l451 -623h-152l-391 541l-197 -168v-373z" glyph-name="k" horiz-adv-x="1030" unicode="k"/><glyph d="M270 1366v-1366h-120v1366h120z" glyph-name="l" horiz-adv-x="419" unicode="l"/><glyph d="M264 985v-172q70 109 145.5 155t182.5 46q215 0 285 -193q113 193 327 193q172 0 258 -113q57 -76 58 -223v-678h-121v645q0 119 -31 170q-55 94 -209 94t-225 -135q-37 -74 -37 -207v-567h-121v643q0 113 -26 166q-51 100 -191 100q-172 0 -248 -147q-39 -80 -39 -219 v-543h-120v985h112z" glyph-name="m" horiz-adv-x="1662" unicode="m"/><glyph d="M264 985v-184q45 76 82 110q102 102 268 103q205 0 291 -135q51 -78 51 -246v-633h-120v596q0 166 -43 223q-63 90 -205 90q-90 0 -162 -40.5t-113 -118.5t-41 -254v-496h-120v985h112z" glyph-name="n" horiz-adv-x="1097" unicode="n"/><glyph d="M555 1014q213 0 338 -143.5t125 -381t-126 -378t-339 -140.5t-341 141.5t-128 380.5t129 380t342 141zM553 913q-158 0 -252 -113.5t-94 -307.5t94 -307t252 -113t251 113t93 305t-93 307.5t-251 115.5z" glyph-name="o" horiz-adv-x="1101" unicode="o"/><glyph d="M264 985v-188q115 217 352 217q203 0 325 -143t122 -379t-121 -378.5t-319 -142.5q-254 0 -351 213v-551h-120v1352h112zM604 913q-156 0 -246 -112.5t-90 -308.5t92 -308t246 -112t245 115t91 305t-91 305.5t-247 115.5z" glyph-name="p" horiz-adv-x="1144" unicode="p"/><glyph d="M997 985v-1352h-120v549q-100 -211 -353 -211q-201 0 -319.5 139.5t-118.5 379.5t122 382t316 142t295 -115q33 -39 66 -102v188h112zM545 913q-156 0 -247 -113.5t-91 -307.5t90 -307t245 -113t247 113.5t92 307.5t-90 307t-246 113z" glyph-name="q" horiz-adv-x="1144" unicode="q"/><glyph d="M641 879h-31q-158 0 -252 -111q-51 -57 -68.5 -133t-17.5 -232v-403h-120v985h112v-235q109 255 377 249v-120z" glyph-name="r" horiz-adv-x="632" unicode="r"/><glyph d="M435 913q-118 0 -179 -45t-61 -120t54 -109.5t233 -75.5t257 -92q105 -68 105 -201t-107.5 -216t-290.5 -83t-289 91.5t-110 259.5h117q18 -250 291 -250q121 0 195.5 52t74.5 132t-57.5 121t-237.5 83t-244 79q-110 59 -110 192t97 208t261 75q209 0 305 -115 q62 -70 70 -199h-119q-10 111 -73.5 162t-181.5 51z" glyph-name="s" horiz-adv-x="919" unicode="s"/><glyph d="M479 985v-100h-205v-623q0 -102 24 -133t101 -31q27 0 80 6v-104q-66 -6 -108 -6q-147 0 -193 80q-25 45 -24 250v561h-172v100h172v303h120v-303h205z" glyph-name="t" horiz-adv-x="538" unicode="t"/><glyph d="M944 985v-985h-113v184q-119 -213 -346 -213q-178 0 -274 119q-68 86 -68 260v635h121v-584q0 -135 24 -195t85 -95t139 -35q166 0 254 137q57 94 57 266v506h121z" glyph-name="u" horiz-adv-x="1095" unicode="u"/><glyph d="M881 985l-363 -985h-131l-381 985h129l230 -598q16 -43 90 -268q70 215 92 276l211 590h123z" glyph-name="v" horiz-adv-x="884" unicode="v"/><glyph d="M1409 985l-322 -985h-129l-196 647q-25 86 -49 195q-33 -135 -49 -193l-193 -649h-133l-322 985h131l189 -600q45 -158 70 -256q51 221 63 260l176 596h139l187 -625q20 -70 57 -229q31 133 59 225l197 629h125z" glyph-name="w" horiz-adv-x="1423" unicode="w"/><glyph d="M881 985l-351 -459l390 -526h-152l-264 360q-25 37 -49 76l-49 -74l-263 -362h-143l381 518l-352 467h153l213 -289q10 -14 62 -90q53 78 63 90l217 289h144z" glyph-name="x" horiz-adv-x="921" unicode="x"/><glyph d="M213 -375q-41 0 -80 6l-27 2v107q50 -12 96 -12q98 0 150 143q27 66 35 88q22 43 16 47l-397 979h133l267 -678q25 -63 59 -174q43 135 61 186l242 666h123l-387 -1024q-70 -184 -109 -244q-61 -92 -182 -92z" glyph-name="y" horiz-adv-x="894" unicode="y"/><glyph d="M90 885v100h756v-86l-588 -721l-31 -35q-16 -16 -34 -43h679v-100h-825v98l578 709q20 25 41 45l26 35l-37 -2h-565z" glyph-name="z" horiz-adv-x="894" unicode="z"/><glyph d="M264 1077v-346q0 -96 -24.5 -147.5t-87.5 -85.5q63 -33 87.5 -86.5t24.5 -151.5v-330q0 -124 44 -162t128 -38h23v-97h-23q-156 0 -220 69t-64 237v321q0 88 -27 132t-90 63v94q63 18 90 61t27 127v350q0 147 66.5 213t217.5 66h23v-96h-23q-92 0 -132 -44t-40 -149z" glyph-name="braceleft" horiz-adv-x="567" unicode="{"/><glyph d="M449 1366h129v-1708h-129v1708z" glyph-name="bar" unicode="|"/><glyph d="M303 -78v346q0 96 24.5 147.5t88.5 86.5q-63 33 -88 86t-25 151v330q0 121 -43 161t-127 40h-22v96h22q156 0 219.5 -68.5t63.5 -236.5v-322q0 -90 26.5 -133t92.5 -61v-94q-66 -18 -92.5 -61.5t-26.5 -127.5v-350q0 -147 -66.5 -213t-216.5 -66h-22v97h22q90 0 130 43 t40 149z" glyph-name="braceright" horiz-adv-x="567" unicode="}"/><glyph d="M904 1321q58 0 103.5 37t94.5 123l72 -56q-102 -219 -283 -219q-43 0 -89 18t-162 78t-179 60q-105 0 -195 -160l-71 55q109 219 272 220q79 0 229 -78t208 -78z" glyph-name="asciitilde" horiz-adv-x="1366" unicode="~"/><glyph glyph-name="uni00A0" horiz-adv-x="512" unicode=" "/><glyph d="M184 -379v399l29 623h72l28 -623v-399h-129zM178 795v190h144v-190h-144z" glyph-name="exclamdown" horiz-adv-x="538" unicode="¡"/><glyph d="M627 -23h-88v205q-193 20 -300.5 156.5t-107.5 359.5q0 283 172 424q84 72 236 99v168h88v-168q156 -6 259 -100.5t118 -239.5h-123q-14 100 -84 164.5t-170 74.5v-837q102 4 176 80.5t88 195.5h117q-16 -160 -123 -265.5t-258 -111.5v-205zM256 702q0 -175 73 -282.5 t210 -136.5v833q-135 -25 -209 -132t-74 -282z" glyph-name="cent" horiz-adv-x="1120" unicode="¢"/><glyph d="M1028 907h-119q-2 168 -88 258t-232 90t-233.5 -74.5t-87.5 -182.5t44 -184.5t46 -82.5t15 -31h313v-88h-266q37 -76 37 -166t-41 -165.5t-142 -167.5l-26 -27q78 39 118 50t92 11t88 -8.5t120 -36.5t133 -28q117 0 221 98l61 -90q-115 -119 -282 -119q-51 0 -86 8.5 t-135 44.5t-184 35q-82 0 -201 -82l-68 101q215 166 215 354q0 78 -47 188h-162v88h111q-59 104 -79 162t-20 129q0 162 122 265.5t327 103.5t320.5 -118t115.5 -335z" glyph-name="sterling" horiz-adv-x="1120" unicode="£"/><glyph d="M211 727q0 156 106 293l-192 188l70 70l188 -188q147 108 300 108t294 -108l190 188l70 -70l-190 -188q106 -137 106 -293t-104 -293l190 -190l-70 -68l-190 191q-135 -109 -290 -109t-302 107l-188 -189l-68 68l186 190q-106 137 -106 293zM682 1090q-148 0 -253 -105.5 t-105 -256.5t106 -256t254 -105t252 105.5t104 255t-105 256t-253 106.5z" glyph-name="currency" horiz-adv-x="1366" unicode="¤"/><glyph d="M1018 778v-82h-326l-76 -131v-100h361v-82h-361v-383h-112v383h-363v82h363v100l-78 131h-326v82h279l-320 547h136l305 -532q16 -27 63 -119q43 84 62 114l305 537h129l-318 -547h277z" glyph-name="yen" horiz-adv-x="1120" unicode="¥"/><glyph d="M449 1366h129v-678h-129v678zM449 313h129v-655h-129v655z" glyph-name="brokenbar" unicode="¦"/><glyph d="M342 1068q0 -83 88 -148q27 -18 231 -136t274.5 -196t70.5 -176t-54.5 -171t-154.5 -112q111 -98 111 -222t-95.5 -205t-256.5 -81t-254 91t-101 263h118q16 -254 250 -254q94 0 155.5 51.5t61.5 131.5q0 100 -139 194q-47 33 -293 174q-131 76 -186 151t-55 171t55 170 t151 104q-96 88 -96 206t92.5 197t246.5 79t244.5 -88t94.5 -252h-117q-14 240 -233 239q-94 0 -151.5 -49t-57.5 -132zM225 604q0 -80 76 -147q47 -43 248 -158q139 -84 174 -111q168 59 168 199q0 84 -75.5 150.5t-237.5 157.5t-189 114q-164 -74 -164 -205z" glyph-name="section" horiz-adv-x="1120" unicode="§"/><glyph d="M745 1368v-194h-122v194h122zM399 1368v-194h-123v194h123z" glyph-name="dieresis" unicode="¨"/><glyph d="M1083 829q-43 183 -270 183q-117 0 -197.5 -91t-80.5 -239t79.5 -238t202.5 -90q244 0 277 248h92q-12 -150 -109.5 -238t-261.5 -88t-268.5 112t-104.5 294t108 295t264 113t252.5 -73t109.5 -188h-93zM809 1397q295 0 503 -211t208 -505t-209 -503t-503 -209t-504 209 t-210 506t210 505t505 208zM808 1327q-263 0 -449.5 -187.5t-186.5 -455.5t186.5 -456.5t448.5 -188.5t448.5 189.5t186.5 453.5t-185.5 454.5t-448.5 190.5z" glyph-name="copyright" horiz-adv-x="1613" unicode="©"/><glyph d="M678 608h-608v68h608v-68zM586 815q-72 0 -78 82q-70 -92 -203 -92q-86 0 -136 42t-50 116q0 109 108 149q39 16 141 26t119 23t17 45q0 109 -137 109q-72 0 -106 -30t-40 -97h-78q10 195 232 194q119 0 172 -57q37 -37 37 -133l-2 -168q0 -106 4 -123.5t20 -17.5t39 6 v-64q-27 -10 -59 -10zM504 1030v72q-47 -16 -129 -26t-117 -27q-57 -25 -57 -75q0 -102 123 -102q78 0 129 44t51 114z" glyph-name="ordfeminine" horiz-adv-x="747" unicode="ª"/><glyph d="M356 205l-256 244v116l256 240v-125l-180 -174l180 -170v-131zM666 207l-256 239v117l256 242v-125l-181 -174l181 -172v-127z" glyph-name="guillemotleft" horiz-adv-x="794" unicode="«"/><glyph d="M829 0v449h-761v112h886v-561h-125z" glyph-name="logicalnot" unicode="¬"/><glyph d="M455 559v-108h-455v108h455z" glyph-name="uni00AD" horiz-adv-x="454" unicode="­"/><glyph d="M516 1073h367q133 0 203.5 -55t70.5 -158q0 -137 -135 -188q70 -25 93.5 -70t29.5 -172q6 -66 14 -91.5t29 -45.5h-109q-18 25 -25 144t-44 158.5t-168 39.5h-234v-342h-92v780zM608 995v-286h223q125 0 179.5 33.5t54.5 111.5q0 141 -207 141h-250zM809 1397 q295 0 503 -211t208 -505t-209 -503t-503 -209t-504 209t-210 506t210 505t505 208zM808 1327q-263 0 -449.5 -187.5t-186.5 -455.5t186.5 -456.5t448.5 -188.5t448.5 189.5t186.5 453.5t-185.5 454.5t-448.5 190.5z" glyph-name="registered" horiz-adv-x="1613" unicode="®"/><glyph d="M782 1315v-86h-538v86h538z" glyph-name="macron" unicode="¯"/><glyph d="M385 1360q121 0 206 -86t85 -207t-86 -206t-206 -85t-206 86t-86 207t86 206t207 85zM384 1282q-87 0 -149.5 -63.5t-62.5 -150.5t62.5 -150.5t149.5 -63.5t149.5 62.5t62.5 150.5t-62.5 151.5t-149.5 63.5z" glyph-name="degree" horiz-adv-x="765" unicode="°"/><glyph d="M100 809h414v414h88v-414h414v-88h-414v-414h-88v414h-414v88zM100 190h916v-88h-916v88z" glyph-name="plusminus" horiz-adv-x="1120" unicode="±"/><glyph d="M639 625v-78h-563q8 113 61 180.5t205 157.5q121 76 162 124.5t41 118.5t-48 113t-128 43q-178 0 -185 -221h-88v18q0 127 75 202t198 75t194.5 -64t71.5 -162t-56.5 -165t-183.5 -143t-166 -114t-53 -85h463z" glyph-name="uni00B2" horiz-adv-x="729" unicode="²"/><glyph d="M147 813v-20q2 -86 58.5 -138.5t145.5 -52.5t146.5 48t57.5 122q0 160 -213 160h-47v74q18 -2 41 -2q188 0 188 139q0 63 -46 102t-124 39q-182 0 -188 -201h-86q10 274 278 275q115 0 185.5 -58.5t70.5 -154.5q0 -121 -118 -170q150 -41 149 -195q0 -113 -81 -182.5 t-218 -69.5t-212 73t-73 212h86z" glyph-name="uni00B3" horiz-adv-x="729" unicode="³"/><glyph d="M762 1405l-242 -272h-96l192 272h146z" glyph-name="acute" unicode="´"/><glyph d="M113 -338v1321h112v-567q0 -109 15.5 -163t58.5 -99q82 -86 207 -86t208 103t83 267v545h112v-983h-112v201q-90 -229 -301 -230q-172 0 -271 160v-469h-112z" glyph-name="uni00B5" unicode="µ"/><glyph d="M483 -367v1008h-32q-158 0 -259.5 100.5t-101.5 257.5q0 216 174 317q86 50 254 50h477v-92h-88v-1641h-116v1641h-191v-1641h-117z" glyph-name="paragraph" horiz-adv-x="1120" unicode="¶"/><glyph d="M307 608v-205h-157v205h157z" glyph-name="periodcentered" horiz-adv-x="456" unicode="·"/><glyph d="M555 -100q68 0 109 -35t41 -101t-56.5 -109.5t-143.5 -43.5t-186 39l27 57q74 -31 131 -31t89 24t32 60t-27.5 58t-66.5 22t-86 -16l-29 29l115 147h63l-82 -106q49 6 70 6z" glyph-name="cedilla" unicode="¸"/><glyph d="M467 1350v-803h-92v588h-215v67q133 4 174 29.5t61 118.5h72z" glyph-name="uni00B9" horiz-adv-x="729" unicode="¹"/><glyph d="M678 608h-608v68h608v-68zM376 1380q122 0 194.5 -78.5t72.5 -209.5t-72.5 -209t-194.5 -78t-196 78t-74 209t74 209.5t196 78.5zM376 1313q-85 0 -136.5 -59.5t-51.5 -162t50.5 -161t136.5 -58.5t136 59.5t50 160t-50 161t-135 60.5z" glyph-name="ordmasculine" horiz-adv-x="747" unicode="º"/><glyph d="M436 805l258 -244v-115l-258 -241v127l182 172l-182 170v131zM129 803l256 -238v-116l-256 -242v125l180 174l-180 172v125z" glyph-name="guillemotright" horiz-adv-x="794" unicode="»"/><glyph d="M469 1350v-803h-92v588h-217v67q135 4 176 28.5t61 119.5h72zM1329 1341l-809 -1341h-92l813 1341h88zM1683 266v-71h-124v-195h-84v195h-383v75l393 533h74v-537h124zM1475 266v414l-301 -414h301z" glyph-name="onequarter" horiz-adv-x="1757" unicode="¼"/><glyph d="M469 1350v-803h-92v588h-217v67q135 4 176 28.5t61 119.5h72zM1329 1341l-809 -1341h-92l813 1341h88zM1669 78v-78h-563q8 111 61.5 179.5t204.5 158.5q119 76 161 126t42 119t-48 111.5t-128 42.5q-178 0 -185 -219h-88v19q0 127 74 201.5t199 74.5t195.5 -62.5 t70.5 -161.5t-56.5 -166t-182.5 -145t-165.5 -115.5t-54.5 -84.5h463z" glyph-name="onehalf" horiz-adv-x="1757" unicode="½"/><glyph d="M147 813v-20q2 -86 58.5 -138.5t145.5 -52.5t146.5 48t57.5 122q0 160 -213 160h-47v74q18 -2 41 -2q188 0 188 139q0 63 -46 102t-124 39q-182 0 -188 -201h-86q10 274 278 275q115 0 185.5 -58.5t70.5 -154.5q0 -121 -118 -170q150 -41 149 -195q0 -113 -81 -182.5 t-218 -69.5t-212 73t-73 212h86zM1329 1341l-811 -1341h-90l811 1341h90zM1683 266v-71h-124v-195h-84v195h-383v75l393 533h74v-537h124zM1475 266v414l-301 -414h301z" glyph-name="threequarters" horiz-adv-x="1757" unicode="¾"/><glyph d="M485 -410q-176 0 -286.5 99t-110.5 243t76 244q31 42 130 134t120.5 148t23.5 187h115q-2 -166 -34 -232.5t-185 -213.5q-121 -121 -121 -241t77 -190.5t199 -70.5q176 0 256 139q42 70 50 207h114q-6 -174 -62 -265t-150.5 -139.5t-211.5 -48.5zM426 795v190h143v-190 h-143z" glyph-name="questiondown" horiz-adv-x="1011" unicode="¿"/><glyph d="M715 1370l545 -1370h-146l-164 430h-624l-168 -430h-140l551 1370h146zM911 535l-196 505q-53 139 -74 207q-43 -115 -76 -200l-200 -512h546zM367 1737h157l211 -258h-100z" glyph-name="Agrave" horiz-adv-x="1275" unicode="À"/><glyph d="M715 1370l545 -1370h-146l-164 430h-624l-168 -430h-140l551 1370h146zM911 535l-196 505q-53 139 -74 207q-43 -115 -76 -200l-200 -512h546zM958 1737l-270 -258h-100l213 258h157z" glyph-name="Aacute" horiz-adv-x="1275" unicode="Á"/><glyph d="M715 1370l545 -1370h-146l-164 430h-624l-168 -430h-140l551 1370h146zM911 535l-196 505q-53 139 -74 207q-43 -115 -76 -200l-200 -512h546zM938 1479h-121l-182 186l-186 -186h-109l235 258h125z" glyph-name="Acircumflex" horiz-adv-x="1275" unicode="Â"/><glyph d="M715 1370l545 -1370h-146l-164 430h-624l-168 -430h-140l551 1370h146zM911 535l-196 505q-53 139 -74 207q-43 -115 -76 -200l-200 -512h546zM788 1518q-37 0 -69.5 11t-130.5 58q-37 16 -70 17q-70 0 -96 -95h-72q33 184 176 185q53 0 140 -43t122 -43q68 0 93 94h73 q-35 -184 -166 -184z" glyph-name="Atilde" horiz-adv-x="1275" unicode="Ã"/><glyph d="M715 1370l545 -1370h-146l-164 430h-624l-168 -430h-140l551 1370h146zM911 535l-196 505q-53 139 -74 207q-43 -115 -76 -200l-200 -512h546zM911 1700v-191h-129v191h129zM496 1700v-191h-129v191h129z" glyph-name="Adieresis" horiz-adv-x="1275" unicode="Ä"/><glyph d="M715 1370l545 -1370h-146l-164 430h-624l-168 -430h-140l551 1370h146zM911 535l-196 505q-53 139 -74 207q-43 -115 -76 -200l-200 -512h546zM641 1837q82 0 139.5 -58.5t57.5 -140.5t-58.5 -140t-141.5 -58t-140.5 58t-57.5 141t59.5 140.5t141.5 57.5zM639 1757 q-49 0 -84 -33.5t-35 -83.5t35 -85t84 -35t84 34.5t35 84t-35 84t-84 34.5z" glyph-name="Aring" horiz-adv-x="1275" unicode="Å"/><glyph d="M1702 1366v-113h-705v-489h658v-113h-658v-538h713v-113h-842v446h-489l-227 -446h-150l713 1366h987zM868 555v698h-80l-356 -698h436z" glyph-name="AE" horiz-adv-x="1789" unicode="Æ"/><glyph d="M879 -240q0 -62 -58.5 -108.5t-144.5 -46.5t-187 39l27 57q74 -31 132 -31t90 24.5t32 60.5t-27.5 57.5t-66.5 21.5t-86 -18l-31 28l96 129q-256 18 -408.5 210t-152.5 497t171 511t466 206q221 0 372.5 -120t184.5 -321h-129q-33 150 -149.5 239t-280.5 89 q-227 0 -366.5 -166t-139.5 -437t136.5 -436t361.5 -165q190 0 316.5 121.5t140.5 320.5h129q-20 -252 -180 -402.5t-404 -150.5l-64 -84q47 9 90 9t86.5 -36t43.5 -98z" glyph-name="Ccedilla" horiz-adv-x="1380" unicode="Ç"/><glyph d="M1114 1366v-113h-819v-489h766v-113h-766v-538h827v-113h-956v1366h948zM399 1737h158l213 -258h-100z" glyph-name="Egrave" horiz-adv-x="1198" unicode="È"/><glyph d="M1114 1366v-113h-819v-489h766v-113h-766v-538h827v-113h-956v1366h948zM924 1737l-269 -258h-100l211 258h158z" glyph-name="Eacute" horiz-adv-x="1198" unicode="É"/><glyph d="M1114 1366v-113h-819v-489h766v-113h-766v-538h827v-113h-956v1366h948zM942 1479h-121l-182 186l-184 -186h-111l236 258h125z" glyph-name="Ecircumflex" horiz-adv-x="1198" unicode="Ê"/><glyph d="M1114 1366v-113h-819v-489h766v-113h-766v-538h827v-113h-956v1366h948zM911 1700v-191h-129v191h129zM498 1700v-191h-129v191h129z" glyph-name="Edieresis" horiz-adv-x="1198" unicode="Ë"/><glyph d="M295 1366v-1366h-129v1366h129zM-10 1737h149l178 -258h-92z" glyph-name="Igrave" horiz-adv-x="456" unicode="Ì"/><glyph d="M293 1366v-1366h-129v1366h129zM516 1737l-235 -258h-93l179 258h149z" glyph-name="Iacute" horiz-adv-x="456" unicode="Í"/><glyph d="M293 1366v-1366h-129v1366h129zM481 1479h-114l-142 186l-145 -186h-109l195 258h125z" glyph-name="Icircumflex" horiz-adv-x="456" unicode="Î"/><glyph d="M293 1366v-1366h-129v1366h129zM418 1700v-191h-129v191h129zM168 1700v-191h-129v191h129z" glyph-name="Idieresis" horiz-adv-x="456" unicode="Ï"/><glyph d="M166 1366h475q276 0 432 -137q197 -180 197 -530t-193 -547q-82 -82 -178 -117t-248 -35h-485v664h-143v108h143v594zM295 1253v-481h410v-108h-410v-551h326q141 0 222 25.5t146 90.5q152 158 152 456t-146 443q-123 125 -354 125h-346z" glyph-name="Eth" horiz-adv-x="1363" unicode="Ð"/><glyph d="M1241 1366v-1366h-145l-633 915q-141 217 -180 295q6 -80 6 -133l2 -194v-883h-125v1366h145l635 -926q111 -160 178 -286q-8 188 -8 360v852h125zM858 1518q-55 0 -201 69q-37 16 -69 17q-72 0 -94 -95h-74q35 184 176 185q53 0 140 -43t122 -43q67 0 92 94h74 q-35 -184 -166 -184z" glyph-name="Ntilde" horiz-adv-x="1404" unicode="Ñ"/><glyph d="M737 1397q287 0 465 -201t178 -517t-178 -513t-466 -197t-465 196.5t-177 518.5t178 517.5t465 195.5zM738 1284q-230 0 -372.5 -163t-142.5 -435t141.5 -438t373 -166t372.5 165t141 432t-141.5 436t-371.5 169zM483 1737h158l213 -258h-100z" glyph-name="Ograve" horiz-adv-x="1474" unicode="Ò"/><glyph d="M737 1397q287 0 465 -201t178 -517t-178 -513t-466 -197t-465 196.5t-177 518.5t178 517.5t465 195.5zM738 1284q-230 0 -372.5 -163t-142.5 -435t141.5 -438t373 -166t372.5 165t141 432t-141.5 436t-371.5 169zM1018 1737l-270 -258h-101l213 258h158z" glyph-name="Oacute" horiz-adv-x="1474" unicode="Ó"/><glyph d="M737 1397q287 0 465 -201t178 -517t-178 -513t-466 -197t-465 196.5t-177 518.5t178 517.5t465 195.5zM738 1284q-230 0 -372.5 -163t-142.5 -435t141.5 -438t373 -166t372.5 165t141 432t-141.5 436t-371.5 169zM1036 1479h-121l-182 186l-186 -186h-109l236 258h125z " glyph-name="Ocircumflex" horiz-adv-x="1474" unicode="Ô"/><glyph d="M737 1397q287 0 465 -201t178 -517t-178 -513t-466 -197t-465 196.5t-177 518.5t178 517.5t465 195.5zM738 1284q-230 0 -372.5 -163t-142.5 -435t141.5 -438t373 -166t372.5 165t141 432t-141.5 436t-371.5 169zM893 1518q-55 0 -201 69q-37 16 -69 17q-70 0 -95 -95 h-73q35 184 176 185q53 0 140 -43t122 -43q67 0 92 94h74q-35 -184 -166 -184z" glyph-name="Otilde" horiz-adv-x="1474" unicode="Õ"/><glyph d="M737 1397q287 0 465 -201t178 -517t-178 -513t-466 -197t-465 196.5t-177 518.5t178 517.5t465 195.5zM738 1284q-230 0 -372.5 -163t-142.5 -435t141.5 -438t373 -166t372.5 165t141 432t-141.5 436t-371.5 169zM1010 1700v-191h-129v191h129zM594 1700v-191h-129v191 h129z" glyph-name="Odieresis" horiz-adv-x="1474" unicode="Ö"/><glyph d="M170 336l326 326l-326 327l63 62l326 -326l326 326l63 -62l-325 -327l325 -326l-63 -64l-326 328l-326 -328z" glyph-name="multiply" horiz-adv-x="1120" unicode="×"/><glyph d="M1380 662q0 -300 -178 -496.5t-467 -196.5q-254 0 -428 162l-143 -154l-70 62l148 164q-148 199 -148 499t177.5 497.5t451.5 197.5t446 -166l140 158l69 -64l-145 -166q147 -197 147 -497zM737 82q231 0 373 165t142 415t-111 413l-748 -860q158 -133 344 -133z M737 1284q-231 0 -372.5 -165t-141.5 -417t109 -409l751 854q-156 137 -346 137z" glyph-name="Oslash" horiz-adv-x="1474" unicode="Ø"/><glyph d="M1208 1366v-819q0 -145 -18.5 -225t-67.5 -156q-135 -197 -438 -197q-336 0 -467 221q-72 119 -72 361v815h129v-819q0 -215 64 -316q98 -153 342 -153t336 147q63 100 63 324v817h129zM422 1737h158l213 -258h-101z" glyph-name="Ugrave" horiz-adv-x="1351" unicode="Ù"/><glyph d="M1208 1366v-819q0 -145 -18.5 -225t-67.5 -156q-135 -197 -438 -197q-336 0 -467 221q-72 119 -72 361v815h129v-819q0 -215 64 -316q98 -153 342 -153t336 147q63 100 63 324v817h129zM973 1737l-268 -258h-101l213 258h156z" glyph-name="Uacute" horiz-adv-x="1351" unicode="Ú"/><glyph d="M1208 1366v-819q0 -145 -18.5 -225t-67.5 -156q-135 -197 -438 -197q-336 0 -467 221q-72 119 -72 361v815h129v-819q0 -215 64 -316q98 -153 342 -153t336 147q63 100 63 324v817h129zM977 1479h-123l-180 186l-187 -186h-108l235 258h125z" glyph-name="Ucircumflex" horiz-adv-x="1351" unicode="Û"/><glyph d="M1208 1366v-819q0 -145 -18.5 -225t-67.5 -156q-135 -197 -438 -197q-336 0 -467 221q-72 119 -72 361v815h129v-819q0 -215 64 -316q98 -153 342 -153t336 147q63 100 63 324v817h129zM948 1700v-191h-129v191h129zM532 1700v-191h-129v191h129z" glyph-name="Udieresis" horiz-adv-x="1351" unicode="Ü"/><glyph d="M659 0h-129v565l-542 801h157l381 -571q33 -49 72 -121q61 104 72 117l381 575h149l-541 -801v-565zM877 1737l-271 -258h-100l213 258h158z" glyph-name="Yacute" horiz-adv-x="1185" unicode="Ý"/><glyph d="M166 1366h129v-205h416q207 0 311 -67q156 -106 156 -322t-152 -319q-104 -76 -301 -76h-430v-377h-129v1366zM295 1049v-560h395q160 0 238 48q121 77 121 235t-119 229q-74 47 -248 48h-387z" glyph-name="Thorn" horiz-adv-x="1247" unicode="Þ"/><glyph d="M526 84q158 0 244 84t86 241t-90 229.5t-285 72.5q-14 0 -24 -2v98q133 0 205 33q127 59 126 213q0 106 -72.5 172.5t-202.5 66.5t-191 -86q-49 -68 -50 -231v-975h-120v936q0 135 10 195.5t43 109.5q96 152 325 152q172 0 275.5 -92.5t103.5 -243.5q0 -113 -57 -187.5 t-160 -101.5q135 -18 210 -111.5t75 -244.5q0 -195 -117 -310.5t-311 -115.5q-6 0 -92 4v98q66 -4 69 -4z" glyph-name="germandbls" horiz-adv-x="1060" unicode="ß"/><glyph d="M880 -8q-62 0 -90 41t-28 139q-127 -201 -373 -201q-150 0 -235.5 75t-85.5 204q0 195 186 266q53 23 101.5 30t190.5 21t176 41t34 90q0 111 -62.5 163t-192.5 52t-194.5 -55t-77.5 -176h-116q8 160 111.5 246t261.5 86t253 -49.5t119 -130.5q14 -47 14 -162v-441 q0 -92 11 -115.5t43 -23.5t59 8v-94q-43 -14 -105 -14zM756 377v162q-29 -27 -75 -38.5t-201 -31.5t-223.5 -68.5t-68.5 -137.5t63.5 -141t166.5 -52q147 0 242.5 87t95.5 220zM295 1405h145l193 -272h-96z" glyph-name="agrave" horiz-adv-x="1021" unicode="à"/><glyph d="M880 -8q-62 0 -90 41t-28 139q-127 -201 -373 -201q-150 0 -235.5 75t-85.5 204q0 195 186 266q53 23 101.5 30t190.5 21t176 41t34 90q0 111 -62.5 163t-192.5 52t-194.5 -55t-77.5 -176h-116q8 160 111.5 246t261.5 86t253 -49.5t119 -130.5q14 -47 14 -162v-441 q0 -92 11 -115.5t43 -23.5t59 8v-94q-43 -14 -105 -14zM756 377v162q-29 -27 -75 -38.5t-201 -31.5t-223.5 -68.5t-68.5 -137.5t63.5 -141t166.5 -52q147 0 242.5 87t95.5 220zM791 1405l-242 -272h-96l192 272h146z" glyph-name="aacute" horiz-adv-x="1021" unicode="á"/><glyph d="M880 -8q-62 0 -90 41t-28 139q-127 -201 -373 -201q-150 0 -235.5 75t-85.5 204q0 195 186 266q53 23 101.5 30t190.5 21t176 41t34 90q0 111 -62.5 163t-192.5 52t-194.5 -55t-77.5 -176h-116q8 160 111.5 246t261.5 86t253 -49.5t119 -130.5q14 -47 14 -162v-441 q0 -92 11 -115.5t43 -23.5t59 8v-94q-43 -14 -105 -14zM756 377v162q-29 -27 -75 -38.5t-201 -31.5t-223.5 -68.5t-68.5 -137.5t63.5 -141t166.5 -52q147 0 242.5 87t95.5 220zM776 1133h-119l-149 202l-154 -202h-106l203 272h120z" glyph-name="acircumflex" horiz-adv-x="1021" unicode="â"/><glyph d="M880 -8q-62 0 -90 41t-28 139q-127 -201 -373 -201q-150 0 -235.5 75t-85.5 204q0 195 186 266q53 23 101.5 30t190.5 21t176 41t34 90q0 111 -62.5 163t-192.5 52t-194.5 -55t-77.5 -176h-116q8 160 111.5 246t261.5 86t253 -49.5t119 -130.5q14 -47 14 -162v-441 q0 -92 11 -115.5t43 -23.5t59 8v-94q-43 -14 -105 -14zM756 377v162q-29 -27 -75 -38.5t-201 -31.5t-223.5 -68.5t-68.5 -137.5t63.5 -141t166.5 -52q147 0 242.5 87t95.5 220zM633 1182q-33 0 -63 12t-88 44t-91 32q-59 0 -80 -96h-71q29 188 157 188q49 0 128 -44t110 -44 q58 0 76 94h73q-35 -186 -151 -186z" glyph-name="atilde" horiz-adv-x="1021" unicode="ã"/><glyph d="M880 -8q-62 0 -90 41t-28 139q-127 -201 -373 -201q-150 0 -235.5 75t-85.5 204q0 195 186 266q53 23 101.5 30t190.5 21t176 41t34 90q0 111 -62.5 163t-192.5 52t-194.5 -55t-77.5 -176h-116q8 160 111.5 246t261.5 86t253 -49.5t119 -130.5q14 -47 14 -162v-441 q0 -92 11 -115.5t43 -23.5t59 8v-94q-43 -14 -105 -14zM756 377v162q-29 -27 -75 -38.5t-201 -31.5t-223.5 -68.5t-68.5 -137.5t63.5 -141t166.5 -52q147 0 242.5 87t95.5 220zM748 1368v-194h-123v194h123zM399 1368v-194h-123v194h123z" glyph-name="adieresis" horiz-adv-x="1021" unicode="ä"/><glyph d="M880 -8q-62 0 -90 41t-28 139q-127 -201 -373 -201q-150 0 -235.5 75t-85.5 204q0 195 186 266q53 23 101.5 30t190.5 21t176 41t34 90q0 111 -62.5 163t-192.5 52t-194.5 -55t-77.5 -176h-116q8 160 111.5 246t261.5 86t253 -49.5t119 -130.5q14 -47 14 -162v-441 q0 -92 11 -115.5t43 -23.5t59 8v-94q-43 -14 -105 -14zM756 377v162q-29 -27 -75 -38.5t-201 -31.5t-223.5 -68.5t-68.5 -137.5t63.5 -141t166.5 -52q147 0 242.5 87t95.5 220zM526 1475q80 0 135.5 -56.5t55.5 -134.5t-56.5 -134t-135.5 -56t-135 56t-56 135t56 134.5 t136 55.5zM525 1395q-46 0 -78.5 -33t-32.5 -79t32.5 -77.5t79.5 -31.5t79 31.5t32 77.5t-33 79t-79 33z" glyph-name="aring" horiz-adv-x="1021" unicode="å"/><glyph d="M1176 -29q-276 0 -367 248q-45 -115 -161 -183.5t-261 -68.5t-233 81t-88 216t100 213q78 63 287 83t255 41.5t46 114.5t-61.5 145t-193.5 52t-200 -57t-78 -178h-115q31 336 398 336q176 0 262 -76q45 -37 72 -127q94 203 345 203t367 -213q61 -115 62 -338h-748 q0 -121 29 -195q80 -197 295 -196q238 0 297 250h117q-35 -166 -147 -258.5t-279 -92.5zM1178 913q-84 0 -155 -39.5t-111 -110.5t-50 -200h629q-4 162 -88 256t-225 94zM752 418v117q-44 -39 -210 -55t-223 -38q-131 -45 -131 -176q0 -94 61.5 -149.5t170.5 -55.5 q158 0 260 115q72 82 72 242z" glyph-name="ae" horiz-adv-x="1687" unicode="æ"/><glyph d="M535 -100q70 0 110.5 -35t40.5 -101t-57.5 -109.5t-144.5 -43.5t-185 39l27 57q74 -31 132 -31t90 24t32 60t-28 58t-69 22t-84 -16l-28 29l94 122q-174 23 -277.5 161t-103.5 364t125 370t334 144q172 0 278.5 -89t126.5 -251h-123q-47 240 -280 239q-156 0 -248 -114.5 t-92 -307t88.5 -306t226.5 -113.5t216.5 73.5t97.5 206.5h120q-23 -176 -141.5 -282.5t-286.5 -98.5l-59 -77q49 6 68 6z" glyph-name="ccedilla" horiz-adv-x="1017" unicode="ç"/><glyph d="M537 -29q-207 0 -330 139.5t-123 373.5t126 382t325 148q127 0 279.5 -99.5t154.5 -451.5h-764q4 -188 91 -289.5t243 -101.5q240 0 303 254h114q-35 -170 -143 -262.5t-276 -92.5zM530.5 913q-137.5 0 -220.5 -90t-103 -260h639q-8 162 -93 256t-222.5 94zM319 1405h148 l192 -272h-98z" glyph-name="egrave" horiz-adv-x="1044" unicode="è"/><glyph d="M537 -29q-207 0 -330 139.5t-123 373.5t126 382t325 148q127 0 279.5 -99.5t154.5 -451.5h-764q4 -188 91 -289.5t243 -101.5q240 0 303 254h114q-35 -170 -143 -262.5t-276 -92.5zM530.5 913q-137.5 0 -220.5 -90t-103 -260h639q-8 162 -93 256t-222.5 94zM834 1405 l-242 -272h-96l190 272h148z" glyph-name="eacute" horiz-adv-x="1044" unicode="é"/><glyph d="M537 -29q-207 0 -330 139.5t-123 373.5t126 382t325 148q127 0 279.5 -99.5t154.5 -451.5h-764q4 -188 91 -289.5t243 -101.5q240 0 303 254h114q-35 -170 -143 -262.5t-276 -92.5zM530.5 913q-137.5 0 -220.5 -90t-103 -260h639q-8 162 -93 256t-222.5 94zM807 1133 h-119l-149 202l-154 -202h-106l202 272h121z" glyph-name="ecircumflex" horiz-adv-x="1044" unicode="ê"/><glyph d="M537 -29q-207 0 -330 139.5t-123 373.5t126 382t325 148q127 0 279.5 -99.5t154.5 -451.5h-764q4 -188 91 -289.5t243 -101.5q240 0 303 254h114q-35 -170 -143 -262.5t-276 -92.5zM530.5 913q-137.5 0 -220.5 -90t-103 -260h639q-8 162 -93 256t-222.5 94zM770 1368 v-194h-123v194h123zM424 1368v-194h-123v194h123z" glyph-name="edieresis" horiz-adv-x="1044" unicode="ë"/><glyph d="M270 985v-985h-120v985h120zM-6 1405h139l158 -272h-96z" glyph-name="igrave" horiz-adv-x="419" unicode="ì"/><glyph d="M270 985v-985h-120v985h120zM475 1405l-201 -272h-96l158 272h139z" glyph-name="iacute" horiz-adv-x="419" unicode="í"/><glyph d="M272 985v-985h-120v985h120zM430 1133h-113l-108 196l-113 -196h-106l162 272h120z" glyph-name="icircumflex" horiz-adv-x="419" unicode="î"/><glyph d="M270 985v-985h-120v985h120zM389 1368v-194h-123v194h123zM154 1368v-194h-123v194h123z" glyph-name="idieresis" horiz-adv-x="419" unicode="ï"/><glyph d="M1018 489q0 -236 -126 -377t-339 -141t-341 143.5t-128 377.5t128 378t335 144q59 0 95 -11.5t93 -48.5q-49 90 -127 207l-151 -74l-41 72l145 78l-92 127l74 47l108 -129l150 74l47 -72l-143 -74q170 -242 241.5 -405.5t71.5 -315.5zM553 913q-158 0 -252 -113.5 t-94 -307.5t94 -307t252 -113t251 113t93 305t-93 307.5t-251 115.5z" glyph-name="eth" horiz-adv-x="1101" unicode="ð"/><glyph d="M264 985v-184q45 76 82 110q102 102 268 103q205 0 291 -135q51 -78 51 -246v-633h-120v596q0 166 -43 223q-63 90 -205 90q-90 0 -162 -40.5t-113 -118.5t-41 -254v-496h-120v985h112zM696 1182q-51 0 -180 71q-33 16 -61 17q-59 0 -82 -96h-70q29 188 158 188 q47 0 127 -44t108 -44q58 0 78 94h72q-31 -186 -150 -186z" glyph-name="ntilde" horiz-adv-x="1097" unicode="ñ"/><glyph d="M555 1014q213 0 338 -143.5t125 -381t-126 -378t-339 -140.5t-341 141.5t-128 380.5t129 380t342 141zM553 913q-158 0 -252 -113.5t-94 -307.5t94 -307t252 -113t251 113t93 305t-93 307.5t-251 115.5zM332 1405h147l193 -272h-99z" glyph-name="ograve" horiz-adv-x="1101" unicode="ò"/><glyph d="M555 1014q213 0 338 -143.5t125 -381t-126 -378t-339 -140.5t-341 141.5t-128 380.5t129 380t342 141zM553 913q-158 0 -252 -113.5t-94 -307.5t94 -307t252 -113t251 113t93 305t-93 307.5t-251 115.5zM834 1405l-242 -272h-96l190 272h148z" glyph-name="oacute" horiz-adv-x="1101" unicode="ó"/><glyph d="M555 1014q213 0 338 -143.5t125 -381t-126 -378t-339 -140.5t-341 141.5t-128 380.5t129 380t342 141zM553 913q-158 0 -252 -113.5t-94 -307.5t94 -307t252 -113t251 113t93 305t-93 307.5t-251 115.5zM827 1133h-118l-150 202l-153 -202h-107l203 272h121z" glyph-name="ocircumflex" horiz-adv-x="1101" unicode="ô"/><glyph d="M555 1014q213 0 338 -143.5t125 -381t-126 -378t-339 -140.5t-341 141.5t-128 380.5t129 380t342 141zM553 913q-158 0 -252 -113.5t-94 -307.5t94 -307t252 -113t251 113t93 305t-93 307.5t-251 115.5zM686 1182q-51 0 -180 71q-33 16 -62 17q-61 0 -82 -96h-69 q29 188 158 188q47 0 127 -44t108 -44q58 0 78 94h72q-31 -186 -150 -186z" glyph-name="otilde" horiz-adv-x="1101" unicode="õ"/><glyph d="M555 1014q213 0 338 -143.5t125 -381t-126 -378t-339 -140.5t-341 141.5t-128 380.5t129 380t342 141zM553 913q-158 0 -252 -113.5t-94 -307.5t94 -307t252 -113t251 113t93 305t-93 307.5t-251 115.5zM786 1368v-194h-122v194h122zM438 1368v-194h-123v194h123z" glyph-name="odieresis" horiz-adv-x="1101" unicode="ö"/><glyph d="M100 707h916v-89h-916v89zM559 1051q37 0 63.5 -27t26.5 -63.5t-26.5 -63.5t-64.5 -27t-63.5 27t-25.5 65t26.5 63.5t63.5 25.5zM559 455q37 0 63.5 -27t26.5 -63.5t-26.5 -63.5t-63.5 -27t-63.5 27t-26.5 65t26.5 63.5t63.5 25.5z" glyph-name="divide" horiz-adv-x="1120" unicode="÷"/><glyph d="M1018 492q0 -240 -126 -380.5t-326 -140.5t-330 115l-109 -117l-64 58l117 125q-96 146 -96 362t128 358t330 142t326 -119l105 113l63 -58l-110 -121q92 -145 92 -337zM566 72q145 0 238 113.5t93 306.5q0 142 -59 253l-523 -579q106 -94 251 -94zM542 913 q-147 0 -242 -114.5t-95 -286.5t59 -276l527 581q-102 96 -249 96z" glyph-name="oslash" horiz-adv-x="1101" unicode="ø"/><glyph d="M944 985v-985h-113v184q-119 -213 -346 -213q-178 0 -274 119q-68 86 -68 260v635h121v-584q0 -135 24 -195t85 -95t139 -35q166 0 254 137q57 94 57 266v506h121zM315 1405h148l190 -272h-96z" glyph-name="ugrave" horiz-adv-x="1095" unicode="ù"/><glyph d="M944 985v-985h-113v184q-119 -213 -346 -213q-178 0 -274 119q-68 86 -68 260v635h121v-584q0 -135 24 -195t85 -95t139 -35q166 0 254 137q57 94 57 266v506h121zM807 1405l-242 -272h-96l193 272h145z" glyph-name="uacute" horiz-adv-x="1095" unicode="ú"/><glyph d="M944 985v-985h-113v184q-119 -213 -346 -213q-178 0 -274 119q-68 86 -68 260v635h121v-584q0 -135 24 -195t85 -95t139 -35q166 0 254 137q57 94 57 266v506h121zM817 1133h-121l-147 202l-154 -202h-106l203 272h120z" glyph-name="ucircumflex" horiz-adv-x="1095" unicode="û"/><glyph d="M944 985v-985h-113v184q-119 -213 -346 -213q-178 0 -274 119q-68 86 -68 260v635h121v-584q0 -135 24 -195t85 -95t139 -35q166 0 254 137q57 94 57 266v506h121zM788 1368v-194h-122v194h122zM442 1368v-194h-123v194h123z" glyph-name="udieresis" horiz-adv-x="1095" unicode="ü"/><glyph d="M213 -375q-41 0 -80 6l-27 2v107q50 -12 96 -12q98 0 150 143q27 66 35 88q22 43 16 47l-397 979h133l267 -678q25 -63 59 -174q43 135 61 186l242 666h123l-387 -1024q-70 -184 -109 -244q-61 -92 -182 -92zM719 1405l-242 -272h-98l192 272h148z" glyph-name="yacute" horiz-adv-x="894" unicode="ý"/><glyph d="M272 1366v-565q45 102 136.5 157.5t216.5 55.5q201 0 320.5 -140t119.5 -378t-120 -381.5t-320 -143.5q-125 0 -216.5 58.5t-136.5 167.5v-564h-120v1733h120zM607 913q-155 0 -246 -112.5t-91 -306.5t92 -308t246 -114t245 114t91 306t-91 306.5t-246 114.5z" glyph-name="thorn" horiz-adv-x="1146" unicode="þ"/><glyph d="M213 -375q-41 0 -80 6l-27 2v107q50 -12 96 -12q98 0 150 143q27 66 35 88q22 43 16 47l-397 979h133l267 -678q25 -63 59 -174q43 135 61 186l242 666h123l-387 -1024q-70 -184 -109 -244q-61 -92 -182 -92zM684 1368v-194h-123v194h123zM336 1368v-194h-123v194h123z " glyph-name="ydieresis" horiz-adv-x="894" unicode="ÿ"/><glyph d="M715 1370l545 -1370h-146l-164 430h-624l-168 -430h-140l551 1370h146zM911 535l-196 505q-53 139 -74 207q-43 -115 -76 -200l-200 -512h546zM948 1642v-86h-618v86h618z" glyph-name="Amacron" horiz-adv-x="1275" unicode="Ā"/><glyph d="M880 -8q-62 0 -90 41t-28 139q-127 -201 -373 -201q-150 0 -235.5 75t-85.5 204q0 195 186 266q53 23 101.5 30t190.5 21t176 41t34 90q0 111 -62.5 163t-192.5 52t-194.5 -55t-77.5 -176h-116q8 160 111.5 246t261.5 86t253 -49.5t119 -130.5q14 -47 14 -162v-441 q0 -92 11 -115.5t43 -23.5t59 8v-94q-43 -14 -105 -14zM756 377v162q-29 -27 -75 -38.5t-201 -31.5t-223.5 -68.5t-68.5 -137.5t63.5 -141t166.5 -52q147 0 242.5 87t95.5 220zM780 1315v-86h-536v86h536z" glyph-name="amacron" horiz-adv-x="1021" unicode="ā"/><glyph d="M715 1370l545 -1370h-146l-164 430h-624l-168 -430h-140l551 1370h146zM911 535l-196 505q-53 139 -74 207q-43 -115 -76 -200l-200 -512h546zM636 1485q-118 0 -191.5 67.5t-82.5 184.5h76q35 -164 200 -164t204 164h73q-18 -123 -89.5 -187.5t-189.5 -64.5z" glyph-name="Abreve" horiz-adv-x="1275" unicode="Ă"/><glyph d="M880 -8q-62 0 -90 41t-28 139q-127 -201 -373 -201q-150 0 -235.5 75t-85.5 204q0 195 186 266q53 23 101.5 30t190.5 21t176 41t34 90q0 111 -62.5 163t-192.5 52t-194.5 -55t-77.5 -176h-116q8 160 111.5 246t261.5 86t253 -49.5t119 -130.5q14 -47 14 -162v-441 q0 -92 11 -115.5t43 -23.5t59 8v-94q-43 -14 -105 -14zM756 377v162q-29 -27 -75 -38.5t-201 -31.5t-223.5 -68.5t-68.5 -137.5t63.5 -141t166.5 -52q147 0 242.5 87t95.5 220zM516 1147q-106 0 -171.5 68.5t-74.5 185.5h74q31 -166 172 -166t178 166h72q-35 -254 -250 -254 z" glyph-name="abreve" horiz-adv-x="1021" unicode="ă"/><glyph d="M1122 -181q0 -46 34 -70.5t79 -24.5t96 16v-72q-59 -20 -129 -20t-126 43t-56 110q0 106 156 199h-62l-164 430h-624l-168 -430h-140l551 1370h146l545 -1370q-59 -31 -98.5 -83t-39.5 -98zM911 535l-196 505q-53 139 -74 207q-43 -115 -76 -200l-200 -512h546z" glyph-name="Aogonek" horiz-adv-x="1275" unicode="Ą"/><glyph d="M906 -352q-70 0 -125.5 43t-55.5 108q0 113 152 193q-66 6 -91.5 48t-23.5 132q-127 -201 -373 -201q-150 0 -235.5 75t-85.5 204q0 195 186 266q53 23 101.5 30t190.5 21t176 41t34 90q0 111 -62.5 163t-192.5 52t-194.5 -55t-77.5 -176h-116q8 160 111.5 246t261.5 86 t253 -49.5t119 -130.5q14 -47 14 -162v-441q0 -92 11 -115.5t43 -23.5t59 8v-94q-158 -72 -158 -190q0 -41 34 -66.5t78 -25.5t99 16v-72q-62 -20 -132 -20zM756 377v162q-29 -27 -75 -38.5t-201 -31.5t-223.5 -68.5t-68.5 -137.5t63.5 -141t166.5 -52q147 0 242.5 87 t95.5 220z" glyph-name="aogonek" horiz-adv-x="1021" unicode="ą"/><glyph d="M719 -31q-283 0 -454 194.5t-171 516t176 519.5t454 198t439 -174q111 -121 127 -267h-129q-33 152 -149.5 240t-284.5 88q-227 0 -365.5 -166t-138.5 -437t136.5 -435t363.5 -164q193 0 311.5 114.5t143.5 325.5h129q-23 -252 -181.5 -402.5t-406.5 -150.5zM1030 1737 l-268 -258h-100l212 258h156z" glyph-name="Cacute" horiz-adv-x="1380" unicode="Ć"/><glyph d="M539 -29q-207 0 -331 140.5t-124 376.5t125 381t334 145q172 0 278.5 -89t126.5 -251h-123q-47 240 -280 239q-156 0 -248 -114.5t-92 -307t88.5 -306t226.5 -113.5t217 73.5t97 206.5h120q-25 -180 -135 -280.5t-280 -100.5zM819 1405l-241 -272h-97l193 272h145z" glyph-name="cacute" horiz-adv-x="1017" unicode="ć"/><glyph d="M719 -31q-283 0 -454 194.5t-171 516t176 519.5t454 198t439 -174q111 -121 127 -267h-129q-33 152 -149.5 240t-284.5 88q-227 0 -365.5 -166t-138.5 -437t136.5 -435t363.5 -164q193 0 311.5 114.5t143.5 325.5h129q-23 -252 -181.5 -402.5t-406.5 -150.5zM1040 1479 h-120l-183 186l-186 -186h-109l236 258h125z" glyph-name="Ccircumflex" horiz-adv-x="1380" unicode="Ĉ"/><glyph d="M719 -31q-283 0 -454 194.5t-171 516t176 519.5t454 198t439 -174q111 -121 127 -267h-129q-33 152 -149.5 240t-284.5 88q-227 0 -365.5 -166t-138.5 -437t136.5 -435t363.5 -164q193 0 311.5 114.5t143.5 325.5h129q-23 -252 -181.5 -402.5t-406.5 -150.5zM801 1700 v-191h-129v191h129z" glyph-name="Cdotaccent" horiz-adv-x="1380" unicode="Ċ"/><glyph d="M539 -29q-207 0 -331 140.5t-124 376.5t125 381t334 145q172 0 278.5 -89t126.5 -251h-123q-47 240 -280 239q-156 0 -248 -114.5t-92 -307t88.5 -306t226.5 -113.5t217 73.5t97 206.5h120q-25 -180 -135 -280.5t-280 -100.5zM610 1368v-194h-123v194h123z" glyph-name="cdotaccent" horiz-adv-x="1017" unicode="ċ"/><glyph d="M719 -31q-283 0 -454 194.5t-171 516t176 519.5t454 198t439 -174q111 -121 127 -267h-129q-33 152 -149.5 240t-284.5 88q-227 0 -365.5 -166t-138.5 -437t136.5 -435t363.5 -164q193 0 311.5 114.5t143.5 325.5h129q-23 -252 -181.5 -402.5t-406.5 -150.5zM442 1737 h121l182 -187l187 187h108l-235 -258h-125z" glyph-name="Ccaron" horiz-adv-x="1380" unicode="Č"/><glyph d="M539 -29q-207 0 -331 140.5t-124 376.5t125 381t334 145q172 0 278.5 -89t126.5 -251h-123q-47 240 -280 239q-156 0 -248 -114.5t-92 -307t88.5 -306t226.5 -113.5t217 73.5t97 206.5h120q-25 -180 -135 -280.5t-280 -100.5zM291 1405h121l149 -203l152 203h106 l-203 -272h-120z" glyph-name="ccaron" horiz-adv-x="1017" unicode="č"/><glyph d="M166 1366h475q276 0 432 -137q197 -180 197 -530t-193 -547q-82 -82 -178 -117t-248 -35h-485v1366zM295 1253v-1140h326q141 0 223 25.5t145 90.5q152 158 152 456t-146 443q-123 125 -354 125h-346zM328 1737h123l180 -187l186 187h109l-236 -258h-125z" glyph-name="Dcaron" horiz-adv-x="1363" unicode="Ď"/><glyph d="M997 1366v-1366h-112v197q-104 -225 -355 -226q-205 0 -325.5 141.5t-120.5 380.5t121 380t321 141q250 0 351 -211v563h120zM881 496q1 197 -95 307t-248 110t-242.5 -112.5t-90.5 -306.5t91 -308t247 -114t247 113.5t91 310.5zM1266 1366v-125q0 -188 -146 -223v61 q72 35 78 133h-63v154h131z" glyph-name="dcaron" horiz-adv-x="1251" unicode="ď"/><glyph d="M166 1366h475q276 0 432 -137q197 -180 197 -530t-193 -547q-82 -82 -178 -117t-248 -35h-485v664h-143v108h143v594zM295 1253v-481h410v-108h-410v-551h326q141 0 222 25.5t146 90.5q152 158 152 456t-146 443q-123 125 -354 125h-346z" glyph-name="Dcroat" horiz-adv-x="1363" unicode="Đ"/><glyph d="M877 1229v137h120v-137h138v-96h-138v-1133h-112v197q-104 -225 -355 -226q-205 0 -325.5 141.5t-120.5 380.5t120 380t322 141q250 0 351 -211v330h-328v96h328zM881 496q1 197 -95 307t-248 110t-242.5 -112.5t-90.5 -306.5t91 -308t247 -114t247 113.5t91 310.5z" glyph-name="dcroat" horiz-adv-x="1148" unicode="đ"/><glyph d="M1114 1366v-113h-819v-489h766v-113h-766v-538h827v-113h-956v1366h948zM950 1642v-86h-620v86h620z" glyph-name="Emacron" horiz-adv-x="1198" unicode="Ē"/><glyph d="M537 -29q-207 0 -330 139.5t-123 373.5t126 382t325 148q127 0 279.5 -99.5t154.5 -451.5h-764q4 -188 91 -289.5t243 -101.5q240 0 303 254h114q-35 -170 -143 -262.5t-276 -92.5zM530.5 913q-137.5 0 -220.5 -90t-103 -260h639q-8 162 -93 256t-222.5 94zM805 1315v-86 h-539v86h539z" glyph-name="emacron" horiz-adv-x="1044" unicode="ē"/><glyph d="M1114 1366v-113h-819v-489h766v-113h-766v-538h827v-113h-956v1366h948zM637 1485q-119 0 -191.5 67.5t-80.5 184.5h73q35 -164 202 -164t202 164h76q-18 -123 -90 -187.5t-191 -64.5z" glyph-name="Ebreve" horiz-adv-x="1198" unicode="Ĕ"/><glyph d="M537 -29q-207 0 -330 139.5t-123 373.5t126 382t325 148q127 0 279.5 -99.5t154.5 -451.5h-764q4 -188 91 -289.5t243 -101.5q240 0 303 254h114q-35 -170 -143 -262.5t-276 -92.5zM530.5 913q-137.5 0 -220.5 -90t-103 -260h639q-8 162 -93 256t-222.5 94zM532 1147 q-106 0 -171.5 68.5t-73.5 185.5h73q31 -166 181 -166q133 0 170 166h73q-35 -254 -252 -254z" glyph-name="ebreve" horiz-adv-x="1044" unicode="ĕ"/><glyph d="M1114 1366v-113h-819v-489h766v-113h-766v-538h827v-113h-956v1366h948zM713 1700v-191h-129v191h129z" glyph-name="Edotaccent" horiz-adv-x="1198" unicode="Ė"/><glyph d="M537 -29q-207 0 -330 139.5t-123 373.5t126 382t325 148q127 0 279.5 -99.5t154.5 -451.5h-764q4 -188 91 -289.5t243 -101.5q240 0 303 254h114q-35 -170 -143 -262.5t-276 -92.5zM530.5 913q-137.5 0 -220.5 -90t-103 -260h639q-8 162 -93 256t-222.5 94zM606 1368 v-194h-123v194h123z" glyph-name="edotaccent" horiz-adv-x="1044" unicode="ė"/><glyph d="M1122 113v-113q-61 -31 -100 -83t-39 -98t34 -70.5t79 -24.5t96 16v-72q-59 -20 -131 -20t-126 42t-54 111q0 106 155 199h-870v1366h948v-113h-819v-489h766v-113h-766v-538h827z" glyph-name="Eogonek" horiz-adv-x="1198" unicode="Ę"/><glyph d="M730 -352q-70 0 -125.5 43t-55.5 103t31.5 101.5t117.5 100.5q-82 -25 -153 -25q-211 0 -336 138.5t-125 372.5t126 383t325 149q127 0 226 -64.5t153 -178.5t55 -308h-762q2 -188 89 -289.5t245 -101.5q238 0 301 254h116q-23 -102 -57.5 -159t-141.5 -167t-108 -186 q0 -41 34 -65.5t79 -24.5t96 16v-72q-60 -20 -130 -20zM530.5 913q-137.5 0 -219 -90t-104.5 -260h639q-8 162 -93 256t-222.5 94z" glyph-name="eogonek" horiz-adv-x="1044" unicode="ę"/><glyph d="M1114 1366v-113h-819v-489h766v-113h-766v-538h827v-113h-956v1366h948zM354 1737h121l182 -187l185 187h110l-235 -258h-125z" glyph-name="Ecaron" horiz-adv-x="1198" unicode="Ě"/><glyph d="M537 -29q-207 0 -330 139.5t-123 373.5t126 382t325 148q127 0 279.5 -99.5t154.5 -451.5h-764q4 -188 91 -289.5t243 -101.5q240 0 303 254h114q-35 -170 -143 -262.5t-276 -92.5zM530.5 913q-137.5 0 -220.5 -90t-103 -260h639q-8 162 -93 256t-222.5 94zM283 1405h120 l150 -203l152 203h108l-205 -272h-121z" glyph-name="ecaron" horiz-adv-x="1044" unicode="ě"/><glyph d="M1327 694v-694h-86l-27 254q-61 -135 -187 -210t-292 -75q-287 0 -465 194.5t-178 512.5t180.5 519.5t468.5 201.5q229 0 383 -123t185 -330h-127q-27 152 -148 246t-293 94q-236 0 -378 -167t-142 -440t142.5 -434t377.5 -161q141 0 306 95t165 411h-467v106h582z M1061 1479h-123l-180 186l-187 -186h-108l235 258h125z" glyph-name="Gcircumflex" horiz-adv-x="1462" unicode="Ĝ"/><glyph d="M971 985v-891q0 -201 -60 -303q-104 -178 -385 -178q-182 0 -287.5 78t-115.5 221h121q31 -201 284 -201q168 0 246 85t78 270v163q-102 -215 -342 -215q-195 0 -310.5 133.5t-115.5 359.5t120 366.5t330 140.5t324 -213v184h113zM528 913q-148 0 -235.5 -106.5 t-87.5 -290.5t86 -292.5t233.5 -108.5t236.5 109.5t89 290.5t-87 289.5t-235 108.5zM825 1133h-118l-150 202l-154 -202h-106l203 272h121z" glyph-name="gcircumflex" horiz-adv-x="1122" unicode="ĝ"/><glyph d="M1327 694v-694h-86l-27 254q-61 -135 -187 -210t-292 -75q-287 0 -465 194.5t-178 512.5t180.5 519.5t468.5 201.5q229 0 383 -123t185 -330h-127q-27 152 -148 246t-293 94q-236 0 -378 -167t-142 -440t142.5 -434t377.5 -161q141 0 306 95t165 411h-467v106h582z M745.5 1485q-118.5 0 -191.5 67.5t-81 184.5h74q35 -164 201 -164t202 164h76q-18 -123 -90 -187.5t-190.5 -64.5z" glyph-name="Gbreve" horiz-adv-x="1462" unicode="Ğ"/><glyph d="M971 985v-891q0 -201 -60 -303q-104 -178 -385 -178q-182 0 -287.5 78t-115.5 221h121q31 -201 284 -201q168 0 246 85t78 270v163q-102 -215 -342 -215q-195 0 -310.5 133.5t-115.5 359.5t120 366.5t330 140.5t324 -213v184h113zM528 913q-148 0 -235.5 -106.5 t-87.5 -290.5t86 -292.5t233.5 -108.5t236.5 109.5t89 290.5t-87 289.5t-235 108.5zM559 1147q-106 0 -171.5 68.5t-76.5 185.5h74q35 -166 176 -166t174 166h74q-35 -254 -250 -254z" glyph-name="gbreve" horiz-adv-x="1122" unicode="ğ"/><glyph d="M1327 694v-694h-86l-27 254q-61 -135 -187 -210t-292 -75q-287 0 -465 194.5t-178 512.5t180.5 519.5t468.5 201.5q229 0 383 -123t185 -330h-127q-27 152 -148 246t-293 94q-236 0 -378 -167t-142 -440t142.5 -434t377.5 -161q141 0 306 95t165 411h-467v106h582z M809 1700v-191h-129v191h129z" glyph-name="Gdotaccent" horiz-adv-x="1462" unicode="Ġ"/><glyph d="M971 985v-891q0 -201 -60 -303q-104 -178 -385 -178q-182 0 -287.5 78t-115.5 221h121q31 -201 284 -201q168 0 246 85t78 270v163q-102 -215 -342 -215q-195 0 -310.5 133.5t-115.5 359.5t120 366.5t330 140.5t324 -213v184h113zM528 913q-148 0 -235.5 -106.5 t-87.5 -290.5t86 -292.5t233.5 -108.5t236.5 109.5t89 290.5t-87 289.5t-235 108.5zM623 1368v-194h-123v194h123z" glyph-name="gdotaccent" horiz-adv-x="1122" unicode="ġ"/><glyph d="M1327 694v-694h-86l-27 254q-61 -135 -187 -210t-292 -75q-287 0 -465 194.5t-178 512.5t180.5 519.5t468.5 201.5q229 0 383 -123t185 -330h-127q-27 152 -148 246t-293 94q-236 0 -378 -167t-142 -440t142.5 -434t377.5 -161q141 0 306 95t165 411h-467v106h582z M809 -115v-125q0 -96 -34 -149t-109 -74v62q39 20 55 48.5t20 84.5h-63v153h131z" glyph-name="Gcommaaccent" horiz-adv-x="1462" unicode="Ģ"/><glyph d="M971 985v-891q0 -201 -60 -303q-104 -178 -385 -178q-182 0 -287.5 78t-115.5 221h121q31 -201 284 -201q168 0 246 85t78 270v163q-102 -215 -342 -215q-195 0 -310.5 133.5t-115.5 359.5t120 366.5t330 140.5t324 -213v184h113zM528 913q-148 0 -235.5 -106.5 t-87.5 -290.5t86 -292.5t233.5 -108.5t236.5 109.5t89 290.5t-87 289.5t-235 108.5zM489 1133v124q0 96 34 149.5t110 74.5v-62q-39 -20 -55.5 -49t-20.5 -84h64v-153h-132z" glyph-name="gcommaaccent" horiz-adv-x="1122" unicode="ģ"/><glyph d="M1241 1366v-1366h-129v659h-819v-659h-129v1366h129v-594h819v594h129zM1001 1479h-120l-183 186l-186 -186h-109l236 258h125z" glyph-name="Hcircumflex" horiz-adv-x="1404" unicode="Ĥ"/><glyph d="M1241 1143h143v-109h-143v-1034h-129v659h-819v-659h-129v1034h-144v109h144v223h129v-223h819v223h129v-223zM293 1034v-262h819v262h-819z" glyph-name="Hbar" horiz-adv-x="1404" unicode="Ħ"/><glyph d="M272 0h-120v1133h-138v96h138v137h120v-137h326v-96h-326v-215q0 -18 -2 -117q100 213 340 213q209 0 297 -146q49 -76 49 -233v-635h-120v618q0 135 -43 199q-70 92 -211 92q-182 0 -263 -153q-47 -88 -47 -273v-483z" glyph-name="hbar" horiz-adv-x="1099" unicode="ħ"/><glyph d="M293 1366v-1366h-129v1366h129zM436 1642v-86h-416v86h416z" glyph-name="Imacron" horiz-adv-x="456" unicode="Ī"/><glyph d="M272 985v-985h-120v985h120zM412 1315v-86h-402v86h402z" glyph-name="imacron" horiz-adv-x="419" unicode="ī"/><glyph d="M293 1366v-1366h-129v1366h129zM225.5 1485q-108.5 0 -175 68.5t-70.5 183.5h75q23 -164 173 -164t175 164h74q-10 -119 -76.5 -185.5t-175 -66.5z" glyph-name="Ibreve" horiz-adv-x="456" unicode="Ĭ"/><glyph d="M272 985v-985h-120v985h120zM217 1243q57 0 91 36t50 116h74q-14 -115 -73.5 -177.5t-150.5 -62.5t-150.5 65.5t-67.5 174.5h73q31 -152 154 -152z" glyph-name="ibreve" horiz-adv-x="419" unicode="ĭ"/><glyph d="M293 1366v-1366q-53 -76 -68.5 -108.5t-15.5 -73.5q0 -94 82 -94q25 0 67 16v-72q-52 -20 -106 -20t-100 42t-46 105q0 106 130 205h-72v1366h129z" glyph-name="Iogonek" horiz-adv-x="456" unicode="Į"/><glyph d="M272 985v-985q-78 -104 -77 -182q0 -41 20.5 -66.5t48.5 -25.5t66 12v-70q-49 -20 -98 -20t-94.5 43t-45.5 104q0 90 121 205h-61v985h120zM272 1366v-192h-120v192h120z" glyph-name="iogonek" horiz-adv-x="419" unicode="į"/><glyph d="M293 1366v-1366h-129v1366h129zM291 1700v-191h-129v191h129z" glyph-name="Idotaccent" horiz-adv-x="456" unicode="İ"/><glyph d="M270 985v-985h-120v985h120z" glyph-name="dotlessi" horiz-adv-x="419" unicode="ı"/><glyph d="M293 1366v-1366h-129v1366h129zM1249 1378v-975q0 -266 -77.5 -327.5t-150.5 -81.5t-181 -19q-108 0 -197.5 48.5t-130.5 134.5t-41 243q0 27 2 54h125q0 -129 8 -172q37 -195 258 -195q147 0 211 94q45 66 45 238v958h129z" glyph-name="IJ" horiz-adv-x="1394" unicode="Ĳ"/><glyph d="M270 1366v-192h-120v192h120zM270 985v-985h-120v985h120zM678 985v-1051q0 -104 -20 -208.5t-220 -104.5q-25 0 -57 6v101q20 -4 45 -4q84 0 107.5 36.5t23.5 169.5v1055h121zM678 1366v-192h-121v192h121z" glyph-name="ij" horiz-adv-x="829" unicode="ĳ"/><glyph d="M295 0h-129v1366h129v-735q49 49 90 86l705 649h174l-615 -557l645 -809h-166l-571 719l-262 -238v-481zM729 -115v-125q0 -188 -145 -223v62q72 35 78 133h-64v153h131z" glyph-name="Kcommaaccent" horiz-adv-x="1284" unicode="Ķ"/><glyph d="M272 0h-120v1366h120v-862q67 67 74 69l475 412h162l-422 -362l451 -623h-152l-391 541l-197 -168v-373zM600 -115v-125q0 -96 -34 -149t-109 -74v62q39 20 55 48.5t20 84.5h-63v153h131z" glyph-name="kcommaaccent" horiz-adv-x="1030" unicode="ķ"/><glyph d="M272 0h-120v985h120v-481q67 67 74 69l475 412h162l-422 -362l451 -623h-152l-391 541l-197 -168v-373z" glyph-name="kgreenlandic" horiz-adv-x="1030" unicode="ĸ"/><glyph d="M1063 113v-113h-899v1366h129v-1253h770zM569 1737l-268 -258h-100l211 258h157z" glyph-name="Lacute" horiz-adv-x="1097" unicode="Ĺ"/><glyph d="M270 1366v-1366h-120v1366h120zM477 1737l-227 -258h-94l178 258h143z" glyph-name="lacute" horiz-adv-x="419" unicode="ĺ"/><glyph d="M1063 113v-113h-899v1366h129v-1253h770zM670 -115v-125q0 -188 -146 -223v62q72 35 78 133h-63v153h131z" glyph-name="Lcommaaccent" horiz-adv-x="1097" unicode="Ļ"/><glyph d="M272 1366v-1366h-120v1366h120zM281 -115v-125q0 -188 -146 -223v62q72 35 78 133h-63v153h131z" glyph-name="lcommaaccent" horiz-adv-x="419" unicode="ļ"/><glyph d="M1063 113v-113h-899v1366h129v-1253h770zM641 1366v-125q0 -96 -34 -149.5t-109 -73.5v61q68 37 75 133h-63v154h131z" glyph-name="Lcaron" horiz-adv-x="1097" unicode="Ľ"/><glyph d="M270 1366v-1366h-120v1366h120zM512 1366v-125q0 -96 -34 -149.5t-109 -73.5v61q68 37 75 133h-63v154h131z" glyph-name="lcaron" horiz-adv-x="499" unicode="ľ"/><glyph d="M1063 113v-113h-899v1366h129v-1253h770zM717 801v-195h-123v195h123z" glyph-name="Ldot" horiz-adv-x="1097" unicode="Ŀ"/><glyph d="M270 1366v-1366h-120v1366h120zM541 786v-194h-123v194h123z" glyph-name="ldot" horiz-adv-x="540" unicode="ŀ"/><glyph d="M164 1366h129v-623l319 240v-129l-319 -240v-501h770v-113h-899v551l-144 -107v129l144 107v686z" glyph-name="Lslash" horiz-adv-x="1097" unicode="Ł"/><glyph d="M150 1366h120v-555l129 98v-112l-129 -99v-698h-120v637l-130 -98v114l130 99v614z" glyph-name="lslash" horiz-adv-x="419" unicode="ł"/><glyph d="M1241 1366v-1366h-145l-633 915q-141 217 -180 295q6 -80 6 -133l2 -194v-883h-125v1366h145l635 -926q111 -160 178 -286q-8 188 -8 360v852h125zM995 1737l-270 -258h-100l213 258h157z" glyph-name="Nacute" horiz-adv-x="1404" unicode="Ń"/><glyph d="M264 985v-184q45 76 82 110q102 102 268 103q205 0 291 -135q51 -78 51 -246v-633h-120v596q0 166 -43 223q-63 90 -205 90q-90 0 -162 -40.5t-113 -118.5t-41 -254v-496h-120v985h112zM825 1405l-243 -272h-97l193 272h147z" glyph-name="nacute" horiz-adv-x="1097" unicode="ń"/><glyph d="M1241 1366v-1366h-145l-633 915q-141 217 -180 295q6 -80 6 -133l2 -194v-883h-125v1366h145l635 -926q111 -160 178 -286q-8 188 -8 360v852h125zM737 -115v-125q0 -188 -145 -223v62q72 35 78 133h-64v153h131z" glyph-name="Ncommaaccent" horiz-adv-x="1404" unicode="Ņ"/><glyph d="M264 985v-184q45 76 82 110q102 102 268 103q205 0 291 -135q51 -78 51 -246v-633h-120v596q0 166 -43 223q-63 90 -205 90q-90 0 -162 -40.5t-113 -118.5t-41 -254v-496h-120v985h112zM621 -115v-125q0 -96 -34 -149t-110 -74v62q39 20 55.5 48.5t20.5 84.5h-64v153h132 z" glyph-name="ncommaaccent" horiz-adv-x="1097" unicode="ņ"/><glyph d="M1241 1366v-1366h-145l-633 915q-141 217 -180 295q6 -80 6 -133l2 -194v-883h-125v1366h145l635 -926q111 -160 178 -286q-8 188 -8 360v852h125zM412 1737h120l183 -187l184 187h111l-236 -258h-125z" glyph-name="Ncaron" horiz-adv-x="1404" unicode="Ň"/><glyph d="M264 985v-184q45 76 82 110q102 102 268 103q205 0 291 -135q51 -78 51 -246v-633h-120v596q0 166 -43 223q-63 90 -205 90q-90 0 -162 -40.5t-113 -118.5t-41 -254v-496h-120v985h112zM313 1405h119l150 -203l153 203h107l-203 -272h-121z" glyph-name="ncaron" horiz-adv-x="1097" unicode="ň"/><glyph d="M307 1366v-154q0 -133 -41 -207.5t-129 -101.5v82q84 43 86 182h-73v199h157zM516 985v-184q45 76 82 110q102 102 268 103q205 0 291 -135q51 -78 51 -246v-633h-121v596q0 166 -43 223q-63 90 -204 90q-90 0 -162 -40.5t-113 -118.5t-41 -254v-496h-121v985h113z" glyph-name="napostrophe" horiz-adv-x="1351" unicode="ŉ"/><glyph d="M293 1366v-248q59 98 113 146q145 133 374 133q275 0 400 -187q62 -93 61 -315v-961q0 -106 -9 -155t-38 -84q-53 -74 -203 -74q-20 0 -57 6v101q20 -4 47 -4q84 0 107.5 36.5t23.5 169.5v914q0 231 -63 317q-92 127 -301 127q-131 0 -234.5 -57t-161.5 -168t-59 -354 v-709h-129v1366h129z" glyph-name="Eng" horiz-adv-x="1404" unicode="Ŋ"/><glyph d="M264 985v-184q47 80 82 110q102 102 268 103q205 0 291 -135q51 -78 51 -246v-699q0 -104 -19 -208.5t-222 -104.5q-20 0 -58 6v101q20 -4 48 -4q84 0 107.5 36.5t23.5 169.5v666q0 164 -43 223q-63 90 -207 90q-188 0 -271 -153q-43 -84 -43 -260v-496h-120v985h112z " glyph-name="eng" horiz-adv-x="1097" unicode="ŋ"/><glyph d="M737 1397q287 0 465 -201t178 -517t-178 -513t-466 -197t-465 196.5t-177 518.5t178 517.5t465 195.5zM738 1284q-230 0 -372.5 -163t-142.5 -435t141.5 -438t373 -166t372.5 165t141 432t-141.5 436t-371.5 169zM1047 1642v-86h-619v86h619z" glyph-name="Omacron" horiz-adv-x="1474" unicode="Ō"/><glyph d="M555 1014q213 0 338 -143.5t125 -381t-126 -378t-339 -140.5t-341 141.5t-128 380.5t129 380t342 141zM553 913q-158 0 -252 -113.5t-94 -307.5t94 -307t252 -113t251 113t93 305t-93 307.5t-251 115.5zM819 1315v-86h-536v86h536z" glyph-name="omacron" horiz-adv-x="1101" unicode="ō"/><glyph d="M737 1397q287 0 465 -201t178 -517t-178 -513t-466 -197t-465 196.5t-177 518.5t178 517.5t465 195.5zM738 1284q-230 0 -372.5 -163t-142.5 -435t141.5 -438t373 -166t372.5 165t141 432t-141.5 436t-371.5 169zM734 1485q-118 0 -191.5 67.5t-81.5 184.5h76 q35 -164 200.5 -164t200.5 164h76q-18 -123 -90 -187.5t-190 -64.5z" glyph-name="Obreve" horiz-adv-x="1474" unicode="Ŏ"/><glyph d="M555 1014q213 0 338 -143.5t125 -381t-126 -378t-339 -140.5t-341 141.5t-128 380.5t129 380t342 141zM553 913q-158 0 -252 -113.5t-94 -307.5t94 -307t252 -113t251 113t93 305t-93 307.5t-251 115.5zM549 1147q-106 0 -172 68.5t-74 185.5h74q31 -166 172 -166 t178 166h72q-35 -254 -250 -254z" glyph-name="obreve" horiz-adv-x="1101" unicode="ŏ"/><glyph d="M737 1397q287 0 465 -201t178 -517t-178 -513t-466 -197t-465 196.5t-177 518.5t178 517.5t465 195.5zM738 1284q-230 0 -372.5 -163t-142.5 -435t141.5 -438t373 -166t372.5 165t141 432t-141.5 436t-371.5 169zM1157 1737l-221 -258h-92l164 258h149zM842 1737 l-221 -258h-91l164 258h148z" glyph-name="Ohungarumlaut" horiz-adv-x="1474" unicode="Ő"/><glyph d="M555 1014q213 0 338 -143.5t125 -381t-126 -378t-339 -140.5t-341 141.5t-128 380.5t129 380t342 141zM553 913q-158 0 -252 -113.5t-94 -307.5t94 -307t252 -113t251 113t93 305t-93 307.5t-251 115.5zM918 1405l-197 -272h-90l147 272h140zM659 1405l-198 -272h-90 l147 272h141z" glyph-name="ohungarumlaut" horiz-adv-x="1101" unicode="ő"/><glyph d="M2021 1366v-113h-778v-489h707v-113h-707v-538h787v-113h-908v139q-162 -170 -395 -170q-276 0 -454.5 199t-178.5 513t180.5 515t466.5 201q129 0 242 -47q49 -23 119 -82l4 -2q2 -2 7 -5.5t9 -7.5v113h899zM1114 328v716q0 72 -78 140q-113 100 -282 100 q-238 0 -384.5 -167t-146.5 -435t143.5 -434t356.5 -166t328 119q63 64 63 127z" glyph-name="OE" horiz-adv-x="2107" unicode="Œ"/><glyph d="M1239 -29q-281 0 -362 252q-82 -252 -363 -252q-197 0 -313.5 140.5t-116.5 380.5t119 381t321 141q268 0 357 -240q104 240 362 240q203 0 314.5 -135.5t113.5 -384.5v-31h-739v-31q0 -160 88 -260t227 -100q225 0 299 250h117q-39 -168 -149.5 -259.5t-274.5 -91.5z M1239 913q-84 0 -189 -62t-120 -288h620q-8 139 -53 213q-92 137 -258 137zM520 913q-148 0 -231.5 -112.5t-83.5 -309.5t85 -308t231 -111t226 112.5t80 312.5t-79.5 308t-227.5 108z" glyph-name="oe" horiz-adv-x="1748" unicode="œ"/><glyph d="M158 1366h600q180 0 282 -61q160 -100 160 -308q0 -131 -69.5 -219t-196.5 -119q113 -16 174 -90q39 -55 49.5 -104t24.5 -233t55 -232h-145q-29 42 -36 200t-22.5 223.5t-60.5 113.5q-68 74 -285 73h-401v-610h-129v1366zM1071 989q0 264 -354 264h-430v-538h385 q195 0 280 49q119 70 119 225zM909 1737l-270 -258h-100l213 258h157z" glyph-name="Racute" horiz-adv-x="1351" unicode="Ŕ"/><glyph d="M641 879h-31q-158 0 -252 -111q-51 -57 -68.5 -133t-17.5 -232v-403h-120v985h112v-235q109 255 377 249v-120zM639 1405l-242 -272h-96l191 272h147z" glyph-name="racute" horiz-adv-x="632" unicode="ŕ"/><glyph d="M158 1366h600q180 0 282 -61q160 -100 160 -308q0 -131 -69.5 -219t-196.5 -119q113 -16 174 -90q39 -55 49.5 -104t24.5 -233t55 -232h-145q-29 42 -36 200t-22.5 223.5t-60.5 113.5q-68 74 -285 73h-401v-610h-129v1366zM1071 989q0 264 -354 264h-430v-538h385 q195 0 280 49q119 70 119 225zM721 -115v-125q0 -188 -146 -223v62q72 35 78 133h-63v153h131z" glyph-name="Rcommaaccent" horiz-adv-x="1351" unicode="Ŗ"/><glyph d="M643 879h-31q-160 0 -254 -111q-51 -57 -68.5 -133t-17.5 -232v-403h-120v985h112v-235q109 255 379 249v-120zM281 -115v-125q0 -188 -146 -223v62q72 35 78 133h-63v153h131z" glyph-name="rcommaaccent" horiz-adv-x="632" unicode="ŗ"/><glyph d="M158 1366h600q180 0 282 -61q160 -100 160 -308q0 -131 -69.5 -219t-196.5 -119q113 -16 174 -90q39 -55 49.5 -104t24.5 -233t55 -232h-145q-29 42 -36 200t-22.5 223.5t-60.5 113.5q-68 74 -285 73h-401v-610h-129v1366zM1071 989q0 264 -354 264h-430v-538h385 q195 0 280 49q119 70 119 225zM336 1737h121l182 -187l186 187h109l-236 -258h-125z" glyph-name="Rcaron" horiz-adv-x="1351" unicode="Ř"/><glyph d="M641 879h-31q-158 0 -252 -111q-51 -57 -68.5 -133t-17.5 -232v-403h-120v985h112v-235q109 255 377 249v-120zM106 1405h119l150 -203l153 203h107l-203 -272h-121z" glyph-name="rcaron" horiz-adv-x="632" unicode="ř"/><glyph d="M565 1288q-160 0 -250 -68.5t-90 -188.5t80 -168q81 -48 317 -101t324 -103q168 -99 168 -289t-156 -304q-128 -96 -370 -96t-387.5 124.5t-145.5 343.5v15h125q6 -158 76 -242q111 -133 354 -133q178 0 278.5 74t100.5 216t-160 207q-82 35 -307 87t-305 108 q-119 84 -119 254t128 271.5t353 101.5t353.5 -110.5t138.5 -313.5h-125q-27 315 -381 315zM854 1737l-268 -258h-101l211 258h158z" glyph-name="Sacute" horiz-adv-x="1202" unicode="Ś"/><glyph d="M435 913q-118 0 -179 -45t-61 -120t54 -109.5t233 -75.5t257 -92q105 -68 105 -201t-107.5 -216t-290.5 -83t-289 91.5t-110 259.5h117q18 -250 291 -250q121 0 195.5 52t74.5 132t-57.5 121t-237.5 83t-244 79q-110 59 -110 192t97 208t261 75q209 0 305 -115 q62 -70 70 -199h-119q-10 111 -73.5 162t-181.5 51zM723 1405l-242 -272h-96l190 272h148z" glyph-name="sacute" horiz-adv-x="919" unicode="ś"/><glyph d="M565 1288q-160 0 -250 -68.5t-90 -188.5t80 -168q81 -48 317 -101t324 -103q168 -99 168 -289t-156 -304q-128 -96 -370 -96t-387.5 124.5t-145.5 343.5v15h125q6 -158 76 -242q111 -133 354 -133q178 0 278.5 74t100.5 216t-160 207q-82 35 -307 87t-305 108 q-119 84 -119 254t128 271.5t353 101.5t353.5 -110.5t138.5 -313.5h-125q-27 315 -381 315zM907 1479h-121l-182 186l-184 -186h-111l236 258h125z" glyph-name="Scircumflex" horiz-adv-x="1202" unicode="Ŝ"/><glyph d="M435 913q-118 0 -179 -45t-61 -120t54 -109.5t233 -75.5t257 -92q105 -68 105 -201t-107.5 -216t-290.5 -83t-289 91.5t-110 259.5h117q18 -250 291 -250q121 0 195.5 52t74.5 132t-57.5 121t-237.5 83t-244 79q-110 59 -110 192t97 208t261 75q209 0 305 -115 q62 -70 70 -199h-119q-10 111 -73.5 162t-181.5 51zM723 1133h-119l-149 202l-152 -202h-108l202 272h121z" glyph-name="scircumflex" horiz-adv-x="919" unicode="ŝ"/><glyph d="M743 -240q0 -62 -57.5 -108.5t-145.5 -46.5t-186 39l25 57q80 -31 136 -31t88 24.5t32 60.5t-27.5 57.5t-66.5 21.5t-88 -18l-29 30l92 123q-213 35 -315 123q-145 127 -146 346v15h125q6 -158 76 -242q111 -133 354 -133q178 0 278.5 74t100.5 216t-160 207 q-74 33 -300 85t-312 110q-119 84 -119 254t128 271.5t353 101.5t353.5 -110.5t138.5 -313.5h-125q-27 315 -381 315q-160 0 -250 -68.5t-90 -188.5t77 -166q76 -46 318 -102t326 -104q168 -100 168 -286q0 -227 -205 -340q-110 -64 -325 -66l-62 -82q49 8 70 9 q66 0 108.5 -36t42.5 -98z" glyph-name="Scedilla" horiz-adv-x="1202" unicode="Ş"/><glyph d="M455 72q121 0 195.5 52t74.5 132t-57.5 121t-237.5 83t-244 79q-110 59 -110 192t97 208t261 75q209 0 305 -115q61 -70 70 -199h-119q-10 111 -73.5 162t-181.5 51t-179 -45t-61 -120t54 -109.5t231 -74.5t259 -93q104 -68 105 -199q0 -90 -78.5 -195.5t-337.5 -105.5 l-59 -77q49 6 69 6q68 0 109 -35t41 -101t-56.5 -109.5t-144.5 -43.5t-184 39l26 57q73 -31 131 -31t89.5 24t31.5 60t-27.5 58t-66.5 22t-86 -16l-29 29l95 122l-35 9q-135 27 -211 115.5t-74 222.5h117q18 -250 291 -250z" glyph-name="scedilla" horiz-adv-x="919" unicode="ş"/><glyph d="M565 1288q-160 0 -250 -68.5t-90 -188.5t80 -168q81 -48 317 -101t324 -103q168 -99 168 -289t-156 -304q-128 -96 -370 -96t-387.5 124.5t-145.5 343.5v15h125q6 -158 76 -242q111 -133 354 -133q178 0 278.5 74t100.5 216t-160 207q-82 35 -307 87t-305 108 q-119 84 -119 254t128 271.5t353 101.5t353.5 -110.5t138.5 -313.5h-125q-27 315 -381 315zM299 1737h123l180 -187l186 187h109l-235 -258h-125z" glyph-name="Scaron" horiz-adv-x="1202" unicode="Š"/><glyph d="M435 913q-118 0 -179 -45t-61 -120t54 -109.5t233 -75.5t257 -92q105 -68 105 -201t-107.5 -216t-290.5 -83t-289 91.5t-110 259.5h117q18 -250 291 -250q121 0 195.5 52t74.5 132t-57.5 121t-237.5 83t-244 79q-110 59 -110 192t97 208t261 75q209 0 305 -115 q62 -70 70 -199h-119q-10 111 -73.5 162t-181.5 51zM184 1405h121l148 -203l153 203h107l-203 -272h-121z" glyph-name="scaron" horiz-adv-x="919" unicode="š"/><glyph d="M1118 1366v-113h-479v-1253h-129v1253h-481v113h1089zM645 -115v-125q0 -96 -33.5 -149t-109.5 -74v62q39 20 55 48.5t21 84.5h-64v153h131z" glyph-name="Tcommaaccent" horiz-adv-x="1146" unicode="Ţ"/><glyph d="M479 985v-100h-205v-623q0 -102 24 -133t101 -31q27 0 80 6v-104q-66 -6 -108 -6q-147 0 -193 80q-25 45 -24 250v561h-172v100h172v303h120v-303h205zM358 -115v-125q0 -188 -145 -223v62q72 35 78 133h-64v153h131z" glyph-name="tcommaaccent" horiz-adv-x="538" unicode="ţ"/><glyph d="M1118 1366v-113h-479v-1253h-129v1253h-481v113h1089zM274 1737h121l183 -187l186 187h108l-235 -258h-125z" glyph-name="Tcaron" horiz-adv-x="1146" unicode="Ť"/><glyph d="M479 985v-100h-205v-623q0 -102 24 -133t101 -31q27 0 80 6v-104q-66 -6 -108 -6q-147 0 -193 80q-25 45 -24 250v561h-172v100h172v303h120v-303h205zM541 1456v-125q0 -96 -34 -149.5t-110 -73.5v61q39 20 55.5 49t20.5 85h-63v153h131z" glyph-name="tcaron" horiz-adv-x="528" unicode="ť"/><glyph d="M1118 1366v-113h-479v-434h342v-108h-342v-711h-129v711h-342v108h342v434h-481v113h1089z" glyph-name="Tbar" horiz-adv-x="1146" unicode="Ŧ"/><glyph d="M479 985v-100h-205v-191h185v-96h-185v-334q0 -104 24 -135t101 -31q27 0 80 6v-104q-66 -6 -108 -6q-147 0 -193 80q-25 45 -24 250v274h-152v96h152v191h-172v100h172v303h120v-303h205z" glyph-name="tbar" horiz-adv-x="538" unicode="ŧ"/><glyph d="M944 985v-985h-113v184q-119 -213 -346 -213q-178 0 -274 119q-68 86 -68 260v635h121v-584q0 -135 24 -195t85 -95t139 -35q166 0 254 137q57 94 57 266v506h121zM670 1182q-51 0 -181 71q-33 16 -63 17q-59 0 -80 -96h-70q29 188 158 188q49 0 127 -44t109 -44 q58 0 78 94h71q-31 -186 -149 -186z" glyph-name="utilde" horiz-adv-x="1095" unicode="ũ"/><glyph d="M1208 1366v-819q0 -145 -18.5 -225t-67.5 -156q-135 -197 -438 -197q-336 0 -467 221q-72 119 -72 361v815h129v-819q0 -215 64 -316q98 -153 342 -153t336 147q63 100 63 324v817h129zM985 1642v-86h-618v86h618z" glyph-name="Umacron" horiz-adv-x="1351" unicode="Ū"/><glyph d="M944 985v-985h-113v184q-119 -213 -346 -213q-178 0 -274 119q-68 86 -68 260v635h121v-584q0 -135 24 -195t85 -95t139 -35q166 0 254 137q57 94 57 266v506h121zM813 1315v-86h-539v86h539z" glyph-name="umacron" horiz-adv-x="1095" unicode="ū"/><glyph d="M1208 1366v-819q0 -145 -18.5 -225t-67.5 -156q-135 -197 -438 -197q-336 0 -467 221q-72 119 -72 361v815h129v-819q0 -215 64 -316q98 -153 342 -153t336 147q63 100 63 324v817h129zM672 1485q-117 0 -190.5 68.5t-82.5 183.5h76q35 -164 201 -164t201 164h75 q-20 -86 -51 -137t-92 -83t-137 -32z" glyph-name="Ubreve" horiz-adv-x="1351" unicode="Ŭ"/><glyph d="M944 985v-985h-113v184q-119 -213 -346 -213q-178 0 -274 119q-68 86 -68 260v635h121v-584q0 -135 24 -195t85 -95t139 -35q166 0 254 137q57 94 57 266v506h121zM545 1147q-106 0 -172 68.5t-74 185.5h74q31 -166 172 -166t178 166h74q-35 -254 -252 -254z" glyph-name="ubreve" horiz-adv-x="1095" unicode="ŭ"/><glyph d="M1208 1366v-819q0 -145 -18.5 -225t-67.5 -156q-135 -197 -438 -197q-336 0 -467 221q-72 119 -72 361v815h129v-819q0 -215 64 -316q98 -153 342 -153t336 147q63 100 63 324v817h129zM678 1837q82 0 139 -58.5t57 -140.5t-57 -140t-140 -58t-140.5 58t-57.5 141 t58.5 140.5t140.5 57.5zM677 1757q-48 0 -83 -33.5t-35 -83.5t34 -85t83 -35t84 34.5t35 84t-35 84t-83 34.5z" glyph-name="Uring" horiz-adv-x="1351" unicode="Ů"/><glyph d="M944 985v-985h-113v184q-119 -213 -346 -213q-178 0 -274 119q-68 86 -68 260v635h121v-584q0 -135 24 -195t85 -95t139 -35q166 0 254 137q57 94 57 266v506h121zM557 1475q80 0 135.5 -56.5t55.5 -134.5t-56.5 -134t-135.5 -56t-135 56t-56 135t56 134.5t136 55.5z M556 1395q-46 0 -79 -33t-33 -79t33 -77.5t79 -31.5t79 31.5t33 77.5t-33 79t-79 33z" glyph-name="uring" horiz-adv-x="1095" unicode="ů"/><glyph d="M1208 1366v-819q0 -145 -18.5 -225t-67.5 -156q-135 -197 -438 -197q-336 0 -467 221q-72 119 -72 361v815h129v-819q0 -215 64 -316q98 -153 342 -153t336 147q63 100 63 324v817h129zM1083 1737l-221 -258h-92l164 258h149zM768 1737l-221 -258h-90l164 258h147z" glyph-name="Uhungarumlaut" horiz-adv-x="1351" unicode="Ű"/><glyph d="M944 985v-985h-113v184q-119 -213 -346 -213q-178 0 -274 119q-68 86 -68 260v635h121v-584q0 -135 24 -195t85 -95t139 -35q166 0 254 137q57 94 57 266v506h121zM901 1405l-196 -272h-91l146 272h141zM641 1405l-197 -272h-90l148 272h139z" glyph-name="uhungarumlaut" horiz-adv-x="1095" unicode="ű"/><glyph d="M921 -352q-71 0 -126.5 43t-55.5 110q0 100 144 193q-111 -25 -203 -25q-332 0 -463 221q-72 119 -72 361v815h129v-819q0 -215 64 -316q100 -153 344 -153t336 147q61 100 61 324v817h129v-819q0 -170 -26 -251t-60.5 -131t-105.5 -110q-176 -152 -176 -237 q0 -43 35 -68.5t79 -25.5t99 16v-72q-61 -20 -132 -20z" glyph-name="Uogonek" horiz-adv-x="1351" unicode="Ų"/><glyph d="M944 985v-985q-139 -82 -139 -184q0 -41 34.5 -66.5t78.5 -25.5t98 16v-72q-61 -20 -133 -20t-126.5 42t-54.5 111q0 113 170 199h-41v184q-119 -213 -346 -213q-178 0 -274 119q-68 86 -68 260v635h121v-584q0 -135 24 -195t85 -95t139 -35q166 0 254 137q57 94 57 266 v506h121z" glyph-name="uogonek" horiz-adv-x="1095" unicode="ų"/><glyph d="M1761 1366l-379 -1366h-141l-276 963q-55 205 -70 280q-29 -117 -74 -276l-274 -967h-141l-377 1366h137l252 -948q51 -207 65 -283q14 80 68 285l270 946h150l276 -960q51 -194 64 -271q16 86 61 268l258 963h131zM1194 1479h-121l-182 186l-186 -186h-109l235 258h125z " glyph-name="Wcircumflex" horiz-adv-x="1787" unicode="Ŵ"/><glyph d="M659 0h-129v565l-542 801h157l381 -571q33 -49 72 -121q61 104 72 117l381 575h149l-541 -801v-565zM893 1479h-121l-182 186l-187 -186h-108l235 258h125z" glyph-name="Ycircumflex" horiz-adv-x="1185" unicode="Ŷ"/><glyph d="M213 -375q-41 0 -80 6l-27 2v107q50 -12 96 -12q98 0 150 143q27 66 35 88q22 43 16 47l-397 979h133l267 -678q25 -63 59 -174q43 135 61 186l242 666h123l-387 -1024q-70 -184 -109 -244q-61 -92 -182 -92zM713 1133h-119l-150 202l-153 -202h-107l203 272h121z" glyph-name="ycircumflex" horiz-adv-x="894" unicode="ŷ"/><glyph d="M659 0h-129v565l-542 801h157l381 -571q33 -49 72 -121q61 104 72 117l381 575h149l-541 -801v-565zM864 1700v-191h-129v191h129zM451 1700v-191h-129v191h129z" glyph-name="Ydieresis" horiz-adv-x="1185" unicode="Ÿ"/><glyph d="M1106 1366v-115l-832 -1054q-17 -23 -31 -39.5t-22 -28.5t-16 -20q35 2 80 2l116 2h723v-113h-1067v117l838 1063l35 41q2 2 6 7t11 13t11 14q-121 -2 -180 -2h-657v113h985zM891 1737l-268 -258h-101l211 258h158z" glyph-name="Zacute" horiz-adv-x="1175" unicode="Ź"/><glyph d="M90 885v100h756v-86l-588 -721l-31 -35q-16 -16 -34 -43h679v-100h-825v98l578 709q20 25 41 45l26 35l-37 -2h-565zM717 1405l-244 -272h-96l192 272h148z" glyph-name="zacute" horiz-adv-x="894" unicode="ź"/><glyph d="M1106 1366v-115l-832 -1054q-17 -23 -31 -39.5t-22 -28.5t-16 -20q35 2 80 2l116 2h723v-113h-1067v117l838 1063l35 41q2 2 6 7t11 13t11 14q-121 -2 -180 -2h-657v113h985zM670 1700v-191h-129v191h129z" glyph-name="Zdotaccent" horiz-adv-x="1175" unicode="Ż"/><glyph d="M90 885v100h756v-86l-588 -721l-31 -35q-16 -16 -34 -43h679v-100h-825v98l578 709q20 25 41 45l26 35l-37 -2h-565zM537 1368v-194h-123v194h123z" glyph-name="zdotaccent" horiz-adv-x="894" unicode="ż"/><glyph d="M1106 1366v-115l-832 -1054q-17 -23 -31 -39.5t-22 -28.5t-16 -20q35 2 80 2l116 2h723v-113h-1067v117l838 1063l35 41q2 2 6 7t11 13t11 14q-121 -2 -180 -2h-657v113h985zM313 1737h121l182 -187l185 187h110l-235 -258h-125z" glyph-name="Zcaron" horiz-adv-x="1175" unicode="Ž"/><glyph d="M90 885v100h756v-86l-588 -721l-31 -35q-16 -16 -34 -43h679v-100h-825v98l578 709q20 25 41 45l26 35l-37 -2h-565zM217 1405h119l149 -203l154 203h106l-202 -272h-121z" glyph-name="zcaron" horiz-adv-x="894" unicode="ž"/><glyph d="M199 -367q-47 0 -107 9l19 104q53 -6 79 -6q92 0 134.5 58.5t72.5 228.5l148 811h-195l19 96h192l43 235q31 158 80 224q78 98 234 98q55 0 114 -8l-20 -105q-49 8 -90 8q-86 0 -130 -49t-67 -168l-43 -235h217l-18 -96h-215l-150 -828q-38 -217 -110 -297t-207 -80z" glyph-name="florin" horiz-adv-x="1120" unicode="ƒ"/><glyph d="M715 1370l545 -1370h-146l-164 430h-624l-168 -430h-140l551 1370h146zM911 535l-196 505q-53 139 -74 207q-43 -115 -76 -200l-200 -512h546zM340 1737h121l182 -187l186 187h109l-236 -258h-124z" glyph-name="uni01CD" horiz-adv-x="1275" unicode="Ǎ"/><glyph d="M880 -8q-62 0 -90 41t-28 139q-127 -201 -373 -201q-150 0 -235.5 75t-85.5 204q0 195 186 266q53 23 101.5 30t190.5 21t176 41t34 90q0 111 -62.5 163t-192.5 52t-194.5 -55t-77.5 -176h-116q8 160 111.5 246t261.5 86t253 -49.5t119 -130.5q14 -47 14 -162v-441 q0 -92 11 -115.5t43 -23.5t59 8v-94q-43 -14 -105 -14zM756 377v162q-29 -27 -75 -38.5t-201 -31.5t-223.5 -68.5t-68.5 -137.5t63.5 -141t166.5 -52q147 0 242.5 87t95.5 220zM242 1405h118l150 -203l152 203h108l-203 -272h-121z" glyph-name="uni01CE" horiz-adv-x="1021" unicode="ǎ"/><glyph d="M184 0v399l29 623h72l28 -623v-399h-129zM178 1176v190h144v-190h-144z" glyph-name="uni01D1" horiz-adv-x="538" unicode="Ǒ"/><glyph d="M1208 1366v-819q0 -145 -18.5 -225t-67.5 -156q-135 -197 -438 -197q-336 0 -467 221q-72 119 -72 361v815h129v-819q0 -215 64 -316q98 -153 342 -153t336 147q63 100 63 324v817h129zM379 1737h121l182 -187l184 187h111l-236 -258h-125z" glyph-name="uni01D3" horiz-adv-x="1351" unicode="Ǔ"/><glyph d="M944 985v-985h-113v184q-119 -213 -346 -213q-178 0 -274 119q-68 86 -68 260v635h121v-584q0 -135 24 -195t85 -95t139 -35q166 0 254 137q57 94 57 266v506h121zM279 1405h120l148 -203l153 203h107l-203 -272h-121z" glyph-name="uni01D4" horiz-adv-x="1095" unicode="ǔ"/><glyph d="M1327 694v-694h-86l-27 254q-61 -135 -187 -210t-292 -75q-287 0 -465 194.5t-178 512.5t180.5 519.5t468.5 201.5q229 0 383 -123t185 -330h-127q-27 152 -148 246t-293 94q-236 0 -378 -167t-142 -440t142.5 -434t377.5 -161q141 0 306 95t165 411h-467v106h582z M434 1737h121l182 -187l187 187h108l-235 -258h-125z" glyph-name="Gcaron" horiz-adv-x="1462" unicode="Ǧ"/><glyph d="M971 985v-891q0 -201 -60 -303q-104 -178 -385 -178q-182 0 -287.5 78t-115.5 221h121q31 -201 284 -201q168 0 246 85t78 270v163q-102 -215 -342 -215q-195 0 -310.5 133.5t-115.5 359.5t120 366.5t330 140.5t324 -213v184h113zM528 913q-148 0 -235.5 -106.5 t-87.5 -290.5t86 -292.5t233.5 -108.5t236.5 109.5t89 290.5t-87 289.5t-235 108.5zM293 1405h119l149 -203l154 203h106l-203 -272h-120z" glyph-name="gcaron" horiz-adv-x="1122" unicode="ǧ"/><glyph d="M1327 694v-694h-86l-27 254q-61 -135 -187 -210t-292 -75q-287 0 -465 194.5t-178 512.5t180.5 519.5t468.5 201.5q229 0 383 -123t185 -330h-127q-27 152 -148 246t-293 94q-236 0 -378 -167t-142 -440t142.5 -434t377.5 -161q141 0 306 95t165 411h-467v106h582z M1026 1737l-268 -258h-101l213 258h156z" glyph-name="uni01F4" horiz-adv-x="1462" unicode="Ǵ"/><glyph d="M565 1288q-160 0 -250 -68.5t-90 -188.5t80 -168q81 -48 317 -101t324 -103q168 -99 168 -289t-156 -304q-128 -96 -370 -96t-387.5 124.5t-145.5 343.5v15h125q6 -158 76 -242q111 -133 354 -133q178 0 278.5 74t100.5 216t-160 207q-82 35 -307 87t-305 108 q-119 84 -119 254t128 271.5t353 101.5t353.5 -110.5t138.5 -313.5h-125q-27 315 -381 315zM639 -115v-125q0 -96 -34 -149t-109 -74v62q39 20 55 48.5t20 84.5h-63v153h131z" glyph-name="Scommaaccent" horiz-adv-x="1202" unicode="Ș"/><glyph d="M435 913q-118 0 -179 -45t-61 -120t54 -109.5t233 -75.5t257 -92q105 -68 105 -201t-107.5 -216t-290.5 -83t-289 91.5t-110 259.5h117q18 -250 291 -250q121 0 195.5 52t74.5 132t-57.5 121t-237.5 83t-244 79q-110 59 -110 192t97 208t261 75q209 0 305 -115 q62 -70 70 -199h-119q-10 111 -73.5 162t-181.5 51zM494 -115v-125q0 -96 -34 -149t-110 -74v62q39 20 55.5 48.5t20.5 84.5h-64v153h132z" glyph-name="scommaaccent" horiz-adv-x="919" unicode="ș"/><glyph d="M1118 1366v-113h-479v-1253h-129v1253h-481v113h1089zM645 -115v-125q0 -96 -33.5 -149t-109.5 -74v62q39 20 55 48.5t21 84.5h-64v153h131z" glyph-name="uni021A" horiz-adv-x="1146" unicode="Ț"/><glyph d="M479 985v-100h-205v-623q0 -102 24 -133t101 -31q27 0 80 6v-104q-66 -6 -108 -6q-147 0 -193 80q-25 45 -24 250v561h-172v100h172v303h120v-303h205zM358 -115v-125q0 -188 -145 -223v62q72 35 78 133h-64v153h131z" glyph-name="uni021B" horiz-adv-x="538" unicode="ț"/><glyph d="M510 1014q207 0 330 -139t123 -373t-126 -382.5t-325 -148.5q-127 0 -226.5 64.5t-153.5 178.5t-54 308h762q-4 188 -90 289.5t-244 101.5q-242 1 -301 -251h-117q35 170 144.5 261t277.5 91zM516 72q137 0 219 90t105 260h-639q8 -162 93 -256t222 -94z" glyph-name="uni0259" horiz-adv-x="1044" unicode="ə"/><glyph d="M307 1366v-154q0 -133 -41 -207.5t-129 -101.5v82q84 43 86 182h-73v199h157z" glyph-name="afii57929" horiz-adv-x="456" unicode="ʼ"/><glyph d="M776 1133h-119l-149 202l-154 -202h-106l203 272h120z" glyph-name="circumflex" unicode="ˆ"/><glyph d="M248 1405h119l149 -203l154 203h106l-203 -272h-120z" glyph-name="caron" unicode="ˇ"/><glyph d="M782 1315v-86h-538v86h538z" glyph-name="uni02C9" unicode="ˉ"/><glyph d="M510 1147q-106 0 -172 68.5t-74 185.5h74q31 -166 172 -166t178 166h74q-35 -254 -252 -254z" glyph-name="breve" unicode="˘"/><glyph d="M573 1368v-194h-122v194h122z" glyph-name="dotaccent" unicode="˙"/><glyph d="M514 1475q80 0 135.5 -56.5t55.5 -134.5t-56.5 -134t-135.5 -56t-135 56t-56 135t56 134.5t136 55.5zM513 1395q-46 0 -79 -33t-33 -79t33 -77.5t80 -31.5t79 31.5t32 77.5t-33 79t-79 33z" glyph-name="ring" unicode="˚"/><glyph d="M856 -184q0 -41 34 -66.5t79 -25.5t96 16v-72q-59 -20 -130 -20t-126 43t-55 110q-1 107 155 199h84q-137 -88 -137 -184z" glyph-name="ogonek" unicode="˛"/><glyph d="M633 1182q-33 0 -63 12t-88 44t-91 32q-59 0 -82 -96h-69q29 188 157 188q47 0 127 -44t111 -44q56 0 76 94h73q-35 -186 -151 -186z" glyph-name="tilde" unicode="˜"/><glyph d="M866 1405l-196 -272h-90l145 272h141zM606 1405l-196 -272h-91l148 272h139z" glyph-name="hungarumlaut" unicode="˝"/><glyph d="M307 608v-205h-157v205h157z" glyph-name="anoteleia" horiz-adv-x="456" unicode="·"/><glyph d="M516 559v-108h-455v108h455z" glyph-name="Wacute" horiz-adv-x="577" unicode="Ẃ"/><glyph d="M1761 1366l-379 -1366h-141l-276 963q-55 205 -70 280q-29 -117 -74 -276l-274 -967h-141l-377 1366h137l252 -948q51 -207 65 -283q14 80 68 285l270 946h150l276 -960q51 -194 64 -271q16 86 61 268l258 963h131zM1167 1700v-191h-129v191h129zM752 1700v-191h-129v191 h129z" glyph-name="Wdieresis" horiz-adv-x="1787" unicode="Ẅ"/><glyph glyph-name="uni2002" unicode=" "/><glyph glyph-name="uni2003" horiz-adv-x="2048" unicode=" "/><glyph glyph-name="uni2004" horiz-adv-x="681" unicode=" "/><glyph glyph-name="uni2005" horiz-adv-x="512" unicode=" "/><glyph glyph-name="uni2006" horiz-adv-x="137" unicode=" "/><glyph glyph-name="uni2007" horiz-adv-x="1120" unicode=" "/><glyph glyph-name="uni2009" horiz-adv-x="256" unicode=" "/><glyph glyph-name="uni200A" horiz-adv-x="67" unicode=" "/><glyph d="M455 559v-108h-455v108h455z" glyph-name="uni2011" horiz-adv-x="454" unicode="‑"/><glyph d="M989 559v-108h-860v108h860z" glyph-name="figuredash" horiz-adv-x="1120" unicode="‒"/><glyph d="M989 559v-108h-860v108h860z" glyph-name="endash" horiz-adv-x="1120" unicode="–"/><glyph d="M1366 559v-108h-1366v108h1366z" glyph-name="emdash" horiz-adv-x="1366" unicode="—"/><glyph d="M1366 559v-108h-1366v108h1366z" glyph-name="afii00208" horiz-adv-x="1366" unicode="―"/><glyph d="M0 -125h1024v-65h-1024v65zM0 -362h1024v-68h-1024v68z" glyph-name="underscoredbl" unicode="‗"/><glyph d="M150 922v155q0 133 40.5 207t128.5 102v-81q-84 -45 -86 -185h74v-198h-157z" glyph-name="quoteleft" horiz-adv-x="456" unicode="‘"/><glyph d="M307 1366v-154q0 -133 -41 -207.5t-129 -101.5v82q84 43 86 182h-73v199h157z" glyph-name="quoteright" horiz-adv-x="456" unicode="’"/><glyph d="M307 199v-156q0 -133 -41 -207t-129 -100v80q84 45 86 184h-73v199h157z" glyph-name="quotesinglbase" horiz-adv-x="456" unicode="‚"/><glyph d="M444 930v164q0 233 162 292v-77q-84 -53 -84 -187h72v-192h-150zM150 930v164q0 233 161 292v-77q-84 -53 -84 -187h72v-192h-149z" glyph-name="quotedblleft" horiz-adv-x="743" unicode="“"/><glyph d="M299 1366v-164q0 -231 -162 -293v78q84 53 84 187h-71v192h149zM594 1366v-164q0 -115 -43 -191.5t-121 -101.5v78q86 47 86 187h-72v192h150z" glyph-name="quotedblright" horiz-adv-x="743" unicode="”"/><glyph d="M299 193v-164q0 -231 -162 -293v78q84 53 84 186h-71v193h149zM594 193v-164q0 -115 -43 -192t-121 -101v78q86 47 86 186h-72v193h150z" glyph-name="quotedblbase" horiz-adv-x="743" unicode="„"/><glyph d="M999 944v-102h-387v-1209h-112v1209h-383v102h383v422h112v-422h387z" glyph-name="dagger" horiz-adv-x="1120" unicode="†"/><glyph d="M1001 961v-103h-387v-690h387v-102h-387v-433h-112v433h-383v102h383v690h-383v103h383v405h112v-405h387z" glyph-name="daggerdbl" horiz-adv-x="1120" unicode="‡"/><glyph d="M686 977q117 0 200 -84t83 -201t-83 -199.5t-200 -82.5t-201 82.5t-84 200.5t84 201t201 83z" glyph-name="bullet" horiz-adv-x="1366" unicode="•"/><glyph d="M307 205v-205h-157v205h157zM764 205v-205h-158v205h158zM1221 205v-205h-158v205h158z" glyph-name="ellipsis" horiz-adv-x="1372" unicode="…"/><glyph d="M1093 627q136 0 210.5 -83t74.5 -238t-72.5 -240.5t-211.5 -85.5t-213 81.5t-74 239.5t75 242t211 84zM1096 547q-184 0 -184 -244t180 -244q182 0 182 248q0 115 -46 177.5t-132 62.5zM1782 629q137 0 211.5 -83t74.5 -238t-74.5 -241.5t-212.5 -86.5t-212 81.5 t-74 239.5t75 243t212 85zM1784 549q-188 0 -189 -248q0 -117 48.5 -179.5t138.5 -62.5q180 0 180 246q0 119 -46 181.5t-132 62.5zM372 1358q136 0 210.5 -85t74.5 -236.5t-76.5 -239.5t-212.5 -88t-210 85t-74 240.5t76 239.5t212 84zM372 1278q-87 0 -135.5 -64.5 t-48.5 -185.5q0 -238 181 -237q88 0 136 62t48 180t-47 181.5t-134 63.5zM1155 1325l-749 -1325h-101l750 1325h100z" glyph-name="perthousand" horiz-adv-x="2152" unicode="‰"/><glyph d="M307 1366v-154q0 -133 -41 -207.5t-129 -101.5v82q84 43 86 182h-73v199h157z" glyph-name="minute" horiz-adv-x="456" unicode="′"/><glyph d="M299 1366v-164q0 -231 -162 -293v78q84 53 84 187h-71v192h149zM594 1366v-164q0 -115 -43 -191.5t-121 -101.5v78q86 47 86 187h-72v192h150z" glyph-name="second" horiz-adv-x="743" unicode="″"/><glyph d="M356 207l-256 239v117l256 240v-125l-180 -174l180 -172v-125z" glyph-name="guilsinglleft" horiz-adv-x="485" unicode="‹"/><glyph d="M129 803l256 -238v-116l-256 -242v125l180 174l-180 172v125z" glyph-name="guilsinglright" horiz-adv-x="485" unicode="›"/><glyph d="M256 1366v-362l-27 -629h-71l-27 626v365h125zM258 227v-227h-129v227h129zM653 1366v-362l-26 -629h-74l-27 626v365h127zM655 227v-227h-129v227h129z" glyph-name="exclamdbl" horiz-adv-x="784" unicode="‼"/><glyph d="M0 1737h1024v-84h-1024v84z" glyph-name="uni203E" unicode="‾"/><glyph d="M600 1341l-809 -1341h-92l813 1341h88z" glyph-name="fraction" horiz-adv-x="301" unicode="⁄"/><glyph d="M371 1360q291 0 292 -415t-296 -415t-297 415t301 415zM371 1284q-209 0 -209 -339t206 -339t206 339t-203 339z" glyph-name="uni2070" horiz-adv-x="729" unicode="⁰"/><glyph d="M655 813v-72h-125v-194h-84v194h-383v76l394 533h73v-537h125zM446 813v414l-301 -414h301z" glyph-name="uni2074" horiz-adv-x="729" unicode="⁴"/><glyph d="M608 1341v-75h-362l-51 -244q73 63 185 63t190.5 -77.5t78.5 -197.5t-83 -200t-211 -80t-204.5 71t-76.5 187h86q6 -88 58 -136t139 -48t144.5 57.5t57.5 146.5t-56.5 145.5t-158.5 56.5t-170 -92l-78 2l84 421h428z" glyph-name="uni2075" horiz-adv-x="729" unicode="⁵"/><glyph d="M383 1284q-102 0 -155.5 -78t-63.5 -248q82 115 213 115t208 -74.5t77 -193.5t-81 -198t-204 -79q-162 0 -240 125q-59 90 -59 286t80 308.5t229 112.5q109 0 175.5 -58.5t78.5 -164.5h-88q-23 147 -170 147zM375 997q-86 0 -141.5 -54t-55.5 -140t56.5 -143.5 t140.5 -57.5t139 55.5t55 142.5t-54 142t-140 55z" glyph-name="uni2076" horiz-adv-x="729" unicode="⁶"/><glyph d="M653 1341v-73q-305 -297 -338 -721h-94q8 182 101.5 380.5t234.5 334.5h-453v79h549z" glyph-name="uni2077" horiz-adv-x="727" unicode="⁷"/><glyph d="M102 1149q0 94 72 152.5t188.5 58.5t187.5 -56.5t71 -150.5q0 -123 -119 -174q152 -49 151 -199q0 -117 -78.5 -184.5t-212.5 -67.5t-213 67t-79 179q-1 152 149 205q-117 53 -117 170zM362.5 1284q-79.5 0 -126 -37t-46.5 -99t47.5 -99t125 -37t123.5 35.5t46 99 t-45 100.5t-124.5 37zM359 942q-91 0 -145 -45t-54 -123t55 -125t146 -47t145.5 47t54.5 125t-55.5 123t-146.5 45z" glyph-name="uni2078" horiz-adv-x="727" unicode="⁸"/><glyph d="M350 604q207 0 213 332q-68 -123 -223 -123q-119 0 -195.5 76.5t-76.5 194.5t79.5 197t204.5 79q299 0 299 -393q0 -213 -77.5 -325t-225.5 -112q-111 0 -181.5 60t-78.5 160h86q8 -68 56.5 -107t119.5 -39zM352 1284q-84 0 -138 -55t-54 -143t53 -142.5t139 -54.5 t140.5 54t54.5 140t-55.5 143.5t-139.5 57.5z" glyph-name="uni2079" horiz-adv-x="729" unicode="⁹"/><glyph d="M371 813q291 0 292 -415t-296 -414.5t-297 403.5q0 426 301 426zM371 737q-209 0 -209 -339t206 -339t206 339t-203 339z" glyph-name="uni2080" horiz-adv-x="729" unicode="₀"/><glyph d="M467 803v-803h-92v588h-215v67q133 4 174 29t61 119h72z" glyph-name="uni2081" horiz-adv-x="729" unicode="₁"/><glyph d="M639 78v-78h-563q8 111 61 179.5t205 158.5q119 76 161 126t42 119t-48 111.5t-128 42.5q-178 0 -185 -219h-88v19q0 127 74 201.5t199 74.5t195.5 -62.5t70.5 -161.5t-56.5 -166t-183.5 -145t-166 -115.5t-53 -84.5h463z" glyph-name="uni2082" horiz-adv-x="729" unicode="₂"/><glyph d="M147 268v-20q2 -86 58.5 -138.5t145.5 -52.5t146.5 48.5t57.5 121.5q0 160 -209 160h-51v74q29 -2 41 -2q188 0 188 139q0 63 -46 101t-124 38q-182 1 -188 -198h-86q10 272 278 272q115 0 185.5 -58.5t70.5 -152.5q0 -121 -118 -170q150 -45 149 -194q0 -113 -81 -182.5 t-218 -69.5t-212 72.5t-73 211.5h86z" glyph-name="uni2083" horiz-adv-x="729" unicode="₃"/><glyph d="M655 266v-71h-125v-195h-84v195h-383v75l394 533h73v-537h125zM446 266v414l-301 -414h301z" glyph-name="uni2084" horiz-adv-x="729" unicode="₄"/><glyph d="M608 795v-76h-362l-51 -242q73 63 185 63t190.5 -77.5t78.5 -198.5t-83 -200.5t-211 -79.5t-204.5 70.5t-76.5 187.5h86q6 -88 57 -137.5t139 -49.5t145.5 58.5t57.5 147.5t-56.5 146.5t-158.5 57.5t-170 -94l-78 4l84 420h428z" glyph-name="uni2085" horiz-adv-x="729" unicode="₅"/><glyph d="M383 737q-102 0 -155.5 -77.5t-63.5 -245.5q84 114 214 114t207 -74.5t77 -193.5t-81 -197.5t-204 -78.5q-162 0 -240 125q-59 89 -59 285t80 307.5t229 111.5q111 0 176.5 -57.5t77.5 -163.5h-88q-10 70 -55 107.5t-115 37.5zM375 453q-86 0 -141.5 -54.5t-55.5 -140.5 t56.5 -143.5t140.5 -57.5t139 55.5t55 142.5t-54 142.5t-140 55.5z" glyph-name="uni2086" horiz-adv-x="729" unicode="₆"/><glyph d="M653 795v-74q-147 -141 -234 -329.5t-104 -391.5h-94q8 182 101.5 381t234.5 334h-453v80h549z" glyph-name="uni2087" horiz-adv-x="727" unicode="₇"/><glyph d="M102 604q0 94 72 151.5t188.5 57.5t187.5 -56.5t71 -148.5q0 -123 -119 -174q152 -49 151 -198q0 -117 -78.5 -184.5t-212.5 -67.5t-213 66.5t-79 178.5q-1 152 149 205q-117 51 -117 170zM362.5 737q-79.5 0 -126 -36.5t-46.5 -98.5t47.5 -99.5t125 -37.5t123.5 36 t46 99.5t-45 100t-124.5 36.5zM359 395q-91 0 -145 -45t-54 -122t55 -124t146 -47t145.5 47.5t54.5 123.5t-55.5 121.5t-146.5 45.5z" glyph-name="uni2088" horiz-adv-x="727" unicode="₈"/><glyph d="M350 57q207 0 213 332q-70 -123 -223 -123q-119 0 -195.5 76t-76.5 195t79.5 196.5t204.5 77.5q184 0 258 -156q41 -88 41 -235q0 -213 -77.5 -324.5t-225.5 -111.5q-111 0 -181.5 59.5t-78.5 159.5h86q8 -68 56.5 -107t119.5 -39zM353 735q-85 0 -139 -55t-54 -141 t54 -141.5t139 -55.5t139.5 54.5t54.5 140.5t-54.5 142t-139.5 56z" glyph-name="uni2089" horiz-adv-x="729" unicode="₉"/><glyph d="M889 1325v-108h-602v-494h438v-109h-438v-614h-121v1325h723zM1223 627h-29q-141 0 -227 -99q-45 -53 -61.5 -121.5t-16.5 -207.5v-199h-107v723h103v-213q82 233 338 227v-110z" glyph-name="franc" horiz-adv-x="1214" unicode="₣"/><glyph d="M686 829v-88h-334l6 -14q63 -113 80 -156h248v-88h-231q2 -20 2 -43q0 -160 -183 -327q-2 -2 -7 -8.5t-10 -10.5t-9 -8q122 61 192 61t106 -8.5t120 -36.5t133 -28q121 0 221 100l61 -92q-115 -119 -282 -119q-51 0 -86 8.5t-135 44.5t-184 35q-82 0 -201 -82l-68 101 q215 170 215 356q0 31 -4 57h-205v88h180q-18 37 -92 170h-88v88h45q-33 82 -33 162q0 162 122 265.5t327 103.5t320.5 -118t115.5 -335h-119q-2 168 -88 258t-232 90t-233.5 -74.5t-87.5 -193.5q0 -72 37 -158h381z" glyph-name="lira" horiz-adv-x="1120" unicode="₤"/><glyph d="M166 1325h391q203 0 307 -68q154 -106 154 -320t-150 -321q-104 -76 -297 -75h-284v-541h-121v1325zM287 1217v-568h254q160 0 235 47q121 80 121 241t-117 232q-74 47 -245 48h-248zM1272 596v-72h-127v-362q0 -57 12 -73.5t57 -16.5l58 4v-74q-47 -6 -74 -6 q-94 0 -125 51q-16 27 -16 152v325h-107v72h107v176h88v-176h127zM1436 203q8 -150 167 -150q79 0 122.5 30t43.5 74t-34.5 66.5t-144.5 46.5t-150 45q-74 39 -74 120t62.5 128t166.5 47q230 1 242 -198h-86q-8 68 -45.5 97.5t-107.5 29.5t-107 -25t-37 -66t32 -60t144 -44 t160 -55q68 -41 68 -123t-69 -133t-187 -51t-184 57t-68 164h86z" glyph-name="peseta" horiz-adv-x="1914" unicode="₧"/><glyph d="M678 1255q-299 0 -369 -424h590l-33 -81h-567q-4 -39 -4 -101v-51l2 -10h500l-33 -82h-461q29 -211 126 -321.5t255 -110.5q78 0 145.5 22.5t190.5 89.5v-123q-158 -92 -348 -92q-416 0 -486 535h-166l33 82h127v47q0 63 4 104v11h-164l33 81h140q88 522 487 523 q225 0 393 -133l-45 -101q-115 78 -190.5 106.5t-159.5 28.5z" glyph-name="Euro" horiz-adv-x="1120" unicode="€"/><glyph d="M1346 1366l-611 -1366h-88l610 1366h89zM494 1368l344 -821h-105l-102 252h-379l-105 -252h-100l348 821h99zM600 874l-119 289l-39 107q-2 -8 -17 -46t-22 -57l-120 -293h317zM1292 618q0 -64 43 -93t197 -62t203 -62q109 -59 109 -173t-88 -180t-244 -66t-248.5 75.5 t-92.5 208.5v15h93q6 -219 260 -220q106 0 166.5 42t60.5 121t-94 118q-37 14 -183 47t-198 68q-76 47 -76 152t81 167t224 62t225.5 -69t86.5 -196h-93q-16 187 -220 187q-102 0 -157 -39t-55 -103z" glyph-name="uni2101" horiz-adv-x="1964" unicode="℁"/><glyph d="M281 772q45 0 76.5 -31.5t31.5 -77t-31.5 -78t-77.5 -32.5t-78 32.5t-32 78t33 77t78 31.5z" glyph-name="afii61248" horiz-adv-x="559" unicode="℅"/><glyph d="M616 211q25 0 25 -29t-35 -92q-72 -123 -168 -123q-63 0 -99 43.5t-36 113.5t25 294q-35 -39 -72 -67.5t-46 -28.5t-16.5 9t-7.5 24t43 51q55 51 115 116q86 451 181.5 657.5t215.5 206.5q55 0 88 -44t33 -115q0 -172 -123 -383q-77 -127 -241 -297q-63 -340 -64 -432 q0 -53 39 -54q29 0 53 26t48 75t42 49zM793 1231q0 82 -54 82q-63 0 -110 -139.5t-113 -524.5q129 139 203 295t74 287z" glyph-name="afii61289" unicode="ℓ"/><glyph d="M188 1366v-127h-88v127h88zM188 1141v-594h-88v594h88z" glyph-name="uni2117" horiz-adv-x="286" unicode="℗"/><glyph d="M678 1366v-76h-285v-702h-90v702h-283v76h658zM1534 1366v-778h-88v469q0 94 6 192q-33 -82 -37 -94l-239 -567h-78l-244 561q-20 51 -37 96q6 -143 6 -186v-471h-88v778h117l235 -549q33 -80 50 -127q31 93 47 125l231 551h119z" glyph-name="trademark" horiz-adv-x="1669" unicode="™"/><glyph d="M57 0v109h396q-397 227 -398 632q0 276 181.5 467t445.5 191t445.5 -190.5t181.5 -467.5q0 -403 -398 -632h396v-109h-529v102q406 225 406 623q0 238 -144.5 401.5t-356.5 163.5t-357.5 -163.5t-145.5 -401.5q0 -287 213 -487q72 -68 193 -136v-102h-529z" glyph-name="uni2126" horiz-adv-x="1363" unicode="Ω"/><glyph d="M469 1350v-803h-92v588h-217v67q135 4 176 28.5t61 119.5h72zM1329 1341l-809 -1341h-92l813 1341h88zM1178 268v-20q2 -86 58 -138.5t145 -52.5t146.5 48.5t57.5 121.5q0 160 -209 160h-51v74q29 -2 41 -2q188 0 188 139q0 63 -46 101t-124 38q-182 1 -188 -198h-86 q10 272 279 272q115 0 185.5 -58.5t70.5 -152.5q0 -121 -119 -170q150 -45 149 -194q0 -113 -81 -182.5t-218 -69.5t-211.5 72.5t-72.5 211.5h86z" glyph-name="onethird" horiz-adv-x="1757" unicode="⅓"/><glyph d="M639 625v-78h-563q8 113 61 180.5t205 157.5q121 76 162 124.5t41 118.5t-48 113t-128 43q-178 0 -185 -221h-88v18q0 127 75 202t198 75t194.5 -64t71.5 -162t-56.5 -165t-183.5 -143t-166 -114t-53 -85h463zM1329 1341l-811 -1341h-90l811 1341h90zM1178 268v-20 q2 -86 58 -138.5t145 -52.5t146.5 48.5t57.5 121.5q0 160 -209 160h-51v74q29 -2 41 -2q188 0 188 139q0 63 -46 101t-124 38q-182 1 -188 -198h-86q10 272 279 272q115 0 185.5 -58.5t70.5 -152.5q0 -121 -119 -170q150 -45 149 -194q0 -113 -81 -182.5t-218 -69.5 t-211.5 72.5t-72.5 211.5h86z" glyph-name="twothirds" horiz-adv-x="1757" unicode="⅔"/><glyph d="M469 1350v-803h-92v588h-217v67q135 4 176 28.5t61 119.5h72zM1329 1341l-809 -1341h-92l813 1341h88zM1392.5 813q116.5 0 187.5 -56.5t71 -148.5q0 -123 -119 -174q152 -49 151 -198q0 -117 -78.5 -184.5t-212.5 -67.5t-213 66.5t-79 178.5q-1 152 149 205 q-117 51 -116 170q0 94 71.5 151.5t188 57.5zM1393 737q-80 0 -126 -36.5t-46 -98.5t47 -99.5t124.5 -37.5t124 36t46.5 99.5t-45 100t-125 36.5zM1390 395q-91 0 -145.5 -45t-54.5 -122t55 -124t147 -47t145.5 47.5t53.5 123.5t-55 121.5t-146 45.5z" glyph-name="oneeighth" horiz-adv-x="1757" unicode="⅛"/><glyph d="M147 813v-20q2 -86 58.5 -138.5t145.5 -52.5t146.5 48t57.5 122q0 160 -213 160h-47v74q18 -2 41 -2q188 0 188 139q0 63 -46 102t-124 39q-182 0 -188 -201h-86q10 274 278 275q115 0 185.5 -58.5t70.5 -154.5q0 -121 -118 -170q150 -41 149 -195q0 -113 -81 -182.5 t-218 -69.5t-212 73t-73 212h86zM1329 1341l-811 -1341h-90l811 1341h90zM1390.5 813q116.5 0 187.5 -56.5t71 -148.5q0 -123 -117 -174q152 -49 151 -198q0 -117 -78.5 -184.5t-212.5 -67.5t-213 66.5t-79 178.5q-1 152 149 205q-117 51 -116 170q0 94 70.5 151.5t187 57.5 zM1392 737q-79 0 -125 -36.5t-46 -98.5t46 -99.5t123.5 -37.5t124 36t46.5 99.5t-45 100t-124 36.5zM1390 395q-91 0 -145.5 -45t-54.5 -122t55 -124t147 -47t145.5 47.5t53.5 123.5t-55 121.5t-146 45.5z" glyph-name="threeeighths" horiz-adv-x="1757" unicode="⅜"/><glyph d="M608 1341v-75h-362l-51 -244q73 63 185 63t190.5 -77.5t78.5 -197.5t-83 -200t-211 -80t-204.5 71t-76.5 187h86q6 -88 58 -136t139 -48t144.5 57.5t57.5 146.5t-56.5 145.5t-158.5 56.5t-170 -92l-78 2l84 421h428zM1329 1341l-811 -1341h-90l811 1341h90zM1390.5 813 q116.5 0 187.5 -56.5t71 -148.5q0 -123 -117 -174q152 -49 151 -198q0 -117 -78.5 -184.5t-212.5 -67.5t-213 66.5t-79 178.5q-1 152 149 205q-117 51 -116 170q0 94 70.5 151.5t187 57.5zM1392 737q-79 0 -125 -36.5t-46 -98.5t46 -99.5t123.5 -37.5t124 36t46.5 99.5 t-45 100t-124 36.5zM1390 395q-91 0 -145.5 -45t-54.5 -122t55 -124t147 -47t145.5 47.5t53.5 123.5t-55 121.5t-146 45.5z" glyph-name="fiveeighths" horiz-adv-x="1757" unicode="⅝"/><glyph d="M653 1341v-73q-305 -297 -338 -721h-94q8 182 101.5 380.5t234.5 334.5h-453v79h549zM1329 1341l-811 -1341h-90l811 1341h90zM1390.5 813q116.5 0 187.5 -56.5t71 -148.5q0 -123 -117 -174q152 -49 151 -198q0 -117 -78.5 -184.5t-212.5 -67.5t-213 66.5t-79 178.5 q0 152 147 205q-115 51 -114 170q0 94 70.5 151.5t187 57.5zM1392 737q-79 0 -125 -36.5t-46 -98.5t46 -99.5t123.5 -37.5t124 36t46.5 99.5t-45 100t-124 36.5zM1390 395q-91 0 -145.5 -45t-54.5 -122t55 -124t147 -47t145.5 47.5t53.5 123.5t-55 121.5t-146 45.5z" glyph-name="seveneighths" horiz-adv-x="1757" unicode="⅞"/><glyph d="M1337 743v-104h-1024q33 -39 70 -114.5t37 -98.5q0 -29 -29 -29q-18 0 -47 35q-94 111 -270 213q-47 27 -47 44t32 38q125 74 177.5 116t119.5 122q16 18 33 18q31 0 31 -31q0 -57 -107 -209h1024z" glyph-name="arrowleft" horiz-adv-x="1366" unicode="←"/><glyph d="M739 27h-108v1024q-39 -33 -114 -70t-97 -37q-29 0 -29 31q0 16 35 47q113 96 211 270q27 47 45 47t39 -32q14 -25 16 -27l19 -33q90 -145 202 -239q18 -16 19 -33q0 -31 -31 -31q-59 0 -207 107v-1024z" glyph-name="arrowup" horiz-adv-x="1370" unicode="↑"/><glyph d="M27 635v104h1024q-33 45 -70 119t-37 96q0 29 31 29q16 0 47 -35q92 -113 268 -213q47 -25 47 -43t-32 -37q-129 -80 -180.5 -119.5t-116.5 -117.5q-16 -20 -33 -21q-31 0 -31 31q0 55 107 207h-1024z" glyph-name="arrowright" horiz-adv-x="1366" unicode="→"/><glyph d="M627 1337h108v-1024q39 33 115 70t98 37q29 0 29 -31q0 -16 -35 -45q-109 -92 -213 -270q-25 -47 -44 -47t-38 32q-2 2 -6.5 12t-10.5 18q-7 9 -40 63q-62 103 -180 204q-20 16 -21 33q0 31 31 31q61 0 207 -107v1024z" glyph-name="arrowdown" horiz-adv-x="1366" unicode="↓"/><glyph d="M420 428q0 -31 -31 -31q-14 1 -60 53t-102.5 96t-179.5 118q-20 12 -20 30.5t47 40.5q174 100 270 213q29 35 45 35q31 0 31 -27t-37 -98.5t-72 -118.5h740q-33 45 -70 119t-37 96q0 29 31 29q14 0 47 -35q94 -113 268 -213q47 -23 47 -42t-32 -38 q-127 -78 -179.5 -118.5t-117.5 -118.5q-16 -20 -33 -21q-31 0 -31 31q1 62 107 207h-740q45 -59 77 -120.5t32 -86.5z" glyph-name="arrowboth" horiz-adv-x="1366" unicode="↔"/><glyph d="M944 420q31 0 31 -31q0 -12 -5 -18t-34 -31q-90 -79 -147 -166.5t-70 -114.5q-23 -33 -41.5 -32.5t-42.5 47.5q-102 176 -213 270q-35 29 -35 45q0 31 29 31q23 0 98.5 -38t114.5 -71v740q-41 -31 -116 -69t-97 -38q-29 0 -29 31q0 12 8 21.5t56 50.5q92 86 184 245 q27 47 45 47t34 -26t25 -43q10 -17 39 -64q63 -103 178 -198q18 -16 19 -33q0 -31 -31 -31q-60 1 -207 107v-740q145 109 207 109z" glyph-name="arrowupdn" horiz-adv-x="1366" unicode="↕"/><glyph d="M942 420q31 0 31 -31q0 -12 -4 -18t-33 -31q-96 -84 -178 -221q-14 -18 -24 -36t-21 -37t-29 -19t-47 47q-100 176 -211 270q-35 31 -35 45q0 31 29 31q23 0 96.5 -38t114.5 -71v740q-41 -31 -116 -69t-97 -38q-29 0 -29 31q0 12 8.5 21.5t76.5 71.5t163 224q27 47 45 47 t33 -23t54 -90q40 -67 79 -114t106 -104q18 -16 19 -33q0 -31 -31 -31q-56 1 -203 107v-740q141 109 203 109zM412 -131h540v-96h-540v96z" glyph-name="arrowupdnbse" horiz-adv-x="1366" unicode="↨"/><glyph d="M952 488q0 -196 -68 -302q-136 -212 -368 -211q-184 0 -313 134.5t-129 325.5t124 324.5t302 133.5q139 0 229 -70q27 -23 88 -100q-10 27 -23 57t-42 109q-74 158 -222.5 260t-341.5 127l15 100q164 -23 275.5 -73.5t223.5 -156.5t181 -284t69 -374zM512 797 q-129 0 -227.5 -104.5t-98.5 -254.5t97.5 -256t234.5 -106t229.5 105t92.5 275t-111 265q-88 76 -217 76z" glyph-name="partialdiff" unicode="∂"/><glyph d="M1163 682q0 -195 -136 -337t-325 -142q-61 0 -167 22l-125 -248l-131 70l122 244q-115 104 -156.5 187t-41.5 202q0 195 136 337t325 142q53 0 161 -20l127 254l135 -68l-124 -252q115 -104 157.5 -187t42.5 -204zM694 350q131 0 225.5 97.5t94.5 232.5q0 80 -24.5 134 t-94.5 126l-293 -582q74 -8 92 -8zM350 680q0 -78 24.5 -131t94.5 -123l289 575q-47 8 -86 9q-133 0 -227.5 -96.5t-94.5 -233.5z" glyph-name="emptyset" horiz-adv-x="1366" unicode="∅"/><glyph d="M12 0l555 1366h127l555 -1366h-1237zM174 109h913l-456 1124z" glyph-name="uni2206" horiz-adv-x="1261" unicode="∆"/><glyph d="M59 1536h1248v-102h-152v-1844h152v-102h-426v102h161v1844h-716v-1844h157v-102h-424v102h154v1844h-154v102z" glyph-name="product" horiz-adv-x="1366" unicode="∏"/><glyph d="M1210 1536v-457h-112l-11 342h-882l514 -868l-512 -952h899l6 342h119v-455h-1161v131l503 934l-503 856v127h1140z" glyph-name="summation" horiz-adv-x="1366" unicode="∑"/><glyph d="M100 707h916v-89h-916v89z" glyph-name="minus" horiz-adv-x="1120" unicode="−"/><glyph d="M515 983q118 0 199 -84t81 -202.5t-82 -202.5t-199 -84t-200 84t-83 202.5t83 202.5t201 84zM514 887q-78 0 -132 -55.5t-54 -134.5t55 -135t131 -56t130 56t54 134t-53 134.5t-131 56.5z" glyph-name="uni2218" unicode="∘"/><glyph d="M1366 1694v-105h-408l-483 -1589h-129l-186 621h-160v104h233l95 -303q39 -131 73 -275h7q10 45 26 99t60 213q74 252 133 440l241 795h498z" glyph-name="radical" horiz-adv-x="1366" unicode="√"/><glyph d="M320 391q-116 0 -198.5 86t-82.5 220t85 219t216 85q186 0 340 -239q86 129 166 184t196 55t199.5 -86t83.5 -220t-82.5 -219t-198.5 -85t-197 56.5t-163 183.5q-84 -127 -166 -183.5t-198 -56.5zM1026 475q86 0 144.5 62.5t58.5 159t-59.5 159t-145.5 62.5t-149.5 -49.5 t-145.5 -172.5q78 -121 144.5 -171t152.5 -50zM338 918q-86 0 -144.5 -62.5t-58.5 -159t59.5 -159t145.5 -62.5t149.5 49t145.5 172q-74 117 -142.5 169.5t-154.5 52.5z" glyph-name="infinity" horiz-adv-x="1366" unicode="∞"/><glyph d="M47 963h608v-89h-608v89z" glyph-name="orthogonal" horiz-adv-x="704" unicode="∟"/><glyph d="M1032 0h-123v657q0 207 -12 294t-54 152t-123 108.5t-173 43.5t-177 -49t-131 -137t-46 -412v-657h-123v651q0 254 15 347.5t71 168.5q139 199 395 199q133 0 242.5 -61.5t175.5 -169.5q39 -70 51 -160t12 -324v-651z" glyph-name="intersection" horiz-adv-x="1103" unicode="∩"/><glyph d="M70 1366h123v-657q0 -207 12 -294t54 -152t123 -108.5t173 -43.5t177 49t131 137t46 412v657h123v-651q0 -256 -15.5 -347.5t-70.5 -168.5q-139 -199 -395 -199q-133 0 -242.5 61.5t-175.5 169.5q-39 70 -51 160t-12 324v651z" glyph-name="union" horiz-adv-x="1103" unicode="∪"/><glyph d="M334 -397q82 0 104 69q8 27 11 176v1307q2 147 6.5 219.5t74.5 117t138 44.5t133 -23l-29 -114q-41 20 -80 20q-82 0 -104 -69q-10 -29 -10 -144v-1335q0 -147 -10.5 -228.5t-123.5 -130t-219 -1.5l29 112q41 -20 80 -20z" glyph-name="integral" unicode="∫"/><glyph d="M334 -395q84 0 106 69q10 31 11 146v375q-119 14 -201 111t-82 222t78 216.5t205 113.5v354q0 158 30 220q55 104 193 104q55 0 123 -23l-29 -114q-43 20 -84 20q-86 0 -104 -69q-10 -29 -11 -138v-354q131 -20 210 -110.5t79 -219.5t-82 -223t-207 -110v-379 q0 -109 -5 -148t-23 -74q-57 -106 -207 -106q-60 0 -113 23l29 112q47 -18 84 -18zM788 526.5q0 100.5 -61.5 175.5t-157.5 89v-527q98 16 158.5 89t60.5 173.5zM238 530q0 -100 61.5 -176t151.5 -90v527q-92 -16 -152.5 -88.5t-60.5 -172.5z" glyph-name="uni222E" unicode="∮"/><glyph d="M280 1049q42 0 72.5 -31t30.5 -73t-30.5 -72.5t-72.5 -30.5t-73 30.5t-31 73.5t31 73t73 30zM280 481q42 0 72.5 -30.5t30.5 -72.5t-30.5 -73t-72.5 -31t-73 31t-31 74t31 72.5t73 29.5z" glyph-name="uni2236" horiz-adv-x="559" unicode="∶"/><glyph d="M295 819q76 0 227 -77q152 -76 210 -76t103.5 35.5t94.5 121.5l71 -55q-102 -219 -276 -219q-45 0 -91 16.5t-164 77.5t-177 61t-104.5 -36.5t-94.5 -122.5l-71 55q109 219 272 219z" glyph-name="similar" unicode="∼"/><glyph d="M295 981q78 0 228 -78q151 -78 209 -78t100 32t98 120l71 -47q-102 -219 -282 -219q-45 0 -89 17.5t-161 77.5t-176 60t-102.5 -34.5t-96.5 -120.5l-71 49q104 221 272 221zM1001 600v-100h-978v100h978z" glyph-name="uni2243" unicode="≃"/><glyph d="M295 981q78 0 228 -78q151 -78 209 -78t100 32t98 120l71 -47q-102 -219 -282 -219q-45 0 -89 17.5t-161 77.5t-176 60t-102.5 -34.5t-96.5 -120.5l-71 49q104 221 272 221zM295 651q80 0 228 -77t208 -76.5t103 33t96 118.5l71 -49q-102 -217 -282 -217q-43 0 -89 17.5 t-163 76.5t-175 59t-101.5 -34.5t-96.5 -118.5l-71 49q104 219 272 219z" glyph-name="approxequal" unicode="≈"/><glyph d="M956 883v-107h-333l-101 -213h434v-106h-477l-125 -258l-92 34l107 224h-301v106h344l102 213h-446v107h493l121 247l92 -32l-104 -215h286z" glyph-name="notequal" unicode="≠"/><glyph d="M68 1059h886v-113h-886v113zM68 739h886v-112h-886v112zM68 420h886v-113h-886v113z" glyph-name="equivalence" unicode="≡"/><glyph d="M954 1196v-123l-745 -301l745 -299v-123l-886 367v112zM954 289v-113h-886v113h886z" glyph-name="lessequal" unicode="≤"/><glyph d="M68 350v123l745 299l-745 301v123l886 -367v-112zM68 176v113h886v-113h-886z" glyph-name="greaterequal" unicode="≥"/><glyph d="M307 608v-205h-157v205h157z" glyph-name="dotmath" horiz-adv-x="456" unicode="⋅"/><glyph d="M172 0v819l598 674l600 -674v-819h-1198zM281 104h981v672l-492 553l-489 -553v-672z" glyph-name="house" horiz-adv-x="1542" unicode="⌂"/><glyph d="M193 0h-125v561h886v-112h-761v-449z" glyph-name="revlogicalnot" unicode="⌐"/><glyph d="M193 563v-450h761v-113h-886v563h125z" glyph-name="uni2319" unicode="⌙"/><glyph d="M575 -512h-129v1667q2 147 8 220t75 117t137 44t133 -23l-29 -114q-41 20 -80 20q-82 0 -104 -69q-10 -29 -11 -144v-1718z" glyph-name="integraltp" unicode="⌠"/><glyph d="M449 1536h129v-1667q-2 -195 -18 -251t-75 -93t-127 -37t-133 23l29 112q43 -18 80 -18q82 0 104 69q10 29 11 144v1718z" glyph-name="integralbt" unicode="⌡"/><glyph d="M1366 0h-1366v1366h1366v-1366z" glyph-name="filledbox" horiz-adv-x="1366" unicode="■"/><glyph d="M1366 0h-1366v1366h1366v-1366zM1270 96v1174h-1174v-1174h1174z" glyph-name="H22073" horiz-adv-x="1366" unicode="□"/><glyph d="M47 963h256v251h94v-251h260v-89h-260v-249h-94v249h-256v89z" glyph-name="H18551" horiz-adv-x="704" unicode="▫"/><glyph d="M1366 682v-682h-1366v682h1366z" glyph-name="filledrect" horiz-adv-x="1366" unicode="▬"/><glyph d="M1024 0h-682v1366h682v-1366z" glyph-name="uni25AE" horiz-adv-x="1366" unicode="▮"/><glyph d="M683 1206q220 0 375.5 -152.5t155.5 -369.5t-156.5 -371.5t-377.5 -154.5t-375.5 154.5t-154.5 371.5t156.5 369.5t376.5 152.5z" glyph-name="uni25AF" horiz-adv-x="1366" unicode="▯"/><glyph d="M1296 137h-1228l614 1149z" glyph-name="triagup" horiz-adv-x="1366" unicode="▲"/><glyph d="M1296 137h-1228l614 1149zM188 207h988l-494 923z" glyph-name="uni25B3" horiz-adv-x="1366" unicode="△"/><glyph d="M954 301h-886l444 829z" glyph-name="uni25B4" unicode="▴"/><glyph d="M18 299l443 829l444 -829h-887zM819 350l-358 668l-355 -668h713z" glyph-name="uni25B5" unicode="▵"/><glyph d="M145 244v886l830 -444z" glyph-name="uni25B8" unicode="▸"/><glyph d="M145 1130l830 -442l-830 -444v886zM197 330l665 358l-665 354v-712z" glyph-name="uni25B9" unicode="▹"/><glyph d="M1303 690l-1160 -409v819z" glyph-name="triagrt" horiz-adv-x="1366" unicode="►"/><glyph d="M68 1229h1228l-614 -1149z" glyph-name="triagdn" horiz-adv-x="1366" unicode="▼"/><glyph d="M68 1065h886l-442 -829z" glyph-name="uni25BE" unicode="▾"/><glyph d="M18 1067h887l-444 -829zM819 1016h-713l355 -668z" glyph-name="uni25BF" unicode="▿"/><glyph d="M877 1130v-886l-830 442z" glyph-name="uni25C2" unicode="◂"/><glyph d="M877 1130v-886l-830 444zM825 330v712l-667 -354z" glyph-name="uni25C3" unicode="◃"/><glyph d="M63 690l1160 410v-819z" glyph-name="triaglf" horiz-adv-x="1366" unicode="◄"/><glyph d="M684 1419l530 -735l-530 -737l-532 737zM684 1165l-352 -481l352 -483l350 483z" glyph-name="lozenge" horiz-adv-x="1366" unicode="◊"/><glyph d="M683 1206q220 0 375.5 -152.5t155.5 -369.5t-156.5 -371.5t-377.5 -154.5t-375.5 154.5t-154.5 371.5t156.5 369.5t376.5 152.5zM683 1110q-179 0 -308 -124t-129 -302t127 -304t308 -126t309 126t128 303t-128 302t-307 125z" glyph-name="circle" horiz-adv-x="1366" unicode="○"/><glyph d="M684 1206q221 0 377 -154.5t156 -370.5t-158 -369.5t-377 -153.5t-375.5 153.5t-156.5 369.5t156.5 370.5t377.5 154.5z" glyph-name="H18533" horiz-adv-x="1366" unicode="●"/><glyph d="M0 0v1366h1366v-1366h-1366zM684 971q-117 0 -200 -84t-83 -204t83 -204t200 -84t199 84t82 203t-82 204t-199 85z" glyph-name="invbullet" horiz-adv-x="1366" unicode="◘"/><glyph d="M684 1112q180 0 308 -126t128 -303t-128 -304t-310 -127t-309 127t-127 305t129 303t309 125zM1366 0h-1366v1366h1366v-1366zM684 1208q-219 0 -376.5 -151.5t-157.5 -370.5t154.5 -373.5t376.5 -154.5t379 154.5t157 371.5t-157 370.5t-376 153.5z" glyph-name="invcircle" horiz-adv-x="1366" unicode="◙"/><glyph d="M515 983q118 0 199 -84t81 -202.5t-82 -202.5t-199 -84t-200 84t-83 202.5t83 202.5t201 84zM514 887q-78 0 -132 -55.5t-54 -134.5t55 -135t131 -56t130 56t54 134t-53 134.5t-131 56.5z" glyph-name="openbullet" unicode="◦"/><glyph d="M1536 969l-453 -330l174 -533l-454 330l-455 -330l174 533l-454 330h561l174 534l174 -534h559z" glyph-name="uni2605" horiz-adv-x="1605" unicode="★"/><glyph d="M492 954q37 0 63.5 -26.5t26.5 -63.5t-27 -63.5t-63.5 -26.5t-63.5 26.5t-27 64.5t27 63.5t64 25.5zM889 952q37 0 63.5 -26.5t26.5 -63.5t-26.5 -63.5t-63.5 -26.5t-63.5 26.5t-26.5 64.5t26.5 63.5t63.5 25.5zM674 289q-215 0 -326 170q-41 59 -58.5 122.5t-27.5 180.5 q27 -113 86 -180q125 -144 335 -144t339 144q57 67 84 180q-8 -123 -30.5 -194.5t-71.5 -135.5q-115 -143 -330 -143zM687 1331q267 0 455.5 -191.5t188.5 -457.5t-189.5 -456.5t-458.5 -190.5t-458.5 190.5t-189.5 460.5t192.5 457.5t459.5 187.5zM678 1245 q-242 0 -410 -186q-145 -161 -145 -385t164 -388.5t397 -164.5t398 165t165 396t-163.5 397t-405.5 166z" glyph-name="smileface" horiz-adv-x="1366" unicode="☺"/><glyph d="M687 1331q267 0 455.5 -191.5t188.5 -458.5t-190.5 -456.5t-458.5 -189.5t-457.5 190.5t-189.5 460.5t192.5 457.5t459.5 187.5zM492 952q-37 0 -64 -25.5t-27 -62.5t27 -63.5t63.5 -26.5t63.5 25.5t27 62.5t-26.5 63.5t-63.5 26.5zM889 952q-37 0 -63.5 -25.5 t-26.5 -63.5t25.5 -64.5t63.5 -26.5t63.5 26.5t25.5 63.5t-25.5 63.5t-62.5 26.5zM694 291q214 0 328 168q41 59 58.5 124.5t25.5 178.5q-27 -113 -84 -182q-129 -144 -339 -144t-335 144q-61 72 -86 182q10 -125 31.5 -195.5t73.5 -134.5q113 -141 327 -141z" glyph-name="invsmileface" horiz-adv-x="1366" unicode="☻"/><glyph d="M631 1352h102v-215q135 -16 234 -99l151 154l72 -72l-152 -153q78 -94 97 -232h215v-104h-215q-14 -129 -97 -234l152 -151l-72 -72l-151 152q-111 -82 -234 -97v-215h-102v215q-117 12 -232 97l-153 -152l-74 72l154 151q-84 104 -97 234h-215v104h215q19 130 97 232 l-154 153l74 72l153 -154q100 82 232 99v215zM684 1010q-135 0 -231.5 -94.5t-96.5 -230.5t95.5 -232.5t230.5 -96.5t230.5 96.5t95.5 230.5t-94.5 230.5t-229.5 96.5z" glyph-name="sun" horiz-adv-x="1366" unicode="☼"/><glyph d="M631 428v215q-141 23 -229.5 127t-88.5 253t107.5 258.5t260.5 109.5t261.5 -110t108.5 -259t-90.5 -253.5t-233.5 -125.5v-215h336v-88h-336v-340h-96v340h-330v88h330zM683 1294q-112 0 -192.5 -80.5t-80.5 -196.5t79.5 -197t192.5 -81t192.5 81t79.5 195t-79.5 196.5 t-191.5 82.5z" glyph-name="female" horiz-adv-x="1366" unicode="♀"/><glyph d="M687 1229q224 0 383 -161t159 -386t-160 -385t-386 -160t-386 161t-160 388t163 385t387 158zM717 717h442q-12 178 -138 304t-304 138v-442zM649 717v442q-178 -12 -304 -138t-138 -304h442zM717 649v-442q178 12 304 138t138 304h-442zM649 649h-442q12 -178 138 -304 t304 -138v442z" glyph-name="uni2641" horiz-adv-x="1366" unicode="♁"/><glyph d="M928 472q0 -141 -108.5 -250t-260 -109t-260.5 109.5t-109 265t109 265t249 109.5t240 -80l310 310q-113 27 -217 82q-43 23 -43 47t28 24q6 0 64 -11t162 -11q102 0 200 26q8 2 21 2q20 0 20 -20q0 -7 -15 -69t-15 -154t12 -148t12 -65q0 -29 -22 -29t-52 43 q-57 86 -88 213l-309 -309q72 -100 72 -241zM560 766q-114 0 -193.5 -81t-79.5 -197t79.5 -197.5t192.5 -81.5t192.5 82t79.5 196.5t-78.5 196.5t-192.5 82z" glyph-name="male" horiz-adv-x="1366" unicode="♂"/><glyph d="M219 0v37q145 29 212 59.5t128 100.5q109 125 117 325q-25 -49 -29 -55q-39 -70 -113.5 -112t-165.5 -42t-165 76t-74 180q0 168 211 346q287 229 336 490q55 -164 105 -237.5t204 -217.5q150 -135 200 -210.5t50 -177.5t-71.5 -174.5t-178.5 -72.5q-66 0 -130 35 t-105 92q-18 23 -52 80q14 -217 121 -334q61 -63 127 -91.5t215 -59.5v-37h-942z" glyph-name="spade" horiz-adv-x="1366" unicode="♠"/><glyph d="M1149 0h-932v37q231 33 342 161t111 363q-45 -78 -70 -106q-55 -72 -136 -113t-163 -41q-121 0 -208 91t-87 219t79 215t191 87q61 0 146 -43l31 -16q-72 110 -72 218t89 194t214 86t213 -86t88 -196t-72 -216l39 20q80 39 138 39q113 0 191.5 -87t78.5 -216t-87 -219 t-212 -90q-76 0 -156 39t-131 102q-16 20 -78 119q4 -133 31 -217t90 -156q66 -66 128.5 -95.5t203.5 -55.5v-37z" glyph-name="club" horiz-adv-x="1366" unicode="♣"/><glyph d="M115 1048q0 102 76.5 181.5t187.5 79.5q156 0 246 -140q27 -39 55 -127q78 268 301 269q113 0 191.5 -79.5t78.5 -185.5t-49 -209.5t-176 -263.5q-293 -365 -346 -596q-35 137 -108.5 264.5t-272.5 393.5q-111 152 -147.5 231.5t-36.5 181.5z" glyph-name="heart" horiz-adv-x="1366" unicode="♥"/><glyph d="M682 1419q45 -96 228.5 -354t291.5 -381q-145 -174 -289.5 -378t-230.5 -359q-145 276 -518 737q368 463 518 735z" glyph-name="diamond" horiz-adv-x="1366" unicode="♦"/><glyph d="M627 1366h96v-125q6 -8 31 -37l106 -129q186 -223 187 -461q0 -190 -117 -331h-58q78 158 78 298t-66.5 244.5t-160.5 116.5v-623q0 -147 -88 -242t-225 -95q-66 0 -104 32.5t-38 91.5q0 94 75 166t173 72q62 0 111 -25v1047z" glyph-name="musicalnote" horiz-adv-x="1366" unicode="♪"/><glyph d="M1221 293q0 -139 -60 -221q-92 -131 -248 -131q-68 0 -106.5 33.5t-38.5 91.5q0 94 75 164.5t175 70.5q57 0 108 -22v751l-591 90v-712q0 -139 -60 -222q-92 -131 -248 -131q-68 0 -106.5 34t-38.5 91q0 94 74.5 165t175.5 71q57 0 108 -23v928l781 -115v-913z" glyph-name="musicalnotedbl" horiz-adv-x="1366" unicode="♫"/><glyph d="M1262 393q0 -198 -112 -268t-188 -70q-149 0 -149 125q0 92 74 164t170 72q61 0 110 -23v553l-673 -184v-483q0 -147 -87.5 -240.5t-224.5 -93.5q-66 0 -103.5 32.5t-37.5 90.5q0 92 74.5 162.5t173.5 70.5q59 0 110 -22v923l863 219v-1028zM494 918l673 184v143 l-673 -184v-143z" glyph-name="uni266C" horiz-adv-x="1366" unicode="♬"/><glyph d="M270 985v-1051q0 -104 -19 -208.5t-220 -104.5q-25 0 -58 6v101q20 -4 45 -4q84 0 108 36.5t24 169.5v1055h120z" glyph-name="uniF6BE" horiz-adv-x="421" unicode=""/><glyph d="M586 -115v-125q0 -188 -146 -223v62q72 35 78 133h-63v153h131z" glyph-name="uniF6C3" unicode=""/><glyph d="M791 1737l-269 -258h-100l213 258h156z" glyph-name="uniF6C9" unicode=""/><glyph d="M213 1737h121l182 -187l186 187h109l-236 -258h-124z" glyph-name="uniF6CA" unicode=""/><glyph d="M782 1700v-191h-129v191h129zM369 1700v-191h-129v191h129z" glyph-name="uniF6CB" unicode=""/><glyph d="M231 1737h158l211 -258h-100z" glyph-name="uniF6CE" unicode=""/><glyph d="M918 1737l-222 -258h-92l166 258h148zM604 1737l-221 -258h-92l164 258h149z" glyph-name="uniF6CF" unicode=""/><glyph d="M823 1642v-86h-620v86h620z" glyph-name="uniF6D0" unicode=""/><glyph d="M215 676v-90q0 -90 -24.5 -132t-94.5 -69v61q51 20 54 99h-48v131h113z" glyph-name="uniF6E2" horiz-adv-x="317" unicode=""/><glyph d="M215 680v-133h-113v133h113z" glyph-name="uniF6E8" horiz-adv-x="317" unicode=""/><glyph d="M166 1366h475q276 0 432 -137q197 -180 197 -530t-193 -547q-82 -82 -178 -117t-248 -35h-485v1366zM295 1253v-1140h326q141 0 223 25.5t145 90.5q152 158 152 456t-146 443q-123 125 -354 125h-346zM624 1485q-118 0 -192 67.5t-82 184.5h76q36 -164 200 -164t203 164 h74q-16 -123 -88.5 -187.5t-190.5 -64.5z" glyph-name="glyph494" horiz-adv-x="1363"/><glyph d="M715 1370l545 -1370h-146l-164 430h-624l-168 -430h-140l551 1370h146zM911 535l-196 505q-53 139 -74 207q-43 -115 -76 -200l-200 -512h546zM711 1700v-191h-129v191h129z" glyph-name="glyph495" horiz-adv-x="1275"/><glyph d="M1038 1366v-113h-743v-489h661v-113h-661v-651h-129v1366h872zM668 1700v-191h-129v191h129z" glyph-name="glyph496" horiz-adv-x="1075"/><glyph d="M880 -8q-62 0 -90 41t-28 139q-127 -201 -373 -201q-150 0 -235.5 75t-85.5 204q0 195 186 266q53 23 101.5 30t190.5 21t176 41t34 90q0 111 -62.5 163t-192.5 52t-194.5 -55t-77.5 -176h-116q8 160 111.5 246t261.5 86t253 -49.5t119 -130.5q14 -47 14 -162v-441 q0 -92 11 -115.5t43 -23.5t59 8v-94q-43 -14 -105 -14zM756 377v162q-29 -27 -75 -38.5t-201 -31.5t-223.5 -68.5t-68.5 -137.5t63.5 -141t166.5 -52q147 0 242.5 87t95.5 220zM872 1405l-196 -272h-90l145 272h141zM612 1405l-196 -272h-90l147 272h139z" glyph-name="glyph497" horiz-adv-x="1021"/><glyph d="M880 -8q-62 0 -90 41t-28 139q-127 -201 -373 -201q-150 0 -235.5 75t-85.5 204q0 195 186 266q53 23 101.5 30t190.5 21t176 41t34 90q0 111 -62.5 163t-192.5 52t-194.5 -55t-77.5 -176h-116q8 160 111.5 246t261.5 86t253 -49.5t119 -130.5q14 -47 14 -162v-441 q0 -92 11 -115.5t43 -23.5t59 8v-94q-43 -14 -105 -14zM756 377v162q-29 -27 -75 -38.5t-201 -31.5t-223.5 -68.5t-68.5 -137.5t63.5 -141t166.5 -52q147 0 242.5 87t95.5 220zM578 1368v-194h-123v194h123z" glyph-name="glyph498" horiz-adv-x="1021"/><glyph d="M354 1354v-549h-78v395h-159v55q102 2 132 18.5t44 80.5h61z" glyph-name="one.numr" horiz-adv-x="548"/><glyph d="M481 866v-61h-426q2 76 42.5 125t142.5 105t132.5 88t30.5 77t-34.5 72.5t-92.5 27.5q-131 0 -133 -147h-73v14q0 90 55 142.5t151 52.5t149.5 -44t53.5 -112t-41.5 -112t-137.5 -98t-121 -76.5t-38 -53.5h340z" glyph-name="two.numr" horiz-adv-x="548"/><glyph d="M270 1362q88 0 141.5 -41t53.5 -111t-78 -110q100 -39 100 -124t-61.5 -133t-161.5 -48t-159.5 49t-59.5 131q0 12 2 20h72v-12q2 -61 41 -95t104 -34t106.5 32t41.5 79q0 102 -158 102q-18 0 -35 -2v59h35q135 0 135 88q0 41 -32.5 64.5t-88.5 23.5q-131 0 -137 -133 h-72q6 195 211 195z" glyph-name="three.numr" horiz-adv-x="548"/><glyph d="M496 993v-59h-95v-129h-69v129h-285v59l295 361h59v-361h95zM332 993v258l-209 -258h209z" glyph-name="four.numr" horiz-adv-x="548"/><glyph d="M461 1350v-62h-271l-34 -145q51 35 134 35t142.5 -53.5t59.5 -136.5t-62 -138t-158 -55t-151 43t-66 120h74q18 -104 141 -104q63 0 104.5 38t41.5 96t-41 94t-116 36t-124 -63l-63 2l63 293h326z" glyph-name="five.numr" horiz-adv-x="548"/><glyph d="M289 1303q-139 0 -158 -199q66 68 158 68t150.5 -52.5t58.5 -134.5t-60.5 -136t-154.5 -54q-225 0 -226 270q0 143 60.5 220t173.5 77q155 0 190 -135h-75q-25 76 -117 76zM283 1110q-61 0 -101.5 -35t-40.5 -91t40 -93t101.5 -37t100.5 36t39 92t-39 92t-100 36z" glyph-name="six.numr" horiz-adv-x="548"/><glyph d="M494 1350v-58q-227 -199 -250 -487h-80q4 121 71.5 254t170.5 227h-328v64h416z" glyph-name="seven.numr" horiz-adv-x="548"/><glyph d="M78 1210q0 70 53 110t143.5 40t143.5 -39t53 -111t-76 -106q101 -37 101 -126t-59 -136t-161 -47t-162.5 46t-60.5 124q1 102 101 137q-76 38 -76 108zM275 1300q-56 0 -88.5 -23.5t-32.5 -63.5t32.5 -62.5t88.5 -22.5t88 23t32 63.5t-32 63t-88 22.5zM274.5 1071 q-65.5 0 -105.5 -28.5t-40 -78.5t40 -80t105.5 -30t105.5 30t40 80t-40 78.5t-105.5 28.5z" glyph-name="eight.numr" horiz-adv-x="548"/><glyph d="M266 854q139 0 152 203q-58 -72 -154 -72t-154.5 51t-58.5 134t60.5 136.5t154.5 53.5q227 0 228 -270q0 -143 -59.5 -219t-170.5 -76q-163 0 -196 137h73q29 -78 125 -78zM265 1300q-60 0 -99 -36t-39 -92t39 -92t100 -36t100.5 36t39.5 91.5t-40.5 92t-100.5 36.5z" glyph-name="nine.numr" horiz-adv-x="548"/><glyph d="M276 1360q222 0 222 -283t-224 -282q-225 1 -225 283t227 282zM276 1300q-152 0 -152 -223t149 -223q148 0 148 223t-145 223z" glyph-name="zero.numr" horiz-adv-x="548"/><glyph d="M354 549v-549h-78v395h-159v56q102 2 132 18t44 80h61z" glyph-name="one.dnom" horiz-adv-x="548"/><glyph d="M481 61v-61h-426q2 76 42.5 125t142.5 105t132.5 89t30.5 77t-34.5 72t-92.5 28q-131 0 -133 -148h-73v14q0 90 55 141.5t151 51.5t149.5 -43.5t53.5 -111.5t-41.5 -113t-137.5 -99t-121 -75t-38 -52h340z" glyph-name="two.dnom" horiz-adv-x="548"/><glyph d="M270 557q88 0 141.5 -40.5t53.5 -110.5t-78 -111q100 -39 100 -124t-61.5 -133t-161.5 -48t-159.5 49t-59.5 131q0 12 2 20h72v-12q2 -61 41 -95t104 -34t106.5 32t41.5 79q0 102 -158 102q-18 0 -35 -2v59h35q135 0 135 89q0 41 -32.5 65.5t-88.5 24.5 q-131 -1 -137 -136h-72q6 195 211 195z" glyph-name="three.dnom" horiz-adv-x="548"/><glyph d="M496 188v-59h-95v-129h-69v129h-285v59l295 361h59v-361h95zM332 188v258l-209 -258h209z" glyph-name="four.dnom" horiz-adv-x="548"/><glyph d="M461 543v-62h-271l-34 -145q53 35 135 35t141.5 -52.5t59.5 -135.5t-62 -138t-158 -55t-151 43t-66 121h74q18 -104 141 -105q63 0 104.5 37t41.5 95t-41 94t-117 36t-123 -61l-63 2l63 291h326z" glyph-name="five.dnom" horiz-adv-x="548"/><glyph d="M289 496q-139 0 -158 -199q66 68 158 68t150.5 -52.5t58.5 -133.5t-60.5 -135t-154.5 -54q-225 0 -226 270q0 141 60.5 218t173.5 77q155 0 190 -135h-75q-25 76 -117 76zM283 303q-61 0 -101.5 -35t-40.5 -90t40.5 -92t100.5 -37t100 36t40 91t-39 91t-100 36z" glyph-name="six.dnom" horiz-adv-x="548"/><glyph d="M494 543v-58q-227 -199 -250 -485h-80q4 121 70.5 253t171.5 226h-328v64h416z" glyph-name="seven.dnom" horiz-adv-x="548"/><glyph d="M78 406q0 70 53 109.5t142 39.5t143.5 -39.5t54.5 -109.5t-76 -109q101 -35 101 -124t-59.5 -136t-162 -47t-161.5 46t-59 134t100 127q-76 39 -76 109zM274 496q-55 0 -87.5 -23.5t-32.5 -63.5t32.5 -63.5t88.5 -23.5t88 22.5t32 63.5q0 88 -121 88zM274.5 264 q-65.5 0 -105.5 -28.5t-40 -77.5t40 -79t105.5 -30t105.5 30t40 79t-40 77.5t-105.5 28.5z" glyph-name="eight.dnom" horiz-adv-x="548"/><glyph d="M266 49q139 0 152 203q-54 -72 -152 -72t-156.5 51.5t-58.5 134.5t60.5 136t154.5 53q227 0 228 -270q0 -143 -59.5 -219t-170.5 -76q-163 0 -196 137h73q29 -78 125 -78zM265 496q-60 0 -99 -36t-39 -92t39 -92t100 -36t100.5 35.5t39.5 91t-40.5 92.5t-100.5 37z" glyph-name="nine.dnom" horiz-adv-x="548"/><glyph d="M276 555q222 0 222 -283t-224 -282q-225 0 -225 282t227 283zM276 496q-152 0 -152 -224t149 -223q148 -1 148 223t-145 224z" glyph-name="zero.dnom" horiz-adv-x="548"/><glyph d="M469 1350v-803h-92v588h-217v67q135 4 176 28.5t61 119.5h72zM1329 1341l-809 -1341h-92l813 1341h88zM1497 803v-803h-92v588h-215v67q133 4 174 29t61 119h72z" glyph-name="one_slash_one.frac" horiz-adv-x="1757"/><glyph d="M469 1350v-803h-92v588h-217v67q135 4 176 28.5t61 119.5h72zM1329 1341l-809 -1341h-92l813 1341h88zM1638 795v-76h-362l-51 -242q73 63 185 63t190.5 -77.5t78.5 -198.5t-83 -200.5t-211 -79.5t-203.5 69.5t-77.5 188.5h86q6 -88 57 -137.5t139.5 -49.5t145.5 58.5 t57 147.5t-56 146.5t-159 57.5t-170 -94l-78 4l84 420h428z" glyph-name="one_slash_five.frac" horiz-adv-x="1757"/><glyph d="M639 625v-78h-563q8 113 61 180.5t205 157.5q121 76 162 124.5t41 118.5t-48 113t-128 43q-178 0 -185 -221h-88v18q0 127 75 202t198 75t194.5 -64t71.5 -162t-56.5 -165t-183.5 -143t-166 -114t-53 -85h463zM1329 1341l-811 -1341h-90l811 1341h90zM1638 795v-76h-362 l-51 -242q73 63 185 63t190.5 -77.5t78.5 -198.5t-83 -200.5t-211 -79.5t-203.5 69.5t-77.5 188.5h86q6 -88 57 -137.5t139.5 -49.5t145.5 58.5t57 147.5t-56 146.5t-159 57.5t-170 -94l-78 4l84 420h428z" glyph-name="two_slash_five.frac" horiz-adv-x="1757"/><glyph d="M147 813v-20q2 -86 58.5 -138.5t145.5 -52.5t146.5 48t57.5 122q0 160 -213 160h-47v74q18 -2 41 -2q188 0 188 139q0 63 -46 102t-124 39q-182 0 -188 -201h-86q10 274 278 275q115 0 185.5 -58.5t70.5 -154.5q0 -121 -118 -170q150 -41 149 -195q0 -113 -81 -182.5 t-218 -69.5t-212 73t-73 212h86zM1329 1341l-811 -1341h-90l811 1341h90zM1638 795v-76h-362l-51 -242q73 63 185 63t190.5 -77.5t78.5 -198.5t-83 -200.5t-211 -79.5t-203.5 69.5t-77.5 188.5h86q6 -88 57 -137.5t139.5 -49.5t145.5 58.5t57 147.5t-56 146.5t-159 57.5 t-170 -94l-78 4l84 420h428z" glyph-name="three_slash_five.frac" horiz-adv-x="1757"/><glyph d="M655 813v-72h-125v-194h-84v194h-383v76l394 533h73v-537h125zM446 813v414l-301 -414h301zM1331 1341l-811 -1341h-92l813 1341h90zM1638 795v-76h-362l-51 -242q73 63 185 63t190.5 -77.5t78.5 -198.5t-83 -200.5t-211 -79.5t-203.5 69.5t-77.5 188.5h86 q6 -88 57 -137.5t139.5 -49.5t145.5 58.5t57 147.5t-56 146.5t-159 57.5t-170 -94l-78 4l84 420h428z" glyph-name="four_slash_five.frac" horiz-adv-x="1757"/><glyph d="M469 1350v-803h-92v588h-217v67q135 4 176 28.5t61 119.5h72zM1329 1341l-809 -1341h-92l813 1341h88zM1413 737q-104 0 -156.5 -76.5t-62.5 -246.5q82 114 212 114t207 -75.5t77 -193.5t-81 -196.5t-204 -78.5q-162 0 -240 125q-59 89 -59 285t80 307.5t229 111.5 q227 0 256 -221h-88q-27 145 -170 145zM1403 453q-86 0 -141.5 -54.5t-55.5 -140.5t56.5 -143.5t140.5 -57.5t139 55.5t55 142.5t-54 142.5t-140 55.5z" glyph-name="one_slash_six.frac" horiz-adv-x="1757"/><glyph d="M608 1341v-75h-362l-51 -244q73 63 185 63t190.5 -77.5t78.5 -197.5t-83 -200t-211 -80t-204.5 71t-76.5 187h86q6 -88 58 -136t139 -48t144.5 57.5t57.5 146.5t-56.5 145.5t-158.5 56.5t-170 -92l-78 2l84 421h428zM1329 1341l-811 -1341h-90l811 1341h90zM1413 737 q-104 0 -156.5 -76.5t-64.5 -246.5q84 114 214 114t207 -74.5t77 -193.5t-81 -197.5t-204 -78.5q-162 0 -240 125q-59 89 -59 285t80 307.5t229 111.5q227 0 256 -221h-90q-10 70 -54 107.5t-114 37.5zM1403 453q-86 0 -141.5 -54.5t-55.5 -140.5t56.5 -143.5t140.5 -57.5 t139 55.5t55 142.5t-54 142.5t-140 55.5z" glyph-name="five_slash_six.frac" horiz-adv-x="1757"/><glyph d="M575 1700v-191h-129v191h129z" glyph-name="dotaccent.aalt"/><glyph d="M512 1837q82 0 139.5 -58.5t57.5 -140.5t-57.5 -140t-140.5 -58t-140.5 58t-57.5 141t58.5 140.5t140.5 57.5zM511 1757q-48 0 -83 -33.5t-35 -83.5t34 -85t83 -35t84 34.5t35 84t-35 84t-83 34.5z" glyph-name="ring.aalt"/><glyph d="M811 1479h-121l-182 186l-186 -186h-109l236 258h124z" glyph-name="circumflex.aalt"/><glyph d="M509 1485q-118 0 -191.5 67.5t-81.5 184.5h75q35 -164 201 -164t201 164h75q-18 -123 -89.5 -187.5t-189.5 -64.5z" glyph-name="breve.aalt"/><glyph d="M645 1518q-55 0 -199 69q-37 16 -69 17q-70 0 -96 -95h-72q33 184 176 185q49 0 137 -43t125 -43q67 0 92 94h74q-35 -184 -168 -184z" glyph-name="tilde.aalt"/><glyph d="M707 -240q0 -62 -58.5 -108.5t-144.5 -46.5t-187 39l27 57q78 -31 134 -31t88 24.5t32 60.5t-27.5 57.5t-66.5 21.5t-86 -18l-31 30l115 154h69l-84 -115q47 9 90 9t86.5 -36t43.5 -98z" glyph-name="cedilla.aalt"/><glyph d="M856 -184q0 -41 34 -66.5t79 -25.5t96 16v-72q-59 -20 -130 -20t-126 43t-55 110q-1 107 155 199h84q-137 -88 -137 -184z" glyph-name="ogonek.aalt"/><glyph d="M586 -115v-125q0 -188 -146 -223v62q72 35 78 133h-63v153h131z" glyph-name="uniF6C3.aalt"/><glyph d="M797 1366v-125q0 -188 -146 -223v61q72 35 78 133h-63v154h131z" glyph-name="glyph534"/><glyph d="M700 1700v-191h-129v191h129zM451 1700v-191h-129v191h129z" glyph-name="glyph535"/><glyph d="M791 1366v-125q0 -188 -146 -223v61q72 35 78 133h-64v154h132z" glyph-name="glyph536"/><glyph d="M692 1368v-194h-123v194h123zM455 1368v-194h-123v194h123z" glyph-name="glyph537"/><glyph d="M440 1133v124q0 188 146 224v-62q-72 -35 -78 -133h63v-153h-131z" glyph-name="glyph538"/><glyph d="M549 698v-57h-549v57h549zM276 1360q222 0 222 -283t-224 -282q-225 1 -225 283t227 282zM276 1300q-152 0 -152 -223t149 -223q148 0 148 223t-145 223zM276 555q222 0 222 -283t-224 -282q-225 0 -225 282t227 283zM276 496q-152 0 -152 -224t149 -223q148 -1 148 223 t-145 224z" glyph-name="glyph539" horiz-adv-x="548"/><glyph d="M295 0h-129v1366h129v-735q49 49 90 86l705 649h174l-615 -557l645 -809h-166l-571 719l-262 -238v-481zM725 -123v-190h-129v190h129z" glyph-name="glyph540" horiz-adv-x="1284"/></font>
</defs>
</svg>
