<?xml version="1.0" standalone="no"?>
<!DOCTYPE svg PUBLIC "-//W3C//DTD SVG 1.1//EN" "http://www.w3.org/Graphics/SVG/1.1/DTD/svg11.dtd">
<svg xmlns="http://www.w3.org/2000/svg"><metadata>This SVG WebFont was generated by YouWorkForThem.
Copyright 2010 URW++ Design &amp; Development</metadata><defs><font horiz-adv-x="1024" id="ywftsvg"><font-face ascent="1366" bbox="-287 -512 2056 1882" cap-height="1366" descent="-682" font-family="" font-stretch="normal" font-weight="500" panose-1="0 0 6 0 0 0 0 0 0 0" underline-position="0" underline-thickness="0" unicode-range="U+0020-FB04" units-per-em="2048" x-height="989"/><missing-glyph horiz-adv-x="512"/><glyph d="M555 1370v-139q-49 10 -94 10q-74 0 -98.5 -27.5t-24.5 -109.5v-115h190v-133h-190v-856h-162v856h-166v133h166v66q0 102 8.5 146t30.5 79q66 98 225 98q49 0 115 -8zM1094 1370v-139q-49 10 -93 10q-74 0 -98 -27.5t-24 -109.5v-115h190v-133h-190v-856h-162v856h-168 v133h168v66q0 102 8 146t31 79q66 98 225 98q50 0 113 -8z" glyph-name="uniFB00" horiz-adv-x="1112" unicode="ff"/><glyph d="M555 1370v-139q-49 10 -94 10q-74 0 -98.5 -27.5t-24.5 -109.5v-115h190v-133h-190v-856h-162v856h-166v133h166v66q0 102 8.5 146t30.5 79q66 98 225 98q49 0 115 -8zM879 1366v-199h-162v199h162zM879 989v-989h-162v989h162z" glyph-name="uniFB01" horiz-adv-x="1021" unicode="fi"/><glyph d="M555 1370v-139q-49 10 -94 10q-74 0 -98.5 -27.5t-24.5 -109.5v-115h190v-133h-190v-856h-162v856h-166v133h166v66q0 102 8.5 146t30.5 79q66 98 225 98q49 0 115 -8zM879 1366v-1366h-162v1366h162z" glyph-name="uniFB02" horiz-adv-x="1021" unicode="fl"/><glyph d="M555 1370v-139q-49 10 -94 10q-74 0 -98.5 -27.5t-24.5 -109.5v-115h190v-133h-190v-856h-162v856h-166v133h166v66q0 102 8.5 146t30.5 79q66 98 225 98q49 0 115 -8zM1094 1370v-139q-49 10 -93 10q-74 0 -98 -27.5t-24 -109.5v-115h190v-133h-190v-856h-162v856h-168 v133h168v66q0 102 8 146t31 79q66 98 225 98q50 0 113 -8zM1417 1366v-199h-162v199h162zM1417 989v-989h-162v989h162z" glyph-name="uniFB03" horiz-adv-x="1562" unicode="ffi"/><glyph d="M555 1370v-139q-49 10 -94 10q-74 0 -98.5 -27.5t-24.5 -109.5v-115h190v-133h-190v-856h-162v856h-166v133h166v66q0 102 8.5 146t30.5 79q66 98 225 98q49 0 115 -8zM1094 1370v-139q-49 10 -93 10q-74 0 -98 -27.5t-24 -109.5v-115h190v-133h-190v-856h-162v856h-168 v133h168v66q0 102 8 146t31 79q66 98 225 98q50 0 113 -8zM1417 1366v-1366h-162v1366h162z" glyph-name="uniFB04" horiz-adv-x="1562" unicode="ffl"/><glyph glyph-name=".notdef" horiz-adv-x="512"/><glyph glyph-name="glyph1" horiz-adv-x="0"/><glyph glyph-name="glyph2" horiz-adv-x="681"/><glyph glyph-name="space" horiz-adv-x="512" unicode=" "/><glyph d="M401 1366v-420l-47 -606h-88l-45 606v420h180zM412 193v-193h-201v193h201z" glyph-name="exclam" horiz-adv-x="583" unicode="!"/><glyph d="M547 817h-78l-27 549h133zM199 817h-80l-27 549h133z" glyph-name="quotedbl" horiz-adv-x="669" unicode="&quot;"/><glyph d="M733 461l-53 -389h-109l56 389h-230l-53 -389h-108l55 389h-242l14 104h242l31 217h-242l15 105h241l51 356h107l-49 -356h227l51 356h107l-49 -356h249l-14 -105h-252l-30 -217h251l-14 -104h-252zM672 782h-230l-28 -217h227z" glyph-name="numbersign" horiz-adv-x="1091" unicode="#"/><glyph d="M66 416h159q0 -285 256 -297v516q-190 33 -289.5 126t-99.5 240q0 158 105.5 256.5t283.5 108.5v166h103v-166q172 -10 270 -106.5t96 -253.5h-157q-14 219 -209 229v-469q190 -49 247 -88q156 -100 156 -307q0 -211 -174 -324q-80 -51 -229 -61v-205h-103v205 q-201 10 -307 119.5t-108 310.5zM584 612v-493q109 0 177 66.5t68 170.5q0 109 -59 170t-186 86zM481 791v444q-109 -4 -170 -62.5t-61 -158.5q0 -94 56 -147t175 -76z" glyph-name="dollar" horiz-adv-x="1091" unicode="$"/><glyph d="M1296 1401l-764 -1467h-131l768 1467h127zM1321 739q143 0 220 -94t77 -270q0 -401 -311 -402q-152 0 -230 94.5t-78 274.5q0 195 83 296t239 101zM1313 631q-168 0 -168 -277q0 -272 164 -272t164 276q0 273 -160 273zM397 1364q145 0 222 -94t77 -273 q0 -195 -79.5 -298t-229.5 -103q-307 0 -307 387q0 184 81.5 282.5t235.5 98.5zM391 1253q-166 0 -166 -278q0 -270 164 -270q96 0 137 98q29 76 29 188q0 262 -164 262z" glyph-name="percent" horiz-adv-x="1695" unicode="%"/><glyph d="M926 647h155q-4 -82 -32.5 -188.5t-61.5 -151.5l266 -307h-213l-145 172q-23 -41 -90 -98q-121 -102 -307 -103q-188 0 -302 105.5t-114 279.5q0 182 154 306q86 70 165 106q-150 176 -149 317q0 127 89 208t228.5 81t226.5 -78.5t87 -205.5q0 -217 -250 -355l248 -301 q37 94 45 213zM545 840q180 109 180 237q0 70 -45 117t-112.5 47t-113.5 -43t-46 -106q0 -84 131 -242q2 -4 6 -10zM489 662l-10 -7q-125 -70 -176 -136t-51 -157q0 -104 77 -177.5t185 -73.5q162 0 291 172z" glyph-name="ampersand" horiz-adv-x="1280" unicode="&amp;"/><glyph d="M199 817h-80l-27 549h133z" glyph-name="quotesingle" horiz-adv-x="319" unicode="'"/><glyph d="M381 1366h125q-254 -391 -254 -883q0 -471 254 -868h-125q-2 4 -8 14.5t-17.5 26.5t-21.5 33q-133 213 -192.5 399t-59.5 393q0 490 299 885z" glyph-name="parenleft" horiz-adv-x="600" unicode="("/><glyph d="M221 -385h-125q254 393 254 883q0 467 -254 868h125q29 -47 45 -74q135 -213 194.5 -399t59.5 -393q0 -490 -299 -885z" glyph-name="parenright" horiz-adv-x="600" unicode=")"/><glyph d="M838 1133l-209 -74l127 -172l-80 -60l-133 183l-125 -183l-86 60l125 172l-203 74l33 92l205 -76v217h104v-217l203 76z" glyph-name="asterisk" horiz-adv-x="1091" unicode="*"/><glyph d="M102 735h379v377h129v-377h379v-129h-379v-381h-129v381h-379v129z" glyph-name="plus" horiz-adv-x="1091" unicode="+"/><glyph d="M365 205v-123q0 -176 -56 -258q-57 -82 -164 -109v97q106 31 111 188h-111v205h220z" glyph-name="comma" horiz-adv-x="509" unicode=","/><glyph d="M465 592v-164h-465v164h465z" glyph-name="hyphen" horiz-adv-x="464" unicode="-"/><glyph d="M367 213v-213h-224v213h224z" glyph-name="period" horiz-adv-x="509" unicode="."/><glyph d="M754 1366l-699 -1751h-137l703 1751h133z" glyph-name="slash" horiz-adv-x="827" unicode="/"/><glyph d="M551 1366q279 0 383 -244q66 -152 65 -475q0 -283 -65 -430q-102 -244 -383 -244q-293 0 -395 242q-63 150 -64 436q0 326 64 473q106 242 395 242zM549 1225q-160 0 -223.5 -126t-63.5 -444q0 -233 39 -352q27 -90 92.5 -139t155.5 -49q88 0 151.5 49t90.5 139 q39 125 38 356q0 248 -38 377q-62 189 -242 189z" glyph-name="zero" horiz-adv-x="1091" unicode="0"/><glyph d="M735 1366v-1366h-178v989h-100h-97h-102h-45v123q178 0 269 58.5t124 195.5h129z" glyph-name="one" horiz-adv-x="1091" unicode="1"/><glyph d="M991 147v-147h-887q10 197 97.5 319.5t306.5 253.5q190 119 246 183q78 94 77.5 208.5t-73 187.5t-189.5 73q-252 0 -264 -346h-164q-2 14 -2 34q0 205 120 329t319 124q193 0 308 -109.5t115 -289.5q0 -176 -120 -305q-78 -84 -285 -207q-158 -94 -220.5 -158 t-82.5 -152l37 2h30h631z" glyph-name="two" horiz-adv-x="1091" unicode="2"/><glyph d="M270 924h-157q4 213 116.5 327.5t315.5 114.5q180 0 289.5 -97.5t109.5 -256.5q0 -203 -188 -285q117 -29 182.5 -115t65.5 -209q0 -193 -129.5 -311.5t-339.5 -118.5q-205 0 -329 117t-124 309v27h162q4 -147 81.5 -229t213.5 -82q129 0 212 75.5t83 194.5 q0 121 -84 195q-82 68 -226 67q-39 0 -82 -6v137q27 -2 56 -2q129 0 202.5 60.5t73.5 164.5q0 100 -65.5 161t-171.5 61q-123 0 -193 -78t-74 -221z" glyph-name="three" horiz-adv-x="1091" unicode="3"/><glyph d="M1004 469v-137h-183v-332h-153v332h-596v151l618 883h131v-897h183zM668 469v387q0 170 2 283l-76 -121q-74 -113 -76 -117l-178 -250q-16 -23 -66 -90q-45 -61 -69 -92h160h303z" glyph-name="four" horiz-adv-x="1091" unicode="4"/><glyph d="M924 1339v-147h-551l-47 -250q-20 -104 -35 -154q98 106 274 107q193 0 312.5 -123t119.5 -323q0 -209 -131 -342.5t-340 -133.5q-193 0 -313.5 107.5t-126.5 286.5h166q10 -111 87 -180.5t191 -69.5q127 0 212 91t85 228q0 141 -84 229.5t-217 88.5q-170 0 -262 -133 l-139 8l127 710h672z" glyph-name="five" horiz-adv-x="1091" unicode="5"/><glyph d="M975 1012h-164q-33 215 -231 215q-201 0 -279 -236q-33 -92 -45 -293q111 176 338 176q186 0 302 -118.5t116 -313.5q0 -207 -124 -338t-321 -131q-125 0 -224 56.5t-157 158.5q-92 158 -92 465q0 346 127 530.5t365 184.5q172 0 274.5 -94t114.5 -262zM569 733 q-129 0 -205.5 -82t-76.5 -219q0 -139 77.5 -228t202.5 -89q121 0 198 86t77 223q0 139 -75 224t-198 85z" glyph-name="six" horiz-adv-x="1091" unicode="6"/><glyph d="M1008 1337v-143l-13 -14l-51 -60q-190 -225 -308 -515t-149 -605h-180q20 297 159.5 608.5t356.5 550.5l19 23l-168 -2h-545v157h879z" glyph-name="seven" horiz-adv-x="1091" unicode="7"/><glyph d="M330 729q-90 37 -139.5 111.5t-49.5 175.5q0 154 114 252t292 98q176 0 288.5 -96t112.5 -246q0 -205 -186 -295q240 -84 239 -330q0 -197 -124.5 -311.5t-337.5 -114.5q-203 0 -326 113t-123 299q0 125 64.5 217t175.5 127zM546.5 1225q-106.5 0 -171 -60.5t-64.5 -157 t64.5 -156.5t171.5 -60q104 0 167.5 59t63.5 157.5t-62.5 158t-169 59.5zM545 657q-125 0 -205 -74.5t-80 -193.5q0 -121 80 -197.5t205 -76.5q127 0 206.5 75.5t79.5 196.5t-79.5 195.5t-206.5 74.5z" glyph-name="eight" horiz-adv-x="1091" unicode="8"/><glyph d="M115 330h161q14 -102 79 -158.5t167 -56.5q145 0 225 139t82 395q-63 -98 -141 -142t-190 -44q-184 0 -299 123t-115 317q0 205 124 334t322 129q289 0 404 -262q63 -147 63 -406q0 -346 -124.5 -535.5t-354.5 -189.5q-172 0 -282.5 98.5t-120.5 258.5zM528 1225 q-125 0 -199.5 -87t-74.5 -231q0 -139 72.5 -221t195.5 -82q125 0 202 82t77 217q0 143 -76 232.5t-197 89.5z" glyph-name="nine" horiz-adv-x="1091" unicode="9"/><glyph d="M401 213v-213h-223v213h223zM401 989v-213h-223v213h223z" glyph-name="colon" horiz-adv-x="544" unicode=":"/><glyph d="M399 989v-205h-219v205h219zM399 207v-129q0 -158 -43 -230q-59 -104 -176 -131v95q115 41 111 188h-111v207h219z" glyph-name="semicolon" horiz-adv-x="544" unicode=";"/><glyph d="M954 1188v-178l-698 -324l698 -324v-176l-886 424v154z" glyph-name="less" unicode="&lt;"/><glyph d="M102 580h887v-129h-887v129zM102 887h887v-129h-887v129z" glyph-name="equal" horiz-adv-x="1091" unicode="="/><glyph d="M70 186v176l696 324l-696 326v176l886 -426v-152z" glyph-name="greater" unicode=">"/><glyph d="M262 944h-160q8 176 68 268q117 184 365 185q184 0 294.5 -100.5t110.5 -268.5q0 -133 -72 -229q-25 -37 -151 -162q-70 -63 -91.5 -120.5t-21.5 -178.5h-160q4 170 37 239.5t176 210.5q109 109 109 226q0 106 -63.5 170.5t-170.5 64.5q-250 0 -270 -305zM625 195v-195 h-203v195h203z" glyph-name="question" horiz-adv-x="1021" unicode="?"/><glyph d="M1300 356h109q-59 -133 -170 -221q-201 -162 -453 -162q-291 0 -493.5 202t-202.5 491q0 293 205 496.5t502 203.5q264 0 447 -168t183 -409.5t-184 -389.5q-129 -106 -260 -106q-53 0 -94 26.5t-55 69.5q-102 -96 -218 -96q-102 0 -166.5 73.5t-64.5 190.5 q0 182 125 333.5t274 151.5q131 0 191 -104l26 74h136l-170 -500q-18 -57 -19 -80q0 -51 62 -51q92 0 194 98q125 129 125 305q0 207 -153.5 348.5t-378.5 141.5q-254 0 -428 -175t-174 -433q0 -252 173 -425t423 -173q158 0 295.5 78.5t213.5 209.5zM852 596l47 129 q25 72 25 104q0 51 -31 87t-76 36q-104 0 -196.5 -137t-92.5 -293q0 -68 30 -105.5t81 -37.5q135 0 213 217z" glyph-name="at" horiz-adv-x="1517" unicode="@"/><glyph d="M752 1370l532 -1370h-199l-153 420h-574l-155 -420h-191l537 1370h203zM879 565l-136 363q-72 193 -96 276q-10 -31 -22.5 -64.5t-18.5 -49.5q-20 -43 -57 -154l-137 -371h467z" glyph-name="A" horiz-adv-x="1296" unicode="A"/><glyph d="M158 1366h549q199 0 290 -45q84 -43 133.5 -123t49.5 -174q0 -100 -53.5 -178t-147.5 -113q74 -20 119 -49q143 -96 143 -283q0 -244 -201 -352q-96 -49 -247 -49h-635v1366zM338 1208v-424h326q135 0 196 19q63 18 101 71.5t38 122.5q0 152 -125 193q-47 18 -194 18 h-342zM338 639v-481h360q186 0 250 32q111 53 111 203q0 166 -148 223q-55 23 -243 23h-330z" glyph-name="B" horiz-adv-x="1323" unicode="B"/><glyph d="M1135 514h180q-20 -254 -178 -399.5t-414 -145.5q-291 0 -462 191.5t-171 519.5q0 322 186 526q172 190 461 191q281 0 443 -174q111 -121 123 -267h-181q-31 133 -134 210t-255 77q-244 0 -366 -199q-94 -154 -95 -362q0 -258 124 -408.5t337 -150.5q174 0 278 100.5 t124 290.5z" glyph-name="C" horiz-adv-x="1384" unicode="C"/><glyph d="M158 1366h489q156 0 254 -30.5t180 -104.5q201 -178 201 -520q0 -362 -192 -559q-84 -86 -175.5 -119t-246.5 -33h-510v1366zM338 1208v-1050h295q139 0 210.5 22.5t127.5 85.5q129 143 129 439q0 504 -449 503h-313z" glyph-name="D" horiz-adv-x="1372" unicode="D"/><glyph d="M1104 1366v-158h-766v-432h715v-145h-715v-473h776v-158h-956v1366h946z" glyph-name="E" horiz-adv-x="1196" unicode="E"/><glyph d="M1055 1366v-158h-717v-432h631v-145h-631v-631h-180v1366h897z" glyph-name="F" horiz-adv-x="1097" unicode="F"/><glyph d="M1341 721v-721h-114l-27 104l-10 35q0 2 -3 12.5t-7 18.5q-164 -201 -439 -201q-291 0 -471 193.5t-180 507.5q0 326 183.5 526.5t480.5 200.5q238 0 394.5 -123t176.5 -328h-176q-20 135 -128 216t-267 81q-221 0 -351.5 -153.5t-130.5 -413.5q0 -254 130 -403.5 t352 -149.5q127 0 226 57.5t150 159.5q47 92 50 235h-437v146h598z" glyph-name="G" horiz-adv-x="1468" unicode="G"/><glyph d="M1239 1366v-1366h-180v639h-721v-639h-180v1366h180v-569h721v569h180z" glyph-name="H" horiz-adv-x="1394" unicode="H"/><glyph d="M338 1366v-1366h-180v1366h180z" glyph-name="I" horiz-adv-x="493" unicode="I"/><glyph d="M823 1366v-926q0 -125 -10 -187.5t-41 -115.5q-96 -168 -342 -168q-276 0 -364 187q-43 86 -43 243q0 29 2 52h174v-50q0 -135 39 -194q53 -84 190 -84q131 0 178 82q37 59 37 233v928h180z" glyph-name="J" horiz-adv-x="960" unicode="J"/><glyph d="M1268 1366l-578 -549l600 -817h-229l-496 694l-227 -215v-479h-180v1366h180v-539v-71v-70l45 45l13.5 13.5t16.5 17.5t15 14l602 590h238z" glyph-name="K" horiz-adv-x="1273" unicode="K"/><glyph d="M1063 158v-158h-905v1366h180v-1208h725z" glyph-name="L" horiz-adv-x="1101" unicode="L"/><glyph d="M1524 1366v-1366h-174l2 612q4 377 22 609q-70 -201 -123 -347l-325 -874h-158l-340 864q-74 188 -119 342q18 -291 21 -588l2 -618h-174v1366h245l322 -834q76 -201 123 -346q35 113 119 344l307 836h250z" glyph-name="M" horiz-adv-x="1679" unicode="M"/><glyph d="M1249 1366v-1366h-198l-488 737q-199 307 -246 406q8 -98 9 -185l4 -268v-690h-172v1366h194l510 -778q160 -242 228 -373q-12 283 -13 467v684h172z" glyph-name="N" horiz-adv-x="1406" unicode="N"/><glyph d="M754 1397q285 0 464 -198t179 -513q0 -324 -179.5 -520.5t-476.5 -196.5q-293 0 -472 195.5t-179 517.5q0 326 180.5 520.5t483.5 194.5zM750 1243q-219 0 -348.5 -150.5t-129.5 -406.5t129 -409.5t344 -153.5q211 0 340 153.5t129 407.5q0 250 -128.5 404.5 t-335.5 154.5z" glyph-name="O" horiz-adv-x="1486" unicode="O"/><glyph d="M158 1366h542q121 0 191 -16.5t127 -57.5q158 -111 158 -319q0 -236 -160 -342q-59 -41 -125 -55.5t-182 -14.5h-371v-561h-180v1366zM338 1208v-501h348q150 0 215 49q92 70 92 207q0 141 -106 206q-66 39 -228 39h-321z" glyph-name="P" horiz-adv-x="1234" unicode="P"/><glyph d="M1374 -2l-92 -113l-209 166q-147 -82 -332 -82q-291 0 -471 198t-180 517q0 317 180.5 515t470.5 198q293 0 474.5 -196.5t181.5 -514.5q0 -352 -203 -545zM879 393l180 -149q156 162 155 442q0 252 -130 404.5t-343 152.5q-211 0 -340 -152.5t-129 -402.5 q0 -258 129 -411.5t347 -153.5q98 0 186 37l-150 121z" glyph-name="Q" horiz-adv-x="1464" unicode="Q"/><glyph d="M154 1366h624q172 0 269 -59q166 -102 165 -314q0 -125 -60 -211t-175 -123q96 -16 151 -98q33 -55 41.5 -96t24.5 -229q14 -168 53 -216l17 -20h-205q-23 39 -30 81t-13 187q-10 190 -77 257t-247 67h-358v-592h-180v1366zM334 1208v-471h340q184 0 256 41 q100 59 100 199q0 160 -129 209q-63 23 -180 22h-387z" glyph-name="R" horiz-adv-x="1368" unicode="R"/><glyph d="M1094 965h-174q-16 145 -98.5 211.5t-241.5 66.5q-145 0 -226.5 -59.5t-81.5 -167.5q0 -96 72 -139q78 -45 299 -91q254 -57 340 -114q164 -102 164 -289q0 -190 -152 -311q-135 -102 -379 -103q-266 0 -414.5 126t-150.5 356h174q10 -328 404 -328q158 0 247 65.5 t89 182.5q0 145 -185 207q-59 20 -291 73q-203 47 -278 105q-113 88 -113 250q0 180 129 285.5t353 105.5q242 0 374 -111.5t140 -320.5z" glyph-name="S" horiz-adv-x="1230" unicode="S"/><glyph d="M1128 1366v-158h-458v-1208h-181v1208h-458v158h1097z" glyph-name="T" horiz-adv-x="1157" unicode="T"/><glyph d="M1237 1366v-797q0 -168 -18.5 -249.5t-75.5 -161.5q-131 -188 -451 -189q-342 0 -477 213q-45 70 -61.5 154t-16.5 235v795h180v-799q0 -131 9.5 -188t40.5 -111q80 -145 327 -145q236 0 312 135q29 53 40 117.5t11 191.5v799h180z" glyph-name="U" horiz-adv-x="1372" unicode="U"/><glyph d="M1194 1366l-489 -1366h-205l-488 1366h201l287 -860q23 -74 67 -217q16 -55 37 -137q29 111 109 352l288 862h193z" glyph-name="V" horiz-adv-x="1206" unicode="V"/><glyph d="M1753 1366l-362 -1366h-191l-231 836q-68 266 -82 358q-43 -180 -90 -348l-230 -846h-192l-355 1366h187l203 -838q51 -217 71 -342q14 98 80 346l227 834h199l234 -852q53 -205 73 -328q14 94 70 324l209 856h180z" glyph-name="W" horiz-adv-x="1775" unicode="W"/><glyph d="M1153 1366l-453 -661l480 -705h-219l-281 424q-68 104 -88 147q-27 -43 -94 -143l-287 -428h-207l481 705l-450 661h215l233 -358q66 -104 80 -129q18 -29 29 -54q59 102 117 183l241 358h203z" glyph-name="X" horiz-adv-x="1185" unicode="X"/><glyph d="M1219 1366l-527 -807v-559h-180v559l-532 807h219l321 -510q33 -55 39 -63l19 -31q18 -31 30 -53q27 49 84 143l320 514h207z" glyph-name="Y" horiz-adv-x="1198" unicode="Y"/><glyph d="M1122 1366v-149l-776 -965q-2 -2 -7 -8t-14.5 -16.5t-17.5 -20.5q-2 -4 -18.5 -22.5t-26.5 -30.5q195 4 252 4h629v-158h-1090v154l785 972q23 27 43 50l32 36q-96 -4 -241 -4h-551v158h1001z" glyph-name="Z" horiz-adv-x="1193" unicode="Z"/><glyph d="M508 1366v-129h-207v-1493h207v-129h-363v1751h363z" glyph-name="bracketleft" horiz-adv-x="600" unicode="["/><glyph d="M72 1366h133l702 -1751h-137z" glyph-name="backslash" horiz-adv-x="827" unicode="\"/><glyph d="M94 -385v129h207v1493h-207v129h363v-1751h-363z" glyph-name="bracketright" horiz-adv-x="600" unicode="]"/><glyph d="M225 760h-166l351 610h202l351 -610h-166l-287 489z" glyph-name="asciicircum" unicode="^"/><glyph d="M0 -143h1024v-115h-1024v115z" glyph-name="underscore" unicode="_"/><glyph d="M258 1399h201l141 -273h-113z" glyph-name="grave" unicode="`"/><glyph d="M993 131v-127q-55 -20 -114 -20q-68 0 -105 38.5t-37 108.5q-139 -160 -358 -160q-147 0 -232.5 76t-85.5 205q0 197 187 270q47 20 89 27.5t216 30.5q98 10 136 38.5t38 92.5q0 172 -223 172q-119 0 -176.5 -48.5t-67.5 -154.5h-160q4 160 114 249t302 89q209 0 309 -96 q68 -68 68 -234q0 -100 -6 -407q-2 -27 -2 -60q0 -55 14 -77.5t51 -22.5q20 0 43 10zM729 367v147q-33 -25 -74 -36t-145 -23q-143 -18 -197 -47q-84 -43 -84 -142q0 -78 53.5 -123t143.5 -45q176 0 272 133q31 44 31 136z" glyph-name="a" horiz-adv-x="1036" unicode="a"/><glyph d="M305 1366v-514q102 166 326 166q203 0 324.5 -141.5t121.5 -376.5q0 -242 -124 -385.5t-332 -143.5q-236 0 -326 172v-143h-152v1366h162zM612 881q-145 0 -228 -103.5t-83 -285.5q0 -178 82 -280.5t225 -102.5q137 0 220 106.5t83 280.5t-82 279.5t-217 105.5z" glyph-name="b" horiz-adv-x="1159" unicode="b"/><glyph d="M817 360h168q-27 -184 -140.5 -286.5t-293.5 -102.5q-217 0 -343 137.5t-126 372.5q0 248 128 392.5t347 144.5q180 0 289.5 -91t132.5 -259h-170q-20 104 -85 159.5t-167 55.5q-143 0 -226 -104.5t-83 -282.5q0 -180 80 -283.5t219 -103.5q111 0 181.5 65t88.5 186z" glyph-name="c" horiz-adv-x="1040" unicode="c"/><glyph d="M1016 1366v-1366h-154v145q-39 -82 -125 -128t-198 -46q-211 0 -334 141.5t-123 383t123 381.5q125 141 321 141q236 0 328 -166v514h162zM555 881q-143 0 -225 -102.5t-82 -278.5q0 -178 84 -284.5t223 -106.5q141 0 222 101t81 282q0 201 -92 299q-84 90 -211 90z" glyph-name="d" horiz-adv-x="1159" unicode="d"/><glyph d="M823 317h160q-80 -346 -432 -346q-217 0 -343 139.5t-126 378.5q0 231 130 380t333 149q135 0 242.5 -68.5t158.5 -189.5q49 -115 47 -305h-743q8 -346 311 -346q102 0 164.5 48.5t97.5 159.5zM252 588h573q-10 139 -85.5 217t-198.5 78t-197 -76t-92 -219z" glyph-name="e" horiz-adv-x="1064" unicode="e"/><glyph d="M555 1370v-139q-49 10 -94 10q-74 0 -98.5 -27.5t-24.5 -109.5v-115h190v-133h-190v-856h-162v856h-166v133h166v66q0 102 8.5 146t30.5 79q66 98 225 98q49 0 115 -8z" glyph-name="f" horiz-adv-x="573" unicode="f"/><glyph d="M989 989v-883q0 -217 -67 -329q-106 -180 -394 -180q-184 0 -290.5 74.5t-124.5 215.5h168q27 -164 254 -163q152 0 222 78.5t70 246.5v119q-53 -94 -127.5 -137t-187.5 -43q-195 0 -313.5 138t-118.5 366q0 236 123 381t319 145q106 0 180 -41t136 -131v143h151z M541 881q-152 0 -228 -115q-68 -102 -67 -258q0 -178 76.5 -280.5t212.5 -102.5q133 0 211.5 105.5t78.5 281.5q0 170 -76.5 269.5t-207.5 99.5z" glyph-name="g" horiz-adv-x="1132" unicode="g"/><glyph d="M305 1366v-401q0 -16 -4 -117q115 170 332 170t295 -148q37 -74 37 -227v-643h-162v623q0 131 -33 178q-55 80 -184 80q-86 0 -151.5 -40t-98.5 -112q-31 -74 -31 -262v-467h-162v1366h162z" glyph-name="h" horiz-adv-x="1101" unicode="h"/><glyph d="M305 1366v-199h-162v199h162zM305 989v-989h-162v989h162z" glyph-name="i" horiz-adv-x="448" unicode="i"/><glyph d="M307 989v-1014q0 -141 -6 -189t-29 -87q-51 -96 -215 -96q-27 0 -75 6v137q41 -6 59 -6q49 0 70.5 14.5t27.5 49t6 169.5v1016h162zM307 1366v-199h-162v199h162z" glyph-name="j" horiz-adv-x="448" unicode="j"/><glyph d="M979 989l-393 -358l422 -631h-207l-340 516l-156 -141v-375h-162v1366h162v-672v-141q45 47 68 68l389 368h217z" glyph-name="k" horiz-adv-x="1019" unicode="k"/><glyph d="M305 1366v-1366h-162v1366h162z" glyph-name="l" horiz-adv-x="448" unicode="l"/><glyph d="M295 989v-143q70 92 145.5 132t177.5 40q201 0 273 -174q123 174 332 174q182 0 262 -123q47 -72 47 -213v-682h-162v623q0 119 -18 161q-41 96 -181 97q-166 0 -231 -146q-23 -49 -22 -211v-524h-162v635q0 143 -41 190q-47 57 -146 58q-78 0 -141 -39t-94 -109 q-29 -66 -29 -211v-524h-162v989h152z" glyph-name="m" horiz-adv-x="1669" unicode="m"/><glyph d="M295 989v-153q123 182 344 182q207 0 285 -144q41 -76 41 -235v-639h-162v582q0 166 -33 217q-55 82 -182 82q-84 0 -150.5 -40t-97.5 -110q-35 -76 -35 -252v-479h-162v989h152z" glyph-name="n" horiz-adv-x="1101" unicode="n"/><glyph d="M569 1018q215 0 343 -141.5t128 -380.5q0 -246 -126 -385.5t-347 -139.5q-223 0 -354 141.5t-131 381.5q0 242 131 383t356 141zM567 881q-147 0 -233 -103.5t-86 -284t85 -282.5t232 -102q143 0 226 103t83 286q0 174 -84 278.5t-223 104.5z" glyph-name="o" horiz-adv-x="1118" unicode="o"/><glyph d="M295 989v-141q113 170 330 170q207 0 330.5 -144.5t123.5 -384.5q0 -233 -121.5 -375.5t-322.5 -142.5q-217 0 -330 164v-520h-162v1374h152zM610 881q-145 0 -228 -102.5t-83 -283t83 -283.5t228 -103q137 0 220 103t83 277.5t-84 283t-219 108.5z" glyph-name="p" horiz-adv-x="1159" unicode="p"/><glyph d="M1018 989v-1374h-162v522q-113 -166 -332 -166q-201 0 -320.5 140.5t-119.5 375.5q0 246 123 388.5t334 142.5q225 0 325 -172v143h152zM557 881q-141 0 -224 -105.5t-83 -286.5q0 -174 82 -277t221 -103q145 0 227 104t82 287q0 180 -86 282q-86 99 -219 99z" glyph-name="q" horiz-adv-x="1159" unicode="q"/><glyph d="M666 1018v-170q-45 4 -52 4q-129 0 -215 -86q-55 -57 -74.5 -135t-19.5 -246v-385h-162v989h152v-207q101 246 371 236z" glyph-name="r" horiz-adv-x="663" unicode="r"/><glyph d="M840 702h-162q-14 92 -71.5 135.5t-170.5 43.5q-96 0 -149.5 -36t-53.5 -102q0 -59 49.5 -87.5t215.5 -67.5q205 -45 290 -107q92 -70 93 -192q0 -145 -113 -231.5t-299 -86.5q-201 0 -309.5 87t-114.5 255h160q25 -205 266 -204q109 0 175.5 45t66.5 118q0 63 -51.5 97 t-196.5 69q-221 53 -283 86q-115 61 -114 203q0 133 102 212t274 79q223 0 326 -121q62 -68 70 -195z" glyph-name="s" horiz-adv-x="950" unicode="s"/><glyph d="M520 989v-133h-198v-584q0 -98 19 -125.5t91 -27.5q35 0 88 12v-139q-63 -8 -127 -8q-158 0 -205 77q-20 31 -24 79t-4 222v494h-166v133h166v295h162v-295h198z" glyph-name="t" horiz-adv-x="577" unicode="t"/><glyph d="M963 989v-989h-152v154q-115 -182 -344 -183q-178 0 -264 109q-66 80 -66 268v641h162v-583q0 -164 33 -216q53 -82 182 -81q168 0 248 145q39 76 39 256v479h162z" glyph-name="u" horiz-adv-x="1105" unicode="u"/><glyph d="M905 989l-360 -989h-174l-369 989h180l178 -502q55 -160 105 -325q10 43 37 131q6 25 12 43l55 164l166 489h170z" glyph-name="v" horiz-adv-x="905" unicode="v"/><glyph d="M1399 989l-316 -989h-174l-147 541q-27 100 -60 245q-23 -104 -57 -245l-141 -541h-176l-318 989h180l138 -473q37 -129 88 -336q53 244 78 340l122 469h181l141 -526q20 -74 66 -283q37 164 69 281l154 528h172z" glyph-name="w" horiz-adv-x="1406" unicode="w"/><glyph d="M911 989l-342 -454l383 -535h-209l-213 311q-8 10 -15 20.5t-10 15.5t-5 7q-2 4 -7.5 12.5t-12.5 20.5t-13 23q-25 -37 -31 -50l-35 -49l-208 -311h-199l371 520l-345 469h209l158 -223q14 -18 80 -123q76 111 86 123l162 223h196z" glyph-name="x" horiz-adv-x="946" unicode="x"/><glyph d="M928 989l-365 -956q-100 -266 -135 -320q-70 -113 -213 -112q-45 0 -94 12l-25 4v147q74 -23 105 -22q61 0 94 45t98 219l-391 983h182l217 -579q29 -78 76 -230q43 137 80 244l199 565h172z" glyph-name="y" horiz-adv-x="927" unicode="y"/><glyph d="M858 989v-106l-530 -664q-6 -6 -17.5 -20.5t-17.5 -20.5l-41 -45h123h508v-133h-836v121l518 645q43 47 84 90h-94h-469v133h772z" glyph-name="z" horiz-adv-x="903" unicode="z"/><glyph d="M299 1020v-297q0 -96 -24.5 -147.5t-88.5 -86.5q63 -35 88 -88t25 -149v-291q0 -127 40 -171t157 -46v-129h-15q-121 0 -179 14.5t-95 55.5q-63 70 -64 235v309q0 90 -25.5 133.5t-90.5 61.5v137q63 18 89.5 61.5t26.5 125.5v339q0 147 66 213q39 37 98.5 51.5 t175.5 14.5h13v-129q-115 -4 -156 -48t-41 -169z" glyph-name="braceleft" horiz-adv-x="600" unicode="{"/><glyph d="M424 1366h178v-1708h-178v1708z" glyph-name="bar" unicode="|"/><glyph d="M299 -39v297q0 96 24.5 147.5t88.5 86.5q-63 35 -88 88t-25 149v291q0 127 -40 171t-155 46v129h15q119 0 177 -14.5t95 -55.5q63 -70 64 -235v-309q0 -90 26.5 -133.5t91.5 -61.5v-137q-66 -18 -92 -61.5t-26 -125.5v-339q0 -147 -66 -213q-39 -37 -98.5 -51.5 t-173.5 -14.5h-13v129q115 2 155 47t40 170z" glyph-name="braceright" horiz-adv-x="600" unicode="}"/><glyph d="M287 1182l-94 73q104 238 280 238q78 0 238 -80q133 -68 186 -67q102 0 184 151l93 -74q-102 -236 -297 -235q-41 0 -82 15.5t-162 76.5q-109 53 -166 53q-98 1 -180 -151z" glyph-name="asciitilde" horiz-adv-x="1366" unicode="~"/><glyph glyph-name="uni00A0" horiz-adv-x="512" unicode=" "/><glyph d="M180 -375v418l47 608h88l45 -608v-418h-180zM170 797v192h201v-192h-201z" glyph-name="exclamdown" horiz-adv-x="583" unicode="¡"/><glyph d="M842 559h162q-14 -162 -124 -271.5t-259 -111.5v-207h-103v207q-188 10 -298.5 149.5t-110.5 366.5q0 223 109.5 363.5t299.5 161.5v167h103v-167q158 -4 264 -100.5t119 -250.5h-173q-10 88 -68 146.5t-142 66.5v-768q84 4 145.5 74t75.5 174zM518 313v762 q-111 -14 -175 -116.5t-64 -260.5q0 -164 63 -266.5t176 -118.5z" glyph-name="cent" horiz-adv-x="1091" unicode="¢"/><glyph d="M1030 930h-166q-8 143 -80.5 219t-205.5 76q-117 0 -193 -65.5t-76 -168.5q0 -86 64 -205l33 -61l6 -12h317v-117h-262q23 -66 22 -115q0 -90 -43 -162.5t-151 -168.5q-10 -4 -25 -23q121 59 219 59q49 0 85 -8t151 -43q41 -10 80 -10q100 0 184 68l80 -127 q-102 -92 -266 -93q-51 0 -83 7.5t-132 39.5q-111 35 -185 35q-49 0 -89 -15t-109 -60l-88 135q211 158 211 336q0 72 -37 145h-180v117h120q-53 86 -72.5 144t-19.5 130q0 168 123 273.5t318 105.5q211 0 331.5 -116.5t118.5 -319.5z" glyph-name="sterling" horiz-adv-x="1091" unicode="£"/><glyph d="M172 289l113 112q-104 145 -105 306q0 170 107 305l-117 116l88 89l117 -115q143 111 311 110q160 0 303 -106l115 111l86 -89l-113 -110q113 -143 113 -311q0 -166 -109 -306l113 -112l-86 -88l-113 112q-143 -111 -313 -110q-168 0 -309 110l-115 -112zM692 1073 q-156 0 -264.5 -105.5t-108.5 -256.5q0 -156 108 -263.5t261 -107.5q152 0 259.5 107.5t107.5 259.5q0 150 -106.5 258t-256.5 108z" glyph-name="currency" horiz-adv-x="1366" unicode="¤"/><glyph d="M743 776h236v-117h-299l-51 -100v-113h309v-116h-309v-330h-164v330h-313v116h313v113l-53 100h-301v117h239l-299 561h187l315 -628l309 628h178z" glyph-name="yen" horiz-adv-x="1091" unicode="¥"/><glyph d="M424 1366h178v-690h-178v690zM424 313h178v-655h-178v655z" glyph-name="brokenbar" unicode="¦"/><glyph d="M905 1030h-162q-16 205 -196 205q-82 0 -132 -43t-50 -113q0 -78 86 -143q31 -25 241 -145q188 -111 251 -182.5t63 -178.5q0 -195 -199 -285q59 -55 82.5 -104t23.5 -119q0 -133 -100 -220t-256 -87q-172 0 -272.5 94t-108.5 260h164q18 -217 221 -217q82 0 134.5 45 t52.5 115q0 66 -58.5 121t-245.5 162q-147 84 -194 115.5t-82 70.5q-82 84 -82 213q0 100 56.5 177t146.5 99q-88 90 -88 199q0 135 97 219t255 84q164 0 258 -91t94 -251zM379 791q-139 -61 -139 -181q0 -82 79 -145q47 -37 240 -146q35 -20 152 -96q137 59 137 178 q0 76 -65.5 132.5t-331.5 207.5q-45 27 -72 50z" glyph-name="section" horiz-adv-x="1091" unicode="§"/><glyph d="M778 1354v-195h-174v195h174zM418 1354v-195h-174v195h174z" glyph-name="dieresis" unicode="¨"/><glyph d="M1032 598h127q-14 -156 -109.5 -241t-254.5 -85q-178 0 -283.5 111t-105.5 299q0 182 109.5 296t287.5 114q145 0 242.5 -74t107.5 -193h-127q-39 162 -225 162q-121 0 -193.5 -83t-72.5 -222q0 -141 71.5 -223t194.5 -82q206 0 231 221zM813 1397q287 0 495 -211 t208 -504q0 -295 -209 -504t-504 -209t-504 209t-209 504q0 299 210 507t513 208zM811 1296q-256 0 -434 -178t-178 -436q0 -254 177 -433t427 -179t427 180t177 434q0 250 -176 431t-420 181z" glyph-name="copyright" horiz-adv-x="1605" unicode="©"/><glyph d="M700 608h-608v68h608v-68zM672 907v-84q-39 -12 -72 -12q-68 0 -86 70q-72 -76 -192 -76q-84 0 -134.5 43t-50.5 115q0 109 109 149q45 16 172 31q53 6 72.5 19.5t19.5 43.5q0 86 -119 86q-66 0 -95.5 -23.5t-35.5 -82.5h-102q2 94 63.5 144t175.5 50q119 0 178 -53 q41 -39 41 -135t-4 -215v-31q0 -49 29 -49q13 0 31 10zM510 1024v66q-53 -18 -115 -25q-84 -8 -117.5 -29.5t-33.5 -64.5q0 -84 102 -84q96 0 148 67q16 25 16 70z" glyph-name="ordfeminine" horiz-adv-x="794" unicode="ª"/><glyph d="M766 823v-166l-191 -145l191 -152v-161l-291 229v166zM393 823v-164l-196 -145l196 -152v-167l-297 235v164z" glyph-name="guillemotleft" horiz-adv-x="888" unicode="«"/><glyph d="M782 0v416h-714v155h886v-571h-172z" glyph-name="logicalnot" unicode="¬"/><glyph d="M465 592v-164h-465v164h465z" glyph-name="uni00AD" horiz-adv-x="464" unicode="­"/><glyph d="M487 1075h383q104 0 166 -35q104 -59 105 -182q0 -129 -117 -186q59 -29 77.5 -71t28.5 -167q8 -88 29 -117l27 -26h-152q-23 29 -26 100q-8 154 -40 193t-147 39h-207v-332h-127v784zM614 969v-246h195q113 0 159 27.5t46 97.5q0 66 -41 93.5t-135 27.5h-224zM813 1397 q287 0 495 -211t208 -504q0 -295 -209 -504t-504 -209t-504 209t-209 504q0 299 210 507t513 208zM811 1296q-256 0 -434 -178t-178 -436q0 -254 177 -433t427 -179t427 180t177 434q0 250 -176 431t-420 181z" glyph-name="registered" horiz-adv-x="1605" unicode="®"/><glyph d="M799 1307v-113h-576v113h576z" glyph-name="macron" unicode="¯"/><glyph d="M395 1366q125 0 213 -89t88 -216q0 -123 -88 -211t-213 -88t-214 88t-89 215q0 125 89 213t214 88zM391 1274q-82 0 -143.5 -62.5t-61.5 -146.5q0 -88 61.5 -149.5t147.5 -61.5q84 0 145.5 61.5t61.5 143.5q0 90 -61.5 152.5t-149.5 62.5z" glyph-name="degree" horiz-adv-x="788" unicode="°"/><glyph d="M102 735h379v377h129v-377h379v-129h-379v-366h-129v366h-379v129zM102 170h887v-129h-887v129z" glyph-name="plusminus" horiz-adv-x="1091" unicode="±"/><glyph d="M649 645v-100h-573q8 123 63.5 198.5t194.5 153.5q121 70 161 115t40 110.5t-44.5 106.5t-113.5 41q-154 0 -160 -205h-117q0 145 73 224t210 79q123 0 197.5 -66.5t74.5 -177.5q0 -94 -55 -158.5t-209 -152.5q-98 -53 -135 -86t-55 -82h448z" glyph-name="uni00B2" horiz-adv-x="722" unicode="²"/><glyph d="M195 1092h-115q4 133 76.5 203.5t203.5 70.5q115 0 186.5 -59.5t71.5 -155.5q0 -109 -104 -168q141 -53 141 -192q0 -117 -83 -189t-218 -72q-133 0 -213 71t-80 190v20h115q6 -182 180 -182q78 0 128.5 43t50.5 108q0 72 -49.5 110t-139.5 38q-12 0 -57 -4v96 q23 -2 43 -2q78 0 122 33.5t44 93.5q0 55 -40 89t-104 34q-155 0 -159 -176z" glyph-name="uni00B3" horiz-adv-x="722" unicode="³"/><glyph d="M764 1399l-229 -273h-113l141 273h201z" glyph-name="acute" unicode="´"/><glyph d="M100 -340v1323h154v-553q0 -102 12.5 -150.5t50.5 -91.5q76 -86 187 -86q119 0 193.5 96.5t74.5 250.5v534h154v-983h-154v184q-43 -109 -108.5 -160t-163.5 -51q-156 0 -246 150v-463h-154z" glyph-name="uni00B5" unicode="µ"/><glyph d="M455 -385v1032q-96 0 -164 23q-102 37 -160.5 125t-58.5 209q0 100 43 182t118 127q94 53 267 53h485v-109h-88v-1642h-133v1642h-176v-1642h-133z" glyph-name="paragraph" horiz-adv-x="1091" unicode="¶"/><glyph d="M367 616v-213h-224v213h224z" glyph-name="periodcentered" horiz-adv-x="509" unicode="·"/><glyph d="M549 0l-86 -117q39 10 65 11q74 0 120 -38t46 -100q0 -76 -64.5 -123t-170.5 -47q-86 0 -180 39l34 68q72 -25 131 -25q47 0 76 21.5t29 54.5t-26.5 54.5t-67.5 21.5q-27 0 -76 -15l-31 33l121 162h80z" glyph-name="cedilla" unicode="¸"/><glyph d="M487 1366v-819h-127v583h-55h-59h-66h-35v87q113 -2 169.5 31.5t78.5 117.5h94z" glyph-name="uni00B9" horiz-adv-x="722" unicode="¹"/><glyph d="M700 608h-608v68h608v-68zM401 1380q123 0 197 -77.5t74 -208.5q0 -135 -73 -212t-200 -77t-202.5 78t-75.5 211q0 131 75.5 208.5t204.5 77.5zM399 1292q-80 0 -126 -53t-46 -147q0 -92 46 -145.5t126 -53.5q78 0 122 53t44 148q0 90 -45 144t-121 54z" glyph-name="ordmasculine" horiz-adv-x="794" unicode="º"/><glyph d="M496 823l297 -237v-162l-297 -229v163l194 146l-194 151v168zM123 819l291 -231v-162l-291 -227v161l190 146l-190 149v164z" glyph-name="guillemotright" horiz-adv-x="888" unicode="»"/><glyph d="M487 1366v-819h-127v583h-55h-59h-66h-35v87q113 -2 169.5 31.5t78.5 117.5h94zM1327 1350l-776 -1350h-115l783 1350h108zM1694 291v-96h-117v-195h-111v195h-374v100l391 524h94v-528h117zM1466 291v221q0 92 2 143q-20 -31 -37.5 -55.5t-23.5 -32.5t-11 -16t-12 -16 l-110 -148q-45 -57 -78 -96h86h184z" glyph-name="onequarter" horiz-adv-x="1757" unicode="¼"/><glyph d="M487 1366v-819h-127v583h-55h-59h-66h-35v87q113 -2 169.5 31.5t78.5 117.5h94zM1327 1350l-776 -1350h-115l783 1350h108zM1683 100v-100h-573q6 123 61.5 198.5t196.5 153.5q121 72 161 116t40 107q0 66 -44 107t-114 41q-154 0 -160 -205h-116q0 145 72.5 223 t209.5 78q123 0 198 -66.5t75 -174.5q0 -94 -55.5 -159t-209.5 -151q-96 -53 -133 -85.5t-57 -82.5h448z" glyph-name="onehalf" horiz-adv-x="1755" unicode="½"/><glyph d="M195 1092h-115q4 133 76.5 203.5t203.5 70.5q115 0 186.5 -59.5t71.5 -155.5q0 -109 -104 -168q141 -53 141 -192q0 -117 -83 -189t-218 -72q-133 0 -213 71t-80 190v20h115q6 -182 180 -182q78 0 128.5 43t50.5 108q0 72 -49.5 110t-139.5 38q-12 0 -57 -4v96 q23 -2 43 -2q78 0 122 33.5t44 93.5q0 55 -40 89t-104 34q-155 0 -159 -176zM1327 1350l-776 -1350h-117l783 1350h110zM1692 291v-96h-117v-195h-111v195h-374v100l391 524h94v-528h117zM1464 291v221q0 92 2 143q-20 -31 -37.5 -55.5t-23.5 -32.5t-11 -16t-12 -16 l-110 -148q-12 -14 -78 -96h86h184z" glyph-name="threequarters" horiz-adv-x="1757" unicode="¾"/><glyph d="M760 47h160q-8 -176 -68 -270q-117 -184 -365 -185q-184 0 -294.5 101.5t-110.5 269.5q0 131 72 230q29 41 151 159q72 66 92.5 122t20.5 179h157q-4 -170 -35.5 -240.5t-174.5 -211.5q-109 -109 -109 -228q0 -106 63.5 -170.5t169.5 -64.5q251 0 271 309zM399 795v194 h203v-194h-203z" glyph-name="questiondown" horiz-adv-x="1021" unicode="¿"/><glyph d="M752 1370l532 -1370h-199l-153 420h-574l-155 -420h-191l537 1370h203zM879 565l-136 363q-72 193 -96 276q-10 -31 -22.5 -64.5t-18.5 -49.5q-20 -43 -57 -154l-137 -371h467zM369 1735h213l155 -260h-133z" glyph-name="Agrave" horiz-adv-x="1296" unicode="À"/><glyph d="M752 1370l532 -1370h-199l-153 420h-574l-155 -420h-191l537 1370h203zM879 565l-136 363q-72 193 -96 276q-10 -31 -22.5 -64.5t-18.5 -49.5q-20 -43 -57 -154l-137 -371h467zM930 1735l-238 -260h-133l156 260h215z" glyph-name="Aacute" horiz-adv-x="1296" unicode="Á"/><glyph d="M752 1370l532 -1370h-199l-153 420h-574l-155 -420h-191l537 1370h203zM879 565l-136 363q-72 193 -96 276q-10 -31 -22.5 -64.5t-18.5 -49.5q-20 -43 -57 -154l-137 -371h467zM963 1477h-185l-121 165l-129 -165h-168l199 254h203z" glyph-name="Acircumflex" horiz-adv-x="1296" unicode="Â"/><glyph d="M752 1370l532 -1370h-199l-153 420h-574l-155 -420h-191l537 1370h203zM879 565l-136 363q-72 193 -96 276q-10 -31 -22.5 -64.5t-18.5 -49.5q-20 -43 -57 -154l-137 -371h467zM887 1718h96q-14 -102 -65.5 -158.5t-131.5 -56.5q-47 0 -200 58q-43 16 -76 16 q-63 0 -90 -84h-92q12 100 64 155.5t136 55.5q41 0 72 -9t137 -53q27 -10 58 -10q69 0 92 86z" glyph-name="Atilde" horiz-adv-x="1296" unicode="Ã"/><glyph d="M752 1370l532 -1370h-199l-153 420h-574l-155 -420h-191l537 1370h203zM879 565l-136 363q-72 193 -96 276q-10 -31 -22.5 -64.5t-18.5 -49.5q-20 -43 -57 -154l-137 -371h467zM948 1698v-189h-178v189h178zM528 1698v-189h-178v189h178z" glyph-name="Adieresis" horiz-adv-x="1296" unicode="Ä"/><glyph d="M752 1370l532 -1370h-199l-153 420h-574l-155 -420h-191l537 1370h203zM879 565l-136 363q-72 193 -96 276q-10 -31 -22.5 -64.5t-18.5 -49.5q-20 -43 -57 -154l-137 -371h467zM653 1882q88 0 151.5 -64.5t63.5 -152.5q0 -90 -63.5 -153.5t-153.5 -63.5 q-92 0 -155.5 63.5t-63.5 155.5q0 90 64.5 152.5t156.5 62.5zM649 1784q-51 0 -86 -34t-35 -85q0 -49 35 -84t84 -35q51 0 87 35t36 84q0 47 -36 83t-85 36z" glyph-name="Aring" horiz-adv-x="1296" unicode="Å"/><glyph d="M1720 1366v-158h-671v-432h632v-145h-632v-473h684v-158h-865v401h-469l-198 -401h-207l696 1366h1030zM868 547v665h-75l-322 -665h397z" glyph-name="AE" horiz-adv-x="1814" unicode="Æ"/><glyph d="M1135 516h180q-18 -240 -174 -391.5t-387 -155.5l-64 -86q43 8 68 8q68 0 114 -37.5t46 -95.5q0 -78 -63.5 -127t-166.5 -49q-74 0 -184 39l33 72q61 -27 135 -27q45 0 71.5 21.5t26.5 58.5q0 31 -26.5 50.5t-69.5 19.5q-33 0 -74 -13l-31 35l101 131q-231 6 -383 168 q-197 199 -197 543q0 317 184 526q170 190 469 191q272 0 433 -172q113 -121 127 -269h-183q-18 98 -94 177q-104 111 -287 110q-211 0 -339 -153.5t-128 -403.5q0 -225 101 -379q123 -184 362 -184q205 0 312 143q78 111 88 250z" glyph-name="Ccedilla" horiz-adv-x="1384" unicode="Ç"/><glyph d="M1104 1366v-158h-766v-432h715v-145h-715v-473h776v-158h-956v1366h946zM399 1735h215l156 -260h-133z" glyph-name="Egrave" horiz-adv-x="1196" unicode="È"/><glyph d="M1104 1366v-158h-766v-432h715v-145h-715v-473h776v-158h-956v1366h946zM907 1735l-237 -260h-133l155 260h215z" glyph-name="Eacute" horiz-adv-x="1196" unicode="É"/><glyph d="M1104 1366v-158h-766v-432h715v-145h-715v-473h776v-158h-956v1366h946zM934 1477h-184l-123 165l-127 -165h-168l196 254h205z" glyph-name="Ecircumflex" horiz-adv-x="1196" unicode="Ê"/><glyph d="M1104 1366v-158h-766v-432h715v-145h-715v-473h776v-158h-956v1366h946zM932 1698v-189h-178v189h178zM512 1698v-189h-178v189h178z" glyph-name="Edieresis" horiz-adv-x="1196" unicode="Ë"/><glyph d="M338 1366v-1366h-180v1366h180zM-33 1735h215l156 -260h-133z" glyph-name="Igrave" horiz-adv-x="493" unicode="Ì"/><glyph d="M338 1366v-1366h-180v1366h180zM528 1735l-237 -260h-133l155 260h215z" glyph-name="Iacute" horiz-adv-x="493" unicode="Í"/><glyph d="M336 1366v-1366h-180v1366h180zM535 1477h-187l-106 165l-115 -165h-168l184 254h203z" glyph-name="Icircumflex" horiz-adv-x="493" unicode="Î"/><glyph d="M338 1366v-1366h-180v1366h180zM485 1698v-189h-178v189h178zM188 1698v-189h-178v189h178z" glyph-name="Idieresis" horiz-adv-x="493" unicode="Ï"/><glyph d="M158 1366h489q156 0 255 -30.5t179 -102.5q201 -176 201 -522q0 -360 -192 -559q-84 -86 -175.5 -119t-246.5 -33h-510v641h-138v137h138v588zM338 1210v-432h354v-137h-354v-483h295q139 0 210.5 22.5t127.5 83.5q129 147 129 438q0 508 -449 508h-313z" glyph-name="Eth" horiz-adv-x="1372" unicode="Ð"/><glyph d="M1249 1366v-1366h-198l-488 737q-199 307 -246 406q8 -98 9 -185l4 -268v-690h-172v1366h194l510 -778q160 -242 228 -373q-12 283 -13 467v684h172zM950 1718h94q-14 -102 -65 -158.5t-131 -56.5q-47 0 -201 58q-43 16 -76 16q-63 0 -90 -84h-90q10 100 62.5 155.5 t136.5 55.5q41 0 73.5 -9t135.5 -53q31 -10 59 -10q72 0 92 86z" glyph-name="Ntilde" horiz-adv-x="1406" unicode="Ñ"/><glyph d="M754 1397q285 0 464 -198t179 -513q0 -324 -179.5 -520.5t-476.5 -196.5q-293 0 -472 195.5t-179 517.5q0 326 180.5 520.5t483.5 194.5zM750 1243q-219 0 -348.5 -150.5t-129.5 -406.5t129 -409.5t344 -153.5q211 0 340 153.5t129 407.5q0 250 -128.5 404.5 t-335.5 154.5zM504 1735h215l155 -260h-133z" glyph-name="Ograve" horiz-adv-x="1486" unicode="Ò"/><glyph d="M754 1397q285 0 464 -198t179 -513q0 -324 -179.5 -520.5t-476.5 -196.5q-293 0 -472 195.5t-179 517.5q0 326 180.5 520.5t483.5 194.5zM750 1243q-219 0 -348.5 -150.5t-129.5 -406.5t129 -409.5t344 -153.5q211 0 340 153.5t129 407.5q0 250 -128.5 404.5 t-335.5 154.5zM1010 1735l-236 -260h-133l156 260h213z" glyph-name="Oacute" horiz-adv-x="1486" unicode="Ó"/><glyph d="M754 1397q285 0 464 -198t179 -513q0 -324 -179.5 -520.5t-476.5 -196.5q-293 0 -472 195.5t-179 517.5q0 326 180.5 520.5t483.5 194.5zM750 1243q-219 0 -348.5 -150.5t-129.5 -406.5t129 -409.5t344 -153.5q211 0 340 153.5t129 407.5q0 250 -128.5 404.5 t-335.5 154.5zM1044 1477h-184l-123 165l-127 -165h-168l197 254h205z" glyph-name="Ocircumflex" horiz-adv-x="1486" unicode="Ô"/><glyph d="M754 1397q285 0 464 -198t179 -513q0 -324 -179.5 -520.5t-476.5 -196.5q-293 0 -472 195.5t-179 517.5q0 326 180.5 520.5t483.5 194.5zM750 1243q-219 0 -348.5 -150.5t-129.5 -406.5t129 -409.5t344 -153.5q211 0 340 153.5t129 407.5q0 250 -128.5 404.5 t-335.5 154.5zM989 1718h94q-14 -102 -65 -158.5t-131 -56.5q-45 0 -199 58q-45 16 -76 16q-68 0 -90 -84h-92q12 102 64.5 156.5t136.5 54.5q41 0 71.5 -9t135.5 -53q31 -10 59 -10q69 0 92 86z" glyph-name="Otilde" horiz-adv-x="1486" unicode="Õ"/><glyph d="M754 1397q285 0 464 -198t179 -513q0 -324 -179.5 -520.5t-476.5 -196.5q-293 0 -472 195.5t-179 517.5q0 326 180.5 520.5t483.5 194.5zM750 1243q-219 0 -348.5 -150.5t-129.5 -406.5t129 -409.5t344 -153.5q211 0 340 153.5t129 407.5q0 250 -128.5 404.5 t-335.5 154.5zM1042 1698v-189h-178v189h178zM623 1698v-189h-179v189h179z" glyph-name="Odieresis" horiz-adv-x="1486" unicode="Ö"/><glyph d="M162 377l293 293l-293 291l92 92l291 -293l293 293l92 -92l-293 -291l293 -293l-92 -92l-293 293l-291 -293z" glyph-name="multiply" horiz-adv-x="1091" unicode="×"/><glyph d="M59 43l164 178q-133 188 -133 463q0 322 180.5 517.5t472.5 195.5q252 0 422 -146l152 164l82 -78l-156 -170q154 -205 154 -479q0 -324 -179.5 -521.5t-476.5 -197.5q-258 0 -442 166l-158 -172zM344 352l707 774q-121 117 -310 117q-213 0 -341 -151.5t-128 -403.5 q0 -191 72 -336zM1124 1036l-712 -776q139 -137 333 -137q211 0 340 153.5t129 407.5q0 200 -90 352z" glyph-name="Oslash" horiz-adv-x="1486" unicode="Ø"/><glyph d="M1237 1366v-797q0 -168 -18.5 -249.5t-75.5 -161.5q-131 -188 -451 -189q-342 0 -477 213q-45 70 -61.5 154t-16.5 235v795h180v-799q0 -131 9.5 -188t40.5 -111q80 -145 327 -145q236 0 312 135q29 53 40 117.5t11 191.5v799h180zM434 1735h213l156 -260h-133z" glyph-name="Ugrave" horiz-adv-x="1372" unicode="Ù"/><glyph d="M1237 1366v-797q0 -168 -18.5 -249.5t-75.5 -161.5q-131 -188 -451 -189q-342 0 -477 213q-45 70 -61.5 154t-16.5 235v795h180v-799q0 -131 9.5 -188t40.5 -111q80 -145 327 -145q236 0 312 135q29 53 40 117.5t11 191.5v799h180zM967 1735l-236 -260h-133l156 260h213z " glyph-name="Uacute" horiz-adv-x="1372" unicode="Ú"/><glyph d="M1237 1366v-797q0 -168 -18.5 -249.5t-75.5 -161.5q-131 -188 -451 -189q-342 0 -477 213q-45 70 -61.5 154t-16.5 235v795h180v-799q0 -131 9.5 -188t40.5 -111q80 -145 327 -145q236 0 312 135q29 53 40 117.5t11 191.5v799h180zM987 1477h-184l-121 165l-129 -165 h-168l199 254h202z" glyph-name="Ucircumflex" horiz-adv-x="1372" unicode="Û"/><glyph d="M1237 1366v-797q0 -168 -18.5 -249.5t-75.5 -161.5q-131 -188 -451 -189q-342 0 -477 213q-45 70 -61.5 154t-16.5 235v795h180v-799q0 -131 9.5 -188t40.5 -111q80 -145 327 -145q236 0 312 135q29 53 40 117.5t11 191.5v799h180zM985 1698v-189h-178v189h178zM565 1698 v-189h-178v189h178z" glyph-name="Udieresis" horiz-adv-x="1372" unicode="Ü"/><glyph d="M1219 1366l-527 -807v-559h-180v559l-532 807h219l321 -510q33 -55 39 -63l19 -31q18 -31 30 -53q27 49 84 143l320 514h207zM879 1735l-236 -260h-133l156 260h213z" glyph-name="Yacute" horiz-adv-x="1198" unicode="Ý"/><glyph d="M158 1366h180v-205h362q213 0 318 -71q158 -109 158 -324q0 -233 -160 -340q-59 -41 -125 -55.5t-182 -14.5h-371v-356h-180v1366zM338 1006v-504h348q150 0 215 49q92 68 92 205q0 145 -106 211q-70 39 -228 39h-321z" glyph-name="Thorn" horiz-adv-x="1241" unicode="Þ"/><glyph d="M453 -16v135q45 -6 65 -6q137 0 216 79.5t79 219.5q0 145 -80 211.5t-254 66.5q-14 0 -26 -2v131q127 2 182 27q113 55 113 194q0 94 -60.5 151.5t-159.5 57.5q-135 0 -186 -86q-23 -39 -30 -86t-7 -157v-920h-162v891q0 160 11.5 226.5t50.5 119.5q98 150 325 149 q176 0 279.5 -91t103.5 -244q0 -104 -53 -181t-141 -100q125 -23 192.5 -116t67.5 -238q0 -209 -150 -336q-117 -102 -303 -103q-30 1 -73 7z" glyph-name="germandbls" horiz-adv-x="1060" unicode="ß"/><glyph d="M993 131v-127q-55 -20 -114 -20q-68 0 -105 38.5t-37 108.5q-139 -160 -358 -160q-147 0 -232.5 76t-85.5 205q0 197 187 270q47 20 89 27.5t216 30.5q98 10 136 38.5t38 92.5q0 172 -223 172q-119 0 -176.5 -48.5t-67.5 -154.5h-160q4 160 114 249t302 89q209 0 309 -96 q68 -68 68 -234q0 -100 -6 -407q-2 -27 -2 -60q0 -55 14 -77.5t51 -22.5q20 0 43 10zM729 367v147q-33 -25 -74 -36t-145 -23q-143 -18 -197 -47q-84 -43 -84 -142q0 -78 53.5 -123t143.5 -45q176 0 272 133q31 44 31 136zM266 1399h201l141 -273h-112z" glyph-name="agrave" horiz-adv-x="1036" unicode="à"/><glyph d="M993 131v-127q-55 -20 -114 -20q-68 0 -105 38.5t-37 108.5q-139 -160 -358 -160q-147 0 -232.5 76t-85.5 205q0 197 187 270q47 20 89 27.5t216 30.5q98 10 136 38.5t38 92.5q0 172 -223 172q-119 0 -176.5 -48.5t-67.5 -154.5h-160q4 160 114 249t302 89q209 0 309 -96 q68 -68 68 -234q0 -100 -6 -407q-2 -27 -2 -60q0 -55 14 -77.5t51 -22.5q20 0 43 10zM729 367v147q-33 -25 -74 -36t-145 -23q-143 -18 -197 -47q-84 -43 -84 -142q0 -78 53.5 -123t143.5 -45q176 0 272 133q31 44 31 136zM752 1399l-230 -273h-112l141 273h201z" glyph-name="aacute" horiz-adv-x="1036" unicode="á"/><glyph d="M993 131v-127q-55 -20 -114 -20q-68 0 -105 38.5t-37 108.5q-139 -160 -358 -160q-147 0 -232.5 76t-85.5 205q0 197 187 270q47 20 89 27.5t216 30.5q98 10 136 38.5t38 92.5q0 172 -223 172q-119 0 -176.5 -48.5t-67.5 -154.5h-160q4 160 114 249t302 89q209 0 309 -96 q68 -68 68 -234q0 -100 -6 -407q-2 -27 -2 -60q0 -55 14 -77.5t51 -22.5q20 0 43 10zM729 367v147q-33 -25 -74 -36t-145 -23q-143 -18 -197 -47q-84 -43 -84 -142q0 -78 53.5 -123t143.5 -45q176 0 272 133q31 44 31 136zM793 1133h-164l-129 184l-135 -184h-148l199 274 h176z" glyph-name="acircumflex" horiz-adv-x="1036" unicode="â"/><glyph d="M993 131v-127q-55 -20 -114 -20q-68 0 -105 38.5t-37 108.5q-139 -160 -358 -160q-147 0 -232.5 76t-85.5 205q0 197 187 270q47 20 89 27.5t216 30.5q98 10 136 38.5t38 92.5q0 172 -223 172q-119 0 -176.5 -48.5t-67.5 -154.5h-160q4 160 114 249t302 89q209 0 309 -96 q68 -68 68 -234q0 -100 -6 -407q-2 -27 -2 -60q0 -55 14 -77.5t51 -22.5q20 0 43 10zM729 367v147q-33 -25 -74 -36t-145 -23q-143 -18 -197 -47q-84 -43 -84 -142q0 -78 53.5 -123t143.5 -45q176 0 272 133q31 44 31 136zM713 1386h90q-33 -213 -178 -212q-45 0 -119 30 q-104 43 -133 43q-57 0 -78 -86h-88q25 213 182 213q39 0 66.5 -9t124.5 -52q27 -10 53 -10q60 -1 80 83z" glyph-name="atilde" horiz-adv-x="1036" unicode="ã"/><glyph d="M993 131v-127q-55 -20 -114 -20q-68 0 -105 38.5t-37 108.5q-139 -160 -358 -160q-147 0 -232.5 76t-85.5 205q0 197 187 270q47 20 89 27.5t216 30.5q98 10 136 38.5t38 92.5q0 172 -223 172q-119 0 -176.5 -48.5t-67.5 -154.5h-160q4 160 114 249t302 89q209 0 309 -96 q68 -68 68 -234q0 -100 -6 -407q-2 -27 -2 -60q0 -55 14 -77.5t51 -22.5q20 0 43 10zM729 367v147q-33 -25 -74 -36t-145 -23q-143 -18 -197 -47q-84 -43 -84 -142q0 -78 53.5 -123t143.5 -45q176 0 272 133q31 44 31 136zM772 1354v-195h-174v195h174zM412 1354v-195h-174 v195h174z" glyph-name="adieresis" horiz-adv-x="1036" unicode="ä"/><glyph d="M993 131v-127q-55 -20 -114 -20q-68 0 -105 38.5t-37 108.5q-139 -160 -358 -160q-147 0 -232.5 76t-85.5 205q0 197 187 270q47 20 89 27.5t216 30.5q98 10 136 38.5t38 92.5q0 172 -223 172q-119 0 -176.5 -48.5t-67.5 -154.5h-160q4 160 114 249t302 89q209 0 309 -96 q68 -68 68 -234q0 -100 -6 -407q-2 -27 -2 -60q0 -55 14 -77.5t51 -22.5q20 0 43 10zM729 367v147q-33 -25 -74 -36t-145 -23q-143 -18 -197 -47q-84 -43 -84 -142q0 -78 53.5 -123t143.5 -45q176 0 272 133q31 44 31 136zM508 1505q82 0 142.5 -61.5t60.5 -145.5 q0 -86 -60.5 -146t-146.5 -60t-146.5 60t-60.5 148q0 86 61.5 145.5t149.5 59.5zM502 1417q-51 0 -86 -33.5t-35 -85.5q0 -49 35 -83.5t84 -34.5q51 0 87 34.5t36 83.5q0 47 -36 83t-85 36z" glyph-name="aring" horiz-adv-x="1036" unicode="å"/><glyph d="M1442 311h162q-39 -162 -153 -251t-284 -89q-256 0 -352 201q-117 -201 -399 -201q-164 0 -258.5 78t-94.5 215q0 150 119 230q78 51 283 75q111 12 157 18.5t77.5 24t35.5 36t4 63.5q0 168 -225 168q-152 0 -215 -82q-29 -39 -37 -121h-160q16 145 95 223 q117 117 327 117q252 0 328 -150q98 150 317 150q207 0 325 -135.5t118 -376.5v-49h-719v-19q0 -152 78 -239.5t209 -87.5q196 -1 262 202zM891 588h553q-8 135 -83 213t-196 78q-72 0 -134 -33t-97 -90q-33 -59 -43 -168zM737 354v158q-33 -25 -71.5 -34t-167.5 -23 q-152 -18 -210.5 -58.5t-58.5 -122.5q0 -84 56.5 -130t156.5 -46q127 0 220 76q75 63 75 180z" glyph-name="ae" horiz-adv-x="1685" unicode="æ"/><glyph d="M825 367h160q-16 -176 -138 -285t-296 -102l-70 -93q47 6 66 7q76 0 119 -36t43 -98q0 -80 -61.5 -127t-166.5 -47q-86 0 -184 39l35 70q61 -25 127 -25q104 0 104 76q0 33 -26.5 53.5t-71.5 20.5q-27 0 -70 -13l-30 33l108 140q-186 27 -288.5 163t-102.5 353 q0 240 129 384t346 144q221 0 338 -139q68 -78 84 -211h-170q-45 213 -258 213q-160 0 -240 -131q-63 -100 -63 -248q0 -184 81 -288.5t224 -104.5q217 0 272 252z" glyph-name="ccedilla" horiz-adv-x="1040" unicode="ç"/><glyph d="M823 317h160q-80 -346 -432 -346q-217 0 -343 139.5t-126 378.5q0 231 130 380t333 149q135 0 242.5 -68.5t158.5 -189.5q49 -115 47 -305h-743q8 -346 311 -346q102 0 164.5 48.5t97.5 159.5zM252 588h573q-10 139 -85.5 217t-198.5 78t-197 -76t-92 -219zM287 1399h200 l142 -273h-113z" glyph-name="egrave" horiz-adv-x="1064" unicode="è"/><glyph d="M823 317h160q-80 -346 -432 -346q-217 0 -343 139.5t-126 378.5q0 231 130 380t333 149q135 0 242.5 -68.5t158.5 -189.5q49 -115 47 -305h-743q8 -346 311 -346q102 0 164.5 48.5t97.5 159.5zM252 588h573q-10 139 -85.5 217t-198.5 78t-197 -76t-92 -219zM793 1399 l-230 -273h-112l141 273h201z" glyph-name="eacute" horiz-adv-x="1064" unicode="é"/><glyph d="M823 317h160q-80 -346 -432 -346q-217 0 -343 139.5t-126 378.5q0 231 130 380t333 149q135 0 242.5 -68.5t158.5 -189.5q49 -115 47 -305h-743q8 -346 311 -346q102 0 164.5 48.5t97.5 159.5zM252 588h573q-10 139 -85.5 217t-198.5 78t-197 -76t-92 -219zM827 1133 h-163l-129 184l-136 -184h-147l199 274h176z" glyph-name="ecircumflex" horiz-adv-x="1064" unicode="ê"/><glyph d="M823 317h160q-80 -346 -432 -346q-217 0 -343 139.5t-126 378.5q0 231 130 380t333 149q135 0 242.5 -68.5t158.5 -189.5q49 -115 47 -305h-743q8 -346 311 -346q102 0 164.5 48.5t97.5 159.5zM252 588h573q-10 139 -85.5 217t-198.5 78t-197 -76t-92 -219zM807 1354 v-195h-174v195h174zM446 1354v-195h-174v195h174z" glyph-name="edieresis" horiz-adv-x="1064" unicode="ë"/><glyph d="M305 989v-989h-162v989h162zM-23 1399h195l135 -273h-112z" glyph-name="igrave" horiz-adv-x="448" unicode="ì"/><glyph d="M305 989v-989h-162v989h162zM477 1399l-215 -273h-112l135 273h192z" glyph-name="iacute" horiz-adv-x="448" unicode="í"/><glyph d="M305 989v-989h-162v989h162zM498 1133h-164l-115 184l-121 -184h-147l184 274h176z" glyph-name="icircumflex" horiz-adv-x="448" unicode="î"/><glyph d="M305 989v-989h-162v989h162zM444 1354v-195h-174v195h174zM178 1354v-195h-174v195h174z" glyph-name="idieresis" horiz-adv-x="448" unicode="ï"/><glyph d="M397 1176l156 65l-84 133l115 47l84 -131l170 74l45 -94l-158 -68l164 -266q88 -143 119.5 -234.5t31.5 -207.5q0 -238 -130 -380.5t-347 -142.5q-219 0 -350 142.5t-131 380.5q0 229 129 375.5t332 146.5q63 0 147 -21l-86 154l-162 -66zM567 881q-147 0 -233 -103.5 t-86 -284t85 -282.5t234 -102q143 0 225 104t82 285q0 174 -84 278.5t-223 104.5z" glyph-name="eth" horiz-adv-x="1118" unicode="ð"/><glyph d="M295 989v-153q123 182 344 182q207 0 285 -144q41 -76 41 -235v-639h-162v582q0 166 -33 217q-55 82 -182 82q-84 0 -150.5 -40t-97.5 -110q-35 -76 -35 -252v-479h-162v989h152zM766 1386h88q-29 -213 -178 -212q-43 0 -117 30q-106 43 -133 43q-59 0 -80 -86h-86 q10 102 57.5 157.5t124.5 55.5q37 0 65 -9t124 -52q27 -10 53 -10q62 -1 82 83z" glyph-name="ntilde" horiz-adv-x="1101" unicode="ñ"/><glyph d="M569 1018q215 0 343 -141.5t128 -380.5q0 -246 -126 -385.5t-347 -139.5q-223 0 -354 141.5t-131 381.5q0 242 131 383t356 141zM567 881q-147 0 -233 -103.5t-86 -284t85 -282.5t232 -102q143 0 226 103t83 286q0 174 -84 278.5t-223 104.5zM313 1399h201l141 -273h-112 z" glyph-name="ograve" horiz-adv-x="1118" unicode="ò"/><glyph d="M569 1018q215 0 343 -141.5t128 -380.5q0 -246 -126 -385.5t-347 -139.5q-223 0 -354 141.5t-131 381.5q0 242 131 383t356 141zM567 881q-147 0 -233 -103.5t-86 -284t85 -282.5t232 -102q143 0 226 103t83 286q0 174 -84 278.5t-223 104.5zM813 1399l-229 -273h-113 l141 273h201z" glyph-name="oacute" horiz-adv-x="1118" unicode="ó"/><glyph d="M569 1018q215 0 343 -141.5t128 -380.5q0 -246 -126 -385.5t-347 -139.5q-223 0 -354 141.5t-131 381.5q0 242 131 383t356 141zM567 881q-147 0 -233 -103.5t-86 -284t85 -282.5t232 -102q143 0 226 103t83 286q0 174 -84 278.5t-223 104.5zM848 1133h-166l-127 184 l-135 -184h-148l197 274h178z" glyph-name="ocircumflex" horiz-adv-x="1118" unicode="ô"/><glyph d="M569 1018q215 0 343 -141.5t128 -380.5q0 -246 -126 -385.5t-347 -139.5q-223 0 -354 141.5t-131 381.5q0 242 131 383t356 141zM567 881q-147 0 -233 -103.5t-86 -284t85 -282.5t232 -102q143 0 226 103t83 286q0 174 -84 278.5t-223 104.5zM774 1386h90 q-33 -213 -178 -212q-45 0 -119 30q-104 43 -133 43q-57 0 -78 -86h-88q25 213 183 213q39 0 66.5 -9t123.5 -52q27 -10 53 -10q60 -1 80 83z" glyph-name="otilde" horiz-adv-x="1118" unicode="õ"/><glyph d="M569 1018q215 0 343 -141.5t128 -380.5q0 -246 -126 -385.5t-347 -139.5q-223 0 -354 141.5t-131 381.5q0 242 131 383t356 141zM567 881q-147 0 -233 -103.5t-86 -284t85 -282.5t232 -102q143 0 226 103t83 286q0 174 -84 278.5t-223 104.5zM827 1354v-195h-174v195h174 zM467 1354v-195h-174v195h174z" glyph-name="odieresis" horiz-adv-x="1118" unicode="ö"/><glyph d="M547 1102q45 0 77.5 -33t32.5 -78q0 -47 -31.5 -79.5t-78.5 -32.5t-80 32.5t-33 79.5q0 45 33 78t80 33zM547 459q45 0 77.5 -33t32.5 -78q0 -47 -31.5 -79.5t-78.5 -32.5t-80 32.5t-33 79.5q0 45 33 78t80 33zM102 735h887v-129h-887v129z" glyph-name="divide" horiz-adv-x="1091" unicode="÷"/><glyph d="M53 23l121 135q-96 139 -96 338q0 238 130 380t349 142q188 0 309 -100l109 122l76 -69l-115 -127q100 -139 100 -348q0 -244 -126 -384.5t-345 -140.5q-195 0 -321 109l-117 -129zM287 283l477 522q-82 76 -205 76q-143 0 -229 -103.5t-86 -277.5q0 -131 43 -217z M823 721l-477 -526q86 -86 219 -86q141 0 223 103t82 284q0 133 -47 225z" glyph-name="oslash" horiz-adv-x="1118" unicode="ø"/><glyph d="M963 989v-989h-152v154q-115 -182 -344 -183q-178 0 -264 109q-66 80 -66 268v641h162v-583q0 -164 33 -216q53 -82 182 -81q168 0 248 145q39 76 39 256v479h162zM307 1399h201l141 -273h-112z" glyph-name="ugrave" horiz-adv-x="1105" unicode="ù"/><glyph d="M963 989v-989h-152v154q-115 -182 -344 -183q-178 0 -264 109q-66 80 -66 268v641h162v-583q0 -164 33 -216q53 -82 182 -81q168 0 248 145q39 76 39 256v479h162zM807 1399l-232 -273h-112l143 273h201z" glyph-name="uacute" horiz-adv-x="1105" unicode="ú"/><glyph d="M963 989v-989h-152v154q-115 -182 -344 -183q-178 0 -264 109q-66 80 -66 268v641h162v-583q0 -164 33 -216q53 -82 182 -81q168 0 248 145q39 76 39 256v479h162zM840 1133h-164l-129 184l-135 -184h-146l197 274h176z" glyph-name="ucircumflex" horiz-adv-x="1105" unicode="û"/><glyph d="M963 989v-989h-152v154q-115 -182 -344 -183q-178 0 -264 109q-66 80 -66 268v641h162v-583q0 -164 33 -216q53 -82 182 -81q168 0 248 145q39 76 39 256v479h162zM821 1354v-195h-174v195h174zM459 1354v-195h-174v195h174z" glyph-name="udieresis" horiz-adv-x="1105" unicode="ü"/><glyph d="M928 989l-365 -956q-100 -266 -135 -320q-70 -113 -213 -112q-45 0 -94 12l-25 4v147q74 -23 105 -22q61 0 94 45t98 219l-391 983h182l217 -579q29 -78 76 -230q43 137 80 244l199 565h172zM725 1399l-229 -273h-113l141 273h201z" glyph-name="yacute" horiz-adv-x="927" unicode="ý"/><glyph d="M305 1366v-514q109 168 320 168q207 0 330.5 -144.5t123.5 -383.5q0 -231 -121.5 -374t-322.5 -143q-219 0 -330 162v-520h-162v1749h162zM610 883q-145 0 -228 -102.5t-83 -282.5q0 -178 84 -281.5t227 -103.5q137 0 220 103t83 276q0 174 -84 282.5t-219 108.5z" glyph-name="thorn" horiz-adv-x="1159" unicode="þ"/><glyph d="M928 989l-365 -956q-100 -266 -135 -320q-70 -113 -213 -112q-45 0 -94 12l-25 4v147q74 -23 105 -22q61 0 94 45t98 219l-391 983h182l217 -579q29 -78 76 -230q43 137 80 244l199 565h172zM733 1354v-195h-174v195h174zM371 1354v-195h-174v195h174z" glyph-name="ydieresis" horiz-adv-x="927" unicode="ÿ"/><glyph d="M752 1370l532 -1370h-199l-153 420h-574l-155 -420h-191l537 1370h203zM879 565l-136 363q-72 193 -96 276q-10 -31 -22.5 -64.5t-18.5 -49.5q-20 -43 -57 -154l-137 -371h467zM971 1651v-117h-645v117h645z" glyph-name="Amacron" horiz-adv-x="1296" unicode="Ā"/><glyph d="M993 131v-127q-55 -20 -114 -20q-68 0 -105 38.5t-37 108.5q-139 -160 -358 -160q-147 0 -232.5 76t-85.5 205q0 197 187 270q47 20 89 27.5t216 30.5q98 10 136 38.5t38 92.5q0 172 -223 172q-119 0 -176.5 -48.5t-67.5 -154.5h-160q4 160 114 249t302 89q209 0 309 -96 q68 -68 68 -234q0 -100 -6 -407q-2 -27 -2 -60q0 -55 14 -77.5t51 -22.5q20 0 43 10zM729 367v147q-33 -25 -74 -36t-145 -23q-143 -18 -197 -47q-84 -43 -84 -142q0 -78 53.5 -123t143.5 -45q176 0 272 133q31 44 31 136zM793 1307v-113h-576v113h576z" glyph-name="amacron" horiz-adv-x="1036" unicode="ā"/><glyph d="M752 1370l532 -1370h-199l-153 420h-574l-155 -420h-191l537 1370h203zM879 565l-136 363q-72 193 -96 276q-10 -31 -22.5 -64.5t-18.5 -49.5q-20 -43 -57 -154l-137 -371h467zM850 1747h96q-14 -131 -92 -200.5t-209 -69.5q-133 0 -212 71.5t-83 198.5h96 q37 -139 207 -139q82 0 128 32.5t69 106.5z" glyph-name="Abreve" horiz-adv-x="1296" unicode="Ă"/><glyph d="M993 131v-127q-55 -20 -114 -20q-68 0 -105 38.5t-37 108.5q-139 -160 -358 -160q-147 0 -232.5 76t-85.5 205q0 197 187 270q47 20 89 27.5t216 30.5q98 10 136 38.5t38 92.5q0 172 -223 172q-119 0 -176.5 -48.5t-67.5 -154.5h-160q4 160 114 249t302 89q209 0 309 -96 q68 -68 68 -234q0 -100 -6 -407q-2 -27 -2 -60q0 -55 14 -77.5t51 -22.5q20 0 43 10zM729 367v147q-33 -25 -74 -36t-145 -23q-143 -18 -197 -47q-84 -43 -84 -142q0 -78 53.5 -123t143.5 -45q176 0 272 133q31 44 31 136zM686 1405h90q-10 -109 -43 -160 q-70 -111 -235 -110q-131 0 -194.5 65.5t-70.5 204.5h93q10 -80 53 -115t129 -35q82 0 121 33t57 117z" glyph-name="abreve" horiz-adv-x="1036" unicode="ă"/><glyph d="M752 1370l532 -1370q-113 -86 -113 -164q0 -45 38 -72.5t98 -27.5q27 0 82 14v-90q-63 -18 -117 -18q-96 0 -156.5 46t-60.5 122q0 98 127 190h-97l-153 420h-574l-155 -420h-191l537 1370h203zM879 565l-136 363q-84 233 -96 276q-12 -37 -41 -114q-6 -20 -57 -154 l-137 -371h467z" glyph-name="Aogonek" horiz-adv-x="1296" unicode="Ą"/><glyph d="M993 131v-127q-6 -2 -13 -5t-9 -3q-20 -4 -31 -8l-4 -2q-6 -2 -10 -2q-92 -74 -92 -150q0 -43 37.5 -70.5t97.5 -27.5q27 0 82 14v-90q-63 -18 -117 -18q-96 0 -156.5 46t-60.5 117q0 115 125 189q-47 2 -78 41t-27 96q-139 -160 -358 -160q-147 0 -232.5 76t-85.5 205 q0 197 187 270q47 20 89 27.5t216 30.5q98 10 136 38.5t38 92.5q0 172 -223 172q-119 0 -176.5 -48.5t-67.5 -154.5h-160q4 160 114 249t302 89q209 0 309 -96q68 -68 68 -234q0 -100 -6 -407q-2 -27 -2 -60q0 -55 14 -77.5t51 -22.5q20 0 43 10zM729 367v147 q-33 -25 -74 -36t-145 -23q-143 -18 -197 -47q-84 -43 -84 -142q0 -78 53.5 -123t143.5 -45q176 0 272 133q31 44 31 136z" glyph-name="aogonek" horiz-adv-x="1036" unicode="ą"/><glyph d="M1135 514h180q-20 -254 -178 -399.5t-414 -145.5q-291 0 -462 191.5t-171 519.5q0 322 186 526q172 190 461 191q281 0 443 -174q111 -121 123 -267h-181q-31 133 -134 210t-255 77q-244 0 -366 -199q-94 -154 -95 -362q0 -258 124 -408.5t337 -150.5q174 0 278 100.5 t124 290.5zM973 1735l-238 -260h-133l156 260h215z" glyph-name="Cacute" horiz-adv-x="1384" unicode="Ć"/><glyph d="M817 360h168q-27 -184 -140.5 -286.5t-293.5 -102.5q-217 0 -343 137.5t-126 372.5q0 248 128 392.5t347 144.5q180 0 289.5 -91t132.5 -259h-170q-20 104 -85 159.5t-167 55.5q-143 0 -226 -104.5t-83 -282.5q0 -180 80 -283.5t219 -103.5q111 0 181.5 65t88.5 186z M803 1399l-232 -273h-112l143 273h201z" glyph-name="cacute" horiz-adv-x="1040" unicode="ć"/><glyph d="M1135 514h180q-20 -254 -178 -399.5t-414 -145.5q-291 0 -462 191.5t-171 519.5q0 322 186 526q172 190 461 191q281 0 443 -174q111 -121 123 -267h-181q-31 133 -134 210t-255 77q-244 0 -366 -199q-94 -154 -95 -362q0 -258 124 -408.5t337 -150.5q174 0 278 100.5 t124 290.5zM1034 1477h-184l-123 165l-127 -165h-168l197 254h205z" glyph-name="Ccircumflex" horiz-adv-x="1384" unicode="Ĉ"/><glyph d="M1135 514h180q-20 -254 -178 -399.5t-414 -145.5q-291 0 -462 191.5t-171 519.5q0 322 186 526q172 190 461 191q281 0 443 -174q111 -121 123 -267h-181q-31 133 -134 210t-255 77q-244 0 -366 -199q-94 -154 -95 -362q0 -258 124 -408.5t337 -150.5q174 0 278 100.5 t124 290.5zM809 1698v-189h-178v189h178z" glyph-name="Cdotaccent" horiz-adv-x="1384" unicode="Ċ"/><glyph d="M817 360h168q-27 -184 -140.5 -286.5t-293.5 -102.5q-217 0 -343 137.5t-126 372.5q0 248 128 392.5t347 144.5q180 0 289.5 -91t132.5 -259h-170q-20 104 -85 159.5t-167 55.5q-143 0 -226 -104.5t-83 -282.5q0 -180 80 -283.5t219 -103.5q111 0 181.5 65t88.5 186z M635 1368v-194h-174v194h174z" glyph-name="cdotaccent" horiz-adv-x="1040" unicode="ċ"/><glyph d="M1135 514h180q-20 -254 -178 -399.5t-414 -145.5q-291 0 -462 191.5t-171 519.5q0 322 186 526q172 190 461 191q281 0 443 -174q111 -121 123 -267h-181q-31 133 -134 210t-255 77q-244 0 -366 -199q-94 -154 -95 -362q0 -258 124 -408.5t337 -150.5q174 0 278 100.5 t124 290.5zM418 1731h186l121 -166l129 166h166l-197 -254h-205z" glyph-name="Ccaron" horiz-adv-x="1384" unicode="Č"/><glyph d="M817 360h168q-27 -184 -140.5 -286.5t-293.5 -102.5q-217 0 -343 137.5t-126 372.5q0 248 128 392.5t347 144.5q180 0 289.5 -91t132.5 -259h-170q-20 104 -85 159.5t-167 55.5q-143 0 -226 -104.5t-83 -282.5q0 -180 80 -283.5t219 -103.5q111 0 181.5 65t88.5 186z M838 1407l-199 -274h-178l-201 274h164l131 -184l135 184h148z" glyph-name="ccaron" horiz-adv-x="1040" unicode="č"/><glyph d="M158 1366h489q156 0 254 -30.5t180 -104.5q201 -178 201 -520q0 -362 -192 -559q-84 -86 -175.5 -119t-246.5 -33h-510v1366zM338 1208v-1050h295q139 0 210.5 22.5t127.5 85.5q129 143 129 439q0 504 -449 503h-313zM332 1731h184l121 -166l129 166h168l-199 -254h-203z " glyph-name="Dcaron" horiz-adv-x="1372" unicode="Ď"/><glyph d="M1016 1366v-1366h-154v145q-39 -82 -125 -128t-198 -46q-211 0 -334 141.5t-123 383t123 381.5q125 141 321 141q236 0 328 -166v514h162zM555 881q-143 0 -225 -102.5t-82 -278.5q0 -178 84 -284.5t223 -106.5q141 0 222 101t81 282q0 201 -92 299q-84 90 -211 90z M1329 1366v-133q0 -213 -178 -232v70q86 20 94 125h-94v170h178z" glyph-name="dcaron" horiz-adv-x="1411" unicode="ď"/><glyph d="M158 1366h489q156 0 255 -30.5t179 -102.5q201 -176 201 -522q0 -360 -192 -559q-84 -86 -175.5 -119t-246.5 -33h-510v641h-138v137h138v588zM338 1210v-432h354v-137h-354v-483h295q139 0 210.5 22.5t127.5 83.5q129 147 129 438q0 508 -449 508h-313z" glyph-name="Dcroat" horiz-adv-x="1372" unicode="Đ"/><glyph d="M852 1237v129h162v-129h137v-119h-137v-1118h-152v145q-96 -174 -323 -174q-211 0 -335 141.5t-124 383.5q0 246 123 381q125 141 321 141q236 0 328 -166v266h-315v119h315zM553 881q-143 0 -225 -102.5t-82 -278.5q0 -178 84 -284.5t223 -106.5q141 0 222 102t81 283 q0 195 -92 297q-86 90 -211 90z" glyph-name="dcroat" horiz-adv-x="1157" unicode="đ"/><glyph d="M1104 1366v-158h-766v-432h715v-145h-715v-473h776v-158h-956v1366h946zM954 1651v-117h-643v117h643z" glyph-name="Emacron" horiz-adv-x="1196" unicode="Ē"/><glyph d="M823 317h160q-80 -346 -432 -346q-217 0 -343 139.5t-126 378.5q0 231 130 380t333 149q135 0 242.5 -68.5t158.5 -189.5q49 -115 47 -305h-743q8 -346 311 -346q102 0 164.5 48.5t97.5 159.5zM252 588h573q-10 139 -85.5 217t-198.5 78t-197 -76t-92 -219zM821 1307 v-113h-575v113h575z" glyph-name="emacron" horiz-adv-x="1064" unicode="ē"/><glyph d="M1104 1366v-158h-766v-432h715v-145h-715v-473h776v-158h-956v1366h946zM834 1747h96q-14 -131 -92 -200.5t-211 -69.5t-211 71.5t-82 198.5h96q37 -139 207 -139q82 0 129.5 32.5t67.5 106.5z" glyph-name="Ebreve" horiz-adv-x="1196" unicode="Ĕ"/><glyph d="M823 317h160q-80 -346 -432 -346q-217 0 -343 139.5t-126 378.5q0 231 130 380t333 149q135 0 242.5 -68.5t158.5 -189.5q49 -115 47 -305h-743q8 -346 311 -346q102 0 164.5 48.5t97.5 159.5zM252 588h573q-10 139 -85.5 217t-198.5 78t-197 -76t-92 -219zM721 1405h90 q-10 -109 -43 -160q-70 -111 -236 -110q-131 0 -194.5 65.5t-69.5 204.5h92q10 -80 53.5 -115t129.5 -35q82 0 121 33t57 117z" glyph-name="ebreve" horiz-adv-x="1064" unicode="ĕ"/><glyph d="M1104 1366v-158h-766v-432h715v-145h-715v-473h776v-158h-956v1366h946zM723 1698v-189h-178v189h178z" glyph-name="Edotaccent" horiz-adv-x="1196" unicode="Ė"/><glyph d="M823 317h160q-80 -346 -432 -346q-217 0 -343 139.5t-126 378.5q0 231 130 380t333 149q135 0 242.5 -68.5t158.5 -189.5q49 -115 47 -305h-743q8 -346 311 -346q102 0 164.5 48.5t97.5 159.5zM252 588h573q-10 139 -85.5 217t-198.5 78t-197 -76t-92 -219zM621 1368 v-194h-175v194h175z" glyph-name="edotaccent" horiz-adv-x="1064" unicode="ė"/><glyph d="M1104 1366v-158h-766v-432h715v-145h-715v-473h776v-158q-115 -82 -115 -164q0 -45 38 -72.5t98 -27.5q27 0 82 14v-90q-63 -18 -117 -18q-96 0 -156.5 46t-60.5 122q0 98 127 190h-852v1366h946z" glyph-name="Eogonek" horiz-adv-x="1196" unicode="Ę"/><glyph d="M823 317h160q-27 -115 -79 -184.5t-167 -144.5q-92 -82 -92 -146q0 -49 37 -77.5t98 -28.5q27 0 82 14v-90q-63 -18 -117 -18q-96 0 -156.5 46t-60.5 119q0 90 97 168q-66 -4 -84 -4q-209 0 -334 141.5t-125 376.5q0 231 130 380t333 149q135 0 242.5 -68.5t158.5 -189.5 q49 -115 47 -305h-743q8 -346 311 -346q102 0 164.5 48.5t97.5 159.5zM252 588h573q-10 139 -85.5 217t-198.5 78t-197 -76t-92 -219z" glyph-name="eogonek" horiz-adv-x="1064" unicode="ę"/><glyph d="M1104 1366v-158h-766v-432h715v-145h-715v-473h776v-158h-956v1366h946zM332 1731h184l123 -166l127 166h168l-197 -254h-205z" glyph-name="Ecaron" horiz-adv-x="1196" unicode="Ě"/><glyph d="M823 317h160q-80 -346 -432 -346q-217 0 -343 139.5t-126 378.5q0 231 130 380t333 149q135 0 242.5 -68.5t158.5 -189.5q49 -115 47 -305h-743q8 -346 311 -346q102 0 164.5 48.5t97.5 159.5zM252 588h573q-10 139 -85.5 217t-198.5 78t-197 -76t-92 -219zM829 1407 l-198 -274h-178l-201 274h164l131 -184l135 184h147z" glyph-name="ecaron" horiz-adv-x="1064" unicode="ě"/><glyph d="M1341 721v-721h-114l-27 104l-10 35q0 2 -3 12.5t-7 18.5q-164 -201 -439 -201q-291 0 -471 193.5t-180 507.5q0 326 183.5 526.5t480.5 200.5q238 0 394.5 -123t176.5 -328h-176q-20 135 -128 216t-267 81q-221 0 -351.5 -153.5t-130.5 -413.5q0 -254 130 -403.5 t352 -149.5q127 0 226 57.5t150 159.5q47 92 50 235h-437v146h598zM1049 1477h-185l-121 165l-129 -165h-168l199 254h203z" glyph-name="Gcircumflex" horiz-adv-x="1468" unicode="Ĝ"/><glyph d="M989 989v-883q0 -217 -67 -329q-106 -180 -394 -180q-184 0 -290.5 74.5t-124.5 215.5h168q27 -164 254 -163q152 0 222 78.5t70 246.5v119q-53 -94 -127.5 -137t-187.5 -43q-195 0 -313.5 138t-118.5 366q0 236 123 381t319 145q106 0 180 -41t136 -131v143h151z M541 881q-152 0 -228 -115q-68 -102 -67 -258q0 -178 76.5 -280.5t212.5 -102.5q133 0 211.5 105.5t78.5 281.5q0 170 -76.5 269.5t-207.5 99.5zM840 1133h-164l-129 184l-135 -184h-146l197 274h176z" glyph-name="gcircumflex" horiz-adv-x="1132" unicode="ĝ"/><glyph d="M1341 721v-721h-114l-27 104l-10 35q0 2 -3 12.5t-7 18.5q-164 -201 -439 -201q-291 0 -471 193.5t-180 507.5q0 326 183.5 526.5t480.5 200.5q238 0 394.5 -123t176.5 -328h-176q-20 135 -128 216t-267 81q-221 0 -351.5 -153.5t-130.5 -413.5q0 -254 130 -403.5 t352 -149.5q127 0 226 57.5t150 159.5q47 92 50 235h-437v146h598zM950 1747h97q-14 -131 -92 -200.5t-211.5 -69.5t-211 71.5t-81.5 198.5h96q37 -139 207 -139q82 0 129 32.5t67 106.5z" glyph-name="Gbreve" horiz-adv-x="1468" unicode="Ğ"/><glyph d="M989 989v-883q0 -217 -67 -329q-106 -180 -394 -180q-184 0 -290.5 74.5t-124.5 215.5h168q27 -164 254 -163q152 0 222 78.5t70 246.5v119q-53 -94 -127.5 -137t-187.5 -43q-195 0 -313.5 138t-118.5 366q0 236 123 381t319 145q106 0 180 -41t136 -131v143h151z M541 881q-152 0 -228 -115q-68 -102 -67 -258q0 -178 76.5 -280.5t212.5 -102.5q133 0 211.5 105.5t78.5 281.5q0 170 -76.5 269.5t-207.5 99.5zM739 1405h92q-12 -109 -43 -160q-72 -111 -235 -110q-131 0 -195.5 65.5t-68.5 204.5h92q10 -80 53 -115t129 -35q82 0 121 33 t55 117z" glyph-name="gbreve" horiz-adv-x="1132" unicode="ğ"/><glyph d="M1341 721v-721h-114l-27 104l-10 35q0 2 -3 12.5t-7 18.5q-164 -201 -439 -201q-291 0 -471 193.5t-180 507.5q0 326 183.5 526.5t480.5 200.5q238 0 394.5 -123t176.5 -328h-176q-20 135 -128 216t-267 81q-221 0 -351.5 -153.5t-130.5 -413.5q0 -254 130 -403.5 t352 -149.5q127 0 226 57.5t150 159.5q47 92 50 235h-437v146h598zM838 1698v-189h-179v189h179z" glyph-name="Gdotaccent" horiz-adv-x="1468" unicode="Ġ"/><glyph d="M989 989v-883q0 -217 -67 -329q-106 -180 -394 -180q-184 0 -290.5 74.5t-124.5 215.5h168q27 -164 254 -163q152 0 222 78.5t70 246.5v119q-53 -94 -127.5 -137t-187.5 -43q-195 0 -313.5 138t-118.5 366q0 236 123 381t319 145q106 0 180 -41t136 -131v143h151z M541 881q-152 0 -228 -115q-68 -102 -67 -258q0 -178 76.5 -280.5t212.5 -102.5q133 0 211.5 105.5t78.5 281.5q0 170 -76.5 269.5t-207.5 99.5zM627 1368v-194h-174v194h174z" glyph-name="gdotaccent" horiz-adv-x="1132" unicode="ġ"/><glyph d="M1341 721v-721h-114l-27 104l-10 35q0 2 -3 12.5t-7 18.5q-164 -201 -439 -201q-291 0 -471 193.5t-180 507.5q0 326 183.5 526.5t480.5 200.5q238 0 394.5 -123t176.5 -328h-176q-20 135 -128 216t-267 81q-221 0 -351.5 -153.5t-130.5 -413.5q0 -254 130 -403.5 t352 -149.5q127 0 226 57.5t150 159.5q47 92 50 235h-437v146h598zM811 -123v-133q0 -211 -178 -231v69q86 20 94 125h-94v170h178z" glyph-name="Gcommaaccent" horiz-adv-x="1468" unicode="Ģ"/><glyph d="M989 989v-883q0 -217 -67 -329q-106 -180 -394 -180q-184 0 -290.5 74.5t-124.5 215.5h168q27 -164 254 -163q152 0 222 78.5t70 246.5v119q-53 -94 -127.5 -137t-187.5 -43q-195 0 -313.5 138t-118.5 366q0 236 123 381t319 145q106 0 180 -41t136 -131v143h151z M541 881q-152 0 -228 -115q-68 -102 -67 -258q0 -178 76.5 -280.5t212.5 -102.5q133 0 211.5 105.5t78.5 281.5q0 170 -76.5 269.5t-207.5 99.5zM451 1126v134q0 211 178 231v-70q-86 -20 -94 -125h94v-170h-178z" glyph-name="gcommaaccent" horiz-adv-x="1132" unicode="ģ"/><glyph d="M1239 1366v-1366h-180v639h-721v-639h-180v1366h180v-569h721v569h180zM999 1477h-184l-123 165l-127 -165h-168l197 254h205z" glyph-name="Hcircumflex" horiz-adv-x="1394" unicode="Ĥ"/><glyph d="M1239 1157h135v-137h-135v-1020h-180v639h-721v-639h-180v1020h-138v137h138v209h180v-209h721v209h180v-209zM338 1020v-223h721v223h-721z" glyph-name="Hbar" horiz-adv-x="1394" unicode="Ħ"/><glyph d="M305 0h-162v1118h-137v119h137v129h162v-129h318v-119h-318v-153q0 -16 -4 -117q111 170 332 170q213 0 293 -148q37 -74 37 -227v-643h-162v623q0 131 -33 178q-55 80 -184 80q-84 0 -149.5 -40t-98.5 -112q-31 -74 -31 -262v-467z" glyph-name="hbar" horiz-adv-x="1101" unicode="ħ"/><glyph d="M338 1366v-1366h-180v1366h180zM494 1651v-117h-494v117h494z" glyph-name="Imacron" horiz-adv-x="493" unicode="Ī"/><glyph d="M305 989v-989h-162v989h162zM444 1307v-113h-440v113h440z" glyph-name="imacron" horiz-adv-x="448" unicode="ī"/><glyph d="M336 1366v-1366h-180v1366h180zM449 1747h94q-12 -131 -90 -200.5t-211 -69.5t-211 71.5t-82 198.5h96q37 -139 205 -139q84 0 131.5 32.5t67.5 106.5z" glyph-name="Ibreve" horiz-adv-x="493" unicode="Ĭ"/><glyph d="M305 989v-989h-162v989h162zM391 1405h92q-10 -102 -43 -160q-72 -111 -221 -110q-240 0 -252 270h92q8 -66 35 -94q45 -55 133 -56q92 0 135 64q19 31 29 86z" glyph-name="ibreve" horiz-adv-x="448" unicode="ĭ"/><glyph d="M158 1366h180v-1366q-106 -47 -107 -164q0 -98 107 -98q39 0 76 12v-90q-57 -18 -103 -18q-88 0 -141 48t-53 126q0 104 110 184h-69v1366z" glyph-name="Iogonek" horiz-adv-x="493" unicode="Į"/><glyph d="M143 989h162v-989q-92 -68 -92 -164q0 -98 98 -98q33 0 70 12v-90q-47 -18 -96 -18q-84 0 -136.5 47t-52.5 123q0 106 107 188h-60v989zM305 1366v-199h-162v199h162z" glyph-name="iogonek" horiz-adv-x="448" unicode="į"/><glyph d="M338 1366v-1366h-180v1366h180zM338 1698v-189h-178v189h178z" glyph-name="Idotaccent" horiz-adv-x="493" unicode="İ"/><glyph d="M305 989v-989h-162v989h162z" glyph-name="dotlessi" horiz-adv-x="450" unicode="ı"/><glyph d="M338 1366v-1366h-180v1366h180zM1305 1366v-926q0 -125 -10.5 -187.5t-41.5 -115.5q-96 -168 -342 -168q-276 0 -364 187q-43 86 -43 243q0 29 2 52h174v-50q0 -135 39 -194q53 -84 190 -84q131 0 178 82q37 59 37 233v928h181z" glyph-name="IJ" horiz-adv-x="1441" unicode="Ĳ"/><glyph d="M305 1366v-199h-162v199h162zM305 989v-989h-162v989h162zM741 989v-1014q0 -141 -6 -189t-28 -87q-51 -96 -215 -96q-27 0 -76 6v137q41 -6 59 -6q49 0 70.5 14.5t27.5 48.5q6 33 7 170v1016h161zM741 1366v-199h-161v199h161z" glyph-name="ij" horiz-adv-x="884" unicode="ĳ"/><glyph d="M1268 1366l-578 -549l600 -817h-229l-496 694l-227 -215v-479h-180v1366h180v-539v-71v-70l45 45l13.5 13.5t16.5 17.5t15 14l602 590h238zM768 -109v-133q0 -211 -178 -231v70q86 20 94 124h-94v170h178z" glyph-name="Kcommaaccent" horiz-adv-x="1273" unicode="Ķ"/><glyph d="M979 989l-393 -358l422 -631h-207l-340 516l-156 -141v-375h-162v1366h162v-672v-141q45 47 68 68l389 368h217zM621 -109v-133q0 -211 -179 -231v70q86 20 95 124h-95v170h179z" glyph-name="kcommaaccent" horiz-adv-x="1019" unicode="ķ"/><glyph d="M979 989l-393 -358l422 -631h-207l-340 516l-156 -141v-375h-162v989h162v-295v-141q45 47 68 68l389 368h217z" glyph-name="kgreenlandic" horiz-adv-x="1019" unicode="ĸ"/><glyph d="M1063 158v-158h-905v1366h180v-1208h725zM537 1735l-238 -260h-133l156 260h215z" glyph-name="Lacute" horiz-adv-x="1101" unicode="Ĺ"/><glyph d="M305 1366v-1366h-162v1366h162zM506 1735l-223 -260h-133l155 260h201z" glyph-name="lacute" horiz-adv-x="448" unicode="ĺ"/><glyph d="M1063 158v-158h-905v1366h180v-1208h725zM709 -109v-133q0 -211 -179 -231v70q86 20 95 124h-95v170h179z" glyph-name="Lcommaaccent" horiz-adv-x="1101" unicode="Ļ"/><glyph d="M305 1366v-1366h-162v1366h162zM313 -109v-133q0 -211 -178 -231v70q86 20 94 124h-94v170h178z" glyph-name="lcommaaccent" horiz-adv-x="448" unicode="ļ"/><glyph d="M1063 158v-158h-905v1366h180v-1208h725zM825 1366v-145q0 -137 -40 -191.5t-150 -68.5v69q63 14 84.5 45t21.5 109h-106v182h190z" glyph-name="Lcaron" horiz-adv-x="1101" unicode="Ľ"/><glyph d="M305 1366v-1366h-162v1366h162zM621 1366v-133q0 -213 -179 -232v70q86 20 95 125h-95v170h179z" glyph-name="lcaron" horiz-adv-x="702" unicode="ľ"/><glyph d="M1063 158v-158h-905v1366h180v-1208h725zM920 811v-229h-242v229h242z" glyph-name="Ldot" horiz-adv-x="1101" unicode="Ŀ"/><glyph d="M305 1366v-1366h-162v1366h162zM690 811v-229h-241v229h241z" glyph-name="ldot" horiz-adv-x="690" unicode="ŀ"/><glyph d="M158 692v674h180v-575l287 215v-160l-287 -215v-473h725v-158h-905v530l-123 -92v160z" glyph-name="Lslash" horiz-adv-x="1101" unicode="Ł"/><glyph d="M156 750v616h161v-524l123 92v-148l-123 -92v-694h-161v602l-121 -92v147z" glyph-name="lslash" horiz-adv-x="473" unicode="ł"/><glyph d="M1249 1366v-1366h-198l-488 737q-199 307 -246 406q8 -98 9 -185l4 -268v-690h-172v1366h194l510 -778q160 -242 228 -373q-12 283 -13 467v684h172zM985 1735l-237 -260h-134l156 260h215z" glyph-name="Nacute" horiz-adv-x="1406" unicode="Ń"/><glyph d="M295 989v-153q123 182 344 182q207 0 285 -144q41 -76 41 -235v-639h-162v582q0 166 -33 217q-55 82 -182 82q-84 0 -150.5 -40t-97.5 -110q-35 -76 -35 -252v-479h-162v989h152zM791 1399l-232 -273h-113l144 273h201z" glyph-name="nacute" horiz-adv-x="1101" unicode="ń"/><glyph d="M1249 1366v-1366h-198l-488 737q-199 307 -246 406q8 -98 9 -185l4 -268v-690h-172v1366h194l510 -778q160 -242 228 -373q-12 283 -13 467v684h172zM780 -109v-133q0 -211 -178 -231v70q86 20 94 124h-94v170h178z" glyph-name="Ncommaaccent" horiz-adv-x="1406" unicode="Ņ"/><glyph d="M295 989v-153q123 182 344 182q207 0 285 -144q41 -76 41 -235v-639h-162v582q0 166 -33 217q-55 82 -182 82q-84 0 -150.5 -40t-97.5 -110q-35 -76 -35 -252v-479h-162v989h152zM639 -109v-133q0 -211 -178 -231v70q86 20 94 124h-94v170h178z" glyph-name="ncommaaccent" horiz-adv-x="1101" unicode="ņ"/><glyph d="M1249 1366v-1366h-198l-488 737q-199 307 -246 406q8 -98 9 -185l4 -268v-690h-172v1366h194l510 -778q160 -242 228 -373q-12 283 -13 467v684h172zM410 1731h184l123 -166l127 166h168l-197 -254h-205z" glyph-name="Ncaron" horiz-adv-x="1406" unicode="Ň"/><glyph d="M295 989v-153q123 182 344 182q207 0 285 -144q41 -76 41 -235v-639h-162v582q0 166 -33 217q-55 82 -182 82q-84 0 -150.5 -40t-97.5 -110q-35 -76 -35 -252v-479h-162v989h152zM840 1407l-199 -274h-178l-201 274h164l131 -184l135 184h148z" glyph-name="ncaron" horiz-adv-x="1101" unicode="ň"/><glyph d="M365 1366v-152q0 -285 -220 -337v94q106 31 111 188h-111v207h220zM668 989v-153q123 182 344 182q207 0 284 -144q41 -76 41 -235v-639h-161v582q0 166 -33 217q-55 82 -182 82q-84 0 -151 -40t-97 -110q-35 -76 -35 -252v-479h-162v989h152z" glyph-name="napostrophe" horiz-adv-x="1474" unicode="ŉ"/><glyph d="M338 1366v-203q59 82 111 121q145 113 356 113q133 0 232.5 -49.5t148.5 -137.5q53 -98 53 -307v-928q0 -143 -6 -190t-31 -86q-59 -96 -231 -96q-25 0 -74 6v137q37 -6 57 -6q53 0 75 17.5t26 62.5t4 153v856q0 135 -10.5 198t-38.5 103q-78 113 -265 113 q-123 0 -218 -54t-140 -151q-49 -104 -49 -346v-692h-180v1366h180z" glyph-name="Eng" horiz-adv-x="1394" unicode="Ŋ"/><glyph d="M295 989v-153q123 182 344 182q207 0 285 -144q41 -76 41 -235v-664q0 -141 -6.5 -189t-28.5 -87q-51 -96 -215 -96q-27 0 -76 6v137q41 -6 59 -6q49 0 71 14.5t28 48.5q6 37 6 170v609q0 166 -33 217q-55 82 -182 82q-84 0 -150.5 -40t-97.5 -110q-35 -76 -35 -252v-479 h-162v989h152z" glyph-name="eng" horiz-adv-x="1099" unicode="ŋ"/><glyph d="M754 1397q285 0 464 -198t179 -513q0 -324 -179.5 -520.5t-476.5 -196.5q-293 0 -472 195.5t-179 517.5q0 326 180.5 520.5t483.5 194.5zM750 1243q-219 0 -348.5 -150.5t-129.5 -406.5t129 -409.5t344 -153.5q211 0 340 153.5t129 407.5q0 250 -128.5 404.5 t-335.5 154.5zM1065 1651v-117h-643v117h643z" glyph-name="Omacron" horiz-adv-x="1486" unicode="Ō"/><glyph d="M569 1018q215 0 343 -141.5t128 -380.5q0 -246 -126 -385.5t-347 -139.5q-223 0 -354 141.5t-131 381.5q0 242 131 383t356 141zM567 881q-147 0 -233 -103.5t-86 -284t85 -282.5t232 -102q143 0 226 103t83 286q0 174 -84 278.5t-223 104.5zM848 1307v-113h-576v113h576 z" glyph-name="omacron" horiz-adv-x="1118" unicode="ō"/><glyph d="M754 1397q285 0 464 -198t179 -513q0 -324 -179.5 -520.5t-476.5 -196.5q-293 0 -472 195.5t-179 517.5q0 326 180.5 520.5t483.5 194.5zM750 1243q-219 0 -348.5 -150.5t-129.5 -406.5t129 -409.5t344 -153.5q211 0 340 153.5t129 407.5q0 250 -128.5 404.5 t-335.5 154.5zM946 1747h94q-12 -131 -90 -200.5t-211 -69.5t-210.5 71.5t-82.5 198.5h97q37 -139 205 -139q82 0 128.5 32.5t69.5 106.5z" glyph-name="Obreve" horiz-adv-x="1486" unicode="Ŏ"/><glyph d="M569 1018q215 0 343 -141.5t128 -380.5q0 -246 -126 -385.5t-347 -139.5q-223 0 -354 141.5t-131 381.5q0 242 131 383t356 141zM567 881q-147 0 -233 -103.5t-86 -284t85 -282.5t232 -102q143 0 226 103t83 286q0 174 -84 278.5t-223 104.5zM739 1405h92 q-10 -102 -43 -160q-72 -111 -235 -110q-131 0 -195.5 65.5t-68.5 204.5h92q10 -80 53 -115t129 -35q82 0 121 33t55 117z" glyph-name="obreve" horiz-adv-x="1118" unicode="ŏ"/><glyph d="M754 1397q285 0 464 -198t179 -513q0 -324 -179.5 -520.5t-476.5 -196.5q-293 0 -472 195.5t-179 517.5q0 326 180.5 520.5t483.5 194.5zM750 1243q-219 0 -348.5 -150.5t-129.5 -406.5t129 -409.5t344 -153.5q211 0 340 153.5t129 407.5q0 250 -128.5 404.5 t-335.5 154.5zM1135 1735l-183 -260h-121l115 260h189zM819 1735l-182 -260h-121l115 260h188z" glyph-name="Ohungarumlaut" horiz-adv-x="1486" unicode="Ő"/><glyph d="M569 1018q215 0 343 -141.5t128 -380.5q0 -246 -126 -385.5t-347 -139.5q-223 0 -354 141.5t-131 381.5q0 242 131 383t356 141zM567 881q-147 0 -233 -103.5t-86 -284t85 -282.5t232 -102q143 0 226 103t83 286q0 174 -84 278.5t-223 104.5zM897 1399l-162 -273h-102 l90 273h174zM623 1399l-162 -273h-101l91 273h172z" glyph-name="ohungarumlaut" horiz-adv-x="1118" unicode="ő"/><glyph d="M1985 1366v-158h-730v-432h668v-145h-668v-473h742v-158h-910v139q-145 -166 -374 -166q-276 0 -449.5 196t-173.5 511t177 514t458 199q258 0 362 -146v119h898zM1075 410v553q0 70 -9 98.5t-42 64.5q-100 113 -279 113q-211 0 -342 -152.5t-131 -398.5 q0 -252 126 -406.5t333 -154.5q190 0 297 129q47 60 47 154z" glyph-name="OE" horiz-adv-x="2078" unicode="Œ"/><glyph d="M1495 313h162q-35 -160 -149.5 -251t-282.5 -91q-262 0 -353 203q-41 -96 -130 -149.5t-214 -53.5q-217 0 -342 160q-104 129 -104 365q0 242 122 382t333 140q246 0 344 -184q109 184 344 184q127 0 227 -57.5t152 -157.5q63 -127 63 -348h-719v-33q0 -139 80 -227.5 t207 -88.5q194 0 260 207zM946 588h553q-6 102 -45 168q-82 127 -231 127q-119 0 -193 -78t-84 -217zM535 883q-137 0 -212 -101.5t-75 -285.5q0 -182 75.5 -284.5t208.5 -102.5q131 0 202 103t71 298q0 178 -70.5 275.5t-199.5 97.5z" glyph-name="oe" horiz-adv-x="1738" unicode="œ"/><glyph d="M154 1366h624q172 0 269 -59q166 -102 165 -314q0 -125 -60 -211t-175 -123q96 -16 151 -98q33 -55 41.5 -96t24.5 -229q14 -168 53 -216l17 -20h-205q-23 39 -30 81t-13 187q-10 190 -77 257t-247 67h-358v-592h-180v1366zM334 1208v-471h340q184 0 256 41 q100 59 100 199q0 160 -129 209q-63 23 -180 22h-387zM897 1735l-235 -260h-136l156 260h215z" glyph-name="Racute" horiz-adv-x="1368" unicode="Ŕ"/><glyph d="M666 1018v-170q-45 4 -52 4q-129 0 -215 -86q-55 -57 -74.5 -135t-19.5 -246v-385h-162v989h152v-207q101 246 371 236zM639 1399l-229 -273h-113l141 273h201z" glyph-name="racute" horiz-adv-x="663" unicode="ŕ"/><glyph d="M154 1366h624q172 0 269 -59q166 -102 165 -314q0 -125 -60 -211t-175 -123q96 -16 151 -98q33 -55 41.5 -96t24.5 -229q14 -168 53 -216l17 -20h-205q-23 39 -30 81t-13 187q-10 190 -77 257t-247 67h-358v-592h-180v1366zM334 1208v-471h340q184 0 256 41 q100 59 100 199q0 160 -129 209q-63 23 -180 22h-387zM774 -109v-133q0 -211 -178 -231v70q86 20 94 124h-94v170h178z" glyph-name="Rcommaaccent" horiz-adv-x="1368" unicode="Ŗ"/><glyph d="M666 1018v-170q-45 4 -52 4q-129 0 -215 -86q-55 -57 -74.5 -135t-19.5 -246v-385h-162v989h152v-207q101 246 371 236zM313 -123v-133q0 -211 -178 -231v69q86 20 94 125h-94v170h178z" glyph-name="rcommaaccent" horiz-adv-x="663" unicode="ŗ"/><glyph d="M154 1366h624q172 0 269 -59q166 -102 165 -314q0 -125 -60 -211t-175 -123q96 -16 151 -98q33 -55 41.5 -96t24.5 -229q14 -168 53 -216l17 -20h-205q-23 39 -30 81t-13 187q-10 190 -77 257t-247 67h-358v-592h-180v1366zM334 1208v-471h340q184 0 256 41 q100 59 100 199q0 160 -129 209q-63 23 -180 22h-387zM342 1731h186l121 -166l129 166h168l-198 -254h-203z" glyph-name="Rcaron" horiz-adv-x="1368" unicode="Ř"/><glyph d="M668 1018v-170q-45 4 -52 4q-129 0 -215 -86q-55 -57 -74.5 -135t-19.5 -246v-385h-162v989h152v-207q101 246 371 236zM676 1407l-199 -274h-178l-201 274h164l131 -184l135 184h148z" glyph-name="rcaron" horiz-adv-x="663" unicode="ř"/><glyph d="M1094 965h-174q-16 145 -98.5 211.5t-241.5 66.5q-145 0 -226.5 -59.5t-81.5 -167.5q0 -96 72 -139q78 -45 299 -91q254 -57 340 -114q164 -102 164 -289q0 -190 -152 -311q-135 -102 -379 -103q-266 0 -414.5 126t-150.5 356h174q10 -328 404 -328q158 0 247 65.5 t89 182.5q0 145 -185 207q-59 20 -291 73q-203 47 -278 105q-113 88 -113 250q0 180 129 285.5t353 105.5q242 0 374 -111.5t140 -320.5zM854 1735l-236 -260h-135l156 260h215z" glyph-name="Sacute" horiz-adv-x="1230" unicode="Ś"/><glyph d="M840 702h-162q-14 92 -71.5 135.5t-170.5 43.5q-96 0 -149.5 -36t-53.5 -102q0 -59 49.5 -87.5t215.5 -67.5q205 -45 290 -107q92 -70 93 -192q0 -145 -113 -231.5t-299 -86.5q-201 0 -309.5 87t-114.5 255h160q25 -205 266 -204q109 0 175.5 45t66.5 118q0 63 -51.5 97 t-196.5 69q-221 53 -283 86q-115 61 -114 203q0 133 102 212t274 79q223 0 326 -121q62 -68 70 -195zM709 1399l-230 -273h-112l141 273h201z" glyph-name="sacute" horiz-adv-x="950" unicode="ś"/><glyph d="M1094 965h-174q-16 145 -98.5 211.5t-241.5 66.5q-145 0 -226.5 -59.5t-81.5 -167.5q0 -96 72 -139q78 -45 299 -91q254 -57 340 -114q164 -102 164 -289q0 -190 -152 -311q-135 -102 -379 -103q-266 0 -414.5 126t-150.5 356h174q10 -328 404 -328q158 0 247 65.5 t89 182.5q0 145 -185 207q-59 20 -291 73q-203 47 -278 105q-113 88 -113 250q0 180 129 285.5t353 105.5q242 0 374 -111.5t140 -320.5zM895 1477h-184l-121 165l-129 -165h-168l199 254h202z" glyph-name="Scircumflex" horiz-adv-x="1230" unicode="Ŝ"/><glyph d="M840 702h-162q-14 92 -71.5 135.5t-170.5 43.5q-96 0 -149.5 -36t-53.5 -102q0 -59 49.5 -87.5t215.5 -67.5q205 -45 290 -107q92 -70 93 -192q0 -145 -113 -231.5t-299 -86.5q-201 0 -309.5 87t-114.5 255h160q25 -205 266 -204q109 0 175.5 45t66.5 118q0 63 -51.5 97 t-196.5 69q-221 53 -283 86q-115 61 -114 203q0 133 102 212t274 79q223 0 326 -121q62 -68 70 -195zM750 1133h-164l-129 184l-135 -184h-148l199 274h176z" glyph-name="scircumflex" horiz-adv-x="950" unicode="ŝ"/><glyph d="M647 -31l-65 -86q47 8 69 8q68 0 114 -37.5t46 -95.5q0 -78 -63.5 -127t-165.5 -49q-76 0 -187 39l33 72q66 -27 137 -27q45 0 72 21.5t27 58.5q0 31 -27 50.5t-70 19.5q-33 0 -73 -13l-31 35l100 131q-242 12 -378 141.5t-134 340.5h174q4 -162 107.5 -246t296.5 -84 q158 0 247 65.5t89 182.5q0 147 -185 209q-61 18 -291 73q-201 45 -278 105q-113 84 -113 248q0 182 129 287.5t353 105.5q242 0 373.5 -111.5t140.5 -320.5h-174q-16 145 -98.5 211.5t-241.5 66.5q-145 0 -226.5 -59.5t-81.5 -167.5q0 -96 72 -139q78 -43 299 -91 q252 -55 340 -114q164 -102 164 -289q0 -225 -201 -344q-106 -64 -299 -70z" glyph-name="Scedilla" horiz-adv-x="1230" unicode="Ş"/><glyph d="M492 -29l-66 -86q41 8 66 9q74 0 119.5 -38t45.5 -100q0 -76 -64.5 -123t-170.5 -47q-86 0 -180 39l34 70q68 -27 132 -27q47 0 75.5 21.5t28.5 54.5t-26.5 54.5t-67.5 21.5q-27 0 -76 -15l-31 35l101 133q-172 12 -268.5 101.5t-98.5 238.5h160q25 -205 266 -204 q109 0 175.5 45t66.5 118q0 63 -51.5 97t-196.5 69q-219 53 -283 86q-115 59 -114 203q0 133 102 212t274 79q223 0 326 -121q61 -68 70 -195h-162q-14 92 -71.5 135.5t-170.5 43.5q-96 0 -149.5 -36t-53.5 -102q0 -59 49.5 -87.5t215.5 -67.5q205 -45 290 -107 q92 -70 93 -192q0 -139 -104.5 -225.5t-284.5 -92.5z" glyph-name="scedilla" horiz-adv-x="950" unicode="ş"/><glyph d="M1094 965h-174q-16 145 -98.5 211.5t-241.5 66.5q-145 0 -226.5 -59.5t-81.5 -167.5q0 -96 72 -139q78 -45 299 -91q254 -57 340 -114q164 -102 164 -289q0 -190 -152 -311q-135 -102 -379 -103q-266 0 -414.5 126t-150.5 356h174q10 -328 404 -328q158 0 247 65.5 t89 182.5q0 145 -185 207q-59 20 -291 73q-203 47 -278 105q-113 88 -113 250q0 180 129 285.5t353 105.5q242 0 374 -111.5t140 -320.5zM287 1731h184l123 -166l127 166h168l-199 -254h-203z" glyph-name="Scaron" horiz-adv-x="1230" unicode="Š"/><glyph d="M840 702h-162q-14 92 -71.5 135.5t-170.5 43.5q-96 0 -149.5 -36t-53.5 -102q0 -59 49.5 -87.5t215.5 -67.5q205 -45 290 -107q92 -70 93 -192q0 -145 -113 -231.5t-299 -86.5q-201 0 -309.5 87t-114.5 255h160q25 -205 266 -204q109 0 175.5 45t66.5 118q0 63 -51.5 97 t-196.5 69q-221 53 -283 86q-115 61 -114 203q0 133 102 212t274 79q223 0 326 -121q62 -68 70 -195zM737 1407l-198 -274h-177l-202 274h164l131 -184l135 184h147z" glyph-name="scaron" horiz-adv-x="950" unicode="š"/><glyph d="M1128 1366v-158h-458v-1208h-181v1208h-458v158h1097zM670 -109v-133q0 -211 -178 -231v70q86 20 94 124h-94v170h178z" glyph-name="Tcommaaccent" horiz-adv-x="1157" unicode="Ţ"/><glyph d="M520 989v-133h-198v-584q0 -98 19 -125.5t91 -27.5q35 0 88 12v-139q-63 -8 -127 -8q-158 0 -205 77q-20 31 -24 79t-4 222v494h-166v133h166v295h162v-295h198zM420 -123v-133q0 -211 -178 -231v69q86 20 94 125h-94v170h178z" glyph-name="tcommaaccent" horiz-adv-x="577" unicode="ţ"/><glyph d="M1128 1366v-158h-458v-1208h-181v1208h-458v158h1097zM279 1731h184l123 -166l127 166h168l-197 -254h-205z" glyph-name="Tcaron" horiz-adv-x="1157" unicode="Ť"/><glyph d="M520 989v-133h-198v-584q0 -98 19 -125.5t91 -27.5q35 0 88 12v-139q-63 -8 -127 -8q-158 0 -205 77q-20 31 -24 79t-4 222v494h-166v133h166v295h162v-295h198zM623 1477v-134q0 -211 -179 -231v70q86 20 95 125h-95v170h179z" glyph-name="tcaron" horiz-adv-x="718" unicode="ť"/><glyph d="M1128 1366v-158h-458v-389h313v-137h-313v-682h-181v682h-313v137h313v389h-458v158h1097z" glyph-name="Tbar" horiz-adv-x="1157" unicode="Ŧ"/><glyph d="M520 989v-133h-198v-188h178v-119h-178v-277q0 -98 19 -125.5t91 -27.5q35 0 88 12v-139q-59 -8 -127 -8q-158 0 -205 77q-20 31 -24 79t-4 222v187h-152v119h152v188h-166v133h166v295h162v-295h198z" glyph-name="tbar" horiz-adv-x="577" unicode="ŧ"/><glyph d="M963 989v-989h-152v154q-115 -182 -344 -183q-178 0 -264 109q-66 80 -66 268v641h162v-583q0 -164 33 -216q53 -82 182 -81q168 0 248 145q39 76 39 256v479h162zM768 1386h90q-33 -213 -180 -212q-43 0 -117 30q-106 43 -133 43q-55 0 -80 -86h-86q10 102 57.5 157.5 t124.5 55.5q39 0 67 -9t124 -52q25 -10 51 -10q62 -1 82 83z" glyph-name="utilde" horiz-adv-x="1105" unicode="ũ"/><glyph d="M1237 1366v-797q0 -168 -18.5 -249.5t-75.5 -161.5q-131 -188 -451 -189q-342 0 -477 213q-45 70 -61.5 154t-16.5 235v795h180v-799q0 -131 9.5 -188t40.5 -111q80 -145 327 -145q236 0 312 135q29 53 40 117.5t11 191.5v799h180zM1010 1651v-117h-645v117h645z" glyph-name="Umacron" horiz-adv-x="1372" unicode="Ū"/><glyph d="M963 989v-989h-152v154q-115 -182 -344 -183q-178 0 -264 109q-66 80 -66 268v641h162v-583q0 -164 33 -216q53 -82 182 -81q168 0 248 145q39 76 39 256v479h162zM842 1307v-113h-578v113h578z" glyph-name="umacron" horiz-adv-x="1105" unicode="ū"/><glyph d="M1237 1366v-797q0 -168 -18.5 -249.5t-75.5 -161.5q-131 -188 -451 -189q-342 0 -477 213q-45 70 -61.5 154t-16.5 235v795h180v-799q0 -131 9.5 -188t40.5 -111q80 -145 327 -145q236 0 312 135q29 53 40 117.5t11 191.5v799h180zM889 1747h96q-14 -131 -92 -200.5 t-211 -69.5t-211 71.5t-82 198.5h96q37 -139 207 -139q82 0 129.5 32.5t67.5 106.5z" glyph-name="Ubreve" horiz-adv-x="1372" unicode="Ŭ"/><glyph d="M963 989v-989h-152v154q-115 -182 -344 -183q-178 0 -264 109q-66 80 -66 268v641h162v-583q0 -164 33 -216q53 -82 182 -81q168 0 248 145q39 76 39 256v479h162zM733 1405h92q-14 -109 -45 -160q-70 -111 -235 -110q-131 0 -194.5 65.5t-69.5 204.5h92q12 -80 55 -115 t129 -35q80 0 120 34t56 116z" glyph-name="ubreve" horiz-adv-x="1105" unicode="ŭ"/><glyph d="M1237 1366v-797q0 -168 -18.5 -249.5t-75.5 -161.5q-131 -188 -451 -189q-342 0 -477 213q-45 70 -61.5 154t-16.5 235v795h180v-799q0 -131 9.5 -188t40.5 -111q80 -145 327 -145q236 0 312 135q29 53 40 117.5t11 191.5v799h180zM688 1882q88 0 151.5 -64.5 t63.5 -152.5q0 -90 -63.5 -153.5t-153.5 -63.5q-92 0 -155.5 63.5t-63.5 155.5q0 90 64.5 152.5t156.5 62.5zM684 1784q-51 0 -86 -34t-35 -85q0 -49 35 -84t84 -35q51 0 87 35t36 84q0 47 -36 83t-85 36z" glyph-name="Uring" horiz-adv-x="1372" unicode="Ů"/><glyph d="M963 989v-989h-152v154q-115 -182 -344 -183q-178 0 -264 109q-66 80 -66 268v641h162v-583q0 -164 33 -216q53 -82 182 -81q168 0 248 145q39 76 39 256v479h162zM555 1505q82 0 142.5 -61.5t60.5 -145.5q0 -86 -60.5 -146t-146.5 -60t-146.5 60t-60.5 148 q0 86 61.5 145.5t149.5 59.5zM549 1417q-51 0 -86 -33.5t-35 -85.5q0 -49 35 -83.5t84 -34.5q51 0 87 34.5t36 83.5q0 47 -36 83t-85 36z" glyph-name="uring" horiz-adv-x="1105" unicode="ů"/><glyph d="M1237 1366v-797q0 -168 -18.5 -249.5t-75.5 -161.5q-131 -188 -451 -189q-342 0 -477 213q-45 70 -61.5 154t-16.5 235v795h180v-799q0 -131 9.5 -188t40.5 -111q80 -145 327 -145q236 0 312 135q29 53 40 117.5t11 191.5v799h180zM1077 1735l-182 -260h-121l115 260h188 zM764 1735l-182 -260h-121l114 260h189z" glyph-name="Uhungarumlaut" horiz-adv-x="1372" unicode="Ű"/><glyph d="M963 989v-989h-152v154q-115 -182 -344 -183q-178 0 -264 109q-66 80 -66 268v641h162v-583q0 -164 33 -216q53 -82 182 -81q168 0 248 145q39 76 39 256v479h162zM889 1399l-162 -273h-100l90 273h172zM616 1399l-161 -273h-103l90 273h174z" glyph-name="uhungarumlaut" horiz-adv-x="1105" unicode="ű"/><glyph d="M1057 1366h180v-797q0 -170 -18.5 -250.5t-75.5 -160.5q-33 -47 -56.5 -66.5t-123.5 -95.5q-96 -68 -97 -148q0 -45 38 -72.5t97 -27.5q33 0 82 16v-90q-61 -20 -116 -20q-98 0 -157.5 47t-59.5 125q0 45 21.5 80t74.5 78q-102 -14 -170 -15q-326 0 -461 213 q-45 70 -61.5 154t-16.5 235v795h180v-799q0 -131 9.5 -188t40.5 -111q80 -145 327 -145q236 0 312 135q29 53 40 117.5t11 191.5v799z" glyph-name="Uogonek" horiz-adv-x="1372" unicode="Ų"/><glyph d="M137 989h162v-583q0 -164 33 -216q53 -82 182 -81q168 0 248 145q39 76 39 256v479h162v-989q-127 -63 -127 -164q0 -45 37.5 -72.5t97.5 -27.5q27 0 82 14v-90q-63 -18 -117 -18q-96 0 -156.5 46t-60.5 119q0 115 141 193h-49v154q-115 -182 -344 -183q-178 0 -264 109 q-66 80 -66 268v641z" glyph-name="uogonek" horiz-adv-x="1105" unicode="ų"/><glyph d="M1753 1366l-362 -1366h-191l-231 836q-68 266 -82 358q-43 -180 -90 -348l-230 -846h-192l-355 1366h187l203 -838q51 -217 71 -342q14 98 80 346l227 834h199l234 -852q53 -205 73 -328q14 94 70 324l209 856h180zM1188 1477h-184l-121 165l-129 -165h-168l198 254h203z " glyph-name="Wcircumflex" horiz-adv-x="1775" unicode="Ŵ"/><glyph d="M1219 1366l-527 -807v-559h-180v559l-532 807h219l321 -510q33 -55 39 -63l19 -31q18 -31 30 -53q27 49 84 143l320 514h207zM907 1477h-186l-121 165l-129 -165h-166l197 254h205z" glyph-name="Ycircumflex" horiz-adv-x="1198" unicode="Ŷ"/><glyph d="M928 989l-365 -956q-100 -266 -135 -320q-70 -113 -213 -112q-45 0 -94 12l-25 4v147q74 -23 105 -22q61 0 94 45t98 219l-391 983h182l217 -579q29 -78 76 -230q43 137 80 244l199 565h172zM754 1133h-166l-129 184l-135 -184h-146l197 274h176z" glyph-name="ycircumflex" horiz-adv-x="927" unicode="ŷ"/><glyph d="M1219 1366l-527 -807v-559h-180v559l-532 807h219l321 -510q33 -55 39 -63l19 -31q18 -31 30 -53q27 49 84 143l320 514h207zM903 1698v-189h-178v189h178zM483 1698v-189h-178v189h178z" glyph-name="Ydieresis" horiz-adv-x="1198" unicode="Ÿ"/><glyph d="M1122 1366v-149l-776 -965q-2 -2 -7 -8t-14.5 -16.5t-17.5 -20.5q-2 -4 -18.5 -22.5t-26.5 -30.5q195 4 252 4h629v-158h-1090v154l785 972q23 27 43 50l32 36q-96 -4 -241 -4h-551v158h1001zM879 1735l-238 -260h-133l156 260h215z" glyph-name="Zacute" horiz-adv-x="1193" unicode="Ź"/><glyph d="M858 989v-106l-530 -664q-6 -6 -17.5 -20.5t-17.5 -20.5l-41 -45h123h508v-133h-836v121l518 645q43 47 84 90h-94h-469v133h772zM725 1399l-229 -273h-113l141 273h201z" glyph-name="zacute" horiz-adv-x="903" unicode="ź"/><glyph d="M1122 1366v-149l-776 -965q-2 -2 -7 -8t-14.5 -16.5t-17.5 -20.5q-2 -4 -18.5 -22.5t-26.5 -30.5q195 4 252 4h629v-158h-1090v154l785 972q23 27 43 50l32 36q-96 -4 -241 -4h-551v158h1001zM707 1698v-189h-179v189h179z" glyph-name="Zdotaccent" horiz-adv-x="1193" unicode="Ż"/><glyph d="M858 989v-106l-530 -664q-6 -6 -17.5 -20.5t-17.5 -20.5l-41 -45h123h508v-133h-836v121l518 645q43 47 84 90h-94h-469v133h772zM571 1368v-194h-174v194h174z" glyph-name="zdotaccent" horiz-adv-x="903" unicode="ż"/><glyph d="M1122 1366v-149l-776 -965q-2 -2 -7 -8t-14.5 -16.5t-17.5 -20.5q-2 -4 -18.5 -22.5t-26.5 -30.5q195 4 252 4h629v-158h-1090v154l785 972q23 27 43 50l32 36q-96 -4 -241 -4h-551v158h1001zM317 1731h185l121 -166l129 166h168l-199 -254h-203z" glyph-name="Zcaron" horiz-adv-x="1193" unicode="Ž"/><glyph d="M858 989v-106l-530 -664q-6 -6 -17.5 -20.5t-17.5 -20.5l-41 -45h123h508v-133h-836v121l518 645q43 47 84 90h-94h-469v133h772zM760 1407l-197 -274h-178l-203 274h166l129 -184l137 184h146z" glyph-name="zcaron" horiz-adv-x="903" unicode="ž"/><glyph d="M72 752h1142q-27 225 -153.5 351t-327.5 126q-315 0 -438 -295l-176 35q49 119 100 184q178 236 514 236q299 0 482.5 -198t183.5 -519.5t-183.5 -518t-482.5 -196.5t-482 197.5t-183 519.5q0 39 2 65zM1214 592h-962q25 -223 152.5 -350t328.5 -127t328.5 127t152.5 350 z" glyph-name="uni018F" horiz-adv-x="1466" unicode="Ə"/><glyph d="M877 934l-21 -117h-199l-137 -805q-25 -141 -48 -206.5t-69 -110.5q-80 -80 -227 -80q-37 0 -115 6l23 148q35 -4 72 -5q94 0 131 45.5t63 190.5l142 817h-175l21 117h174l41 242q31 178 106.5 250.5t231.5 72.5q41 0 108 -6l-26 -147q-41 12 -84 12q-74 0 -113 -44 t-59 -149l-41 -231h201z" glyph-name="florin" horiz-adv-x="1091" unicode="ƒ"/><glyph d="M752 1370l532 -1370h-199l-153 420h-574l-155 -420h-191l537 1370h203zM879 565l-136 363q-72 193 -96 276q-10 -31 -22.5 -64.5t-18.5 -49.5q-20 -43 -57 -154l-137 -371h467zM348 1731h184l121 -166l129 166h168l-198 -254h-203z" glyph-name="uni01CD" horiz-adv-x="1296" unicode="Ǎ"/><glyph d="M993 131v-127q-55 -20 -114 -20q-68 0 -105 38.5t-37 108.5q-139 -160 -358 -160q-147 0 -232.5 76t-85.5 205q0 197 187 270q47 20 89 27.5t216 30.5q98 10 136 38.5t38 92.5q0 172 -223 172q-119 0 -176.5 -48.5t-67.5 -154.5h-160q4 160 114 249t302 89q209 0 309 -96 q68 -68 68 -234q0 -100 -6 -407q-2 -27 -2 -60q0 -55 14 -77.5t51 -22.5q20 0 43 10zM729 367v147q-33 -25 -74 -36t-145 -23q-143 -18 -197 -47q-84 -43 -84 -142q0 -78 53.5 -123t143.5 -45q176 0 272 133q31 44 31 136zM795 1407l-199 -274h-178l-201 274h164l131 -184 l135 184h148z" glyph-name="uni01CE" horiz-adv-x="1036" unicode="ǎ"/><glyph d="M180 0v418l47 608h88l45 -608v-418h-180zM170 1174v192h201v-192h-201z" glyph-name="uni01D1" horiz-adv-x="583" unicode="Ǒ"/><glyph d="M1237 1366v-797q0 -168 -18.5 -249.5t-75.5 -161.5q-131 -188 -451 -189q-342 0 -477 213q-45 70 -61.5 154t-16.5 235v795h180v-799q0 -131 9.5 -188t40.5 -111q80 -145 327 -145q236 0 312 135q29 53 40 117.5t11 191.5v799h180zM385 1731h186l121 -166l129 166h166 l-196 -254h-203z" glyph-name="uni01D3" horiz-adv-x="1372" unicode="Ǔ"/><glyph d="M963 989v-989h-152v154q-115 -182 -344 -183q-178 0 -264 109q-66 80 -66 268v641h162v-583q0 -164 33 -216q53 -82 182 -81q168 0 248 145q39 76 39 256v479h162zM842 1407l-199 -274h-178l-201 274h164l131 -184l135 184h148z" glyph-name="uni01D4" horiz-adv-x="1105" unicode="ǔ"/><glyph d="M1341 721v-721h-114l-27 104l-10 35q0 2 -3 12.5t-7 18.5q-164 -201 -439 -201q-291 0 -471 193.5t-180 507.5q0 326 183.5 526.5t480.5 200.5q238 0 394.5 -123t176.5 -328h-176q-20 135 -128 216t-267 81q-221 0 -351.5 -153.5t-130.5 -413.5q0 -254 130 -403.5 t352 -149.5q127 0 226 57.5t150 159.5q47 92 50 235h-437v146h598zM446 1731h187l121 -166l129 166h166l-197 -254h-203z" glyph-name="Gcaron" horiz-adv-x="1468" unicode="Ǧ"/><glyph d="M989 989v-883q0 -217 -67 -329q-106 -180 -394 -180q-184 0 -290.5 74.5t-124.5 215.5h168q27 -164 254 -163q152 0 222 78.5t70 246.5v119q-53 -94 -127.5 -137t-187.5 -43q-195 0 -313.5 138t-118.5 366q0 236 123 381t319 145q106 0 180 -41t136 -131v143h151z M541 881q-152 0 -228 -115q-68 -102 -67 -258q0 -178 76.5 -280.5t212.5 -102.5q133 0 211.5 105.5t78.5 281.5q0 170 -76.5 269.5t-207.5 99.5zM836 1407l-199 -274h-178l-201 274h164l129 -184l137 184h148z" glyph-name="gcaron" horiz-adv-x="1132" unicode="ǧ"/><glyph d="M1341 721v-721h-114l-27 104l-10 35q0 2 -3 12.5t-7 18.5q-164 -201 -439 -201q-291 0 -471 193.5t-180 507.5q0 326 183.5 526.5t480.5 200.5q238 0 394.5 -123t176.5 -328h-176q-20 135 -128 216t-267 81q-221 0 -351.5 -153.5t-130.5 -413.5q0 -254 130 -403.5 t352 -149.5q127 0 226 57.5t150 159.5q47 92 50 235h-437v146h598zM1008 1735l-236 -260h-133l156 260h213z" glyph-name="uni01F4" horiz-adv-x="1468" unicode="Ǵ"/><glyph d="M1094 965h-174q-16 145 -98.5 211.5t-241.5 66.5q-145 0 -226.5 -59.5t-81.5 -167.5q0 -96 72 -139q78 -45 299 -91q254 -57 340 -114q164 -102 164 -289q0 -190 -152 -311q-135 -102 -379 -103q-266 0 -414.5 126t-150.5 356h174q10 -328 404 -328q158 0 247 65.5 t89 182.5q0 145 -185 207q-59 20 -291 73q-203 47 -278 105q-113 88 -113 250q0 180 129 285.5t353 105.5q242 0 374 -111.5t140 -320.5zM690 -123v-133q0 -211 -178 -231v69q86 20 94 125h-94v170h178z" glyph-name="Scommaaccent" horiz-adv-x="1230" unicode="Ș"/><glyph d="M840 702h-162q-14 92 -71.5 135.5t-170.5 43.5q-96 0 -149.5 -36t-53.5 -102q0 -59 49.5 -87.5t215.5 -67.5q205 -45 290 -107q92 -70 93 -192q0 -145 -113 -231.5t-299 -86.5q-201 0 -309.5 87t-114.5 255h160q25 -205 266 -204q109 0 175.5 45t66.5 118q0 63 -51.5 97 t-196.5 69q-221 53 -283 86q-115 61 -114 203q0 133 102 212t274 79q223 0 326 -121q62 -68 70 -195zM539 -123v-133q0 -211 -179 -231v69q86 20 95 125h-95v170h179z" glyph-name="scommaaccent" horiz-adv-x="950" unicode="ș"/><glyph d="M1128 1366v-158h-458v-1208h-181v1208h-458v158h1097zM670 -109v-133q0 -211 -178 -231v70q86 20 94 124h-94v170h178z" glyph-name="uni021A" horiz-adv-x="1157" unicode="Ț"/><glyph d="M520 989v-133h-198v-584q0 -98 19 -125.5t91 -27.5q35 0 88 12v-139q-63 -8 -127 -8q-158 0 -205 77q-20 31 -24 79t-4 222v494h-166v133h166v295h162v-295h198zM420 -123v-133q0 -211 -178 -231v69q86 20 94 125h-94v170h178z" glyph-name="uni021B" horiz-adv-x="577" unicode="ț"/><glyph d="M242 674h-158q76 344 432 344q217 0 342 -138.5t125 -377.5q0 -233 -130 -382t-333 -149q-135 0 -241.5 69t-159.5 191q-47 113 -47 306h745q-12 346 -313 346q-102 0 -164.5 -49t-97.5 -160zM815 403h-575q10 -139 85.5 -216.5t200.5 -77.5q248 -1 289 294z" glyph-name="uni0259" horiz-adv-x="1064" unicode="ə"/><glyph d="M365 1366v-152q0 -285 -220 -337v94q106 31 111 188h-111v207h220z" glyph-name="afii57929" horiz-adv-x="509" unicode="ʼ"/><glyph d="M801 1133h-166l-127 184l-135 -184h-148l197 274h178z" glyph-name="circumflex" unicode="ˆ"/><glyph d="M801 1407l-199 -274h-178l-201 274h164l131 -184l135 184h148z" glyph-name="caron" unicode="ˇ"/><glyph d="M799 1307v-113h-576v113h576z" glyph-name="uni02C9" unicode="ˉ"/><glyph d="M692 1405h90q-10 -109 -43 -160q-70 -111 -235 -110q-131 0 -194.5 65.5t-69.5 204.5h92q10 -80 53 -115t129 -35q82 0 121 33t57 117z" glyph-name="breve" unicode="˘"/><glyph d="M598 1354v-195h-174v195h174z" glyph-name="dotaccent" unicode="˙"/><glyph d="M514 1505q82 0 142.5 -61.5t60.5 -145.5q0 -86 -60.5 -146t-146.5 -60t-146.5 60t-60.5 148q0 86 61.5 145.5t149.5 59.5zM508 1417q-51 0 -86 -33.5t-35 -85.5q0 -49 35 -83.5t84 -34.5q51 0 87 34.5t36 83.5q0 47 -36 83t-85 36z" glyph-name="ring" unicode="˚"/><glyph d="M580 0h102q-113 -86 -113 -164q0 -45 38 -72.5t98 -27.5q27 0 81 14v-90q-63 -18 -116 -18q-96 0 -156.5 46t-60.5 122q0 98 127 190z" glyph-name="ogonek" unicode="˛"/><glyph d="M721 1386h90q-33 -213 -180 -212q-43 0 -117 30q-106 43 -133 43q-55 0 -80 -86h-86q10 102 57 157.5t125 55.5q39 0 67 -9t124 -52q25 -10 51 -10q62 -1 82 83z" glyph-name="tilde" unicode="˜"/><glyph d="M848 1399l-162 -273h-102l90 273h174zM575 1399l-161 -273h-103l90 273h174z" glyph-name="hungarumlaut" unicode="˝"/><glyph d="M367 616v-213h-224v213h224z" glyph-name="anoteleia" horiz-adv-x="509" unicode="·"/><glyph d="M522 592v-164h-465v164h465z" glyph-name="Wacute" horiz-adv-x="579" unicode="Ẃ"/><glyph d="M1753 1366l-362 -1366h-191l-231 836q-68 266 -82 358q-43 -180 -90 -348l-230 -846h-192l-355 1366h187l203 -838q51 -217 71 -342q14 98 80 346l227 834h199l234 -852q53 -205 73 -328q14 94 70 324l209 856h180zM1186 1698v-189h-178v189h178zM766 1698v-189h-178v189 h178z" glyph-name="Wdieresis" horiz-adv-x="1775" unicode="Ẅ"/><glyph glyph-name="uni2002" unicode=" "/><glyph glyph-name="uni2003" horiz-adv-x="2048" unicode=" "/><glyph glyph-name="uni2004" horiz-adv-x="681" unicode=" "/><glyph glyph-name="uni2005" horiz-adv-x="512" unicode=" "/><glyph glyph-name="uni2006" horiz-adv-x="137" unicode=" "/><glyph glyph-name="uni2007" horiz-adv-x="1091" unicode=" "/><glyph glyph-name="uni2009" horiz-adv-x="256" unicode=" "/><glyph glyph-name="uni200A" horiz-adv-x="67" unicode=" "/><glyph d="M465 592v-164h-465v164h465z" glyph-name="uni2011" horiz-adv-x="464" unicode="‑"/><glyph d="M956 592v-164h-819v164h819z" glyph-name="figuredash" horiz-adv-x="1091" unicode="‒"/><glyph d="M956 592v-164h-819v164h819z" glyph-name="endash" horiz-adv-x="1091" unicode="–"/><glyph d="M1386 592v-164h-1386v164h1386z" glyph-name="emdash" horiz-adv-x="1386" unicode="—"/><glyph d="M1386 592v-164h-1386v164h1386z" glyph-name="afii00208" horiz-adv-x="1386" unicode="―"/><glyph d="M0 -121h1024v-82h-1024v82zM0 -358h1024v-84h-1024v84z" glyph-name="underscoredbl" unicode="‗"/><glyph d="M145 897v152q0 287 220 337v-94q-106 -31 -111 -188h111v-207h-220z" glyph-name="quoteleft" horiz-adv-x="509" unicode="‘"/><glyph d="M365 1366v-152q0 -285 -220 -337v94q106 31 111 188h-111v207h220z" glyph-name="quoteright" horiz-adv-x="509" unicode="’"/><glyph d="M365 207v-152q0 -287 -220 -338v95q106 31 111 188h-111v207h220z" glyph-name="quotesinglbase" horiz-adv-x="509" unicode="‚"/><glyph d="M145 907v156q0 131 53.5 214t153.5 107v-92q-109 -41 -104 -188h104v-197h-207zM494 907v160q0 262 206 319v-94q-104 -47 -104 -188h104v-197h-206z" glyph-name="quotedblleft" horiz-adv-x="847" unicode="“"/><glyph d="M700 1366v-156q0 -268 -206 -321v92q109 45 104 188h-104v197h206zM352 1366v-160q0 -260 -207 -319v94q106 47 105 188h-105v197h207z" glyph-name="quotedblright" horiz-adv-x="847" unicode="”"/><glyph d="M700 197v-156q0 -268 -206 -322v93q109 45 104 188h-104v197h206zM352 197v-160q0 -260 -207 -320v95q106 47 105 188h-105v197h207z" glyph-name="quotedblbase" horiz-adv-x="847" unicode="„"/><glyph d="M997 971v-142h-379v-1214h-155v1214h-371v142h371v395h155v-395h379z" glyph-name="dagger" horiz-adv-x="1091" unicode="†"/><glyph d="M997 969v-142h-379v-651h379v-141h-379v-420h-155v420h-371v141h371v651h-371v142h371v397h155v-397h379z" glyph-name="daggerdbl" horiz-adv-x="1091" unicode="‡"/><glyph d="M690 977q113 0 196 -84t83 -199q0 -119 -83 -201.5t-200 -82.5t-201 82.5t-84 199.5q0 119 84 202t205 83z" glyph-name="bullet" horiz-adv-x="1366" unicode="•"/><glyph d="M367 213v-213h-224v213h224zM877 213v-213h-224v213h224zM1389 213v-213h-224v213h224z" glyph-name="ellipsis" horiz-adv-x="1531" unicode="…"/><glyph d="M1229 1403l-903 -1471h-121l909 1471h115zM1092 629q133 0 204.5 -82t71.5 -232q0 -336 -278 -335q-283 0 -283 321q0 328 285 328zM1090 524q-143 0 -144 -227q0 -213 144 -213q137 0 137 223q0 217 -137 217zM1775.5 629q137.5 0 209 -82t71.5 -236q0 -162 -72.5 -248 t-207.5 -86q-283 0 -283 322q0 162 72.5 246t210 84zM1776 524q-143 0 -144 -229q0 -213 144 -213q137 0 137 223q0 219 -137 219zM365 1362q135 0 206.5 -83t71.5 -239q0 -158 -73.5 -244.5t-211.5 -86.5q-279 0 -278 325q0 160 73 244t212 84zM362 1257q-141 0 -141 -229 q0 -213 139.5 -213t139.5 219q-1 223 -138 223z" glyph-name="perthousand" horiz-adv-x="2134" unicode="‰"/><glyph d="M387 821v-166l-192 -147l192 -146v-165l-291 225v168z" glyph-name="guilsinglleft" horiz-adv-x="509" unicode="‹"/><glyph d="M123 821l291 -231v-168l-291 -225v165l192 146l-192 147v166z" glyph-name="guilsinglright" horiz-adv-x="509" unicode="›"/><glyph d="M289 1366v-362l-41 -615h-92l-41 612v365h174zM293 250v-250h-180v250h180zM711 1366v-362l-41 -615h-92l-41 612v365h174zM713 250v-250h-181v250h181z" glyph-name="exclamdbl" horiz-adv-x="825" unicode="‼"/><glyph d="M0 1753h1024v-111h-1024v111z" glyph-name="uni203E" unicode="‾"/><glyph d="M604 1350l-776 -1350h-115l781 1350h110z" glyph-name="fraction" horiz-adv-x="311" unicode="⁄"/><glyph d="M364.5 1366q182.5 0 249.5 -147q41 -94 41 -285q0 -166 -41 -256q-70 -147 -247 -148q-190 0 -256 148q-41 88 -41 258q0 195 41 285q71 145 253.5 145zM365 1270q-98 0 -136.5 -72t-38.5 -256q0 -168 40 -240.5t135 -72.5q90 0 130 73.5t40 241.5q0 176 -39 251t-131 75 z" glyph-name="uni2070" horiz-adv-x="722" unicode="⁰"/><glyph d="M657 838v-97h-116v-194h-111v194h-375v101l391 524h95v-528h116zM430 838v221q0 92 2 143q-4 -6 -16.5 -23.5t-18.5 -27.5q-45 -66 -49 -70l-110 -147q-45 -57 -78 -96h86h184z" glyph-name="uni2074" horiz-adv-x="722" unicode="⁴"/><glyph d="M606 1350v-101h-348l-29 -143q-10 -41 -10 -49q-2 -2 -6 -19q70 49 162 49q123 0 200.5 -75.5t77.5 -194.5q0 -127 -85 -207t-218 -80q-127 0 -205.5 68t-78.5 178h116q6 -68 52.5 -108.5t115.5 -40.5q78 0 130 52t52 130q0 82 -51 132t-133 50q-102 0 -162 -80l-98 7 l82 432h436z" glyph-name="uni2075" horiz-adv-x="722" unicode="⁵"/><glyph d="M639 1143h-117q-20 127 -141 127q-174 0 -195 -281q76 86 205 86q121 0 196 -72.5t75 -189.5q0 -125 -80 -205t-207 -80q-305 0 -305 408q0 209 81.5 319.5t235.5 110.5q113 0 178.5 -58.5t73.5 -164.5zM375 977q-78 0 -124 -46t-46 -124q0 -80 47 -130t123 -50 q74 0 120 49t46 127t-45 126t-121 48z" glyph-name="uni2076" horiz-adv-x="722" unicode="⁶"/><glyph d="M657 1350v-95l-8 -10l-35 -35q-246 -276 -286 -663h-127q12 176 104 365.5t234 330.5h-449v107h567z" glyph-name="uni2077" horiz-adv-x="720" unicode="⁷"/><glyph d="M205 983q-104 57 -105 168q0 94 74 154.5t188.5 60.5t187.5 -58.5t73 -150.5q0 -115 -107 -174q139 -55 139 -195q0 -119 -79.5 -189.5t-217.5 -70.5q-131 0 -210.5 69t-79.5 181q0 142 137 205zM362.5 1268q-63.5 0 -102.5 -34t-39 -89q0 -53 39 -87t102.5 -34t101.5 33 t38 88q0 57 -38 90t-101.5 33zM360 932q-76 0 -124 -42t-48 -108q0 -68 48.5 -110.5t123.5 -42.5q78 0 126.5 42t48.5 111q0 66 -48.5 108t-126.5 42z" glyph-name="uni2078" horiz-adv-x="722" unicode="⁸"/><glyph d="M82 756h115q18 -127 149 -127q84 0 134 75.5t52 210.5q-72 -96 -200 -96q-119 0 -194 74t-75 192q0 125 81 203t208 78q186 0 260 -158q41 -90 41 -243q0 -207 -80.5 -321t-228.5 -114q-115 0 -185.5 62t-76.5 164zM350 1270q-76 0 -121 -49.5t-45 -130.5q0 -80 44 -126 t120 -46t122 47t46 122q0 82 -46 132.5t-120 50.5z" glyph-name="uni2079" horiz-adv-x="722" unicode="⁹"/><glyph d="M364.5 819q182.5 0 249.5 -147q41 -94 41 -285q0 -166 -41 -256q-70 -147 -247 -147q-190 0 -256 147q-41 88 -41 258q0 195 41 285q71 145 253.5 145zM365 723q-98 0 -136.5 -71.5t-38.5 -256.5q0 -168 40 -240.5t135 -72.5q90 0 130 73.5t40 241.5q0 176 -39 251 t-131 75z" glyph-name="uni2080" horiz-adv-x="722" unicode="₀"/><glyph d="M487 819v-819h-127v584h-55h-59h-66h-35v86q113 -2 169.5 31.5t78.5 117.5h94z" glyph-name="uni2081" horiz-adv-x="722" unicode="₁"/><glyph d="M649 100v-100h-573q6 123 61.5 198.5t196.5 153.5q121 72 161 116t40 107q0 66 -44.5 107t-113.5 41q-154 0 -160 -205h-117q0 145 73 223t210 78q123 0 197.5 -66.5t74.5 -174.5q0 -94 -55 -159t-209 -151q-96 -53 -133 -85.5t-57 -82.5h448z" glyph-name="uni2082" horiz-adv-x="722" unicode="₂"/><glyph d="M195 545h-115q4 133 76.5 203.5t203.5 70.5q115 0 186.5 -59.5t71.5 -155.5q0 -109 -104 -168q141 -49 141 -192q0 -117 -83 -188.5t-218 -71.5q-133 0 -213 70.5t-80 189.5v20h115q6 -182 180 -182q78 0 128.5 43t50.5 108q0 70 -48.5 109t-138.5 39q-37 0 -59 -4v96 q20 -2 43 -2q78 0 122 34t44 93q0 55 -40 89t-104 34q-155 0 -159 -176z" glyph-name="uni2083" horiz-adv-x="722" unicode="₃"/><glyph d="M657 291v-96h-116v-195h-111v195h-375v100l391 524h95v-528h116zM430 291v221q0 92 2 143q-20 -31 -37.5 -55.5t-23.5 -32.5t-11.5 -16t-11.5 -16l-110 -148q-10 -10 -78 -96h86h184z" glyph-name="uni2084" horiz-adv-x="722" unicode="₄"/><glyph d="M606 803v-101h-348l-29 -141q-10 -45 -10 -51q-2 -2 -6 -18q70 49 162 49q125 0 201.5 -75t76.5 -196q0 -127 -85 -206.5t-218 -79.5q-127 0 -205.5 67.5t-78.5 177.5h116q6 -68 52.5 -108.5t115.5 -40.5q78 0 130 52t52 130q0 82 -51 132t-133 50q-102 0 -162 -77l-98 4 l82 432h436z" glyph-name="uni2085" horiz-adv-x="722" unicode="₅"/><glyph d="M639 596h-117q-20 127 -141 127q-174 0 -195 -281q76 86 205 86q121 0 196 -71.5t75 -190.5q0 -125 -80 -203.5t-207 -78.5q-305 0 -305 407q0 207 81.5 317.5t235.5 110.5q113 0 178.5 -58.5t73.5 -164.5zM375 432q-78 0 -124 -46t-46 -124q0 -80 47 -130t123 -50 q74 0 120 49t46 127t-45 126t-121 48z" glyph-name="uni2086" horiz-adv-x="722" unicode="₆"/><glyph d="M657 803v-94l-8 -11l-35 -34q-246 -276 -286 -664h-127q12 176 104 365.5t234 330.5h-449v107h567z" glyph-name="uni2087" horiz-adv-x="720" unicode="₇"/><glyph d="M205 438q-104 53 -105 168q0 94 74 153.5t188.5 59.5t187.5 -58.5t73 -150.5q0 -113 -107 -172q139 -55 139 -196q0 -119 -79.5 -188.5t-217.5 -69.5q-131 0 -210.5 68.5t-79.5 180.5q0 142 137 205zM362.5 723q-63.5 0 -102.5 -34t-39 -89q0 -53 39 -87t102.5 -34 t101.5 33t38 88q0 57 -38 90t-101.5 33zM360 387q-76 0 -124 -42t-48 -107q0 -68 48.5 -111t123.5 -43q78 0 126.5 42t48.5 112q0 66 -48.5 107.5t-126.5 41.5z" glyph-name="uni2088" horiz-adv-x="722" unicode="₈"/><glyph d="M82 209h115q18 -127 149 -127q84 0 134 75.5t52 211.5q-72 -96 -200 -97q-119 0 -194 74t-75 193q0 125 81 202.5t208 77.5q186 0 260 -157q41 -90 41 -244q0 -207 -80.5 -320.5t-228.5 -113.5q-115 0 -185.5 61.5t-76.5 163.5zM350 723q-76 0 -121 -49t-45 -131 q0 -80 44 -126t120 -46t122 47t46 123q0 82 -46 132t-120 50z" glyph-name="uni2089" horiz-adv-x="722" unicode="₉"/><glyph d="M889 1337v-147h-567v-440h370v-138h-370v-612h-164v1337h731zM1223 776v-153q-20 2 -47 2q-117 0 -195 -78q-49 -51 -66.5 -122t-17.5 -220v-205h-145v750h137v-187q86 219 334 213z" glyph-name="franc" horiz-adv-x="1222" unicode="₣"/><glyph d="M334 870h395v-116h-338q70 -131 88 -197h250v-117h-242q-10 -139 -192 -288l-4 -5q-4 -4 -10.5 -9t-10.5 -9q125 57 219 57q49 0 85 -8t151 -43q41 -10 80 -10q98 0 184 68l80 -127q-98 -92 -266 -93q-51 0 -83 7.5t-132 39.5q-111 35 -185 35q-49 0 -89 -15t-109 -60 l-88 137q205 141 209 323h-215v117h196q-25 59 -100 197h-96v116h45q-16 66 -17 117q0 168 123 273.5t318 105.5q211 0 331.5 -116.5t118.5 -319.5h-166q-8 143 -80.5 219t-205.5 76q-117 0 -193 -65.5t-76 -166.5q0 -60 25 -123z" glyph-name="lira" horiz-adv-x="1091" unicode="₤"/><glyph d="M158 1337h391q119 0 186.5 -16t126.5 -57q154 -109 154 -318q0 -233 -156 -342q-59 -41 -123.5 -56.5t-179.5 -15.5h-235v-532h-164v1337zM322 1190v-520h221q145 0 215 51q92 72 92 215q0 147 -107 213q-63 41 -227 41h-194zM1235 535v-97h-113v-291q0 -47 8.5 -57 t40.5 -10q29 0 64 10v-100q-51 -6 -84 -6q-96 0 -127 45q-18 31 -18 166v243h-95v97h95v151h116v-151h113zM1767 358h-116q-6 51 -35 73t-92 22q-102 0 -103 -58q0 -27 23.5 -39t116.5 -30q129 -27 179 -65t50 -105q0 -82 -67.5 -130.5t-178.5 -48.5q-250 0 -254 203h115 q6 -57 38 -81.5t101 -24.5q57 0 91 19.5t34 51.5q0 31 -45 52q-31 10 -178 45q-143 31 -143 143q0 76 61 120t166 44q225 -1 237 -191z" glyph-name="peseta" horiz-adv-x="1832" unicode="₧"/><glyph d="M53 610h101q-2 20 -2 43q0 37 4 74h-152l49 117h117q39 252 168 387t330 135q238 0 422 -149l-66 -152q-135 90 -204.5 118.5t-153.5 28.5q-258 0 -326 -368h588l-51 -117h-551q-4 -33 -4 -72q0 -23 2 -45h501l-51 -116h-436q63 -365 334 -365q78 0 142.5 23.5 t209.5 103.5v-184q-172 -98 -365 -99q-205 0 -332.5 134.5t-162.5 386.5h-162z" glyph-name="Euro" horiz-adv-x="1120" unicode="€"/><glyph d="M1380 1366l-573 -1366h-111l574 1366h110zM520 1368l342 -821h-139l-96 246h-353l-98 -246h-135l344 821h135zM588 893l-82 205q-35 90 -55 145q-12 -31 -19 -49q-18 -43 -37 -92l-84 -209h277zM1860 569h-123q-8 86 -58.5 125t-150.5 39q-88 0 -137.5 -33.5t-49.5 -93.5 q0 -51 42 -75.5t186 -53.5q160 -31 217 -67q106 -63 106 -177q0 -117 -91 -184t-251 -67q-174 0 -267 77.5t-95 221.5h123q6 -195 248 -195q96 0 150 37t54 104q0 78 -110 115q-41 12 -183 43q-129 29 -178 64q-74 51 -73 151q0 109 82.5 173.5t226.5 64.5q322 -1 332 -269z " glyph-name="uni2101" horiz-adv-x="2004" unicode="℁"/><glyph d="M274 795q51 0 88 -37t37 -88q0 -53 -36.5 -90t-90.5 -37q-51 0 -88 36.5t-37 90.5q0 51 37 88t90 37z" glyph-name="afii61248" horiz-adv-x="546" unicode="℅"/><glyph d="M506 543q-61 -307 -62 -416q0 -53 37 -53q45 0 99 108q18 39 41 39q29 0 28 -31q0 -45 -41 -110q-74 -117 -170 -117q-70 0 -107.5 50t-37.5 141q0 68 18 241q-82 -90 -110 -90q-8 0 -17.5 12.5t-9.5 24.5q0 20 39 57q37 33 113 123q84 444 182 652t227 208q61 0 98 -47 t37 -125q0 -176 -131 -385q-69 -112 -233 -282zM524 657q145 160 209 326q53 139 53 231q0 33 -14 53.5t-37 20.5q-59 0 -105.5 -135.5t-105.5 -495.5z" glyph-name="afii61289" unicode="ℓ"/><glyph d="M211 1366v-131h-115v131h115zM211 1145v-598h-115v598h115z" glyph-name="uni2117" horiz-adv-x="307" unicode="℗"/><glyph d="M692 1366v-100h-274v-678h-121v678h-277v100h672zM1604 1366v-778h-117v350q0 139 10 293q-16 -43 -31.5 -84t-25.5 -66l-197 -493h-102l-207 487q-20 53 -53 139q8 -162 8 -274v-352h-117v778h160l192 -471q51 -123 68 -174q20 61 65 172l185 473h162z" glyph-name="trademark" horiz-adv-x="1734" unicode="™"/><glyph d="M55 0v147h367q-371 215 -371 598q0 274 183.5 464t447.5 190t446.5 -189.5t182.5 -464.5q0 -383 -371 -598h367v-147h-535v137q367 203 367 580q0 223 -132.5 377.5t-325 154.5t-325.5 -153.5t-133 -376.5q0 -381 369 -582v-137h-537z" glyph-name="uni2126" horiz-adv-x="1363" unicode="Ω"/><glyph d="M487 1366v-819h-127v583h-55h-59h-66h-35v87q113 -2 169.5 31.5t78.5 117.5h94zM1327 1350l-776 -1350h-115l783 1350h108zM1229 545h-115q4 133 77 203.5t204 70.5q115 0 186.5 -59.5t71.5 -155.5q0 -109 -105 -168q141 -49 142 -192q0 -117 -83 -188.5t-218 -71.5 q-133 0 -213 70.5t-80 189.5v20h114q6 -182 181 -182q78 0 128 43t50 108q0 70 -48 109t-139 39q-37 0 -59 -4v96q20 -2 43 -2q78 0 122 34t44 93q0 55 -39 89t-104 34q-156 0 -160 -176z" glyph-name="onethird" horiz-adv-x="1755" unicode="⅓"/><glyph d="M649 645v-100h-573q8 123 63.5 198.5t194.5 153.5q121 70 161 115t40 110.5t-44.5 106.5t-113.5 41q-154 0 -160 -205h-117q0 145 73 224t210 79q123 0 197.5 -66.5t74.5 -177.5q0 -94 -55 -158.5t-209 -152.5q-98 -53 -135 -86t-55 -82h448zM1327 1350l-776 -1350h-115 l781 1350h110zM1229 545h-115q4 133 77 203.5t204 70.5q115 0 186.5 -59.5t71.5 -155.5q0 -109 -105 -168q141 -49 142 -192q0 -117 -83 -188.5t-218 -71.5q-133 0 -213 70.5t-80 189.5v20h114q6 -182 181 -182q78 0 128 43t50 108q0 70 -48 109t-139 39q-37 0 -59 -4v96 q20 -2 43 -2q78 0 122 34t44 93q0 55 -39 89t-104 34q-156 0 -160 -176z" glyph-name="twothirds" horiz-adv-x="1755" unicode="⅔"/><glyph d="M487 1366v-819h-127v583h-55h-59h-66h-35v87q113 -2 169.5 31.5t78.5 117.5h94zM1327 1350l-776 -1350h-115l783 1350h108zM1239 438q-104 53 -104 168q0 94 73.5 153.5t188 59.5t187.5 -58.5t73 -150.5q0 -113 -107 -172q139 -55 140 -196q0 -119 -80 -188.5t-217 -69.5 q-131 0 -211 68.5t-80 180.5q0 142 137 205zM1396.5 723q-63.5 0 -102.5 -34t-39 -89q0 -53 39 -87t102.5 -34t101.5 33t38 88q0 57 -38 90t-101.5 33zM1395 387q-76 0 -124 -42t-48 -107q0 -68 48 -111t124 -43q78 0 126 42t48 112q0 66 -48 107.5t-126 41.5z" glyph-name="oneeighth" horiz-adv-x="1757" unicode="⅛"/><glyph d="M195 1092h-115q4 133 76.5 203.5t203.5 70.5q115 0 186.5 -59.5t71.5 -155.5q0 -109 -104 -168q141 -53 141 -192q0 -117 -83 -189t-218 -72q-133 0 -213 71t-80 190v20h115q6 -182 180 -182q78 0 128.5 43t50.5 108q0 72 -49.5 110t-139.5 38q-12 0 -57 -4v96 q23 -2 43 -2q78 0 122 33.5t44 93.5q0 55 -40 89t-104 34q-155 0 -159 -176zM1327 1350l-776 -1350h-117l783 1350h110zM1237 438q-104 53 -104 168q0 94 73.5 153.5t188 59.5t187.5 -58.5t73 -150.5q0 -113 -107 -172q139 -55 140 -196q0 -119 -80 -188.5t-217 -69.5 q-131 0 -211 68.5t-80 180.5q0 139 137 205zM1394.5 723q-63.5 0 -102.5 -34t-39 -89q0 -53 39 -87t102.5 -34t101.5 33t38 88q0 57 -38 90t-101.5 33zM1393 387q-76 0 -124 -42t-48 -107q0 -68 48 -111t124 -43q78 0 126 42t48 112q0 66 -48 107.5t-126 41.5z" glyph-name="threeeighths" horiz-adv-x="1755" unicode="⅜"/><glyph d="M606 1350v-101h-348l-29 -143q-10 -41 -10 -49q-2 -2 -6 -19q70 49 162 49q123 0 200.5 -75.5t77.5 -194.5q0 -127 -85 -207t-218 -80q-127 0 -205.5 68t-78.5 178h116q6 -68 52.5 -108.5t115.5 -40.5q78 0 130 52t52 130q0 82 -51 132t-133 50q-102 0 -162 -80l-98 7 l82 432h436zM1327 1350l-776 -1350h-115l783 1350h108zM1239 438q-104 53 -104 168q0 94 73.5 153.5t188 59.5t187.5 -58.5t73 -150.5q0 -113 -107 -172q139 -55 140 -196q0 -119 -80 -188.5t-217 -69.5q-131 0 -211 68.5t-80 180.5q0 142 137 205zM1396.5 723 q-63.5 0 -102.5 -34t-39 -89q0 -53 39 -87t102.5 -34t101.5 33t38 88q0 57 -38 90t-101.5 33zM1395 387q-76 0 -124 -42t-48 -107q0 -68 48 -111t124 -43q78 0 126 42t48 112q0 66 -48 107.5t-126 41.5z" glyph-name="fiveeighths" horiz-adv-x="1757" unicode="⅝"/><glyph d="M657 1350v-95l-8 -10l-35 -35q-246 -276 -286 -663h-127q12 176 104 365.5t234 330.5h-449v107h567zM1327 1350l-776 -1350h-115l781 1350h110zM1239 438q-106 53 -106 168q0 94 73.5 153.5t188 59.5t187.5 -58.5t73 -150.5q0 -113 -107 -172q141 -57 142 -196 q0 -119 -80 -188.5t-219 -69.5q-131 0 -211 68.5t-80 180.5q0 144 139 205zM1394.5 723q-63.5 0 -102.5 -34t-39 -89q0 -53 39 -87t102.5 -34t101.5 33t38 88q0 57 -38 90t-101.5 33zM1395 387q-78 0 -126 -42t-48 -107q0 -68 49 -111t125 -43q78 0 126 42t48 112 q0 66 -48 107.5t-126 41.5z" glyph-name="seveneighths" horiz-adv-x="1755" unicode="⅞"/><glyph d="M1337 743v-104h-1024q31 -39 69 -114.5t38 -98.5q0 -29 -31 -29q-16 0 -45 35q-92 109 -270 213q-47 23 -47 41q0 20 32 39q127 76 180.5 118t116.5 120q16 18 33 18q31 0 31 -31q0 -59 -107 -207h1024z" glyph-name="arrowleft" horiz-adv-x="1366" unicode="←"/><glyph d="M737 27h-104v1024q-37 -31 -114 -69t-99 -38q-29 0 -29 31q0 16 35 47q109 90 211 270q27 47 43 47q20 0 39 -34q76 -127 118 -179.5t119 -117.5q18 -16 19 -33q0 -31 -31 -31q-59 0 -207 107v-1024z" glyph-name="arrowup" horiz-adv-x="1366" unicode="↑"/><glyph d="M27 635v104h1024q-31 39 -69 115t-38 98q0 29 31 29q16 0 45 -35q94 -111 270 -213q47 -25 47 -41q0 -20 -32 -39q-127 -78 -179.5 -118.5t-117.5 -118.5q-16 -18 -33 -19q-31 0 -31 31q0 59 107 207h-1024z" glyph-name="arrowright" horiz-adv-x="1366" unicode="→"/><glyph d="M629 1337h104v-1024q39 33 115 70t98 37q29 0 29 -31q0 -16 -35 -45q-113 -96 -211 -270q-27 -47 -43 -47q-20 0 -39 32q-76 127 -117 178.5t-120 118.5q-18 16 -19 33q0 31 31 31q55 0 207 -107v1024z" glyph-name="arrowdown" horiz-adv-x="1366" unicode="↓"/><glyph d="M1051 635h-740q45 -59 77 -120.5t32 -86.5q0 -31 -31 -31q-14 0 -41 29q-4 6 -8 10q-59 68 -114.5 110t-178.5 116q-20 8 -20 30q0 16 47 41q172 98 270 211q29 35 45 35q31 0 31 -29q0 -23 -37 -95.5t-72 -115.5h740q-31 39 -69 114t-38 97q0 29 31 29q16 0 45 -35 q98 -113 270 -211q47 -27 47 -41q0 -20 -32 -39q-127 -76 -178.5 -116.5t-118.5 -120.5q-16 -18 -33 -19q-31 0 -31 31q1 60 107 207z" glyph-name="arrowboth" horiz-adv-x="1366" unicode="↔"/><glyph d="M737 1051v-740q59 45 121 78t86 33q31 0 31 -31q0 -14 -29 -41q-6 -4 -10 -8q-68 -59 -110 -114.5t-115 -180.5q-12 -20 -31 -20q-16 0 -41 47q-102 180 -213 270q-35 31 -35 47q0 31 29 31q23 0 98.5 -39t114.5 -72v740q-39 -31 -115 -69t-98 -38q-29 0 -29 31 q0 16 35 47q113 94 213 270q25 47 41 47q20 0 39 -34q76 -127 118 -179.5t119 -117.5q18 -16 19 -33q0 -31 -31 -31q-60 1 -207 107z" glyph-name="arrowupdn" horiz-adv-x="1366" unicode="↕"/><glyph d="M737 1051v-740q59 45 121 78t86 33q31 0 31 -31q0 -14 -29 -41q-6 -4 -10 -8q-68 -59 -110 -114.5t-115 -180.5q-12 -20 -31 -20q-14 0 -43 47q-96 176 -211 270q-35 31 -35 47q0 31 29 31q23 0 97.5 -39t115.5 -72v740q-37 -29 -114 -68t-99 -39q-29 0 -29 31 q0 16 35 47q113 94 213 270q25 47 41 47q20 0 39 -34q76 -127 118 -179.5t119 -117.5q18 -16 19 -33q0 -31 -31 -31q-60 1 -207 107zM412 -139h540v-88h-540v88z" glyph-name="arrowupdnbse" horiz-adv-x="1366" unicode="↨"/><glyph d="M170 1237l20 135q174 -23 292 -73t216 -142q262 -250 263 -663q0 -195 -82 -318q-59 -94 -156.5 -146.5t-208.5 -52.5q-188 0 -319.5 134.5t-131.5 326.5q0 188 123 320.5t299 132.5q129 0 213 -60q29 -23 86 -90q-8 18 -16 35q-41 96 -51 119q-70 139 -214.5 229 t-332.5 113zM524 762q-131 0 -220 -94.5t-89 -233.5q0 -131 88 -226t209 -95q127 0 211 94t84 237q0 137 -81 227.5t-202 90.5z" glyph-name="partialdiff" unicode="∂"/><glyph d="M899 1366l98 -51l-98 -180q231 -164 231 -418q0 -209 -147 -353.5t-360 -144.5q-94 0 -162 33l-129 -252l-99 51l125 250q-221 162 -221 414q0 209 145.5 353t354.5 144q80 0 166 -28zM852 1028l-338 -676q66 -16 119 -16q158 0 270.5 111.5t112.5 267.5q0 96 -44 182 t-120 131zM410 406l340 673q-57 16 -111 17q-160 0 -273.5 -112t-113.5 -267q0 -184 158 -311z" glyph-name="emptyset" horiz-adv-x="1265" unicode="∅"/><glyph d="M12 0l539 1366h174l541 -1366h-1254zM231 147h811l-403 1037z" glyph-name="uni2206" horiz-adv-x="1280" unicode="∆"/><glyph d="M53 1536h1258v-137h-150v-1774h150v-137h-457v137h154v1774h-652v-1774h152v-137h-455v137h152v1774h-152v137z" glyph-name="product" horiz-adv-x="1366" unicode="∏"/><glyph d="M1227 1536v-473h-154l-16 317h-799l508 -829l-508 -907h817l10 319h162v-475h-1177v180l497 883l-497 809v176h1157z" glyph-name="summation" horiz-adv-x="1366" unicode="∑"/><glyph d="M102 735h887v-129h-887v129z" glyph-name="minus" horiz-adv-x="1091" unicode="−"/><glyph d="M518 981q113 0 195 -84t82 -201q0 -119 -82 -202.5t-199 -83.5t-200 84t-83 200q0 121 83 204t204 83zM516 883q-78 0 -133 -54.5t-55 -134.5q0 -76 55 -131t131 -55t130 54t54 132q0 76 -54 132.5t-128 56.5z" glyph-name="uni2218" unicode="∘"/><glyph d="M1366 1694v-142h-389l-457 -1552h-184l-170 594h-166v141h264l86 -280q2 -10 66 -279h8l10 45q37 141 68 264q31 119 119 416l231 793h514z" glyph-name="radical" horiz-adv-x="1366" unicode="√"/><glyph d="M686 612q-158 -225 -342 -225q-135 0 -220 87t-85 224q0 135 86 221.5t221 86.5q186 0 336 -226q78 119 160 172.5t182 53.5q133 0 218 -87.5t85 -224.5t-84 -223t-217 -86q-193 0 -340 227zM745 696q68 -106 130.5 -153t136.5 -47q82 0 135 56t53 142q0 88 -53 144.5 t-137 56.5q-74 0 -133.5 -45t-131.5 -154zM621 694q-68 106 -130.5 153.5t-136.5 47.5q-82 0 -135 -56.5t-53 -142.5t54 -142t136 -56q74 0 132.5 43.5t132.5 152.5z" glyph-name="infinity" horiz-adv-x="1366" unicode="∞"/><glyph d="M43 989h614v-117h-614v117z" glyph-name="orthogonal" horiz-adv-x="700" unicode="∟"/><glyph d="M1079 0h-170v649q0 190 -11 275.5t-46 138.5q-43 68 -119 108.5t-158 40.5q-90 0 -169.5 -46t-118.5 -122q-47 -94 -47 -395v-649h-170v643q0 254 16 348t74 172q145 203 413 203q141 0 257 -62.5t184 -175.5q41 -70 53 -163t12 -322v-643z" glyph-name="intersection" horiz-adv-x="1148" unicode="∩"/><glyph d="M70 1366h170v-649q0 -190 11 -275.5t46 -138.5q43 -68 119 -108.5t159 -40.5q90 0 169 46t118 122q47 94 47 395v649h170v-643q0 -258 -16 -350t-74 -170q-145 -203 -414 -203q-141 0 -256.5 62.5t-183.5 175.5q-41 70 -53 163t-12 322v643z" glyph-name="union" horiz-adv-x="1148" unicode="∪"/><glyph d="M190 -489l33 157q43 -20 82 -20q84 0 107 69q10 31 10 189v1184q2 168 4 202.5t14 75.5q20 76 92 122t168 46q57 0 136 -20l-35 -160q-41 20 -82 20q-84 0 -107 -69q-10 -25 -10 -138v-1230q0 -180 -8 -236.5t-41 -103.5q-74 -106 -266 -107q-52 1 -97 19z" glyph-name="integral" unicode="∫"/><glyph d="M186 -489l35 157q49 -20 90 -20q84 0 107 69q10 35 10 144v315q-121 16 -205 118.5t-84 233.5q0 133 80 230.5t209 124.5v299q0 170 41 237q68 117 221 117q61 0 141 -20l-32 -160q-49 20 -92 20q-82 0 -105 -69q-10 -29 -10 -129v-295q133 -27 213 -122t80 -233 q0 -133 -83 -233t-210 -119v-321q0 -115 -7 -161t-30 -87q-68 -119 -240 -119q-68 0 -129 23zM592 797v-535q94 20 150.5 93t56.5 175q0 98 -58.5 173.5t-148.5 93.5zM428 264v531q-90 -18 -146.5 -92t-56.5 -172.5t58.5 -174.5t144.5 -92z" glyph-name="uni222E" unicode="∮"/><glyph d="M274.5 1102q51.5 0 87 -37t35.5 -86q0 -51 -35.5 -88t-87.5 -37q-53 0 -88.5 36t-35.5 89q0 51 36.5 87t88 36zM274.5 485q51.5 0 87 -36.5t35.5 -86.5q0 -51 -35.5 -87.5t-87.5 -36.5q-53 0 -88.5 36.5t-35.5 88t36.5 87t88 35.5z" glyph-name="uni2236" horiz-adv-x="546" unicode="∶"/><glyph d="M115 526l-95 76q104 236 281 236q78 0 238 -80q133 -66 186 -66q100 0 184 150l92 -74q-104 -236 -286 -236q-45 0 -89 15.5t-165 77.5q-109 53 -166 53q-98 0 -180 -152z" glyph-name="similar" unicode="∼"/><glyph d="M115 713l-95 63q104 236 281 236q76 0 238 -80q133 -66 186 -66q55 0 94 29t90 111l92 -64q-102 -233 -296 -233q-41 0 -83 15t-161 75q-109 53 -168 53q-51 0 -90 -30.5t-88 -108.5zM115 352l-95 64q104 236 281 235q78 0 238 -80q133 -66 186 -65q55 0 94 29.5 t90 111.5l92 -65q-102 -233 -296 -234q-41 0 -83 15.5t-161 74.5q-106 53 -168 54q-51 0 -90 -31t-88 -109z" glyph-name="approxequal" unicode="≈"/><glyph d="M551 909l127 254l119 -53l-101 -201h260v-147h-321l-98 -199h417v-147h-473l-125 -250l-118 51l96 199h-266v147h323l98 199h-421v147h483z" glyph-name="notequal" unicode="≠"/><glyph d="M68 1106h886v-156h-886v156zM68 760h886v-156h-886v156zM68 416h886v-156h-886v156z" glyph-name="equivalence" unicode="≡"/><glyph d="M954 1229v-168l-692 -266l692 -267v-168l-886 359v153zM954 301v-156h-886v156h886z" glyph-name="lessequal" unicode="≤"/><glyph d="M68 360v168l692 267l-692 266v168l886 -357v-153zM68 145v156h886v-156h-886z" glyph-name="greaterequal" unicode="≥"/><glyph d="M367 616v-213h-224v213h224z" glyph-name="dotmath" horiz-adv-x="509" unicode="⋅"/><glyph d="M172 0v821l596 672l598 -672v-821h-1194zM276 104h986v672l-494 553l-492 -553v-672z" glyph-name="house" horiz-adv-x="1538" unicode="⌂"/><glyph d="M240 0h-172v571h886v-155h-714v-416z" glyph-name="revlogicalnot" unicode="⌐"/><glyph d="M240 571v-415h714v-156h-886v571h172z" glyph-name="uni2319" unicode="⌙"/><glyph d="M602 -512h-180v1602q2 168 4 202.5t14 75.5q20 76 92 122t168 46q57 0 136 -20l-35 -160q-41 20 -82 20q-84 0 -107 -69q-10 -25 -10 -138v-1681z" glyph-name="integraltp" unicode="⌠"/><glyph d="M422 1536h180v-1602q-2 -168 -4 -202.5t-14 -75.5q-23 -78 -92.5 -123t-167.5 -45q-61 0 -134 23l33 157q43 -20 82 -20q84 0 107 69q10 29 10 140v1679z" glyph-name="integralbt" unicode="⌡"/><glyph d="M1366 0h-1366v1366h1366v-1366z" glyph-name="filledbox" horiz-adv-x="1366" unicode="■"/><glyph d="M1366 0h-1366v1366h1366v-1366zM1270 96v1174h-1174v-1174h1174z" glyph-name="H22073" horiz-adv-x="1366" unicode="□"/><glyph d="M43 989h244v240h125v-240h245v-117h-245v-239h-125v239h-244v117z" glyph-name="H18551" horiz-adv-x="700" unicode="▫"/><glyph d="M1366 682v-682h-1366v682h1366z" glyph-name="filledrect" horiz-adv-x="1366" unicode="▬"/><glyph d="M1024 0h-682v1366h682v-1366z" glyph-name="uni25AE" horiz-adv-x="1366" unicode="▮"/><glyph d="M684 1206q219 0 376 -152.5t157 -369.5t-157 -371.5t-376 -154.5q-225 0 -379.5 154.5t-154.5 377.5q0 213 157.5 364.5t376.5 151.5z" glyph-name="uni25AF" horiz-adv-x="1366" unicode="▯"/><glyph d="M1296 137h-1228l614 1149z" glyph-name="triagup" horiz-adv-x="1366" unicode="▲"/><glyph d="M954 301h-886l444 829z" glyph-name="uni25B4" unicode="▴"/><glyph d="M145 244v886l830 -444z" glyph-name="uni25B8" unicode="▸"/><glyph d="M68 1229h1228l-614 -1149z" glyph-name="triagdn" horiz-adv-x="1366" unicode="▼"/><glyph d="M68 1065h886l-442 -829z" glyph-name="uni25BE" unicode="▾"/><glyph d="M877 1130v-886l-830 442z" glyph-name="uni25C2" unicode="◂"/><glyph d="M684 1419l530 -735l-530 -737l-532 737zM684 1237l-403 -553l403 -555l403 555z" glyph-name="lozenge" horiz-adv-x="1366" unicode="◊"/><glyph d="M684 1206q219 0 376 -152.5t157 -369.5t-157 -371.5t-376 -154.5q-225 0 -379.5 154.5t-154.5 377.5q0 213 157.5 364.5t376.5 151.5zM684 1112q-180 0 -309 -125t-129 -299q0 -182 127 -309t311 -127q180 0 308 127t128 305q0 176 -128 302t-308 126z" glyph-name="circle" horiz-adv-x="1366" unicode="○"/><glyph d="M0 0v1366h1366v-1366h-1366zM688 969q-121 0 -204 -83t-83 -204q0 -117 83 -201t200 -84t199 84t82 203q0 117 -82 201t-195 84z" glyph-name="invbullet" horiz-adv-x="1366" unicode="◘"/><glyph d="M684 1112q180 0 308 -126t128 -302q0 -178 -128 -305t-308 -127q-184 0 -311 127t-127 309q0 174 129 299t309 125zM1366 0h-1366v1366h1366v-1366zM684 1208q-219 0 -376.5 -151.5t-157.5 -364.5q0 -225 154.5 -379.5t379.5 -154.5q219 0 376 154.5t157 371.5 t-157 370.5t-376 153.5z" glyph-name="invcircle" horiz-adv-x="1366" unicode="◙"/><glyph d="M518 981q113 0 195 -84t82 -201q0 -119 -82 -202.5t-199 -83.5t-200 84t-83 200q0 121 83 204t204 83zM516 883q-78 0 -133 -54.5t-55 -134.5q0 -76 55 -131t131 -55t130 54t54 132q0 76 -54 132.5t-128 56.5z" glyph-name="openbullet" unicode="◦"/><glyph d="M494 952q35 0 61.5 -26.5t26.5 -63.5t-27 -63.5t-63.5 -26.5t-63.5 26.5t-27 63.5q0 39 27 64.5t66 25.5zM889 952q35 0 61.5 -26.5t26.5 -63.5t-26.5 -63.5t-63.5 -26.5t-63.5 26.5t-26.5 63.5q0 39 26.5 64.5t65.5 25.5zM1106 762q-8 -123 -30.5 -194.5t-71.5 -135.5 q-115 -143 -320 -143q-223 0 -336 168q-41 59 -58.5 123.5t-27.5 181.5q25 -111 86 -182q125 -143 336 -144q209 0 338 144q59 71 84 182zM694 1331q260 0 448.5 -191.5t188.5 -455.5q0 -268 -189.5 -458.5t-457.5 -190.5q-270 0 -459.5 190.5t-189.5 462.5 q0 268 192.5 455.5t466.5 187.5zM692 1245q-258 0 -426 -186q-145 -162 -145 -371q0 -238 164 -402.5t399 -164.5q233 0 398 165t165 398q0 229 -165 395t-390 166z" glyph-name="smileface" horiz-adv-x="1366" unicode="☺"/><glyph d="M694 1331q260 0 448.5 -191.5t188.5 -457.5q0 -268 -190.5 -457.5t-456.5 -189.5q-270 0 -459.5 190.5t-189.5 462.5q0 268 192.5 455.5t466.5 187.5zM492 952q-37 0 -64 -25.5t-27 -64.5q0 -37 26 -63.5t65 -26.5q37 0 62.5 26.5t25.5 63.5t-26.5 63.5t-61.5 26.5z M889 952q-39 0 -65.5 -25.5t-26.5 -64.5q0 -37 26.5 -63.5t63.5 -26.5t63.5 26.5t26.5 63.5t-26.5 63.5t-61.5 26.5zM1106 762q-27 -113 -84 -182q-129 -143 -338 -144q-211 0 -336 144q-59 68 -86 182q10 -127 31.5 -197.5t73.5 -132.5q115 -143 317 -143q225 0 338 168 q72 108 84 305z" glyph-name="invsmileface" horiz-adv-x="1366" unicode="☻"/><glyph d="M326 967l-154 153l72 72l153 -154q100 82 234 99v215h102v-215q135 -16 232 -97l153 152l72 -72l-152 -153q78 -94 97 -232h215v-104h-215q-18 -131 -97 -234l152 -151l-72 -72l-153 152q-102 -82 -232 -97v-215h-102v215q-123 12 -234 97l-153 -152l-72 72l152 151 q-82 104 -95 234h-215v104h215q15 130 97 232zM688 1010q-139 0 -236.5 -94.5t-97.5 -229.5q0 -137 95.5 -233.5t232.5 -96.5q135 0 230.5 96.5t95.5 231.5q0 131 -95.5 228.5t-224.5 97.5z" glyph-name="sun" horiz-adv-x="1366" unicode="☼"/><glyph d="M631 428v215q-139 20 -228.5 125.5t-89.5 247.5q0 156 107.5 265.5t259.5 109.5q154 0 262.5 -110t108.5 -265q0 -143 -90.5 -246.5t-231.5 -126.5v-215h334v-88h-334v-340h-98v340h-330v88h330zM686 1294q-117 0 -196.5 -80.5t-79.5 -197.5q0 -115 79.5 -196t192.5 -81 t192.5 81t79.5 195.5t-78.5 196.5t-189.5 82z" glyph-name="female" horiz-adv-x="1366" unicode="♀"/><glyph d="M1167 1022l-311 -309q74 -100 74 -226q0 -154 -108.5 -263t-260 -109t-260 109.5t-108.5 264.5q0 154 108.5 263.5t259.5 109.5q125 0 230 -80l309 310q-106 25 -217 82q-43 23 -43 47t26 24q6 0 41 -6q84 -18 170 -18q117 0 215 28l21 2q20 0 20 -20q0 -8 -10 -47 q-20 -82 -20 -178q0 -88 18 -172q6 -35 6 -41q0 -27 -24 -27q-14 0 -21.5 7t-26.5 36q-63 90 -88 213zM565 766q-117 0 -196.5 -80t-79.5 -197q0 -115 80 -195.5t192.5 -80.5t192.5 81t80 195.5t-79 195.5t-190 81z" glyph-name="male" horiz-adv-x="1366" unicode="♂"/><glyph d="M221 0v37q143 29 209 59.5t129 100.5q106 123 115 325q-25 -53 -27 -57q-41 -68 -114.5 -110t-155.5 -42q-100 0 -173 76t-73 180q0 166 213 346q291 236 336 490q53 -164 105.5 -239.5t203.5 -215.5q150 -137 199 -211.5t49 -171.5q0 -106 -72.5 -179t-177.5 -73 q-172 0 -287 207q12 -221 120 -333.5t343 -151.5v-37h-942z" glyph-name="spade" horiz-adv-x="1366" unicode="♠"/><glyph d="M1149 0h-932v37q231 33 342 161t111 363q-45 -78 -70 -106q-55 -72 -136 -113t-163 -41q-121 0 -208 91t-87 220q0 127 79 214t191 87q39 0 68 -9t109 -50q-72 109 -72 205q0 121 89 207t214 86t213 -86t88 -207q0 -96 -72 -205q82 41 109 50t68 9q113 0 191.5 -87 t78.5 -214q0 -131 -87 -221t-212 -90q-76 0 -156 39t-131 102q-35 43 -78 119q4 -133 31 -217t90 -156q66 -66 128.5 -95.5t203.5 -55.5v-37z" glyph-name="club" horiz-adv-x="1366" unicode="♣"/><glyph d="M680 -23q-33 137 -106.5 263.5t-274.5 394.5q-111 152 -147.5 231.5t-36.5 167.5q0 115 76.5 195t187.5 80q156 0 246 -140q27 -39 55 -127q76 268 301 269q113 0 191.5 -79t78.5 -190q0 -102 -49 -205.5t-176 -263.5q-293 -367 -346 -596z" glyph-name="heart" horiz-adv-x="1366" unicode="♥"/><glyph d="M682 1419q45 -96 228.5 -354t291.5 -381q-145 -174 -289.5 -378t-230.5 -359q-145 276 -518 737q368 463 518 735z" glyph-name="diamond" horiz-adv-x="1366" unicode="♦"/><glyph d="M627 319v1047h94v-125q29 -37 31 -37l106 -129q186 -219 186 -461q0 -186 -116 -331h-58q68 158 68 305q0 133 -64.5 237.5t-152.5 116.5v-623q0 -147 -87 -242t-224 -95q-66 0 -104 32.5t-38 91.5q0 92 75 164t173 72q60 0 111 -23z" glyph-name="musicalnote" horiz-adv-x="1366" unicode="♪"/><glyph d="M1262 1421v-1028q0 -94 -35 -166q-39 -78 -114 -124t-163 -46q-66 0 -102.5 33t-36.5 90q0 94 75 165t171 71q59 0 110 -23v553l-673 -184v-483q0 -145 -87.5 -239.5t-224.5 -94.5q-66 0 -103.5 32.5t-37.5 90.5q0 90 74.5 160.5t173.5 70.5q53 0 110 -20v923zM494 918 l673 184v143l-673 -184v-143z" glyph-name="uni266C" horiz-adv-x="1366" unicode="♬"/><glyph d="M307 989v-1014q0 -141 -6 -189t-29 -87q-51 -96 -215 -96q-27 0 -75 6v137q41 -6 59 -6q49 0 70.5 14.5t27.5 49t6 169.5v1016h162z" glyph-name="uniF6BE" horiz-adv-x="448" unicode=""/><glyph d="M602 -123v-133q0 -211 -178 -231v69q86 20 94 125h-94v170h178z" glyph-name="uniF6C3" unicode=""/><glyph d="M793 1735l-238 -260h-133l156 260h215z" glyph-name="uniF6C9" unicode=""/><glyph d="M211 1731h184l123 -166l127 166h168l-197 -254h-204z" glyph-name="uniF6CA" unicode=""/><glyph d="M811 1698v-189h-178v189h178zM391 1698v-189h-178v189h178z" glyph-name="uniF6CB" unicode=""/><glyph d="M231 1735h215l156 -260h-133z" glyph-name="uniF6CE" unicode=""/><glyph d="M901 1735l-182 -260h-121l115 260h188zM588 1735l-182 -260h-121l114 260h189z" glyph-name="uniF6CF" unicode=""/><glyph d="M836 1651v-117h-646v117h646z" glyph-name="uniF6D0" unicode=""/><glyph d="M250 686v-84q0 -115 -34 -172t-116 -78v66q72 20 76 129h-76v139h150z" glyph-name="uniF6E2" horiz-adv-x="348" unicode=""/><glyph d="M250 692v-145h-154v145h154z" glyph-name="uniF6E8" horiz-adv-x="348" unicode=""/><glyph d="M158 1366h489q156 0 254 -30.5t180 -104.5q201 -178 201 -520q0 -362 -192 -559q-84 -86 -175.5 -119t-246.5 -33h-510v1366zM338 1208v-1050h295q139 0 210.5 22.5t127.5 85.5q129 143 129 439q0 504 -449 503h-313zM834 1747h96q-14 -131 -92 -200.5t-209 -69.5 q-133 0 -212 71.5t-83 198.5h96q37 -139 207 -139q82 0 128 32.5t69 106.5z" glyph-name="glyph481" horiz-adv-x="1372"/><glyph d="M752 1370l532 -1370h-199l-153 420h-574l-155 -420h-191l537 1370h203zM879 565l-136 363q-72 193 -96 276q-10 -31 -22.5 -64.5t-18.5 -49.5q-20 -43 -57 -154l-137 -371h467zM737 1698v-189h-178v189h178z" glyph-name="glyph482" horiz-adv-x="1296"/><glyph d="M1055 1366v-158h-717v-432h631v-145h-631v-631h-180v1366h897zM713 1698v-189h-178v189h178z" glyph-name="glyph483" horiz-adv-x="1097"/><glyph d="M993 131v-127q-55 -20 -114 -20q-68 0 -105 38.5t-37 108.5q-139 -160 -358 -160q-147 0 -232.5 76t-85.5 205q0 197 187 270q47 20 89 27.5t216 30.5q98 10 136 38.5t38 92.5q0 172 -223 172q-119 0 -176.5 -48.5t-67.5 -154.5h-160q4 160 114 249t302 89q209 0 309 -96 q68 -68 68 -234q0 -100 -6 -407q-2 -27 -2 -60q0 -55 14 -77.5t51 -22.5q20 0 43 10zM729 367v147q-33 -25 -74 -36t-145 -23q-143 -18 -197 -47q-84 -43 -84 -142q0 -78 53.5 -123t143.5 -45q176 0 272 133q31 44 31 136zM842 1399l-162 -273h-102l90 273h174zM569 1399 l-161 -273h-103l90 273h174z" glyph-name="glyph484" horiz-adv-x="1036"/><glyph d="M993 131v-127q-55 -20 -114 -20q-68 0 -105 38.5t-37 108.5q-139 -160 -358 -160q-147 0 -232.5 76t-85.5 205q0 197 187 270q47 20 89 27.5t216 30.5q98 10 136 38.5t38 92.5q0 172 -223 172q-119 0 -176.5 -48.5t-67.5 -154.5h-160q4 160 114 249t302 89q209 0 309 -96 q68 -68 68 -234q0 -100 -6 -407q-2 -27 -2 -60q0 -55 14 -77.5t51 -22.5q20 0 43 10zM729 367v147q-33 -25 -74 -36t-145 -23q-143 -18 -197 -47q-84 -43 -84 -142q0 -78 53.5 -123t143.5 -45q176 0 272 133q31 44 31 136zM592 1368v-194h-174v194h174z" glyph-name="glyph485" horiz-adv-x="1036"/><glyph d="M365 1366v-561h-99v395h-39h-43h-47h-28v66q86 -2 125.5 20.5t56.5 79.5h74z" glyph-name="one.numr" horiz-adv-x="536"/><glyph d="M481 881v-76h-426q4 86 45 138t146 106q90 49 117.5 77.5t27.5 71.5t-30.5 69.5t-81.5 26.5q-111 0 -113 -139h-92v21q0 86 57 138t151.5 52t149.5 -45t55 -123q0 -63 -39.5 -107t-152.5 -104q-68 -35 -93.5 -56.5t-39.5 -49.5h319z" glyph-name="two.numr" horiz-adv-x="536"/><glyph d="M150 1174h-89q4 193 207 192q86 0 139.5 -41t53.5 -108q0 -72 -72 -111q98 -39 98 -131q0 -82 -61 -131t-162 -49q-98 0 -157.5 49t-59.5 129v18h90q4 -125 129 -125q55 0 91 28t36 73q0 96 -135 96q-27 0 -45 -4v74q16 -2 35 -3q117 0 117 82q0 37 -27 58.5t-74 21.5 q-110 1 -114 -118z" glyph-name="three.numr" horiz-adv-x="536"/><glyph d="M487 1010v-72h-81v-133h-89v133h-274v72l289 356h74v-356h81zM324 1006v245l-199 -245h199z" glyph-name="four.numr" horiz-adv-x="536"/><glyph d="M451 1354v-76h-254l-21 -125q53 16 103 16q92 0 149 -49t57 -129q0 -86 -63.5 -141t-161.5 -55q-90 0 -145.5 41t-65.5 114h94q25 -82 119 -82q53 0 90 34t37 85t-36 84t-93 33q-74 0 -117 -51l-77 2l61 299h324z" glyph-name="five.numr" horiz-adv-x="536"/><glyph d="M473 1229h-92q-20 66 -96 65q-123 0 -140 -176q55 53 148 53q88 0 143.5 -50t55.5 -132q0 -86 -59.5 -140t-153.5 -54q-225 0 -226 278q0 143 60.5 219t175.5 76q155 0 184 -139zM279 1098q-55 0 -88 -31t-33 -82q0 -53 33.5 -86t87 -33t86 32t32.5 85q0 51 -32.5 83 t-85.5 32z" glyph-name="six.numr" horiz-adv-x="536"/><glyph d="M485 1354v-70l-8 -8l-24 -25q-178 -184 -207 -446h-101q8 117 73 245t163 224h-315v80h419z" glyph-name="seven.numr" horiz-adv-x="536"/><glyph d="M145 1106q-72 37 -71 113q0 66 54 106.5t140 40.5t140.5 -41t54.5 -104q0 -74 -72 -115q96 -37 96 -133q0 -82 -60 -130t-161 -48q-96 0 -155.5 47t-59.5 125q0 94 94 139zM268 1294q-45 0 -71.5 -21.5t-26.5 -58.5q0 -35 26.5 -56t71.5 -21t72 21.5t27 58.5q0 35 -27 56 t-72 21zM270 1069q-55 0 -89 -27.5t-34 -70.5q0 -45 35 -74t88 -29q55 0 89 28t34 73t-35 72.5t-88 27.5z" glyph-name="eight.numr" horiz-adv-x="536"/><glyph d="M59 936h91q23 -68 106 -68q117 0 131 179q-53 -57 -143 -58q-88 0 -143.5 51.5t-55.5 133.5q0 84 59.5 138t153.5 54q223 0 223 -272q0 -143 -60.5 -221t-168.5 -78q-164 0 -193 141zM258 1294q-53 0 -86 -32.5t-33 -85.5q0 -51 32 -82t85 -31t86 30.5t33 80.5 q0 53 -33 86.5t-84 33.5z" glyph-name="nine.numr" horiz-adv-x="536"/><glyph d="M268 1366q133 0 185 -100q31 -61 30 -193q0 -145 -51 -211.5t-162 -66.5q-115 0 -167 66.5t-52 211.5q0 133 31 193q51 100 186 100zM268 1294q-70 0 -96.5 -48t-26.5 -171q0 -113 29 -161t94.5 -48t93 49.5t27.5 161.5q0 119 -27.5 168t-93.5 49z" glyph-name="zero.numr" horiz-adv-x="536"/><glyph d="M365 559v-559h-99v393h-39h-43h-47h-28v66q86 -2 125.5 20.5t56.5 79.5h74z" glyph-name="one.dnom" horiz-adv-x="536"/><glyph d="M481 76v-76h-426q4 86 45 138t146 108q90 47 117.5 75.5t27.5 71.5t-30.5 69.5t-81.5 26.5q-111 0 -113 -139h-92v21q0 86 57 138t151.5 52t149.5 -45t55 -123q0 -63 -39.5 -107t-152.5 -104q-68 -35 -93.5 -55.5t-39.5 -50.5h319z" glyph-name="two.dnom" horiz-adv-x="536"/><glyph d="M150 367h-89q4 193 207 192q86 0 139.5 -41t53.5 -108q0 -72 -72 -111q98 -33 98 -129q0 -82 -61 -131t-162 -49q-98 0 -157.5 49t-59.5 129v18h90q4 -125 129 -125q55 0 91 28t36 73q0 94 -135 94q-27 0 -45 -2v72q16 -2 35 -2q117 0 117 82q0 37 -27 58t-74 21 q-110 1 -114 -118z" glyph-name="three.dnom" horiz-adv-x="536"/><glyph d="M444 205v-72h-84v-133h-88v133h-272v72l289 354h71v-354h84zM281 201v243l-199 -243h199z" glyph-name="four.dnom" horiz-adv-x="536"/><glyph d="M451 549v-76h-254l-31 -129q43 20 110 21q94 0 151.5 -49.5t57.5 -129.5q0 -86 -63.5 -141t-161.5 -55q-90 0 -145.5 41t-65.5 114h94q25 -82 117 -82q55 0 92 34t37 85t-36 84t-93 33q-74 0 -117 -51l-77 2l61 299h324z" glyph-name="five.dnom" horiz-adv-x="536"/><glyph d="M473 424h-92q-20 66 -96 65q-123 0 -140 -176q59 53 147.5 53.5t144 -50t55.5 -132.5q0 -86 -59.5 -140t-153.5 -54q-225 0 -226 278q0 141 60.5 217t173.5 76q155 0 186 -137zM279 293q-55 0 -88 -31t-33 -82q0 -53 33.5 -86t87 -33t86 32t32.5 85q0 51 -32.5 83 t-85.5 32z" glyph-name="six.dnom" horiz-adv-x="536"/><glyph d="M485 549v-70l-8 -8l-24 -25q-178 -184 -207 -446h-101q8 119 72 247t164 222h-315v80h419z" glyph-name="seven.dnom" horiz-adv-x="536"/><glyph d="M145 299q-72 37 -71 113q0 66 54 106.5t140 40.5t140.5 -40t54.5 -103q0 -76 -72 -117q96 -37 96 -131q0 -82 -59 -130t-162 -48q-96 0 -155.5 47t-59.5 125q0 92 94 137zM268 487q-45 0 -71.5 -21.5t-26.5 -57.5q0 -35 26.5 -56.5t71.5 -21.5t72 21.5t27 58.5 q0 35 -27 56t-72 21zM270 262q-55 0 -89 -27.5t-34 -70.5q0 -45 35 -73t88 -28q55 0 89 28t34 73q0 43 -35 70.5t-88 27.5z" glyph-name="eight.dnom" horiz-adv-x="536"/><glyph d="M59 131h91q23 -68 106 -68q117 0 131 179q-53 -57 -143 -58q-88 0 -143.5 51.5t-55.5 131.5q0 86 59.5 139t153.5 53q223 0 223 -272q0 -141 -60.5 -219t-168.5 -78q-164 0 -193 141zM258 487q-53 0 -86 -31.5t-33 -84.5q0 -51 32 -82t85 -31t86 29.5t33 81.5 q0 53 -33 85.5t-84 32.5z" glyph-name="nine.dnom" horiz-adv-x="536"/><glyph d="M268 559q133 0 185 -100q31 -61 30 -193q0 -143 -51 -209.5t-162 -66.5q-115 0 -167 65.5t-52 210.5q0 133 31 193q51 100 186 100zM268 487q-70 0 -96.5 -47t-26.5 -172q0 -111 29 -159t94.5 -48t93 48.5t27.5 160.5q0 119 -27.5 168t-93.5 49z" glyph-name="zero.dnom" horiz-adv-x="536"/><glyph d="M487 1366v-819h-127v583h-55h-59h-66h-35v87q113 -2 169.5 31.5t78.5 117.5h94zM1327 1350l-776 -1350h-115l783 1350h108zM1522 819v-819h-127v584h-56h-59h-66h-34v86q113 -2 169 31.5t78 117.5h95z" glyph-name="one_slash_one.frac" horiz-adv-x="1757"/><glyph d="M487 1366v-819h-127v583h-55h-59h-66h-35v87q113 -2 169.5 31.5t78.5 117.5h94zM1327 1350l-776 -1350h-115l783 1350h108zM1640 803v-101h-348l-28 -141q-10 -45 -11 -51q-2 -2 -6 -18q70 49 162 49q125 0 202 -75t77 -196q0 -127 -85 -206.5t-219 -79.5 q-129 0 -204.5 65.5t-79.5 179.5h117q6 -68 52 -108.5t115 -40.5q78 0 130.5 52t52.5 130q0 82 -51.5 132t-133.5 50q-102 0 -161 -77l-99 4l82 432h436z" glyph-name="one_slash_five.frac" horiz-adv-x="1757"/><glyph d="M649 645v-100h-573q8 123 63.5 198.5t194.5 153.5q121 70 161 115t40 110.5t-44.5 106.5t-113.5 41q-154 0 -160 -205h-117q0 145 73 224t210 79q123 0 197.5 -66.5t74.5 -177.5q0 -94 -55 -158.5t-209 -152.5q-98 -53 -135 -86t-55 -82h448zM1327 1350l-776 -1350h-115 l781 1350h110zM1638 803v-101h-348l-28 -141q-10 -45 -11 -51q-2 -2 -6 -18q70 49 162 49q125 0 202 -75t77 -196q0 -127 -85 -206.5t-219 -79.5q-129 0 -204.5 65.5t-79.5 179.5h116q6 -68 52.5 -108.5t115.5 -40.5q78 0 130.5 52t52.5 130q0 82 -51.5 132t-133.5 50 q-102 0 -161 -77l-99 4l82 432h436z" glyph-name="two_slash_five.frac" horiz-adv-x="1755"/><glyph d="M195 1092h-115q4 133 76.5 203.5t203.5 70.5q115 0 186.5 -59.5t71.5 -155.5q0 -109 -104 -168q141 -53 141 -192q0 -117 -83 -189t-218 -72q-133 0 -213 71t-80 190v20h115q6 -182 180 -182q78 0 128.5 43t50.5 108q0 72 -49.5 110t-139.5 38q-12 0 -57 -4v96 q23 -2 43 -2q78 0 122 33.5t44 93.5q0 55 -40 89t-104 34q-155 0 -159 -176zM1327 1350l-776 -1350h-117l783 1350h110zM1638 803v-101h-348l-28 -141q-10 -45 -11 -51q-2 -2 -6 -18q70 49 162 49q125 0 202 -75t77 -196q0 -127 -85 -206.5t-219 -79.5q-129 0 -204.5 65.5 t-79.5 179.5h116q6 -68 52.5 -108.5t115.5 -40.5q78 0 130.5 52t52.5 130q0 82 -51.5 132t-133.5 50q-102 0 -161 -77l-99 4l82 432h436z" glyph-name="three_slash_five.frac" horiz-adv-x="1755"/><glyph d="M657 838v-97h-116v-194h-111v194h-375v101l391 524h95v-528h116zM430 838v221q0 92 2 143q-4 -6 -16.5 -23.5t-18.5 -27.5q-45 -66 -49 -70l-110 -147q-45 -57 -78 -96h86h184zM1327 1350l-776 -1350h-115l781 1350h110zM1638 803v-101h-348l-28 -141q-10 -45 -11 -51 q-2 -2 -6 -18q70 49 162 49q125 0 202 -75t77 -196q0 -127 -85 -206.5t-219 -79.5q-129 0 -204.5 65.5t-79.5 179.5h116q6 -68 52.5 -108.5t115.5 -40.5q78 0 130.5 52t52.5 130q0 82 -51.5 132t-133.5 50q-102 0 -161 -77l-99 4l82 432h436z" glyph-name="four_slash_five.frac" horiz-adv-x="1757"/><glyph d="M487 1366v-819h-127v583h-55h-59h-66h-35v87q113 -2 169.5 31.5t78.5 117.5h94zM1327 1350l-776 -1350h-115l783 1350h108zM1673 596h-117q-18 127 -141 127q-174 0 -192 -281q74 86 202 86q121 0 196 -71.5t75 -190.5q0 -125 -80 -203.5t-207 -78.5q-305 0 -305 407 q0 207 82 317.5t235 110.5q113 0 178.5 -58.5t73.5 -164.5zM1409 432q-78 0 -124 -46t-46 -124q0 -80 47 -130t123 -50q74 0 120 49t46 127t-45 126t-121 48z" glyph-name="one_slash_six.frac" horiz-adv-x="1755"/><glyph d="M606 1350v-101h-348l-29 -143q-10 -41 -10 -49q-2 -2 -6 -19q70 49 162 49q123 0 200.5 -75.5t77.5 -194.5q0 -127 -85 -207t-218 -80q-127 0 -205.5 68t-78.5 178h116q6 -68 52.5 -108.5t115.5 -40.5q78 0 130 52t52 130q0 82 -51 132t-133 50q-102 0 -162 -80l-98 7 l82 432h436zM1327 1350l-776 -1350h-115l783 1350h108zM1673 596h-117q-18 127 -141 127q-174 0 -192 -281q74 86 202 86q121 0 196 -71.5t75 -190.5q0 -125 -80 -203.5t-207 -78.5q-305 0 -305 407q0 207 82 317.5t235 110.5q113 0 178.5 -58.5t73.5 -164.5zM1409 432 q-78 0 -124 -46t-46 -124q0 -80 47 -130t123 -50q74 0 120 49t46 127t-45 126t-121 48z" glyph-name="five_slash_six.frac" horiz-adv-x="1755"/><glyph d="M602 1698v-189h-178v189h178z" glyph-name="dotaccent.aalt"/><glyph d="M514 1882q88 0 151.5 -64.5t63.5 -152.5q0 -90 -63.5 -153.5t-153.5 -63.5q-92 0 -155.5 63.5t-63.5 155.5q0 90 64.5 152.5t156.5 62.5zM510 1784q-51 0 -86 -34t-35 -85q0 -49 35 -84t84 -35q51 0 87 35t36 84q0 47 -36 83t-85 36z" glyph-name="ring.aalt"/><glyph d="M813 1477h-184l-123 165l-127 -165h-168l197 254h204z" glyph-name="circumflex.aalt"/><glyph d="M715 1747h94q-12 -131 -90 -200.5t-211 -69.5t-211 71.5t-82 198.5h96q37 -139 205 -139q84 0 131.5 32.5t67.5 106.5z" glyph-name="breve.aalt"/><glyph d="M743 1718h95q-14 -102 -65.5 -158.5t-131.5 -56.5q-45 0 -199 58q-45 16 -75 16q-68 0 -91 -84h-92q12 102 64.5 156.5t136.5 54.5q41 0 71.5 -9t135.5 -53q31 -10 59 -10q69 0 92 86z" glyph-name="tilde.aalt"/><glyph d="M594 0l-88 -117q47 8 67 8q70 0 116 -37.5t46 -95.5q0 -78 -63.5 -127t-165.5 -49q-76 0 -187 39l33 72q61 -27 137 -27q45 0 72 21.5t27 58.5q0 31 -26.5 50.5t-69.5 19.5q-33 0 -74 -13l-31 35l123 162h84z" glyph-name="cedilla.aalt"/><glyph d="M881 0h102q-113 -86 -113 -164q0 -45 38 -72.5t98 -27.5q27 0 81 14v-90q-63 -18 -116 -18q-96 0 -156.5 46t-60.5 122q0 98 127 190z" glyph-name="ogonek.aalt"/><glyph d="M602 -123v-133q0 -211 -178 -231v69q86 20 94 125h-94v170h178z" glyph-name="uniF6C3.aalt"/><glyph d="M846 1366v-145q0 -137 -40 -191.5t-151 -68.5v69q63 14 85 45t22 109h-107v182h191z" glyph-name="glyph521"/><glyph d="M750 1698v-189h-179v189h179zM453 1698v-189h-179v189h179z" glyph-name="glyph522"/><glyph d="M819 1366v-133q0 -213 -178 -232v70q86 20 94 125h-94v170h178z" glyph-name="glyph523"/><glyph d="M733 1354v-195h-174v195h174zM467 1354v-195h-174v195h174z" glyph-name="glyph524"/><glyph d="M410 1126v134q0 211 178 231v-70q-86 -20 -94 -125h94v-170h-178z" glyph-name="glyph525"/><glyph d="M537 709v-68h-537v68h537zM270 1366q135 0 185 -100q31 -61 30 -193q0 -143 -52 -210.5t-163 -67.5q-115 0 -167 66.5t-52 211.5q0 133 31 193q51 100 188 100zM270 1294q-70 0 -97.5 -48t-27.5 -171q0 -113 29 -161t94.5 -48t94 49.5t28.5 161.5q0 119 -27.5 168 t-93.5 49zM270 559q135 0 185 -100q31 -59 30 -193q0 -143 -52 -209.5t-163 -66.5q-115 0 -167 65.5t-52 210.5q0 133 31 193q51 100 188 100zM270 487q-72 0 -98.5 -47t-26.5 -172q0 -111 29 -159t94.5 -48t94 48.5t28.5 160.5q0 119 -27.5 168t-93.5 49z" glyph-name="glyph526" horiz-adv-x="536"/><glyph d="M1268 1366l-578 -549l600 -817h-229l-496 694l-227 -215v-479h-180v1366h180v-539v-71v-70l45 45l13.5 13.5t16.5 17.5t15 14l602 590h238zM768 -109v-188h-178v188h178z" glyph-name="glyph527" horiz-adv-x="1273"/></font>
</defs>
</svg>
